<?xml version="1.0" encoding="utf-8"?>
<!-- Generator: Adobe Illustrator 18.1.1, SVG Export Plug-In . SVG Version: 6.00 Build 0)  -->
<!DOCTYPE svg PUBLIC "-//W3C//DTD SVG 1.1//EN" "http://www.w3.org/Graphics/SVG/1.1/DTD/svg11.dtd">
<svg version="1.1" id="Capa_1" xmlns="http://www.w3.org/2000/svg" xmlns:xlink="http://www.w3.org/1999/xlink" x="0px" y="0px"
	 width="32px" height="32px" viewBox="0 0 32 32" enable-background="new 0 0 32 32" xml:space="preserve">
<g>
	<rect x="0" fill-rule="evenodd" clip-rule="evenodd" fill="#F3B610" width="32" height="32"/>
	<path fill-rule="evenodd" clip-rule="evenodd" d="M10.8,23.5c-0.8,0-1.5-0.3-2-0.8c-1.1-1.1-1.1-3,0-4.1l8.8-8.9
		c0.7-0.7,1.6-1.1,2.6-1.1c1,0,1.9,0.4,2.6,1.1c0.7,0.7,1.1,1.7,1.1,2.7c0,1-0.4,2-1.1,2.7L16,22c-0.2,0.2-0.5,0.2-0.8,0
		c-0.2-0.2-0.2-0.6,0-0.8l6.9-7c0.5-0.5,0.8-1.2,0.8-1.9c0-0.7-0.3-1.4-0.8-1.9c-0.5-0.5-1.2-0.8-1.9-0.8c-0.7,0-1.4,0.3-1.9,0.8
		l-8.8,8.9c-0.7,0.7-0.7,1.8,0,2.6c0.7,0.7,1.8,0.7,2.5,0l5.9-6c0.2-0.2,0.3-0.4,0.3-0.6c0-0.2-0.1-0.5-0.3-0.6
		c-0.3-0.3-0.9-0.3-1.2,0l-4,4.1c-0.2,0.2-0.5,0.2-0.8,0c-0.2-0.2-0.2-0.6,0-0.8l4-4.1c0.7-0.8,2-0.8,2.7,0c0.4,0.4,0.6,0.9,0.6,1.4
		c0,0.5-0.2,1-0.6,1.4l-5.9,6C12.3,23.2,11.6,23.5,10.8,23.5z"/>
</g>
</svg>
