<?xml version="1.0" encoding="utf-8"?>
<!-- Generator: Adobe Illustrator 18.1.1, SVG Export Plug-In . SVG Version: 6.00 Build 0)  -->
<!DOCTYPE svg PUBLIC "-//W3C//DTD SVG 1.1//EN" "http://www.w3.org/Graphics/SVG/1.1/DTD/svg11.dtd">
<svg version="1.1" id="Capa_1" xmlns="http://www.w3.org/2000/svg" xmlns:xlink="http://www.w3.org/1999/xlink" x="0px" y="0px"
	 width="10px" height="8px" viewBox="0 0 10 8" enable-background="new 0 0 10 8" xml:space="preserve">
<path fill-rule="evenodd" clip-rule="evenodd" d="M9.9,1.2L8.8,0.1C8.6,0,8.4,0,8.3,0.1L3.7,4.9l-2-2c-0.1-0.1-0.3-0.1-0.5,0L0.1,4
	C0,4.1,0,4.3,0.1,4.5l3.3,3.4C3.5,7.9,3.6,8,3.7,8c0.1,0,0.2,0,0.2-0.1l6-6.1C10,1.7,10,1.6,10,1.5C10,1.4,10,1.3,9.9,1.2z"/>
</svg>
