<?xml version="1.0" encoding="utf-8"?>
<!-- Generator: Adobe Illustrator 18.1.1, SVG Export Plug-In . SVG Version: 6.00 Build 0)  -->
<svg version="1.1" id="Capa_1" xmlns="http://www.w3.org/2000/svg" xmlns:xlink="http://www.w3.org/1999/xlink" x="0px" y="0px"
	 width="15px" height="15px" viewBox="0 0 15 15" enable-background="new 0 0 15 15" xml:space="preserve">
<g>
	<path fill="#FFFFFF" d="M13.1,4.6c0,0.1,0,0.3,0,0.4c0,3.8-2.9,8.2-8.2,8.2c-1.6,0-3.2-0.5-4.4-1.3c0.2,0,0.5,0,0.7,0
		c1.3,0,2.6-0.5,3.6-1.2c-1.3,0-2.3-0.9-2.7-2c0.2,0,0.4,0,0.5,0c0.3,0,0.5,0,0.8-0.1C2,8.4,1,7.2,1,5.8c0,0,0,0,0,0
		C1.4,6,1.9,6.2,2.3,6.2C1.6,5.7,1.1,4.8,1.1,3.8c0-0.5,0.1-1,0.4-1.5c1.4,1.7,3.6,2.9,5.9,3c0-0.2-0.1-0.4-0.1-0.7
		c0-1.6,1.3-2.9,2.9-2.9c0.8,0,1.6,0.3,2.1,0.9C13,2.6,13.6,2.3,14.1,2c-0.2,0.7-0.7,1.2-1.3,1.6c0.6-0.1,1.1-0.2,1.7-0.4
		C14.1,3.7,13.7,4.2,13.1,4.6z"/>
</g>
</svg>
