<?xml version="1.0" encoding="utf-8"?>
<!-- Generator: Adobe Illustrator 18.1.1, SVG Export Plug-In . SVG Version: 6.00 Build 0)  -->
<svg version="1.1" id="Capa_1" xmlns="http://www.w3.org/2000/svg" xmlns:xlink="http://www.w3.org/1999/xlink" x="0px" y="0px"
	 width="15px" height="15px" viewBox="0 0 15 15" enable-background="new 0 0 15 15" xml:space="preserve">
<g>
	<path fill="#FFFFFF" d="M2.3,4L2.3,4c-1,0-1.6-0.7-1.6-1.5c0-0.9,0.7-1.5,1.7-1.5c1,0,1.6,0.7,1.6,1.5C4,3.3,3.3,4,2.3,4z
		 M3.8,14.1H0.8V5.2h2.9V14.1z M14.4,14.1h-2.9V9.3c0-1.2-0.4-2-1.5-2c-0.8,0-1.3,0.5-1.5,1.1C8.3,8.6,8.3,8.8,8.3,9.1v4.9H5.4
		c0-8,0-8.8,0-8.8h2.9v1.3h0C8.7,5.9,9.4,5,11,5c1.9,0,3.4,1.3,3.4,4V14.1z"/>
</g>
</svg>
