<?xml version="1.0" encoding="utf-8"?>
<!-- Generator: Adobe Illustrator 18.1.1, SVG Export Plug-In . SVG Version: 6.00 Build 0)  -->
<svg version="1.1" id="Capa_1" xmlns="http://www.w3.org/2000/svg" xmlns:xlink="http://www.w3.org/1999/xlink" x="0px" y="0px"
	 width="15px" height="15px" viewBox="0 0 15 15" enable-background="new 0 0 15 15" xml:space="preserve">
<g>
	<path fill="#FFFFFF" d="M9.5,11.3c0,0.5-0.2,1.1-0.4,1.5c-0.9,1.6-2.8,2.1-4.5,2.1c-1.3,0-3-0.3-3.7-1.6c-0.2-0.3-0.3-0.8-0.3-1.2
		c0-1,0.6-1.8,1.5-2.4c1-0.7,2.4-0.8,3.6-0.9C5.2,8.5,4.9,8.1,4.9,7.6c0-0.3,0.1-0.5,0.2-0.8c-0.2,0-0.4,0-0.6,0
		c-1.7,0-3.1-1.3-3.1-3c0-1,0.5-1.9,1.2-2.6c1-0.8,2.3-1.2,3.6-1.2h3.7L8.7,0.9H7.5c0.8,0.7,1.3,1.5,1.3,2.6c0,2.3-2.1,2.6-2.1,3.7
		C6.7,8.4,9.5,8.7,9.5,11.3z M8.2,12c0-1.2-1.2-1.9-2.1-2.6c-0.1,0-0.3,0-0.4,0c-1.5,0-3.6,0.5-3.6,2.3c0,1.7,1.9,2.4,3.3,2.4
		C6.8,14.1,8.2,13.6,8.2,12z M6.7,5.8c0.4-0.4,0.5-0.9,0.5-1.4c0-1.3-0.8-3.6-2.4-3.6c-0.5,0-1,0.3-1.3,0.6C3.1,1.8,3,2.4,3,2.9
		c0,1.3,0.8,3.4,2.4,3.4C5.9,6.3,6.4,6.1,6.7,5.8z M14.6,6.3v1h-1.9v2h-0.9v-2H9.8v-1h1.9V4.4h0.9v1.9H14.6z"/>
</g>
</svg>
