<?xml version="1.0" encoding="utf-8"?>
<!-- Generator: Adobe Illustrator 18.1.1, SVG Export Plug-In . SVG Version: 6.00 Build 0)  -->
<!DOCTYPE svg PUBLIC "-//W3C//DTD SVG 1.1//EN" "http://www.w3.org/Graphics/SVG/1.1/DTD/svg11.dtd">
<svg version="1.1" id="Capa_1" xmlns="http://www.w3.org/2000/svg" xmlns:xlink="http://www.w3.org/1999/xlink" x="0px" y="0px"
	 width="32px" height="32px" viewBox="0 0 32 32" enable-background="new 0 0 32 32" xml:space="preserve">
<rect x="0" fill-rule="evenodd" clip-rule="evenodd" fill="#F3B610" width="32" height="32"/>
<g>
	<path fill-rule="evenodd" clip-rule="evenodd" d="M22.9,17.4c0.5,0,0.9,0.4,0.9,0.9v4.8c0,0.5-0.4,0.9-0.9,0.9H9.1
		c-0.5,0-0.9-0.4-0.9-0.9v-4.8c0-0.5,0.4-0.9,0.9-0.9c0.5,0,0.9,0.4,0.9,0.9v3.9h12v-3.9C22,17.8,22.4,17.4,22.9,17.4z"/>
	<path fill-rule="evenodd" clip-rule="evenodd" d="M15.4,19.4l-3.6-3.6c-0.4-0.4-0.4-0.9,0-1.3c0.4-0.4,0.9-0.4,1.3,0l2.1,2.1V8.9
		C15.1,8.4,15.5,8,16,8s0.9,0.4,0.9,0.9v7.7l2.1-2.1c0.4-0.4,0.9-0.4,1.3,0c0.4,0.4,0.4,0.9,0,1.3l-3.6,3.6
		c-0.2,0.2-0.4,0.3-0.6,0.3S15.6,19.6,15.4,19.4z"/>
</g>
</svg>
