<?xml version="1.0" encoding="utf-8"?>
<!-- Generator: Adobe Illustrator 18.1.1, SVG Export Plug-In . SVG Version: 6.00 Build 0)  -->
<!DOCTYPE svg PUBLIC "-//W3C//DTD SVG 1.1//EN" "http://www.w3.org/Graphics/SVG/1.1/DTD/svg11.dtd">
<svg version="1.1" id="Capa_1" xmlns="http://www.w3.org/2000/svg" xmlns:xlink="http://www.w3.org/1999/xlink" x="0px" y="0px"
	 width="7.6px" height="20.2px" viewBox="0 0 7.6 20.2" enable-background="new 0 0 7.6 20.2" xml:space="preserve">
<path fill="#FFFFFF" d="M7.1,2.6C7.4,2.3,7.6,2,7.6,1.5S7.4,0.8,7.1,0.5C6.8,0.2,6.5,0,6,0C5.6,0,5.3,0.2,5,0.5
	C4.7,0.8,4.5,1.1,4.5,1.6C4.5,2,4.7,2.3,5,2.6S5.6,3,6,3C6.4,3,6.8,2.9,7.1,2.6 M1.4,15.1c-0.3,0.8-0.5,1.5-0.7,2
	c-0.2,0.5-0.2,1-0.2,1.5c0,0.6,0.1,1,0.3,1.2s0.6,0.4,1,0.4c0.5,0,1-0.1,1.5-0.4s1-0.6,1.4-1c0.4-0.4,0.8-0.8,1.1-1.3
	c0.3-0.5,0.6-0.9,0.8-1.3L6,15.8c-0.1,0.2-0.2,0.4-0.4,0.7S5.2,17,4.9,17.3c-0.2,0.3-0.5,0.5-0.7,0.7c-0.3,0.2-0.5,0.3-0.7,0.3
	c-0.2,0-0.3-0.1-0.4-0.2C3,18,2.9,17.9,2.9,17.8c0-0.1,0-0.3,0.1-0.4c0-0.2,0.1-0.4,0.1-0.5s0.1-0.4,0.2-0.5
	c0.1-0.2,0.1-0.3,0.1-0.4l0.9-2.4c0.4-1.2,0.8-2.2,1.1-3C5.7,9.7,5.8,9,5.8,8.6c0-0.6-0.1-1-0.3-1.3C5.3,7.1,5,7,4.6,7
	C4.2,7,3.8,7.1,3.3,7.3C2.8,7.6,2.4,7.9,2,8.3S1.1,9,0.8,9.5S0.2,10.3,0,10.6l0.7,0.4c0.1-0.1,0.2-0.3,0.3-0.5s0.3-0.4,0.6-0.7
	S2,9.4,2.2,9.3S2.6,9,2.8,9c0.1,0,0.2,0,0.2,0.1c0.1,0.1,0.1,0.2,0.1,0.4s0,0.5-0.1,0.9c-0.1,0.4-0.3,0.9-0.5,1.5L1.4,15.1z"/>
</svg>
