<?xml version="1.0" encoding="utf-8"?>
<!-- Generator: Adobe Illustrator 18.1.1, SVG Export Plug-In . SVG Version: 6.00 Build 0)  -->
<!DOCTYPE svg PUBLIC "-//W3C//DTD SVG 1.1//EN" "http://www.w3.org/Graphics/SVG/1.1/DTD/svg11.dtd">
<svg version="1.1" id="Capa_1" xmlns="http://www.w3.org/2000/svg" xmlns:xlink="http://www.w3.org/1999/xlink" x="0px" y="0px"
	 width="20px" height="20px" viewBox="0 0 20 20" enable-background="new 0 0 20 20" xml:space="preserve">
<path fill-rule="evenodd" clip-rule="evenodd" fill="#FFFFFF" d="M0.5,3.8C0.3,4.1,0.1,4.6,0.1,5.1v9.9c0,0.4,0.1,0.8,0.3,1.2l6.2-7
	L0.5,3.8z M12.4,10l-2,1.7c-0.1,0.1-0.3,0.2-0.4,0.2c-0.1,0-0.3-0.1-0.4-0.2l-2-1.7L1.3,17c0.4,0.2,0.8,0.4,1.3,0.4h14.8
	c0.5,0,0.9-0.1,1.3-0.4L12.4,10z M18.6,2.9c-0.4-0.2-0.7-0.3-1.2-0.3H2.6c-0.4,0-0.8,0.1-1.2,0.3l8.6,7.5L18.6,2.9z M19.9,14.9
	c0,0.4-0.1,0.8-0.3,1.2l-6.2-7l6.2-5.4c0.2,0.4,0.4,0.8,0.4,1.3V14.9z"/>
</svg>
