<?xml version="1.0" encoding="utf-8"?>
<!-- Generator: Adobe Illustrator 18.1.1, SVG Export Plug-In . SVG Version: 6.00 Build 0)  -->
<!DOCTYPE svg PUBLIC "-//W3C//DTD SVG 1.1//EN" "http://www.w3.org/Graphics/SVG/1.1/DTD/svg11.dtd">
<svg version="1.1" id="Capa_1" xmlns="http://www.w3.org/2000/svg" xmlns:xlink="http://www.w3.org/1999/xlink" x="0px" y="0px"
	 width="20px" height="20px" viewBox="0 0 20 20" enable-background="new 0 0 20 20" xml:space="preserve">
<path fill-rule="evenodd" clip-rule="evenodd" fill="#FFFFFF" d="M10,10c-1.8,0-3.3-1.5-3.3-3.3c0-1.8,1.5-3.3,3.3-3.3
	s3.3,1.5,3.3,3.3C13.3,8.5,11.8,10,10,10z M10,0.3c-3.5,0-6.4,2.9-6.4,6.4c0,1.4,0.9,3.8,2.8,7.1c1.3,2.4,2.6,4.4,2.7,4.4l0.9,1.4
	l0.9-1.4c0.1-0.1,1.3-2.1,2.7-4.4c1.9-3.4,2.8-5.7,2.8-7.1C16.4,3.2,13.5,0.3,10,0.3z"/>
</svg>
