<?xml version="1.0" encoding="utf-8"?>
<!-- Generator: Adobe Illustrator 18.1.1, SVG Export Plug-In . SVG Version: 6.00 Build 0)  -->
<!DOCTYPE svg PUBLIC "-//W3C//DTD SVG 1.1//EN" "http://www.w3.org/Graphics/SVG/1.1/DTD/svg11.dtd">
<svg version="1.1" id="Capa_1" xmlns="http://www.w3.org/2000/svg" xmlns:xlink="http://www.w3.org/1999/xlink" x="0px" y="0px"
	 width="20px" height="20px" viewBox="0 0 20 20" enable-background="new 0 0 20 20" xml:space="preserve">
<path fill-rule="evenodd" clip-rule="evenodd" fill="#FFFFFF" d="M19.5,15.8l-3.1-3.1c-0.6-0.6-1.6-0.6-2.3,0l-1.5,1.6
	c-0.1-0.1-0.2-0.1-0.3-0.2c-1-0.5-2.3-1.3-3.7-2.7C7.2,10,6.4,8.7,5.9,7.7C5.8,7.6,5.8,7.5,5.7,7.4l1-1l0.5-0.5
	c0.6-0.6,0.7-1.7,0-2.3L4.2,0.5C3.6-0.1,2.6-0.1,2,0.5L1.1,1.4l0,0C0.9,1.8,0.6,2.2,0.4,2.7C0.3,3.1,0.2,3.5,0.1,4
	c-0.4,3.4,1.1,6.5,5.3,10.7C11.2,20.4,15.8,20,16,20c0.4-0.1,0.9-0.2,1.3-0.3c0.5-0.2,0.9-0.4,1.3-0.7l0,0l0.9-0.9
	C20.1,17.4,20.1,16.4,19.5,15.8z"/>
</svg>
