<?xml version="1.0" encoding="utf-8"?>
<!-- Generator: Adobe Illustrator 20.1.0, SVG Export Plug-In . SVG Version: 6.00 Build 0)  -->
<svg version="1.1" id="Capa_1" xmlns="http://www.w3.org/2000/svg" xmlns:xlink="http://www.w3.org/1999/xlink" x="0px" y="0px"
	 width="28px" height="24px" viewBox="0 0 28 24" style="enable-background:new 0 0 28 24;" xml:space="preserve">
<style type="text/css">
	.st0{fill:#FFFFFF;}
</style>
<g>
	<path class="st0" d="M23.2,24c1.1,0,2.1-0.9,2.1-2.1V2.1c0-1.1-0.9-2.1-2.1-2.1h-3.1v12.4c0,0.3-0.4,0.5-0.6,0.3l-2.1-1.9
		c-0.1-0.1-0.4-0.1-0.5,0l-2.1,1.9c-0.2,0.2-0.6,0-0.6-0.3V0H6.7C5.5,0,4.6,0.9,4.6,2.1v2.6h-1c-0.8,0-1.5,0.7-1.5,1.5
		s0.7,1.5,1.5,1.5h1v2.9h-1c-0.8,0-1.5,0.7-1.5,1.5s0.7,1.5,1.5,1.5h1v2.9h-1c-0.8,0-1.5,0.7-1.5,1.5c0,0.8,0.7,1.5,1.5,1.5h1v2.6
		c0,1.1,0.9,2.1,2.1,2.1H23.2L23.2,24z"/>
</g>
</svg>
