<?xml version="1.0" encoding="utf-8"?>
<!-- Generator: Adobe Illustrator 18.1.1, SVG Export Plug-In . SVG Version: 6.00 Build 0)  -->
<!DOCTYPE svg PUBLIC "-//W3C//DTD SVG 1.1//EN" "http://www.w3.org/Graphics/SVG/1.1/DTD/svg11.dtd">
<svg version="1.1" id="Capa_1" xmlns="http://www.w3.org/2000/svg" xmlns:xlink="http://www.w3.org/1999/xlink" x="0px" y="0px"
	 width="28px" height="24px" viewBox="0 0 28 24" enable-background="new 0 0 28 24" xml:space="preserve">
<g>
	<path fill-rule="evenodd" clip-rule="evenodd" fill="#FFFFFF" d="M11.4,4.2C5.2,4.2,0.2,8,0.2,12.7c0,2.3,1.2,4.4,3.2,6
		c-0.1,1.6-0.5,3.5-1.6,4.5c2.2,0,4.4-1.4,5.8-2.4c1.2,0.3,2.4,0.5,3.7,0.5c6.1,0,11.1-3.8,11.1-8.6C22.5,8,17.5,4.2,11.4,4.2z"/>
	<path fill-rule="evenodd" clip-rule="evenodd" fill="#FFFFFF" d="M26.2,13.6c0.9-1.3,1.5-2.7,1.5-4.3c0-4.7-5-8.6-11.1-8.6
		c-2.7,0-5.2,0.7-7.1,2c0.9-0.2,1.9-0.3,2.8-0.3c6.6,0,12,4.2,12,9.4c0,2.1-0.8,4-2.2,5.5c1.4,1.1,3.6,2.4,5.8,2.4
		C26.2,18.3,26.1,15.1,26.2,13.6z"/>
</g>
</svg>
