<?xml version="1.0" encoding="utf-8"?>
<!-- Generator: Adobe Illustrator 18.1.1, SVG Export Plug-In . SVG Version: 6.00 Build 0)  -->
<!DOCTYPE svg PUBLIC "-//W3C//DTD SVG 1.1//EN" "http://www.w3.org/Graphics/SVG/1.1/DTD/svg11.dtd">
<svg version="1.1" id="Capa_1" xmlns="http://www.w3.org/2000/svg" xmlns:xlink="http://www.w3.org/1999/xlink" x="0px" y="0px"
	 width="20px" height="19.1px" viewBox="0 0 20 19.1" enable-background="new 0 0 20 19.1" xml:space="preserve">
<path fill-rule="evenodd" clip-rule="evenodd" fill="#FFFFFF" d="M8.2,13c-3,0-5.4-2.3-5.4-5.1c0-2.8,2.4-5.1,5.4-5.1
	c3,0,5.4,2.3,5.4,5.1C13.6,10.7,11.2,13,8.2,13z M19.5,16.4l-4.3-4.1c0,0-0.1,0-0.1-0.1c0.9-1.2,1.4-2.7,1.4-4.3
	c0-4.3-3.7-7.8-8.2-7.8S0,3.5,0,7.8c0,4.3,3.7,7.8,8.2,7.8c1.7,0,3.2-0.5,4.5-1.3c0,0,0,0,0.1,0.1l4.3,4.1c0.7,0.6,1.7,0.6,2.4,0
	C20.2,18,20.2,17,19.5,16.4z"/>
</svg>
