<?xml version="1.0" encoding="utf-8"?>
<!-- Generator: Adobe Illustrator 18.1.1, SVG Export Plug-In . SVG Version: 6.00 Build 0)  -->
<!DOCTYPE svg PUBLIC "-//W3C//DTD SVG 1.1//EN" "http://www.w3.org/Graphics/SVG/1.1/DTD/svg11.dtd">
<svg version="1.1" id="Capa_1" xmlns="http://www.w3.org/2000/svg" xmlns:xlink="http://www.w3.org/1999/xlink" x="0px" y="0px"
	 width="18px" height="18px" viewBox="3 -3 18 18" enable-background="new 3 -3 18 18" xml:space="preserve">
<g>
	<path fill="#FFFFFF" d="M14.3,10.6c0,0.6-0.2,1.3-0.5,1.8c-1.1,1.9-3.3,2.5-5.3,2.5c-1.5,0-3.6-0.4-4.4-1.9
		c-0.2-0.4-0.4-0.9-0.4-1.4c0-1.2,0.7-2.1,1.8-2.8c1.2-0.8,2.8-0.9,4.3-1.1C9.2,7.2,8.8,6.8,8.8,6.2c0-0.4,0.1-0.6,0.2-0.9
		c-0.2,0-0.5,0-0.7,0c-2,0-3.7-1.5-3.7-3.6c0-1.2,0.6-2.3,1.4-3.1c1.2-0.9,2.7-1.4,4.3-1.4h4.4l-1.4,1.1h-1.4
		c0.9,0.8,1.5,1.8,1.5,3.1c0,2.7-2.5,3.1-2.5,4.4C10.9,7.1,14.3,7.5,14.3,10.6z M12.7,11.4c0-1.4-1.4-2.3-2.5-3.1
		c-0.1,0-0.4,0-0.5,0C8,8.3,5.5,8.9,5.5,11c0,2,2.3,2.8,3.9,2.8C11.1,13.9,12.7,13.3,12.7,11.4z M10.9,4c0.5-0.5,0.6-1.1,0.6-1.7
		c0-1.5-0.9-4.3-2.8-4.3c-0.6,0-1.2,0.4-1.5,0.7C6.7-0.7,6.5,0,6.5,0.6c0,1.5,0.9,4,2.8,4C10,4.6,10.6,4.4,10.9,4z M20.3,4.6v1.2H18
		v2.4H17V5.8h-2.4V4.6h2.3V2.4h1.1v2.3H20.3z"/>
</g>
</svg>
