<?xml version="1.0" encoding="utf-8"?>
<!-- Generator: Adobe Illustrator 18.1.1, SVG Export Plug-In . SVG Version: 6.00 Build 0)  -->
<!DOCTYPE svg PUBLIC "-//W3C//DTD SVG 1.1//EN" "http://www.w3.org/Graphics/SVG/1.1/DTD/svg11.dtd">
<svg version="1.1" id="Capa_1" xmlns="http://www.w3.org/2000/svg" xmlns:xlink="http://www.w3.org/1999/xlink" x="0px" y="0px"
	 width="18px" height="18px" viewBox="3 -3 18 18" enable-background="new 3 -3 18 18" xml:space="preserve">
<g>
	<defs>
		<path id="SVGID_1_" d="M18.7,1.4L18.7,1.4c0,0.6-0.5,1.1-1.1,1.1h-1c-0.6,0-1.1-0.5-1.1-1.1V0.4c0-0.6,0.5-1.1,1.1-1.1h1
			c0.6,0,1.1,0.5,1.1,1.1V1.4z M18.7,11.6c0,0.6-0.6,1.1-1.2,1.1H6.5c-0.6,0-1.2-0.5-1.2-1.1V6.1C5.3,5.5,5.9,5,6.5,5h0.6
			C7.2,5,7.3,5,7.4,5.1c0.1,0.1,0.1,0.2,0.1,0.3c0,0.2,0,0.4,0,0.6c0,2.5,2,4.5,4.5,4.5c2.5,0,4.5-2,4.5-4.5c0-0.2,0-0.4,0-0.6
			c0-0.1,0-0.2,0.1-0.3C16.7,5,16.8,5,16.9,5h0.7c0.6,0,1.2,0.5,1.2,1.1L18.7,11.6L18.7,11.6L18.7,11.6z M12,3.4
			c1.4,0,2.6,1.2,2.6,2.6c0,1.4-1.2,2.6-2.6,2.6c-1.4,0-2.6-1.2-2.6-2.6C9.4,4.6,10.6,3.4,12,3.4z M18.6-2.8H5.4
			c-1.2,0-2.2,1-2.2,2.2v13.1c0,1.2,1,2.2,2.2,2.2h13.1c1.2,0,2.2-1,2.2-2.2V-0.6C20.8-1.8,19.8-2.8,18.6-2.8z"/>
	</defs>
	<use xlink:href="#SVGID_1_"  overflow="visible" fill-rule="evenodd" clip-rule="evenodd" fill="#FFFFFF"/>
	<clipPath id="SVGID_2_">
		<use xlink:href="#SVGID_1_"  overflow="visible"/>
	</clipPath>
</g>
</svg>
