<?xml version="1.0" encoding="utf-8"?>
<!-- Generator: Adobe Illustrator 18.1.1, SVG Export Plug-In . SVG Version: 6.00 Build 0)  -->
<!DOCTYPE svg PUBLIC "-//W3C//DTD SVG 1.1//EN" "http://www.w3.org/Graphics/SVG/1.1/DTD/svg11.dtd">
<svg version="1.1" id="Capa_1" xmlns="http://www.w3.org/2000/svg" xmlns:xlink="http://www.w3.org/1999/xlink" x="0px" y="0px"
	 width="18px" height="18px" viewBox="3 -3 18 18" enable-background="new 3 -3 18 18" xml:space="preserve">
<g>
	<path fill="#FFFFFF" d="M5.6,1.7L5.6,1.7c-1.2,0-2-0.9-2-1.8C3.6-1.3,4.5-2,5.7-2s2,0.9,2,1.8S6.8,1.7,5.6,1.7z M7.4,14H3.8V3.1
		h3.5V14H7.4z M20.4,14h-3.5V8.1c0-1.5-0.5-2.4-1.8-2.4c-1,0-1.6,0.6-1.8,1.3c-0.2,0.2-0.2,0.5-0.2,0.9v6H9.4c0-9.8,0-10.7,0-10.7
		h3.5v1.6l0,0c0.5-0.7,1.3-1.8,3.3-1.8c2.3,0,4.2,1.6,4.2,4.9V14z"/>
</g>
</svg>
