<?xml version="1.0" encoding="utf-8"?>
<!-- Generator: Adobe Illustrator 18.1.1, SVG Export Plug-In . SVG Version: 6.00 Build 0)  -->
<!DOCTYPE svg PUBLIC "-//W3C//DTD SVG 1.1//EN" "http://www.w3.org/Graphics/SVG/1.1/DTD/svg11.dtd">
<svg version="1.1" id="Capa_1" xmlns="http://www.w3.org/2000/svg" xmlns:xlink="http://www.w3.org/1999/xlink" x="0px" y="0px"
	 width="18px" height="18px" viewBox="3 -3 18 18" enable-background="new 3 -3 18 18" xml:space="preserve">
<g>
	<path fill="#FFFFFF" d="M12-3C9.4-3,3-3,3-3s0,6.7,0,9c0,5,4,9,9,9s9-4,9-9S17-3,12-3z M12,12.3c-3.5,0-6.3-2.8-6.3-6.3
		S8.5-0.3,12-0.3s6.3,2.8,6.3,6.3S15.5,12.3,12,12.3z"/>
	<path fill="#FFFFFF" d="M12,1.3C9.4,1.3,7.3,3.4,7.3,6s2.1,4.7,4.7,4.7c2.6,0,4.7-2.1,4.7-4.7S14.6,1.3,12,1.3z M12,8.4
		c-1.3,0-2.4-1.1-2.4-2.4s1.1-2.4,2.4-2.4s2.4,1.1,2.4,2.4S13.3,8.4,12,8.4z"/>
</g>
</svg>
