<?xml version="1.0" encoding="utf-8"?>
<!-- Generator: Adobe Illustrator 18.1.1, SVG Export Plug-In . SVG Version: 6.00 Build 0)  -->
<!DOCTYPE svg PUBLIC "-//W3C//DTD SVG 1.1//EN" "http://www.w3.org/Graphics/SVG/1.1/DTD/svg11.dtd">
<svg version="1.1" id="Capa_1" xmlns="http://www.w3.org/2000/svg" xmlns:xlink="http://www.w3.org/1999/xlink" x="0px" y="0px"
	 width="18px" height="18px" viewBox="3 -4 18 18" enable-background="new 3 -4 18 18" xml:space="preserve">
<path fill="#FFFFFF" d="M3.6-0.5C3.4-0.2,3.2,0.2,3.2,0.7v8.8c0,0.4,0.1,0.7,0.3,1.1l5.5-6.2L3.6-0.5z M14.1,5l-1.8,1.5
	C12.2,6.6,12,6.7,12,6.7c-0.1,0-0.3-0.1-0.4-0.2L9.8,5l-5.6,6.2c0.4,0.2,0.7,0.4,1.1,0.4h13.1c0.4,0,0.8-0.1,1.1-0.4L14.1,5z
	 M19.6-1.3c-0.4-0.2-0.6-0.3-1.1-0.3H5.4c-0.4,0-0.7,0.1-1.1,0.3L12,5.4L19.6-1.3z M20.7,9.3c0,0.4-0.1,0.7-0.3,1.1L15,4.2l5.5-4.8
	c0.2,0.4,0.4,0.7,0.4,1.1L20.7,9.3L20.7,9.3z"/>
</svg>
