<?xml version="1.0" encoding="utf-8"?>
<!-- Generator: Adobe Illustrator 18.1.1, SVG Export Plug-In . SVG Version: 6.00 Build 0)  -->
<svg version="1.1" id="Capa_1" xmlns="http://www.w3.org/2000/svg" xmlns:xlink="http://www.w3.org/1999/xlink" x="0px" y="0px"
	 width="18px" height="18px" viewBox="-1 2 18 18" enable-background="new -1 2 18 18" xml:space="preserve">
<g>
	<path fill="#FFFFFF" d="M14.5,16.2l-1.3,1.3c-0.5,0.5-1.1,0.7-1.8,0.7c-0.7,0-1.3-0.3-1.8-0.8l-1.8-1.8C7.3,15.2,7,14.5,7,13.9
		c0-0.7,0.3-1.4,0.8-1.9L7,11.2C6.5,11.7,5.8,12,5.1,12c-0.7,0-1.3-0.3-1.8-0.8L1.5,9.4C1,8.9,0.7,8.3,0.7,7.6
		c0-0.7,0.3-1.3,0.8-1.8l1.3-1.3C3.3,4,3.9,3.7,4.6,3.7c0.7,0,1.3,0.3,1.8,0.8l1.8,1.8C8.7,6.8,9,7.5,9,8.1C9,8.8,8.7,9.5,8.2,10
		L9,10.8c0.5-0.5,1.2-0.8,1.9-0.8c0.7,0,1.3,0.3,1.8,0.7l1.9,1.9c0.5,0.5,0.8,1.1,0.8,1.8C15.3,15.1,15,15.8,14.5,16.2z M7,7.5
		L5.2,5.7C5,5.5,4.8,5.4,4.6,5.4C4.4,5.4,4.2,5.5,4,5.7L2.7,7C2.5,7.1,2.4,7.3,2.4,7.6c0,0.2,0.1,0.4,0.3,0.6L4.5,10
		c0.2,0.2,0.4,0.2,0.6,0.2c0.3,0,0.5-0.1,0.6-0.3C5.5,9.7,5.1,9.5,5.1,9c0-0.5,0.4-0.9,0.9-0.9c0.5,0,0.7,0.3,1,0.6
		c0.2-0.2,0.3-0.4,0.3-0.7C7.3,7.9,7.2,7.7,7,7.5z M13.3,13.8L11.5,12c-0.2-0.2-0.4-0.3-0.6-0.3c-0.3,0-0.5,0.1-0.6,0.3
		c0.3,0.3,0.6,0.5,0.6,1c0,0.5-0.4,0.9-0.9,0.9c-0.5,0-0.7-0.3-1-0.6c-0.2,0.2-0.3,0.4-0.3,0.7c0,0.2,0.1,0.4,0.3,0.6l1.8,1.8
		c0.2,0.2,0.4,0.2,0.6,0.2c0.2,0,0.4-0.1,0.6-0.2l1.3-1.3c0.2-0.2,0.3-0.4,0.3-0.6C13.6,14.2,13.5,14,13.3,13.8z"/>
</g>
</svg>
