<?xml version="1.0" encoding="utf-8"?>
<!-- Generator: Adobe Illustrator 18.1.1, SVG Export Plug-In . SVG Version: 6.00 Build 0)  -->
<svg version="1.1" id="Capa_1" xmlns="http://www.w3.org/2000/svg" xmlns:xlink="http://www.w3.org/1999/xlink" x="0px" y="0px"
	 width="18px" height="18px" viewBox="-1 2 18 18" enable-background="new -1 2 18 18" xml:space="preserve">
<g>
	<path fill="#FFFFFF" d="M16,15.9c0,0.8-0.6,1.4-1.4,1.4H1.4c-0.8,0-1.4-0.6-1.4-1.4V6.1c0-0.8,0.6-1.4,1.4-1.4h13.1
		c0.8,0,1.4,0.6,1.4,1.4V15.9z M14.6,5.9H1.4C1.3,5.9,1.1,6,1.1,6.1c0,1,0.5,1.9,1.3,2.5c1.2,0.9,2.4,1.9,3.6,2.8
		c0.5,0.4,1.3,1.2,2,1.2h0h0c0.6,0,1.5-0.8,2-1.2c1.2-0.9,2.4-1.9,3.6-2.8c0.6-0.5,1.3-1.4,1.3-2.2C14.9,6.3,14.9,5.9,14.6,5.9z
		 M14.9,9c-0.2,0.2-0.4,0.4-0.6,0.6c-1.3,1-2.6,2-3.8,3c-0.7,0.6-1.5,1.3-2.4,1.3h0h0c-0.9,0-1.8-0.7-2.4-1.3c-1.2-1-2.5-2-3.8-3
		C1.5,9.4,1.3,9.2,1.1,9v6.9c0,0.2,0.1,0.3,0.3,0.3h13.1c0.2,0,0.3-0.1,0.3-0.3V9z"/>
</g>
</svg>
