<?xml version="1.0" encoding="utf-8"?>
<!-- Generator: Adobe Illustrator 18.1.1, SVG Export Plug-In . SVG Version: 6.00 Build 0)  -->
<svg version="1.1" id="Capa_1" xmlns="http://www.w3.org/2000/svg" xmlns:xlink="http://www.w3.org/1999/xlink" x="0px" y="0px"
	 width="18px" height="18px" viewBox="-1 2 18 18" enable-background="new -1 2 18 18" xml:space="preserve">
<g>
	<path fill="#FFFFFF" d="M15.4,15.3c0,0.2-0.1,0.3-0.3,0.3h-2V17c0,0.5-0.4,0.9-0.9,0.9H3.7c-0.5,0-0.9-0.4-0.9-0.9v-1.4h-2
		c-0.2,0-0.3-0.1-0.3-0.3v-3.7c0-0.9,0.8-1.7,1.7-1.7h0.6V5c0-0.5,0.4-0.9,0.9-0.9h6c0.5,0,1.1,0.3,1.5,0.6l1.4,1.4
		c0.3,0.3,0.6,1,0.6,1.5v2.3h0.6c0.9,0,1.7,0.8,1.7,1.7V15.3z M12,11V7.6h-1.4c-0.5,0-0.9-0.4-0.9-0.9V5.3H4V11H12z M12,16.7v-2.3H4
		v2.3H12z M13.7,11c-0.3,0-0.6,0.3-0.6,0.6s0.3,0.6,0.6,0.6s0.6-0.3,0.6-0.6S14,11,13.7,11z"/>
</g>
</svg>
