<?xml version="1.0" encoding="utf-8"?>
<!-- Generator: Adobe Illustrator 18.1.1, SVG Export Plug-In . SVG Version: 6.00 Build 0)  -->
<!DOCTYPE svg PUBLIC "-//W3C//DTD SVG 1.1//EN" "http://www.w3.org/Graphics/SVG/1.1/DTD/svg11.dtd">
<svg version="1.1" id="Capa_1" xmlns="http://www.w3.org/2000/svg" xmlns:xlink="http://www.w3.org/1999/xlink" x="0px" y="0px"
	 width="28.4px" height="28.4px" viewBox="8 -9.4 28.4 28.4" enable-background="new 8 -9.4 28.4 28.4" xml:space="preserve">
<g>
	<defs>
		<path id="SVGID_1_" d="M68-4.2h7.8v8H68V-4.2z M57-15.2h29.8v30H57V-15.2z"/>
	</defs>
	<clipPath id="SVGID_2_">
		<use xlink:href="#SVGID_1_"  overflow="visible"/>
	</clipPath>
	
		<rect x="68" y="-4.2" clip-path="url(#SVGID_2_)" fill="none" stroke="#0A0A09" stroke-width="2" stroke-miterlimit="10" width="7.8" height="8"/>
</g>
<g>
	<defs>
		<path id="SVGID_3_" d="M70.3-1v-0.8h3.2v3.2h-3.2V-1z M59.3-12.9h25.2v25.2H59.3V-12.9z"/>
	</defs>
	<clipPath id="SVGID_4_">
		<use xlink:href="#SVGID_3_"  overflow="visible"/>
	</clipPath>
	<polygon clip-path="url(#SVGID_4_)" fill="none" stroke="#0A0A09" stroke-width="2" stroke-miterlimit="10" points="70.3,-1 
		70.3,-1.9 73.5,-1.9 73.5,1.4 70.3,1.4 	"/>
</g>
<g>
	<defs>
		<path id="SVGID_5_" d="M70.3-1v-0.8h3.2v3.2h-3.2V-1z M59.3-12.9h25.2v25.2H59.3V-12.9z"/>
	</defs>
	<clipPath id="SVGID_6_">
		<use xlink:href="#SVGID_5_"  overflow="visible"/>
	</clipPath>
	<polygon clip-path="url(#SVGID_6_)" fill="none" stroke="#0A0A09" stroke-width="2" stroke-miterlimit="10" points="70.3,-1 
		70.3,-1.9 73.5,-1.9 73.5,1.4 70.3,1.4 	"/>
</g>
<g>
	<defs>
		<path id="SVGID_7_" d="M70.3-1v-0.8h3.2v3.2h-3.2V-1z M59.3-12.9h25.2v25.2H59.3V-12.9z"/>
	</defs>
	<clipPath id="SVGID_8_">
		<use xlink:href="#SVGID_7_"  overflow="visible"/>
	</clipPath>
	<polygon clip-path="url(#SVGID_8_)" fill="none" stroke="#0A0A09" stroke-width="2" stroke-miterlimit="10" points="70.3,-1 
		70.3,-1.9 73.5,-1.9 73.5,1.4 70.3,1.4 	"/>
</g>
<g>
	<defs>
		<path id="SVGID_9_" d="M70.3-1v-0.8h3.2v3.2h-3.2V-1z M59.3-12.9h25.2v25.2H59.3V-12.9z"/>
	</defs>
	<clipPath id="SVGID_10_">
		<use xlink:href="#SVGID_9_"  overflow="visible"/>
	</clipPath>
	<polygon clip-path="url(#SVGID_10_)" fill="none" stroke="#0A0A09" stroke-width="2" stroke-miterlimit="10" points="70.3,-1 
		70.3,-1.9 73.5,-1.9 73.5,1.4 70.3,1.4 	"/>
</g>
<g>
	<defs>
		<path id="SVGID_11_" d="M65.4-7.2h13v14h-13V-7.2z M54.4-18.2h35v36h-35V-18.2z"/>
	</defs>
	<clipPath id="SVGID_12_">
		<use xlink:href="#SVGID_11_"  overflow="visible"/>
	</clipPath>
	
		<rect x="65.4" y="-7.2" clip-path="url(#SVGID_12_)" fill="none" stroke="#0A0A09" stroke-width="2" stroke-miterlimit="10" width="13" height="14"/>
</g>
<g>
	<defs>
		<path id="SVGID_13_" d="M69.2-1.6v-1.5h5.3v5.7h-5.3V-1.6z M58.2-14.1h27.3v27.7H58.2V-14.1z"/>
	</defs>
	<clipPath id="SVGID_14_">
		<use xlink:href="#SVGID_13_"  overflow="visible"/>
	</clipPath>
	<polygon clip-path="url(#SVGID_14_)" fill="none" stroke="#0A0A09" stroke-width="2" stroke-miterlimit="10" points="69.2,-1.6 
		69.2,-3.1 74.5,-3.1 74.5,2.6 69.2,2.6 	"/>
</g>
<g>
	<defs>
		<path id="SVGID_15_" d="M69.2-1.6v-1.5h5.3v5.7h-5.3V-1.6z M58.2-14.1h27.3v27.7H58.2V-14.1z"/>
	</defs>
	<clipPath id="SVGID_16_">
		<use xlink:href="#SVGID_15_"  overflow="visible"/>
	</clipPath>
	<polygon clip-path="url(#SVGID_16_)" fill="none" stroke="#0A0A09" stroke-width="2" stroke-miterlimit="10" points="69.2,-1.6 
		69.2,-3.1 74.5,-3.1 74.5,2.6 69.2,2.6 	"/>
</g>
<g>
	<defs>
		<path id="SVGID_17_" d="M69.2-1.6v-1.5h5.3v5.7h-5.3V-1.6z M58.2-14.1h27.3v27.7H58.2V-14.1z"/>
	</defs>
	<clipPath id="SVGID_18_">
		<use xlink:href="#SVGID_17_"  overflow="visible"/>
	</clipPath>
	<polygon clip-path="url(#SVGID_18_)" fill="none" stroke="#0A0A09" stroke-width="2" stroke-miterlimit="10" points="69.2,-1.6 
		69.2,-3.1 74.5,-3.1 74.5,2.6 69.2,2.6 	"/>
</g>
<g>
	<defs>
		<path id="SVGID_19_" d="M41.3-21.9v-1.5h5.3v5.7h-5.3V-21.9z M30.3-34.3h27.3v27.7H30.3V-34.3z"/>
	</defs>
	<clipPath id="SVGID_20_">
		<use xlink:href="#SVGID_19_"  overflow="visible"/>
	</clipPath>
	<polygon clip-path="url(#SVGID_20_)" fill="none" stroke="#0A0A09" stroke-width="2" stroke-miterlimit="10" points="41.3,-21.9 
		41.3,-23.3 46.5,-23.3 46.5,-17.7 41.3,-17.7 	"/>
</g>
</svg>
