<?xml version="1.0" encoding="utf-8"?>
<!-- Generator: Adobe Illustrator 18.1.1, SVG Export Plug-In . SVG Version: 6.00 Build 0)  -->
<!DOCTYPE svg PUBLIC "-//W3C//DTD SVG 1.1//EN" "http://www.w3.org/Graphics/SVG/1.1/DTD/svg11.dtd">
<svg version="1.1" id="Capa_1" xmlns="http://www.w3.org/2000/svg" xmlns:xlink="http://www.w3.org/1999/xlink" x="0px" y="0px"
	 width="21.5px" height="22.6px" viewBox="62.6 -87.1 21.5 22.6" enable-background="new 62.6 -87.1 21.5 22.6"
	 xml:space="preserve">
<path fill="#0A0A09" d="M83.1-87.1h-5.3h-1v1v1.5v1h-7v-2.5v-1h-1h-5.3h-1v1v1.5v4.2v1h1h2.2v7.3h-2.2h-1v1v1.5v4.2v1h1h5.3h1v-1
	v-2.2h7v2.2v1h1h5.3h1v-1v-5.7v-1h-1h-2.3v-7.3h2.3h1v-1v-5.7v-1H83.1z M63.6-80.4v-4.2v-1.5h5.3v2.5h-2h-1v1v2.2H63.6z M68.8-82.6
	v2.2h-2v-2.2H68.8z M68.8-65.5h-5.3v-4.2v-1.5h2.2v2.5v1h1h2V-65.5z M68.8-68.7h-2v-2.5h2V-68.7z M83.1-71.2v5.7h-5.3v-2.2h1.9h1v-1
	v-2.5H83.1z M77.9-68.7v-1v-1.5h1.9v2.5H77.9z M79.8-72.2h-1.9h-1v1v1.5v1h-7v-2.5v-1h-1h-2v-7.3h2h1v-1v-2.2h7v2.2v1h1h1.9V-72.2z
	 M79.8-80.4h-1.9v-2.2h1.9V-80.4z M83.1-80.4h-2.3v-2.2v-1h-1h-1.9v-1v-1.5h5.3V-80.4z"/>
</svg>
