<?xml version="1.0" encoding="utf-8"?>
<!-- Generator: Adobe Illustrator 18.1.1, SVG Export Plug-In . SVG Version: 6.00 Build 0)  -->
<!DOCTYPE svg PUBLIC "-//W3C//DTD SVG 1.1//EN" "http://www.w3.org/Graphics/SVG/1.1/DTD/svg11.dtd">
<svg version="1.1" id="Capa_1" xmlns="http://www.w3.org/2000/svg" xmlns:xlink="http://www.w3.org/1999/xlink" x="0px" y="0px"
	 width="13.7px" height="13.8px" viewBox="7.6 -37.1 13.7 13.8" enable-background="new 7.6 -37.1 13.7 13.8" xml:space="preserve">
<path fill="#0A0A09" d="M20.3-37.1h-3.2h-1v1v0.8v0.2h-3.4v-1v-1h-1H8.6h-1v1v0.8v2.4v1h1h0.9v3.3H8.6h-1v1v0.8v2.4v1h1h3.2h1v-1
	v-0.8h3.4v0.8v1h1h3.2h1v-1v-3.2v-1h-1h-1v-3.3h1h1v-1v-3.2v-1H20.3z M8.6-32.9v-2.4v-0.8h3.2v1h-1.2h-1v1v1.2H8.6z M11.7-34.1v1.2
	h-1.2v-1.2H11.7z M11.7-24.3H8.6v-2.4v-0.8h0.9v1.4v1h1h1.2V-24.3z M11.7-26.1h-1.2v-1.4h1.2V-26.1z M20.3-27.5v3.2h-3.2v-0.8h1.2h1
	v-1v-1.4H20.3z M17.2-26.1v-0.6v-0.8h1.2v1.4H17.2z M18.3-28.5h-1.2h-1v1v0.8v0.6h-3.4v-1.4v-1h-1h-1.2v-3.3h1.2h1v-1v-1.2h3.4v1.2
	v1h1h1.2V-28.5z M18.3-32.9h-1.2v-1.2h1.2V-32.9z M20.3-32.9h-1v-1.2v-1h-1h-1.2v-0.2v-0.8h3.2V-32.9z"/>
</svg>
