<?xml version="1.0" encoding="utf-8"?>
<!-- Generator: Adobe Illustrator 18.1.1, SVG Export Plug-In . SVG Version: 6.00 Build 0)  -->
<!DOCTYPE svg PUBLIC "-//W3C//DTD SVG 1.1//EN" "http://www.w3.org/Graphics/SVG/1.1/DTD/svg11.dtd">
<svg version="1.1" id="Capa_1" xmlns="http://www.w3.org/2000/svg" xmlns:xlink="http://www.w3.org/1999/xlink" x="0px" y="0px"
	 width="19.4px" height="19.4px" viewBox="4 -4.4 19.4 19.4" enable-background="new 4 -4.4 19.4 19.4" xml:space="preserve">
<path fill="#FFFFFF" d="M22.7,4.6l-2.2-2.2l-0.7-0.7l-0.7,0.7L18.5,3l-0.1,0.1L16,0.6l0.7-0.7l0.7-0.7l-0.7-0.7l-2.2-2.2l-0.8-0.7
	L13-3.7l-0.6,0.6l-1.7,1.7L10-0.7L10.7,0l0.7,0.7L9.1,3L8.4,2.3L7.7,1.6L7,2.3L6.4,2.9L4.7,4.6L4,5.3L4.7,6l2.2,2.2l0.7,0.7l0.7-0.7
	l0.6-0.6l2.4,2.4l-0.6,0.6L10,11.3l0.7,0.7l2.3,2.3l0.7,0.7l0.7-0.7l2.3-2.3l0.7-0.7l-0.7-0.7L16,9.9l2.3-2.3L19,8.3L19.7,9l0.7-0.7
	L22.7,6l0.7-0.7L22.7,4.6z M11.5-0.7l1.7-1.7L13.8-3L16-0.8l-0.7,0.7L14.4-1l-0.7-0.6L13-0.9L12.1,0L11.5-0.7z M14.6,0.6l-0.9,0.9
	l-0.9-0.8l0.9-0.9L14.6,0.6z M7.6,7.6L5.4,5.3l1.7-1.7L7.7,3l0.7,0.7l-1,1L6.7,5.4l0.7,0.7L8.3,7L7.6,7.6z M9.1,4.4L10,5.3l-1,1
	L8.1,5.4L9.1,4.4z M16,11.3l-2.3,2.3l-2.2-2.2l0.5-0.6l0.9,0.8l0.7,0.7l0.7-0.7l1-1L16,11.3z M12.8,10.1l0.4-0.4l0.6-0.6l0.8,0.8
	l-1,1L12.8,10.1z M15.3,9.2l-0.8-0.8l-0.7-0.7l-0.7,0.7L12.5,9L12,9.4L9.6,7l1-1l0.7-0.7l-0.7-0.7L9.8,3.7l2.3-2.3L13,2.2l0.7,0.7
	l0.7-0.7l0.9-0.9l2.4,2.4l-0.9,0.9l-0.7,0.7L16.8,6l0.8,0.8L15.3,9.2z M18.4,4.5l0.8,0.8l-0.9,0.9l-0.8-0.8L18.4,4.5z M19.7,7.6
	L19,6.9L19.9,6l0.7-0.7l-0.7-0.7l-0.8-0.8l0.1-0.1l0.6-0.6L22,5.3L19.7,7.6z"/>
</svg>
