<?xml version="1.0" encoding="utf-8"?>
<!-- Generator: Adobe Illustrator 18.1.1, SVG Export Plug-In . SVG Version: 6.00 Build 0)  -->
<!DOCTYPE svg PUBLIC "-//W3C//DTD SVG 1.1//EN" "http://www.w3.org/Graphics/SVG/1.1/DTD/svg11.dtd">
<svg version="1.1" id="Capa_1" xmlns="http://www.w3.org/2000/svg" xmlns:xlink="http://www.w3.org/1999/xlink" x="0px" y="0px"
	 width="13.7px" height="13.8px" viewBox="0 0 13.7 13.8" enable-background="new 0 0 13.7 13.8" xml:space="preserve">
<path fill="#0A0A09" d="M12.7,0H9.6h-1v1v0.8V2H5.2V1V0h-1H1H0v1v0.8v2.4v1h1h0.9v3.3H1H0v1v0.8v2.4v1h1h3.2h1v-1V12h3.4v0.8v1h1
	h3.2h1v-1V9.5v-1h-1h-1V5.2h1h1v-1V1V0H12.7z M1,4.2V1.8V1h3.2v1H2.9h-1v1v1.2H1z M4.2,3v1.2H2.9V3H4.2z M4.2,12.8H1v-2.4V9.5h0.9
	V11v1h1h1.2V12.8z M4.2,11H2.9V9.5h1.2V11z M12.7,9.5v3.2H9.6V12h1.2h1v-1V9.5H12.7z M9.6,11v-0.6V9.5h1.2V11H9.6z M10.7,8.5H9.6h-1
	v1v0.8V11H5.2V9.5v-1h-1H2.9V5.2h1.2h1v-1V3h3.4v1.2v1h1h1.2V8.5z M10.7,4.2H9.6V3h1.2V4.2z M12.7,4.2h-1V3V2h-1H9.6V1.8V1h3.2V4.2z
	"/>
</svg>
