<?xml version="1.0" encoding="utf-8"?>
<!-- Generator: Adobe Illustrator 19.2.0, SVG Export Plug-In . SVG Version: 6.00 Build 0)  -->
<svg version="1.1" id="Capa_1" xmlns="http://www.w3.org/2000/svg" xmlns:xlink="http://www.w3.org/1999/xlink" x="0px" y="0px"
	 width="86px" height="100px" viewBox="0 0 86 100" style="enable-background:new 0 0 86 100;" xml:space="preserve">
<style type="text/css">
	.st0{clip-path:url(#SVGID_2_);}
	.st1{clip-path:url(#SVGID_4_);fill:#FFFFFE;}
	.st2{clip-path:url(#SVGID_6_);}
	.st3{clip-path:url(#SVGID_8_);fill:#FFFFFE;}
	.st4{clip-path:url(#SVGID_10_);}
	.st5{clip-path:url(#SVGID_12_);fill:#FFFFFE;}
	.st6{clip-path:url(#SVGID_14_);}
	.st7{clip-path:url(#SVGID_16_);fill:#FFFFFE;}
	.st8{clip-path:url(#SVGID_18_);}
	.st9{clip-path:url(#SVGID_20_);fill:#FFFFFE;}
	.st10{clip-path:url(#SVGID_22_);}
	.st11{clip-path:url(#SVGID_24_);fill:#FFFFFE;}
	.st12{clip-path:url(#SVGID_26_);}
	.st13{clip-path:url(#SVGID_28_);fill:#FFFFFE;}
	.st14{clip-path:url(#SVGID_30_);}
	.st15{clip-path:url(#SVGID_32_);fill:#FFFFFE;}
	.st16{clip-path:url(#SVGID_34_);}
	.st17{clip-path:url(#SVGID_36_);fill:#FFFFFE;}
	.st18{clip-path:url(#SVGID_38_);}
	.st19{clip-path:url(#SVGID_40_);fill:#FFFFFE;}
	.st20{clip-path:url(#SVGID_42_);}
	.st21{clip-path:url(#SVGID_44_);fill:#FFFFFE;}
	.st22{clip-path:url(#SVGID_46_);}
	.st23{clip-path:url(#SVGID_48_);fill:#FFFFFE;}
	.st24{clip-path:url(#SVGID_50_);}
	.st25{clip-path:url(#SVGID_52_);fill:#FFFFFE;}
	.st26{clip-path:url(#SVGID_54_);}
	.st27{clip-path:url(#SVGID_56_);fill:#FFFFFE;}
	.st28{clip-path:url(#SVGID_58_);}
	.st29{clip-path:url(#SVGID_60_);fill:#FFFFFE;}
	.st30{clip-path:url(#SVGID_62_);}
	.st31{clip-path:url(#SVGID_64_);fill:#FFFFFE;}
	.st32{clip-path:url(#SVGID_66_);}
	.st33{clip-path:url(#SVGID_68_);fill:#FFFFFE;}
	.st34{clip-path:url(#SVGID_70_);}
	.st35{clip-path:url(#SVGID_72_);fill:#FFFFFE;}
	.st36{clip-path:url(#SVGID_74_);}
	.st37{clip-path:url(#SVGID_76_);fill:#FFFFFE;}
	.st38{clip-path:url(#SVGID_78_);}
	.st39{clip-path:url(#SVGID_80_);fill:#FFFFFE;}
	.st40{clip-path:url(#SVGID_82_);}
	.st41{clip-path:url(#SVGID_84_);fill:#FFFFFE;}
	.st42{clip-path:url(#SVGID_86_);}
	.st43{clip-path:url(#SVGID_88_);fill:#FFFFFE;}
	.st44{clip-path:url(#SVGID_90_);}
	.st45{clip-path:url(#SVGID_92_);fill:#FFFFFE;}
	.st46{clip-path:url(#SVGID_94_);}
	.st47{clip-path:url(#SVGID_96_);fill:#FFFFFE;}
	.st48{clip-path:url(#SVGID_98_);}
	.st49{clip-path:url(#SVGID_100_);fill:#FFFFFE;}
	.st50{clip-path:url(#SVGID_102_);}
	.st51{clip-path:url(#SVGID_104_);fill:#FFFFFE;}
	.st52{clip-path:url(#SVGID_106_);}
	.st53{clip-path:url(#SVGID_108_);fill:#FFFFFE;}
	.st54{fill-rule:evenodd;clip-rule:evenodd;fill:#FFFFFF;}
</style>
<g>
	<g>
		<defs>
			<path id="SVGID_1_" d="M41.6,1c-11.1,0-20.1,9-20.1,20.1c0,11.1,9,20.1,20.1,20.1c11.1,0,20.1-9,20.1-20.1C61.7,10,52.7,1,41.6,1
				z M41.6,42.2c-11.6,0-21.1-9.5-21.1-21.1C20.5,9.5,29.9,0,41.6,0c11.6,0,21.1,9.5,21.1,21.1C62.7,32.8,53.2,42.2,41.6,42.2z"/>
		</defs>
		<clipPath id="SVGID_2_">
			<use xlink:href="#SVGID_1_"  style="overflow:visible;"/>
		</clipPath>
		<g class="st0">
			<defs>
				<rect id="SVGID_3_" x="-56.9" y="-2825" width="1112" height="3234"/>
			</defs>
			<clipPath id="SVGID_4_">
				<use xlink:href="#SVGID_3_"  style="overflow:visible;"/>
			</clipPath>
			<rect x="15.5" y="-5" class="st1" width="52.2" height="52.2"/>
		</g>
	</g>
	<g>
		<defs>
			<path id="SVGID_5_" d="M52.2,23.4l-0.3-0.1c0.2-0.7,0.2-1.5,0.2-2.2c0-5.9-4.8-10.6-10.6-10.6c-5.2,0-9.6,3.7-10.5,8.9l-0.3-0.1
				c0.9-5.3,5.4-9.1,10.8-9.1c6,0,10.9,4.9,10.9,11C52.4,21.9,52.4,22.7,52.2,23.4"/>
		</defs>
		<clipPath id="SVGID_6_">
			<use xlink:href="#SVGID_5_"  style="overflow:visible;"/>
		</clipPath>
		<g class="st2">
			<defs>
				<rect id="SVGID_7_" x="-56.9" y="-2825" width="1112" height="3234"/>
			</defs>
			<clipPath id="SVGID_8_">
				<use xlink:href="#SVGID_7_"  style="overflow:visible;"/>
			</clipPath>
			<rect x="25.7" y="5.2" class="st3" width="31.7" height="23.2"/>
		</g>
	</g>
	<g>
		<defs>
			<path id="SVGID_9_" d="M36.7,30.9C36.7,30.9,36.7,30.9,36.7,30.9c-1-0.5-1.8-1-2.4-1.6c-0.1-0.1-0.1-0.2,0-0.2
				c0.1-0.1,0.2-0.1,0.2,0c0.7,0.6,1.4,1.1,2.3,1.6c0.1,0,0.1,0.1,0.1,0.2C36.8,30.8,36.8,30.9,36.7,30.9"/>
		</defs>
		<clipPath id="SVGID_10_">
			<use xlink:href="#SVGID_9_"  style="overflow:visible;"/>
		</clipPath>
		<g class="st4">
			<defs>
				<rect id="SVGID_11_" x="-56.9" y="-2825" width="1112" height="3234"/>
			</defs>
			<clipPath id="SVGID_12_">
				<use xlink:href="#SVGID_11_"  style="overflow:visible;"/>
			</clipPath>
			<rect x="29.2" y="24" class="st5" width="12.6" height="11.9"/>
		</g>
	</g>
	<g>
		<defs>
			<path id="SVGID_13_" d="M30.3,23.6l0.3-0.2c0.1-0.1,0.4-0.3,0.4-0.3c0.1-0.1,0.2-0.1,0.2-0.2l0-0.2c-0.1,0-0.4,0-0.4,0.2
				C30.6,23,30.6,23,30.4,23l-0.1,0.2C30.2,23.5,30.2,23.6,30.3,23.6z M32.4,21.6c-0.1,0.1-0.4,0.4-0.4,0.4l-0.2,0.1
				c-0.1,0-0.3,0-0.3,0.1c0,0.1,0,0.2,0,0.2l0.1,0.2c0.2-0.1,0.4-0.3,0.4-0.3c0.1,0,0.3-0.3,0.3-0.3c0.1-0.1,0.3-0.1,0.3-0.3
				C32.4,21.7,32.4,21.6,32.4,21.6L32.4,21.6z M31.6,23.5c0.1,0,0.1-0.1,0.2-0.1c0.2-0.1,0.4-0.2,0.4-0.3c0,0,0.5-0.5,0.5-0.5
				l0.1-0.2l-0.2-0.2c-0.1,0.1-0.2,0.1-0.2,0.2c-0.1,0-0.2,0.2-0.2,0.3C32,22.9,31.9,23,31.8,23c0,0-0.2,0.2-0.3,0.2
				c0,0.2,0,0.2,0,0.2C31.6,23.4,31.6,23.5,31.6,23.5z M31.1,24.8c0.1-0.2,0.2-0.2,0.2-0.3c0-0.1,0.3-0.2,0.4-0.2
				c0.1-0.1,0.2-0.3,0.2-0.3c0.1-0.2,0-0.3-0.1-0.3c-0.1,0-0.3,0.4-0.3,0.4c-0.1,0.1-0.4,0.1-0.4,0.3C31,24.5,31,24.6,31,24.6
				C31,24.7,31,24.8,31.1,24.8z M33.2,23c-0.1-0.1-0.1-0.2-0.1-0.2c-0.1,0-0.2,0-0.2,0.1c0,0.2-0.4,0.2-0.4,0.3l0,0.2l0.1,0.2
				c0.1,0,0.2-0.1,0.2-0.1c0.1-0.1,0.1-0.1,0.2-0.2C33,23.3,33.1,23.1,33.2,23L33.2,23z M31.4,23.6c-0.1-0.1-0.2-0.1-0.2-0.1
				c-0.1,0.1-0.3,0-0.4,0.3c-0.1,0.2-0.1,0.3-0.1,0.3c0.1,0.1,0.2,0,0.2,0c0.2-0.2,0.2-0.2,0.3-0.3C31.2,23.9,31.3,23.7,31.4,23.6
				L31.4,23.6z M32.3,24.6c0,0,0.1-0.1,0.2-0.1c0.3,0,0.2-0.4,0.5-0.5c0-0.1,0.2-0.2,0.2-0.2c0.1,0,0.2-0.2,0.3-0.2l-0.1-0.2
				c-0.1-0.1-0.2,0-0.2,0l-0.2,0.2c0,0-0.2,0.3-0.2,0.3c-0.1,0.1-0.1,0.1-0.2,0.2c-0.1,0.1-0.2,0.1-0.2,0.1c0,0-0.2,0.1-0.2,0.2
				C32.2,24.4,32.2,24.6,32.3,24.6L32.3,24.6z M32.1,24.6c-0.1-0.1-0.2,0-0.2,0c-0.2,0.1-0.5,0.5-0.5,0.5c-0.1,0,0,0.2,0,0.2
				c0.1,0,0.5-0.2,0.7-0.4C32.1,24.8,32.1,24.8,32.1,24.6L32.1,24.6z M33.2,24.8c0.2-0.1,0.2-0.1,0.3-0.2c0.1-0.1,0.2-0.1,0.3-0.2
				c0.1-0.1,0.1-0.1,0.1-0.2c-0.1-0.1-0.1-0.2-0.2-0.2c-0.1,0-0.4,0.2-0.3,0.3c-0.1,0.1-0.1,0.1-0.2,0.2
				C33.1,24.6,33.2,24.7,33.2,24.8z M33.5,25c0.1,0.1,0.1,0.3,0.2,0.3c0.1,0,0.1-0.2,0.2-0.3c0.2-0.1,0.3-0.3,0.4-0.4
				c0-0.1-0.1-0.1-0.2-0.1c0,0-0.2,0.2-0.3,0.2C33.7,24.9,33.6,24.9,33.5,25L33.5,25z M31.8,25.7c0.1,0.2,0.1,0.2,0.2,0.2
				c0.1-0.1,0.2-0.2,0.3-0.3c0.1-0.1,0.3-0.2,0.4-0.3c0.1,0,0.2-0.1,0.2-0.2c0-0.1,0-0.2,0-0.2c-0.1-0.1-0.1-0.1-0.2-0.1
				c-0.1,0-0.2,0.1-0.3,0.2l-0.2,0.3c-0.1,0.1-0.2,0.1-0.3,0.1L31.8,25.7z M34.6,25.4c-0.2-0.1-0.2-0.1-0.2-0.1
				c-0.1,0.1-0.3,0.1-0.5,0.2c0,0.2,0,0.2,0,0.2c-0.1,0.1,0,0.2,0,0.2c0.1,0,0.5-0.1,0.6-0.2C34.4,25.7,34.5,25.6,34.6,25.4
				L34.6,25.4z M33.3,25.4c-0.2,0-0.5,0.1-0.6,0.3c-0.1,0.2-0.1,0.2-0.2,0.3c-0.2,0-0.4,0.1-0.4,0.2c-0.1,0.1-0.1,0.2,0,0.2l0.4-0.1
				c0.1,0,0.2-0.4,0.4-0.4c0,0,0.3-0.3,0.4-0.3C33.4,25.5,33.4,25.5,33.3,25.4L33.3,25.4z M32.5,27c0.1,0,0.4-0.2,0.4-0.2
				c0.2,0,0.6-0.6,0.6-0.7c-0.1-0.1-0.1-0.2-0.2-0.2c-0.1,0-0.2,0.2-0.2,0.3c0,0-0.3,0.2-0.3,0.2c-0.2,0.2-0.4,0.2-0.4,0.4L32.5,27z
				 M33.7,27l0.4-0.1c0.1-0.1,0.2-0.1,0.2-0.2c0,0,0.5-0.4,0.5-0.4c0.1,0,0.2-0.2,0.2-0.2c-0.2-0.1-0.4,0-0.5,0c0,0-0.2,0.3-0.3,0.3
				c-0.1,0.1-0.2,0.2-0.4,0.2c0,0-0.2,0.2-0.2,0.3L33.7,27z M33.5,27l-0.2,0c0,0-0.3,0.1-0.3,0.1l-0.2,0.1c-0.1,0-0.2,0.2-0.2,0.3
				l0.1,0.2c0.2,0,0.5-0.3,0.5-0.3c0,0,0.3-0.1,0.3-0.2L33.5,27z M33.3,28.1c0,0.1,0,0.2,0,0.2c0.3-0.1,0.7-0.5,0.7-0.5
				c0.1-0.1,0.2-0.2,0.3-0.3c0-0.2,0-0.2,0-0.2l-0.2,0c-0.1,0-0.4,0.4-0.5,0.4C33.5,27.8,33.3,28,33.3,28.1z M35.1,26.9
				c0.1,0,0.2-0.1,0.2-0.2c0-0.1-0.1-0.2-0.2-0.2c-0.1,0-0.4,0.3-0.5,0.3c-0.1,0.1-0.1,0.1-0.1,0.2c0,0.2,0,0.2,0,0.2
				C34.7,27.2,34.8,26.9,35.1,26.9L35.1,26.9z M34.5,20.2c0,0-0.1-0.1-0.2-0.1c0,0-0.3,0.2-0.3,0.2c-0.1,0-0.2,0.3-0.2,0.3
				c-0.1,0.1-0.1,0.2-0.1,0.2c-0.2-0.1-0.4,0.2-0.4,0.2c0,0.2-0.1,0.3,0,0.3c0.1-0.1,0.2-0.2,0.3-0.2l0.2-0.1c0.1,0,0.3-0.2,0.3-0.3
				c0-0.1,0.1-0.1,0.2-0.1c0.1,0,0.2-0.1,0.2-0.1C34.5,20.5,34.5,20.2,34.5,20.2z M33.6,22c0.1,0,0.2-0.1,0.3-0.1
				c0.1-0.2-0.1-0.3-0.1-0.3c-0.1,0.1-0.1,0.2-0.2,0.2L33.6,22z M33.9,21.8c0.2-0.1,0.5-0.1,0.7-0.2c0.1,0,0.1-0.2,0.3-0.2
				c0.1,0,0.1,0.4,0.2,0.5C35.1,22,35,22.1,35,22.3c0,0.4,0.3,1.8,0.9,1.8c0.1,0,0.2,0.3,0.2,0.4c0,0.3-0.5,0.6-0.5,0.9
				c0,0.1,0,0.2,0.1,0.3c0.2,0,0.1,0.3,0.2,0.5c0,0,0.2,0.1,0.3,0.2c-0.6,0.3-1,0.7-1,1.4c0,0.2,0,0.5,0.1,0.7
				c-0.6,0.4-0.9,1.1-1.5,1.4c-1.4-1.7-2.2-3.7-3.3-5.5c-0.3-0.6-1-0.9-1.3-1.5c0.6-1.1,2.7-0.8,2.6-2.4c1,1.3,2.9,4.2,3.4,5.6
				l0.5,0.2c-0.4-0.9-1-1.6-1.5-2.5c-0.7-1.2-1.3-2.4-2.1-3.5c1.2-0.5,1.6-0.6,1.6-1.9c0.6,0.2,0.8,1.1,1.2,1.5l0.1,1.1
				C34.8,21,34,21.6,33.9,21.8z M38.1,27.1c-0.6-0.3-1-0.5-1-1.3c0-0.6,0.3-1.2,0.5-1.8l0-0.2l-0.2,0l-0.3,0.7l-0.5-0.4
				c-0.1-0.2,0-0.5-0.2-0.7c-0.2-0.3-0.3-0.1-0.6-0.6c-0.1-0.3-0.1-0.8-0.2-0.9c-0.2-0.4-0.4-0.5-0.7-0.8c0-0.1,0-0.3,0.1-0.2
				l0.4,0.1c0.2,0.1,0.7,0.7,0.9,0.7c0-0.2-0.1-0.2-0.1-0.3c0.3,0,0.3-0.1,0.4-0.2c0.1,0,0.3,0,0.3-0.1c0-0.1-0.3,0.1-0.3-0.4
				c0-0.1,0-0.2,0.1-0.3c0.2,0.1,0.5,0.3,0.5,0.6c0,0.7-0.2,1.4-0.2,2c0,0,0.5,0.4,0.5,0.4c0.2,0,0.2-0.5,0.2-0.7
				c0.3,0.3,0.3,0.5,0.3,0.9c0,0.1-0.1,0.7-0.1,0.7c0,0.1-0.2,0.1-0.2,0.2c0,0.6,0.1,1.1,0.1,1.7c0,0.2,0.3,0.5,0.4,0.6L38.1,27.1z
				 M51.4,26.7l-0.1-1.2c0.1,0.2,0.1,0.4,0.1,0.7v0.3C51.5,26.6,51.5,26.7,51.4,26.7L51.4,26.7z M40.4,26.5c0,0-0.2-0.1-0.2-0.1
				l0.3-1.1L40.4,26.5z M28.7,23.5c2.1,2,2.9,3.9,4.4,6.1c-1.1-1.2-1.9-2.8-2.8-4.1C29.9,24.8,29.2,24.2,28.7,23.5L28.7,23.5z
				 M43.9,26.1c0-0.4,0.4-0.6,0.7-0.6c0.2-0.4,0.6-0.6,1-0.9c0.2-0.3,0.4-0.3,0.5-0.5c0.3,0,0.6,0,0.8,0c-0.4,0.4-0.8,1.3-1.4,1.4
				l0.2-0.5c-0.6-0.1-0.8,0.7-1.1,0.9C44.3,26,44.1,26.1,43.9,26.1L43.9,26.1z M39.7,26c0-0.1,0-0.2,0-0.3c0-0.3,0.1-0.5,0.2-0.6
				L39.7,26L39.7,26z M39,25.5v-1.7c0.2,0.1,0.2,0.2,0.2,0.3c0,0.2-0.2,0.5-0.2,0.8c0,0.1,0.1,0.3,0.2,0.4
				C39.2,25.2,39.2,25.5,39,25.5L39,25.5z M41.8,25.4c0-0.2,0.1-0.5,0.1-0.6C42.1,25.1,42,25.3,41.8,25.4L41.8,25.4z M41.1,25.4
				c0,0-0.1-0.1-0.1-0.2V25c0-0.1,0.1-0.2,0.1-0.2l0.5-0.5L41.1,25.4L41.1,25.4z M36,25.3c0-0.1,0-0.2,0.1-0.2
				C36.1,25.2,36.1,25.2,36,25.3L36,25.3z M42.8,25l0.2-0.6c0,0.1,0,0.2,0,0.3c0,0,0,0.1,0,0.2C42.8,24.9,42.8,25,42.8,25z M40,24.9
				l0.3-1.4l0.2-0.1l-0.3,0.9c0.1,0,0.2,0.1,0.2,0.1C40.3,24.7,40.2,24.8,40,24.9z M51.2,24.9c-0.1,0-0.1-0.1-0.2-0.1l-0.1-0.2
				l0-0.2C51,24.5,51.3,24.7,51.2,24.9L51.2,24.9z M44.9,24.5c0.1-0.2,0.1-0.2,0.2-0.3c0-0.1,0.1-0.1,0.1-0.2
				c0.2-0.1,0.2-0.1,0.2-0.1C45.5,24.1,45.1,24.3,44.9,24.5L44.9,24.5z M38.4,24.2c0-0.1,0-0.2,0-0.2v-0.2c0-0.1,0-0.2,0-0.3
				c0-0.1,0-0.2,0.1-0.2c0.1,0,0-0.1,0.2,0.1c-0.1,0.2-0.1,0.4-0.1,0.6C38.6,24.1,38.5,24.1,38.4,24.2L38.4,24.2z M42.5,21.6
				c0.9-0.2,1.2-0.5,1.9-0.7l1.7-0.5l0-0.2c-0.3-0.1-0.5-0.2-0.8-0.2h-0.2c0,0.1,0,0.2,0,0.2l-3,1.3C42.3,21.6,42.4,21.6,42.5,21.6z
				 M44.4,22.1c0.1,0,0.2,0,0.4,0c0.5-0.1,1.1,0.1,1.4-0.4c0.2,0,0.2,0,0.2-0.1c-0.1-0.1-0.2-0.2-0.3-0.2c-0.1,0-0.2,0-0.2,0
				c-0.6,0.1-1.1,0.3-1.4,0.6V22.1z M46.5,21.6c0.1,0,0.1,0,0.2,0c0.2,0,0.3,0,0.5-0.1c0-0.2-0.2-0.1-0.3-0.2l0-0.2
				c-0.1,0-0.1-0.1-0.2-0.1c-0.2,0-0.2,0-0.3,0c0,0.3,0.3,0.1,0.3,0.3L46.5,21.6z M44.6,23.3l1.8-1.2c0.1,0,0.2,0.1,0.3,0.1
				c0.2-0.1,0.3-0.2,0.4-0.4l-1.8,0.4c-0.1,0.1,0,0.2-0.1,0.3c-0.5,0.2-1,0.1-1.4,0.5c0.2,0.1,0.4,0,0.6,0c0.1,0,0.2,0,0.2,0.1V23.3
				z M51.6,24.2c-0.6-0.4-0.5-0.2-1-0.2c-0.1,0-0.1-0.3-0.3-0.5c-0.1,0-0.1,0-0.2,0c-0.6,0-1.1-0.6-1.7-0.6c-0.2,0-0.4,0.1-0.6,0.1
				c-0.6,0-1.1,0.4-1.8,0.4c-0.2,0-0.5-0.1-0.7-0.1c-0.9,0-1.8,0.5-2.8,0.5c-0.3,0-1.1,0-1.1-0.4l-1.1-0.7l-0.4-1.1
				c0.3,0.2,0.6,0.7,0.8,0.7l-0.5-1.5c0.8,0,0.6,1.2,1.2,1.2c0.1,0,0.5-0.2,0.6-0.3c-0.4-0.4-0.8-0.1-0.9-0.9h1.5
				c0.3-0.3,0.7-0.2,1-0.2c0.1-0.1,0-0.2,0.1-0.3c0.1-0.1,0.5,0,0.6,0c0.7,0,0.7-0.9,2.5-0.9c0.8,0,1.5,0.1,2.2,0.3
				c0,0.4,0.7,0.4,1,0.6h0.2c0.1,0.1,0.1,0.9,0.5,0.9c0.1,0,0.4-0.1,0.4-0.2c0-0.1-0.3-0.3-0.3-0.5c-0.2-0.5-0.3-1.8-1.1-1.8
				c-0.5,0-0.9,0.3-1.4,0.3c-0.2,0-0.4-0.1-0.5-0.2l0.1-0.3c-0.1-0.1-0.3-0.2-0.5-0.2c-0.3,0-0.5,0.1-0.8,0.1
				c-1.7,1.1-3.7,1.9-5.7,1.9c-0.2,0-0.3-0.2-0.2-0.4l-0.2,0c0.2-0.3,0.5-0.2,0.5-0.5c-0.5,0-0.4-0.3-0.4-0.5c0-0.3-0.3-0.1-0.3-0.4
				c0-0.2,0.3,0,0.3-0.2c0-0.1-0.4,0-0.5,0c-0.1,0-0.2,0-0.2-0.1c0-0.3,0.2-0.1,0.3-0.1c0.1-0.1-0.2-0.6-0.2-0.6c0,0,0,0.2,0,0.3
				c-0.4,0.1-0.4,0.3-0.5,0.3l0-1.2c0.2,0.1,0.3,0.6,0.5,0.6c0.1,0,0.1-0.3,0.1-0.4c0.1-0.1,0.3-0.2,0.3-0.3c0-0.4-0.7-0.4-0.9-0.4
				c-0.2,0-0.1-0.1-0.1-0.2c0-0.2-0.1-0.5-0.1-0.8c0-0.1,0-0.2,0-0.2c0.2-0.1,0.3-0.1,0.5-0.1c0.7,0,0.7,0.6,1.5,0.6
				c0.3,0,0.2,0.4,0.4,0.4c0.3-0.1,0.2,0.3,0.7,0.2c0.2,0.1,0.1,0.7,0.3,0.9c0.1,0.1,0.3,0,0.4,0c0,0.2-0.3,0.2-0.2,0.4
				c0.5,0.1,0.6-0.4,0.7-0.7l0.2-0.1c0-0.2-0.1-0.4-0.1-0.5c0-0.2,0.1-0.2,0.2-0.4l0-0.3c0.2-0.1,0.4,0,0.5,0l0.2,0
				c0.1,0.2-0.1,0.3-0.1,0.6c0,0.3-0.3,0.2-0.4,0.2c-0.1,0-0.1,0.1-0.1,0.2c0,0.4,0.2,0.4,0.5,0.4c0.3,0,0.5,0.5,0.5,0.8
				c-1.2,0.8-2.5,1.5-3.9,1.8c-0.1,0.3,0.1,0.3,0.2,0.3c0.6,0,2.2-0.7,2.7-1l1.7-1c0.6-0.3,1.4-2,1.4-2.6c0-0.1-0.2-0.2-0.2-0.3
				c0.2-0.1,0.3-0.1,0.4-0.1c0.1,0,0.2,0,0.3,0.1l0.3,0.8l0.8,0.6c0,0.5-0.7,0.4-0.6,0.9c-0.1,0-0.2-0.1-0.4-0.1
				c-0.4,0-4.4,2.8-6.4,2.9c-0.1,0.2,0.1,0.3,0.2,0.3c1.5,0,2.9-1.2,4.2-1.8c0.7-0.3,1.4-0.4,2.1-0.5c0-0.1,0.1-0.2,0.1-0.3
				c0.4-0.1,0.6-0.4,0.9-0.7l0.6,0.6c-0.1,0-1.3,0-1.4,0.3l1.4,0.2c0.1,0,0,0.2,0.1,0.3c0.8,0.4,0.8,0.9,1.4,1.6c0,1,0,0.6,0.3,1.1
				c-0.2,0.2-0.3,0.4-0.3,0.7c0,0.5,0.2,0.9,0.2,1.4c-0.1-0.1-0.9-1.8-1.4-1.8c-0.1,0-0.1,0.1-0.1,0.2c0,0.4,0.4,0.7,0.7,0.8
				C50.6,23,51.4,23.5,51.6,24.2L51.6,24.2z M39.5,23.1l-0.2-0.2c0.2-0.1,0.2-0.1,0.2-0.1c0.1,0.2,0.1,0.2,0.1,0.3L39.5,23.1z
				 M28.1,23.1l0-0.2l0.1-0.2c0.1-0.1,0.6-0.4,0.8-0.4C28.8,22.4,28.3,23,28.1,23.1z M29,22l1.6-1.1c0,0.2-0.3,0.3-0.4,0.4
				C30,21.4,29.2,22.1,29,22z M32.1,19.8c0.4-0.3,0.8-0.6,1.3-0.9C33.1,19.1,32.4,19.8,32.1,19.8z M35.8,20.1c0.1,0,0.3,0,0.3,0
				c0,0-0.2,0.1-0.2,0c-0.1,0-0.1,0-0.2,0.1c-0.1,0-0.2,0.3-0.3,0.3c-0.1,0.1-0.2,0.2-0.3,0.2c0-0.1,0-0.1,0-0.2
				c0.1-0.2,0.2-0.2,0.4-0.3C35.7,20.2,35.8,20.1,35.8,20.1z M36.5,20.1c0.8-0.6,1.7-0.9,2.7-0.9c0.1,0,1,0.1,1.1,0.1
				c-1.1,0.1-1.8,0.4-2.4,0.6c-0.2,0.1-0.4,0-0.6,0C37,19.9,36.8,20,36.5,20.1z M33,18.7l0.2-0.3l0.2,0c-0.2,0.1-0.2,0.1-0.2,0.2
				L33,18.7z M42,18.9c0.2-0.2,0.4-0.3,0.5-0.5c0.1-0.1,0.2-0.2,0.3-0.4c0-0.1,0.1-0.1,0.1-0.2c0.1,0.2-0.1,0.6-0.2,0.7
				C42.5,18.7,42.1,18.9,42,18.9z M45.4,17.1c-0.1-0.1-0.1-0.2-0.1-0.2c0-0.1,0.1-0.2,0.1-0.2c0,0.2,0.1,0.2,0.1,0.3L45.4,17.1z
				 M43.1,15.5c0.2,0.1,0.2,0.4,0.2,0.5c0,0.2-0.1,0.8-0.2,0.8c0-0.3,0.1-0.5,0.1-0.7c0-0.2-0.2-0.3-0.2-0.3
				C43,15.6,43,15.5,43.1,15.5z M45.8,16.7c0.2-0.2,0.3-0.3,0.5-0.3l0.2,0.1L45.8,16.7z M45.5,16.3v-0.2c0.1-0.1,0.1-0.1,0.2-0.2
				c0.2-0.2,0.3-0.2,0.5-0.3L45.5,16.3z M46.5,16c0.1-0.2,0.2-0.2,0.2-0.3c-0.1-0.1-0.2-0.1-0.2-0.1l0.2,0c0,0,0.1,0.2,0.1,0.2
				l-0.1,0.2L46.5,16z M42.6,15.4c-0.2,0.1-0.2,0-0.3-0.1c-0.1,0-0.2,0-0.2,0C42,15.3,42.1,15,41.9,15c-0.1,0-0.2,0.1-0.3,0.1
				c0.1-0.5,0.1-0.9,0.1-1.4l-0.2,0c0,0-0.1,0.2-0.1,0.2c-0.3,0-0.3-0.3-0.5-0.3c-0.4,0-0.9,0.2-1.2,0.2c0.5-0.8,1.6-1.3,2.6-1.3
				c0.7,0,1.8,0.3,2.1,1c0.1,0.2,0.2,0.5,0.2,0.8c0.1,0.3,0.2,0.6,0.2,0.9c0,0.1,0,0.2,0,0.3c-0.3-0.2-0.4-0.1-0.7-0.1
				c-0.3,0-0.5-0.4-0.8-0.4c0,0-0.1,0.2,0,0.2c-0.3-0.2-0.1-0.2-0.4-0.4c-0.2,0.2-0.1,0.3-0.1,0.4c0,0.1-0.1,0.2-0.1,0.3H42.6z
				 M41,15.1c0,0-0.1-0.2-0.1-0.3c0-0.1,0-0.2,0.1-0.2l0.2,0C41.2,14.7,41.2,14.9,41,15.1L41,15.1z M42.3,14.8
				c-0.2-0.1-0.3,0-0.5-0.1c0,0,0-0.1,0-0.2c0-0.1,0.1-0.2,0.2-0.3l0.2,0l0.4,0.5L42.3,14.8z M40.4,14.4l0.1-0.2l0.2,0
				C40.6,14.3,40.5,14.3,40.4,14.4L40.4,14.4z M39,27.2l-0.5-0.4c0.1-0.2,0-0.4,0.1-0.6c0.1,0.1,0.2,0.2,0.2,0.3
				c0.2,0.2,0.2,0.4,0.3,0.7L39,27.2z M37,31.8c-0.2-0.7-0.5-1.2-0.5-1.8c0-0.2,0.2-0.2,0.3-0.2H37c0.2,0,0.4,0,0.7,0l0,0.2
				c-0.3,0-0.5-0.1-0.7-0.1c-0.1,0-0.2,0.1-0.3,0.1c0,0.1,0.1,0.2,0.1,0.2L37,31.8z M38,29.9l0.2-0.1l0.2,0l-0.2,0.2L38,29.9z
				 M33.3,30.3l-0.4,0c-0.1-0.1-0.4-0.3-0.5-0.3c-1.3-2.2-2.9-4.2-4.2-6.3c0.9,1.2,1.8,2.2,2.6,3.4c0.5,0.7,0.8,1.6,1.4,2.3
				C32.5,29.7,32.9,30,33.3,30.3z M36.3,28.9c0.3,0,0.5,0.1,0.7,0.1c0.1-0.1-0.1-0.3-0.2-0.3c-0.3-0.1-0.5-0.1-0.8-0.3
				c0,0-0.2-0.2-0.2-0.2c0.2,0,0.7,0.2,0.9,0.2c0.1,0,0.2-0.1,0.2-0.2c0-0.1-1.4-0.4-1.4-0.7c0.6-0.1,1,0.1,1.5,0.1
				c0.3,0,0.6-0.1,0.9-0.1l0.3,0.2c0.2,0.3,0.4,0.6,0.4,0.9v0.2c0,0.1-0.1,0.4-0.2,0.5c-0.4,0-0.6,0.1-0.9,0.1
				C37.4,29.3,36.3,29.1,36.3,28.9z M36.7,27.1c0-0.1,0-0.2,0.1-0.2l0.2,0l0.2,0.1c0,0.1,0,0.2,0,0.2l-0.3-0.1L36.7,27.1z
				 M48.9,27.1l0.2-0.6c0,0.1,0,0.1,0,0.2C49.2,26.9,49.1,27,48.9,27.1z M41.2,33.9c0.1-0.3,0.7-0.5,0.9-0.8l0.2,0
				c-0.4,0.3-0.4,0.6-0.9,0.8C41.4,33.9,41.2,33.9,41.2,33.9z M38.6,32.9c-0.1-0.1-0.1-0.2-0.1-0.3c0.1-0.1,0.2,0,0.2,0
				C38.6,32.8,38.6,32.9,38.6,32.9L38.6,32.9z M47.4,30.6c-0.2,0-0.5-0.1-0.5-0.2c-0.7,0-1.6,0-2.2-0.3c0.6-0.1,1.1-0.1,1.6-0.1
				c0.4,0,0.8,0.1,1.2,0.2c0.1,0.1,0,0.2,0.1,0.3c0,0,0.2,0,0.2,0C47.8,30.6,47.5,30.6,47.4,30.6z M48.4,29.8l0.2-0.2
				C48.6,29.7,48.5,29.8,48.4,29.8L48.4,29.8z M45.4,27.5l0-0.3l1,0.4c0.2,0,0.3,0,0.4,0c0,0.1,0.1,0.1,0.1,0.2
				c0,0.1-0.1,0.1-0.2,0.1C46.5,27.9,45.6,27.6,45.4,27.5z M39.7,34.4c-0.5-1.5-0.8-2.6-0.8-4.1c0-1,0.4-2,0.2-3
				c1.1,0.3,0.7,1.5,1.7,1.5c-0.2-0.2-0.3-0.4-0.4-0.6c0-0.4-0.3-0.7-0.4-0.9c0,0-0.2-0.1-0.2-0.1c0.6,0,1.3,1.6,1.8,1.9
				c0.2,0.1-0.1,0.5,0.5,0.5c0-0.1,0-0.2,0-0.2c0-0.2,0.1-0.3,0.1-0.5c0.1,0.1,0.2,0.1,0.2,0.2c0,0,0.5,0.6,0.5,0.6
				c-0.1,0-0.2,0.1-0.2,0.2c0,0.3,1.3,0.8,1.6,0.9c0.3,0,0.2-0.2,0.3-0.3c-0.7-0.5-1.7-0.8-2-1.6c-0.4-0.2-0.8-0.4-1.1-0.7
				c-0.4-0.4-0.5-0.8-1.2-1c-0.1,0-0.2,0-0.2,0c0.1-0.1,0.2-0.1,0.3-0.1c0.1,0,1.6,0.6,1.8,0.7c0.2,0,0.2,0,0.3-0.1
				c-0.2-0.2-0.9-0.4-0.9-0.6l0.2,0c0.7,0,1.4,0.4,2,0.5c0-0.2-0.1-0.3-0.1-0.4c0.1,0,0.2-0.1,0.4-0.1c0.3,0,0.7,0.2,1.1,0.3
				C45.6,27,46,27,46.3,27c1.3,0,0.8,0.5,1.4,0.5c0.1,0,0.2-0.1,0.2-0.2c0-0.2-0.3-0.6-0.6-0.6c-0.2,0-0.4-0.1-0.4-0.2
				c-0.2,0-1.9-0.1-2-0.2c1.4-0.3,2.1-1.2,3-1.9c0.1,0,0.2,0,0.3,0c0.3,0,0.6,0.1,0.9,0.3c0,0.1,0.1,0.3,0.1,0.4
				c0,0.3-0.1,0.6-0.1,0.9c0,0.1,0,0.3,0.1,0.4c0,0.1-0.2,0-0.2,0c-0.6,0-0.2,1.9-1.3,1.9L47.4,28c-0.3,0-0.8,0.1-1,0.1
				c-0.1,0-0.3-0.1-0.3-0.2c-0.1,0-1.1-0.3-1.2-0.4c-0.1,0-0.2,0-0.2,0c-0.2,0-0.2-0.1-0.3-0.1c-0.1,0-0.2,0-0.3,0
				c0.9,0.6,2.1,0.9,3.3,0.9c0.7,0,0.7,0,1.4-0.4c1-0.5,0.8-1.6,0.8-2.4c0-0.3,0-0.5,0.1-0.8l0.2,0c0.5,0.4,0.3,1.1,0.9,1.4
				c0,0.1,0.1,0.2,0.1,0.3c0,0.5-0.6,1-0.6,1.6c0,0.1,0,0.1,0,0.2c0,0,0.3,0,0.3,0.1c0,0.1-0.4,0.4-0.5,0.5l-0.3,0
				c-0.4,0.5-1.2,1.3-1.2,1.8c0,0-0.2,0.2-0.3,0.2c-1,0-2-0.3-3-0.3c-0.1,0-0.2,0-0.3,0c0.4,0.1,1.2,0.3,1.5,0.6
				c-0.6,0.2-1.1,0.2-1.6,0.2c-0.7,0-1.7,0.2-2.4,0.3c0.5-0.3,1.1-0.1,1.4-0.4c-0.2,0-0.4,0-0.5,0c-0.4,0-0.9,0.1-1.2,0.2
				c-0.2,0.2-0.3,0.4-0.7,0.4c-0.3-0.3-0.9-0.6-1-1c-0.8-0.5-0.2-1.8-0.7-1.8c-0.1,0.6,0,1.2,0,1.8c0,0.1,0,0.3,0.2,0.3
				c0.1,0,0.1-0.1,0.2-0.1c0,0.1-0.1,0.1-0.1,0.2l0.1,0.2c0.4,0.1,0.3,0.5,0.9,0.5c0.3,0,0.1,0.3,0.4,0.3c0.2,0,0.4-0.1,0.6-0.1
				c-0.1,0.1-0.2,0.1-0.2,0.2c0.3,0.1,0.5,0,0.6,0c0.1,0,0.2,0.1,0.3,0.1c0.3,0,0.4-0.1,0.4-0.3l0.3-0.1c0,0.1-0.1,0.2,0,0.2
				c-0.5,0.3-1.4,0.2-1.8,0.5c-0.2,0.1-0.4,0.9-0.6,0.9c0-0.2,0.3-0.2,0.1-0.4c0.1-0.1,0.1-0.3,0.1-0.4c0-0.1-0.5-1.1-0.7-1.1
				c-0.1,0.4,0.1,0.7,0,1c0,0.1,0.3,0,0.4,0.2c-0.3,0.3-0.3,0.6-0.5,1c0,0-0.1,0.7,0,0.8C40.2,34.6,39.9,34.7,39.7,34.4z"/>
		</defs>
		<clipPath id="SVGID_14_">
			<use xlink:href="#SVGID_13_"  style="overflow:visible;"/>
		</clipPath>
		<g class="st6">
			<defs>
				<rect id="SVGID_15_" x="-56.9" y="-2825" width="1112" height="3234"/>
			</defs>
			<clipPath id="SVGID_16_">
				<use xlink:href="#SVGID_15_"  style="overflow:visible;"/>
			</clipPath>
			<rect x="23.1" y="7.5" class="st7" width="33.6" height="32.1"/>
		</g>
	</g>
	<g>
		<defs>
			<path id="SVGID_17_" d="M28.1,31.4L28.1,31.4l-0.7,0.2l-1.1-1.8l0.1,0l0.1,0.1c0.1,0.1,0.1,0.1,0.2,0.2c0.1,0,0.1,0,0.3-0.1
				l1.5-0.9c0.1-0.1,0.2-0.2,0.2-0.2c0-0.1,0-0.2,0-0.2l-0.1-0.1l0.1,0l0.6,1.1l-0.1,0c-0.1-0.1-0.1-0.2-0.2-0.2
				c-0.1,0-0.1-0.1-0.2,0c0,0-0.1,0-0.3,0.1l-1.5,0.9c-0.1,0.1-0.2,0.1-0.2,0.1c0,0,0,0.1,0,0.1c0,0,0.1,0.1,0.1,0.3l0.1,0.2
				c0.1,0.2,0.2,0.3,0.3,0.4c0.1,0.1,0.2,0.1,0.3,0.1C27.7,31.5,27.9,31.5,28.1,31.4"/>
		</defs>
		<clipPath id="SVGID_18_">
			<use xlink:href="#SVGID_17_"  style="overflow:visible;"/>
		</clipPath>
		<g class="st8">
			<defs>
				<rect id="SVGID_19_" x="-56.9" y="-2825" width="1112" height="3234"/>
			</defs>
			<clipPath id="SVGID_20_">
				<use xlink:href="#SVGID_19_"  style="overflow:visible;"/>
			</clipPath>
			<rect x="21.2" y="23.4" class="st9" width="13" height="13.2"/>
		</g>
	</g>
	<g>
		<defs>
			<path id="SVGID_21_" d="M30.9,31.8L30.9,31.8l0.7,0.7l-0.1,0l-0.1-0.1c-0.1-0.1-0.2-0.1-0.3-0.1c0,0-0.1,0.1-0.2,0.2l-0.8,0.7
				c-0.2,0.2-0.4,0.3-0.5,0.4c-0.1,0.1-0.3,0.1-0.5,0c-0.2,0-0.4-0.2-0.6-0.4c-0.2-0.2-0.3-0.4-0.3-0.6c0-0.2,0-0.4,0.1-0.5
				c0.1-0.1,0.2-0.3,0.5-0.5l0.8-0.7c0.1-0.1,0.2-0.2,0.2-0.3c0-0.1,0-0.1-0.1-0.2l-0.1-0.1l0.1,0l0.8,0.9l-0.1,0l-0.1-0.1
				c-0.1-0.1-0.2-0.1-0.2-0.1c-0.1,0-0.1,0.1-0.3,0.2L29,32.1c-0.1,0.1-0.2,0.2-0.3,0.3c-0.1,0.1-0.1,0.2-0.2,0.3c0,0.1,0,0.2,0,0.3
				c0,0.1,0.1,0.2,0.2,0.3c0.1,0.1,0.3,0.2,0.4,0.3c0.2,0.1,0.3,0.1,0.4,0c0.1,0,0.3-0.2,0.5-0.4l0.8-0.7c0.1-0.1,0.2-0.2,0.2-0.3
				C31.1,32.1,31.1,32,30.9,31.8L30.9,31.8"/>
		</defs>
		<clipPath id="SVGID_22_">
			<use xlink:href="#SVGID_21_"  style="overflow:visible;"/>
		</clipPath>
		<g class="st10">
			<defs>
				<rect id="SVGID_23_" x="-56.9" y="-2825" width="1112" height="3234"/>
			</defs>
			<clipPath id="SVGID_24_">
				<use xlink:href="#SVGID_23_"  style="overflow:visible;"/>
			</clipPath>
			<rect x="23.3" y="25.4" class="st11" width="13.4" height="13.4"/>
		</g>
	</g>
	<g>
		<defs>
			<path id="SVGID_25_" d="M32,34.4L32,35.4c0,0.3,0,0.5,0,0.6c0,0.1,0.1,0.2,0.2,0.3l0,0.1l-0.9-0.7l0-0.1c0.1,0,0.1,0.1,0.2,0.1
				c0,0,0.1,0,0.1,0c0,0,0.1,0,0.1,0c0,0,0-0.1,0-0.1c0,0,0-0.1,0-0.2l0.1-0.8l-0.9,0.2c-0.1,0-0.2,0-0.2,0.1c0,0,0,0-0.1,0.1
				c0,0,0,0.1,0,0.1c0,0,0.1,0.1,0.1,0.2l0,0.1l-0.8-0.6l0-0.1c0.1,0,0.1,0.1,0.2,0.1c0.1,0,0.2,0,0.3,0c0.1,0,0.2,0,0.4-0.1l1-0.3
				l0-1c0-0.3,0-0.4,0-0.6c0-0.1-0.1-0.2-0.2-0.3l0-0.1l1,0.8l0,0.1c-0.1-0.1-0.2-0.1-0.2-0.1c0,0-0.1,0-0.1,0c0,0,0,0.1-0.1,0.2
				l0,0.8l0.8-0.2c0.1,0,0.1,0,0.2-0.1c0,0,0,0,0.1-0.1c0,0,0,0,0-0.1c0,0,0-0.1,0-0.1c0,0-0.1-0.1-0.1-0.1l0-0.1l0.8,0.6l0,0.1
				c-0.1,0-0.1-0.1-0.2-0.1c-0.1,0-0.2,0-0.2,0c-0.1,0-0.2,0-0.4,0.1L32,34.4"/>
		</defs>
		<clipPath id="SVGID_26_">
			<use xlink:href="#SVGID_25_"  style="overflow:visible;"/>
		</clipPath>
		<g class="st12">
			<defs>
				<rect id="SVGID_27_" x="-56.9" y="-2825" width="1112" height="3234"/>
			</defs>
			<clipPath id="SVGID_28_">
				<use xlink:href="#SVGID_27_"  style="overflow:visible;"/>
			</clipPath>
			<rect x="24.8" y="27.5" class="st13" width="13.9" height="13.9"/>
		</g>
	</g>
	<g>
		<defs>
			<path id="SVGID_29_" d="M35.8,35.4l-0.4,1l0.6,0.2c0.1,0.1,0.3,0.1,0.3,0c0.1,0,0.2-0.1,0.2-0.3l0.1,0l-0.3,0.9l-0.1,0
				c0-0.1,0-0.2,0-0.3c0-0.1,0-0.1-0.1-0.1c0,0-0.1-0.1-0.2-0.1l-0.6-0.2L35,37.4c0,0.1-0.1,0.2-0.1,0.2c0,0,0,0.1,0,0.1
				c0,0,0.1,0,0.1,0.1l0.4,0.2c0.1,0.1,0.3,0.1,0.3,0.1c0.1,0,0.2,0,0.2,0c0.1,0,0.2-0.1,0.4-0.3l0.1,0l-0.5,0.6l-2-0.8l0-0.1l0.1,0
				c0.1,0,0.1,0,0.2,0c0,0,0.1,0,0.1-0.1c0,0,0.1-0.1,0.1-0.2l0.6-1.7c0.1-0.2,0.1-0.3,0.1-0.3c0-0.1-0.1-0.1-0.2-0.2l-0.1,0l0-0.1
				l2,0.8l-0.2,0.6l-0.1,0c0-0.1,0-0.2,0-0.3c0-0.1,0-0.1-0.1-0.2c0,0-0.1-0.1-0.3-0.1L35.8,35.4"/>
		</defs>
		<clipPath id="SVGID_30_">
			<use xlink:href="#SVGID_29_"  style="overflow:visible;"/>
		</clipPath>
		<g class="st14">
			<defs>
				<rect id="SVGID_31_" x="-56.9" y="-2825" width="1112" height="3234"/>
			</defs>
			<clipPath id="SVGID_32_">
				<use xlink:href="#SVGID_31_"  style="overflow:visible;"/>
			</clipPath>
			<rect x="29.2" y="29.9" class="st15" width="12.9" height="13.3"/>
		</g>
	</g>
	<g>
		<defs>
			<path id="SVGID_33_" d="M39.5,36.2l-0.1,0.6l-0.1,0c0-0.1,0-0.2,0-0.2c0-0.1-0.1-0.2-0.1-0.2c-0.1,0-0.1-0.1-0.3-0.1l-0.4-0.1
				l-0.4,2c0,0.2,0,0.3,0,0.3c0,0.1,0.1,0.1,0.2,0.1l0.1,0l0,0.1l-1.1-0.2l0-0.1l0.1,0c0.1,0,0.2,0,0.3-0.1c0,0,0.1-0.1,0.1-0.3
				l0.4-2l-0.3-0.1c-0.1,0-0.2,0-0.3,0c-0.1,0-0.1,0-0.2,0.1c-0.1,0.1-0.1,0.2-0.1,0.3l-0.1,0l0.2-0.6L39.5,36.2"/>
		</defs>
		<clipPath id="SVGID_34_">
			<use xlink:href="#SVGID_33_"  style="overflow:visible;"/>
		</clipPath>
		<g class="st16">
			<defs>
				<rect id="SVGID_35_" x="-56.9" y="-2825" width="1112" height="3234"/>
			</defs>
			<clipPath id="SVGID_36_">
				<use xlink:href="#SVGID_35_"  style="overflow:visible;"/>
			</clipPath>
			<rect x="32.2" y="30.8" class="st17" width="12.3" height="13"/>
		</g>
	</g>
	<g>
		<defs>
			<path id="SVGID_37_" d="M43.8,36.1L43.8,36.1c-0.1,0.1-0.2,0.1-0.2,0.2c-0.1,0.1-0.1,0.2-0.2,0.3L42.7,39l-0.1,0l-1.2-2.3
				c-0.1-0.1-0.1-0.2-0.1-0.2c0,0-0.1-0.1-0.1-0.1c0,0-0.1,0-0.2,0l0-0.1l1.1-0.1l0,0.1c-0.1,0-0.2,0.1-0.2,0.1c0,0,0,0.1,0,0.1
				c0,0.1,0,0.2,0.1,0.3l0.8,1.5l0.5-1.6c0-0.2,0.1-0.3,0.1-0.3c0,0,0-0.1-0.1-0.1c0,0-0.1-0.1-0.2-0.1c0,0,0,0,0,0l0-0.1L43.8,36.1
				"/>
		</defs>
		<clipPath id="SVGID_38_">
			<use xlink:href="#SVGID_37_"  style="overflow:visible;"/>
		</clipPath>
		<g class="st18">
			<defs>
				<rect id="SVGID_39_" x="-56.9" y="-2825" width="1112" height="3234"/>
			</defs>
			<clipPath id="SVGID_40_">
				<use xlink:href="#SVGID_39_"  style="overflow:visible;"/>
			</clipPath>
			<rect x="35.9" y="31.1" class="st19" width="12.9" height="12.9"/>
		</g>
	</g>
	<g>
		<defs>
			<path id="SVGID_41_" d="M44.6,36.1l0.3,1l0.6-0.2c0.2,0,0.2-0.1,0.3-0.1c0.1-0.1,0.1-0.2,0-0.3l0.1,0l0.2,0.9l-0.1,0
				c-0.1-0.1-0.1-0.2-0.1-0.2c0,0-0.1-0.1-0.1-0.1c-0.1,0-0.1,0-0.3,0l-0.6,0.2l0.2,0.9c0,0.1,0.1,0.2,0.1,0.2c0,0,0,0,0.1,0
				c0,0,0.1,0,0.2,0l0.4-0.1c0.1,0,0.3-0.1,0.3-0.1c0.1,0,0.1-0.1,0.2-0.2c0.1-0.1,0.1-0.2,0.1-0.4l0.1,0l-0.1,0.7l-2,0.5l0-0.1
				l0.1,0c0.1,0,0.1,0,0.2-0.1c0,0,0.1-0.1,0.1-0.1c0,0,0-0.1,0-0.3l-0.5-1.7c0-0.2-0.1-0.3-0.1-0.3c-0.1,0-0.1,0-0.3,0l-0.1,0
				l0-0.1l2-0.5l0.2,0.6l-0.1,0c-0.1-0.1-0.1-0.2-0.2-0.3c0,0-0.1-0.1-0.2-0.1c-0.1,0-0.2,0-0.3,0L44.6,36.1"/>
		</defs>
		<clipPath id="SVGID_42_">
			<use xlink:href="#SVGID_41_"  style="overflow:visible;"/>
		</clipPath>
		<g class="st20">
			<defs>
				<rect id="SVGID_43_" x="-56.9" y="-2825" width="1112" height="3234"/>
			</defs>
			<clipPath id="SVGID_44_">
				<use xlink:href="#SVGID_43_"  style="overflow:visible;"/>
			</clipPath>
			<rect x="38.8" y="30.6" class="st21" width="12.8" height="13.2"/>
		</g>
	</g>
	<g>
		<defs>
			<path id="SVGID_45_" d="M47.4,36.4C47.4,36.4,47.4,36.4,47.4,36.4c0.1,0,0.1,0,0.1,0c0.2-0.1,0.4-0.2,0.5-0.4
				c0.1-0.2,0.1-0.3,0-0.5c-0.1-0.2-0.2-0.3-0.3-0.3c-0.1-0.1-0.3,0-0.5,0c-0.1,0-0.2,0.1-0.3,0.2L47.4,36.4z M49.7,36.8l-0.7,0.3
				l-1.4-0.8c-0.1,0-0.1,0.1-0.1,0.1c0,0,0,0-0.1,0c0,0,0,0-0.1,0l0.3,0.7c0.1,0.2,0.1,0.2,0.2,0.3c0.1,0,0.2,0,0.2,0l0.1,0l0,0.1
				L47.3,38l0-0.1l0.1,0c0.1,0,0.2-0.1,0.2-0.2c0-0.1,0-0.1-0.1-0.3l-0.7-1.6c-0.1-0.2-0.1-0.2-0.2-0.3c-0.1,0-0.2,0-0.3,0l-0.1,0
				l0-0.1l0.9-0.4c0.3-0.1,0.5-0.2,0.6-0.2c0.1,0,0.3,0,0.4,0.1c0.1,0.1,0.2,0.2,0.3,0.3c0.1,0.2,0.1,0.3,0,0.5
				c0,0.2-0.2,0.3-0.3,0.5l0.8,0.5c0.2,0.1,0.3,0.2,0.5,0.2C49.4,36.8,49.5,36.8,49.7,36.8L49.7,36.8z"/>
		</defs>
		<clipPath id="SVGID_46_">
			<use xlink:href="#SVGID_45_"  style="overflow:visible;"/>
		</clipPath>
		<g class="st22">
			<defs>
				<rect id="SVGID_47_" x="-56.9" y="-2825" width="1112" height="3234"/>
			</defs>
			<clipPath id="SVGID_48_">
				<use xlink:href="#SVGID_47_"  style="overflow:visible;"/>
			</clipPath>
			<rect x="41.1" y="29.9" class="st23" width="13.6" height="13.1"/>
		</g>
	</g>
	<g>
		<defs>
			<path id="SVGID_49_" d="M50.9,36L50.9,36L50,36.7l0-0.1l0.1-0.1c0.1-0.1,0.1-0.1,0.2-0.2c0-0.1,0-0.1-0.1-0.3l-1-1.5
				c-0.1-0.1-0.1-0.2-0.2-0.2c0,0-0.1,0-0.1,0c-0.1,0-0.1,0-0.2,0.1l-0.1,0.1l0-0.1l1-0.6l0,0.1l-0.1,0.1c-0.1,0.1-0.1,0.1-0.2,0.2
				c0,0.1,0,0.1,0.1,0.3l1,1.5c0.1,0.1,0.1,0.2,0.2,0.2c0,0,0.1,0,0.1,0C50.7,36.1,50.8,36.1,50.9,36L50.9,36"/>
		</defs>
		<clipPath id="SVGID_50_">
			<use xlink:href="#SVGID_49_"  style="overflow:visible;"/>
		</clipPath>
		<g class="st24">
			<defs>
				<rect id="SVGID_51_" x="-56.9" y="-2825" width="1112" height="3234"/>
			</defs>
			<clipPath id="SVGID_52_">
				<use xlink:href="#SVGID_51_"  style="overflow:visible;"/>
			</clipPath>
			<rect x="43.5" y="28.7" class="st25" width="12.5" height="12.9"/>
		</g>
	</g>
	<g>
		<defs>
			<path id="SVGID_53_" d="M51.4,32.1l0.4,0.5l-0.1,0c-0.1-0.1-0.2-0.1-0.2-0.1c-0.1,0-0.2,0-0.2,0c-0.1,0-0.2,0.1-0.2,0.1l-0.3,0.2
				l1.3,1.6c0.1,0.1,0.2,0.2,0.2,0.2c0.1,0,0.2,0,0.2-0.1l0.1-0.1l0,0.1l-0.9,0.7l0-0.1l0.1-0.1C52,35.1,52,35,52,35
				c0-0.1-0.1-0.1-0.2-0.3l-1.3-1.6l-0.3,0.2c-0.1,0.1-0.2,0.1-0.2,0.2c0,0.1-0.1,0.1,0,0.2c0,0.1,0,0.2,0.1,0.3l-0.1,0l-0.4-0.5
				L51.4,32.1"/>
		</defs>
		<clipPath id="SVGID_54_">
			<use xlink:href="#SVGID_53_"  style="overflow:visible;"/>
		</clipPath>
		<g class="st26">
			<defs>
				<rect id="SVGID_55_" x="-56.9" y="-2825" width="1112" height="3234"/>
			</defs>
			<clipPath id="SVGID_56_">
				<use xlink:href="#SVGID_55_"  style="overflow:visible;"/>
			</clipPath>
			<rect x="44.7" y="27.1" class="st27" width="13" height="13.2"/>
		</g>
	</g>
	<g>
		<defs>
			<path id="SVGID_57_" d="M53.6,32.2l-1.1-0.4l0.5,1.1L53.6,32.2z M53.7,32.2L53,33l0.2,0.4c0.1,0.1,0.1,0.2,0.1,0.2
				c0,0,0.1,0,0.1,0c0,0,0.1-0.1,0.2-0.2l0.1,0l-0.6,0.7l-0.1,0c0.1-0.1,0.1-0.2,0.1-0.2c0-0.1-0.1-0.2-0.2-0.4L52,31.3l0-0.1
				l2.4,0.7c0.2,0.1,0.3,0.1,0.4,0.1c0.1,0,0.2-0.1,0.2-0.1l0.1,0l-0.7,0.8l-0.1,0c0.1-0.1,0.1-0.2,0.1-0.2c0,0,0-0.1,0-0.1
				c0,0-0.1-0.1-0.3-0.1L53.7,32.2z"/>
		</defs>
		<clipPath id="SVGID_58_">
			<use xlink:href="#SVGID_57_"  style="overflow:visible;"/>
		</clipPath>
		<g class="st28">
			<defs>
				<rect id="SVGID_59_" x="-56.9" y="-2825" width="1112" height="3234"/>
			</defs>
			<clipPath id="SVGID_60_">
				<use xlink:href="#SVGID_59_"  style="overflow:visible;"/>
			</clipPath>
			<rect x="47" y="26.3" class="st29" width="13.1" height="12.9"/>
		</g>
	</g>
	<g>
		<defs>
			<path id="SVGID_61_" d="M53.7,28.9l0.8,0.5l0,0.1c-0.2-0.1-0.3-0.1-0.4-0.1c-0.1,0-0.2,0-0.4,0.1c-0.1,0.1-0.2,0.1-0.3,0.3
				c-0.1,0.1-0.1,0.2-0.1,0.4c0,0.1,0.1,0.2,0.2,0.3c0.1,0,0.2,0.1,0.2,0c0.1,0,0.3-0.1,0.7-0.3c0.3-0.1,0.4-0.2,0.5-0.3
				c0.1,0,0.2-0.1,0.3,0c0.1,0,0.2,0,0.3,0.1c0.2,0.1,0.3,0.3,0.3,0.5c0,0.2,0,0.4-0.1,0.6c0,0.1-0.1,0.1-0.1,0.2
				c0,0-0.1,0.1-0.2,0.2c-0.1,0.1-0.2,0.1-0.2,0.2c0,0,0,0.1,0,0.1c0,0,0,0.1,0.1,0.1l0,0.1l-0.8-0.5l0-0.1c0.2,0.1,0.3,0.1,0.4,0.1
				c0.1,0,0.2,0,0.3-0.1c0.1-0.1,0.2-0.2,0.3-0.3c0.1-0.1,0.1-0.3,0.1-0.4c0-0.1-0.1-0.2-0.2-0.3c-0.1,0-0.1-0.1-0.2-0.1
				c-0.1,0-0.2,0-0.3,0c-0.1,0-0.2,0.1-0.4,0.2c-0.2,0.1-0.4,0.2-0.5,0.3c-0.1,0-0.2,0.1-0.3,0.1c-0.1,0-0.2,0-0.3-0.1
				c-0.2-0.1-0.3-0.3-0.3-0.5c0-0.2,0-0.4,0.1-0.6c0.1-0.1,0.2-0.2,0.3-0.3c0.1,0,0.1-0.1,0.1-0.1c0,0,0-0.1,0-0.1
				C53.7,29,53.7,29,53.7,28.9L53.7,28.9"/>
		</defs>
		<clipPath id="SVGID_62_">
			<use xlink:href="#SVGID_61_"  style="overflow:visible;"/>
		</clipPath>
		<g class="st30">
			<defs>
				<rect id="SVGID_63_" x="-56.9" y="-2825" width="1112" height="3234"/>
			</defs>
			<clipPath id="SVGID_64_">
				<use xlink:href="#SVGID_63_"  style="overflow:visible;"/>
			</clipPath>
			<rect x="48.1" y="23.9" class="st31" width="12.8" height="12.9"/>
		</g>
	</g>
	<g>
		<defs>
			<path id="SVGID_65_" d="M22.4,21.1c0-10.6,8.6-19.2,19.2-19.2s19.2,8.6,19.2,19.2c0,10.6-8.6,19.2-19.2,19.2S22.4,31.7,22.4,21.1
				 M22.8,21.1c0,10.4,8.4,18.8,18.8,18.8c10.4,0,18.8-8.4,18.8-18.8c0-10.4-8.4-18.8-18.8-18.8C31.2,2.3,22.8,10.7,22.8,21.1"/>
		</defs>
		<clipPath id="SVGID_66_">
			<use xlink:href="#SVGID_65_"  style="overflow:visible;"/>
		</clipPath>
		<g class="st32">
			<defs>
				<rect id="SVGID_67_" x="-56.9" y="-2825" width="1112" height="3234"/>
			</defs>
			<clipPath id="SVGID_68_">
				<use xlink:href="#SVGID_67_"  style="overflow:visible;"/>
			</clipPath>
			<rect x="17.4" y="-3.1" class="st33" width="48.4" height="48.4"/>
		</g>
	</g>
	<g>
		<defs>
			<path id="SVGID_69_" d="M24.3,18.9l1.5,0.1l0,0.1c-0.3,0-0.5,0.1-0.7,0.1c-0.2,0.1-0.3,0.2-0.4,0.4c-0.1,0.2-0.2,0.3-0.2,0.5
				c0,0.2,0,0.4,0.2,0.6c0.1,0.2,0.3,0.2,0.4,0.3c0.1,0,0.2,0,0.4-0.1c0.2-0.1,0.4-0.4,0.7-0.9c0.2-0.4,0.4-0.6,0.6-0.8
				c0.1-0.1,0.3-0.2,0.4-0.3c0.2-0.1,0.3-0.1,0.5-0.1c0.3,0,0.6,0.2,0.8,0.4c0.2,0.3,0.3,0.6,0.3,1c0,0.1,0,0.2-0.1,0.3
				c0,0.1-0.1,0.2-0.1,0.4c-0.1,0.2-0.1,0.3-0.1,0.4c0,0.1,0,0.1,0,0.1c0,0,0.1,0.1,0.2,0.1l0,0.1L27,21.6l0-0.1
				c0.3,0,0.5-0.1,0.7-0.2c0.2-0.1,0.3-0.2,0.4-0.4c0.1-0.2,0.2-0.4,0.2-0.6c0-0.3,0-0.5-0.2-0.6c-0.1-0.2-0.3-0.3-0.5-0.3
				c-0.1,0-0.2,0-0.3,0.1c-0.1,0-0.2,0.1-0.3,0.2c-0.1,0.1-0.2,0.3-0.5,0.6c-0.2,0.3-0.4,0.6-0.6,0.7c-0.1,0.1-0.3,0.2-0.4,0.3
				c-0.2,0.1-0.3,0.1-0.5,0.1c-0.3,0-0.6-0.2-0.7-0.4c-0.2-0.3-0.3-0.6-0.3-0.9c0-0.2,0.1-0.5,0.2-0.7c0.1-0.1,0.1-0.2,0.1-0.2
				c0-0.1,0-0.1,0-0.1c0,0-0.1-0.1-0.2-0.1L24.3,18.9"/>
		</defs>
		<clipPath id="SVGID_70_">
			<use xlink:href="#SVGID_69_"  style="overflow:visible;"/>
		</clipPath>
		<g class="st34">
			<defs>
				<rect id="SVGID_71_" x="-56.9" y="-2825" width="1112" height="3234"/>
			</defs>
			<clipPath id="SVGID_72_">
				<use xlink:href="#SVGID_71_"  style="overflow:visible;"/>
			</clipPath>
			<rect x="19.1" y="13.9" class="st35" width="14.4" height="12.9"/>
		</g>
	</g>
	<g>
		<defs>
			<path id="SVGID_73_" d="M28,15.6l-1.9,0l1.3,1.3L28,15.6z M28.2,15.6l-0.6,1.5l0.5,0.5c0.1,0.1,0.2,0.2,0.3,0.2
				c0.1,0,0.1,0,0.2,0c0.1,0,0.1-0.2,0.2-0.3l0.1,0l-0.5,1.2l-0.1,0c0-0.2,0-0.3,0-0.4c-0.1-0.1-0.2-0.3-0.4-0.6l-2.7-2.7l0-0.1
				l3.8,0c0.3,0,0.5,0,0.6-0.1c0.1-0.1,0.2-0.2,0.3-0.3l0.1,0l-0.6,1.5l-0.1,0c0.1-0.2,0.1-0.3,0-0.3c0-0.1-0.1-0.1-0.1-0.1
				c-0.1,0-0.2,0-0.4,0L28.2,15.6z"/>
		</defs>
		<clipPath id="SVGID_74_">
			<use xlink:href="#SVGID_73_"  style="overflow:visible;"/>
		</clipPath>
		<g class="st36">
			<defs>
				<rect id="SVGID_75_" x="-56.9" y="-2825" width="1112" height="3234"/>
			</defs>
			<clipPath id="SVGID_76_">
				<use xlink:href="#SVGID_75_"  style="overflow:visible;"/>
			</clipPath>
			<rect x="20.3" y="9.6" class="st37" width="14.9" height="14.2"/>
		</g>
	</g>
	<g>
		<defs>
			<path id="SVGID_77_" d="M26.9,11.9l0.8-0.9l4.1,0.2l-1.8-1.6c-0.2-0.2-0.3-0.3-0.4-0.3c-0.1,0-0.2,0.1-0.3,0.2l-0.1,0.1L29,9.6
				l1-1.1l0.1,0.1L30,8.7c-0.1,0.1-0.2,0.3-0.1,0.4c0,0.1,0.1,0.2,0.3,0.4l2.6,2.4l-0.1,0.1l-4.4-0.2l1.9,1.7
				c0.2,0.2,0.3,0.3,0.4,0.3c0.1,0,0.2-0.1,0.3-0.2l0.1-0.1l0.1,0.1l-1,1.1l-0.1-0.1l0.1-0.1c0.1-0.1,0.2-0.3,0.1-0.4
				c0-0.1-0.1-0.2-0.3-0.4l-2.2-2c-0.2,0-0.3,0-0.4,0c-0.1,0-0.2,0.1-0.3,0.1C27.1,11.8,27.1,11.9,26.9,11.9L26.9,11.9"/>
		</defs>
		<clipPath id="SVGID_78_">
			<use xlink:href="#SVGID_77_"  style="overflow:visible;"/>
		</clipPath>
		<g class="st38">
			<defs>
				<rect id="SVGID_79_" x="-56.9" y="-2825" width="1112" height="3234"/>
			</defs>
			<clipPath id="SVGID_80_">
				<use xlink:href="#SVGID_79_"  style="overflow:visible;"/>
			</clipPath>
			<rect x="21.9" y="3.5" class="st39" width="15.9" height="16.1"/>
		</g>
	</g>
	<g>
		<defs>
			<path id="SVGID_81_" d="M34,5.9l0.6,0.8l-0.1,0.1c-0.1-0.1-0.2-0.2-0.3-0.3c-0.1-0.1-0.2-0.1-0.4-0.1c-0.1,0-0.3,0.1-0.4,0.1
				l-0.5,0.3l1.7,2.8c0.1,0.2,0.2,0.3,0.3,0.4c0.1,0,0.2,0,0.4-0.1l0.1-0.1l0.1,0.1l-1.5,0.9l-0.1-0.1l0.1-0.1
				c0.2-0.1,0.2-0.2,0.2-0.3c0-0.1-0.1-0.2-0.2-0.4l-1.7-2.8l-0.4,0.3c-0.2,0.1-0.3,0.2-0.3,0.3c-0.1,0.1-0.1,0.2-0.1,0.3
				c0,0.1,0,0.3,0.1,0.5l-0.1,0.1L31,7.6L34,5.9"/>
		</defs>
		<clipPath id="SVGID_82_">
			<use xlink:href="#SVGID_81_"  style="overflow:visible;"/>
		</clipPath>
		<g class="st40">
			<defs>
				<rect id="SVGID_83_" x="-56.9" y="-2825" width="1112" height="3234"/>
			</defs>
			<clipPath id="SVGID_84_">
				<use xlink:href="#SVGID_83_"  style="overflow:visible;"/>
			</clipPath>
			<rect x="26" y="0.9" class="st41" width="14.4" height="15"/>
		</g>
	</g>
	<g>
		<defs>
			<path id="SVGID_85_" d="M37.3,4.9C37,5,36.7,5.2,36.5,5.6c-0.2,0.4-0.2,0.9,0,1.6c0.2,0.7,0.4,1.1,0.8,1.4c0.3,0.2,0.6,0.3,1,0.2
				c0.4-0.1,0.7-0.3,0.8-0.7c0.2-0.4,0.2-0.9,0-1.5c-0.2-0.7-0.4-1.2-0.8-1.5C38.1,4.9,37.7,4.8,37.3,4.9 M37.3,4.7
				c0.5-0.1,1,0,1.5,0.3c0.5,0.3,0.8,0.8,1,1.4C40,6.9,39.9,7.5,39.6,8c-0.3,0.5-0.7,0.8-1.3,1c-0.6,0.1-1.1,0.1-1.6-0.2
				c-0.5-0.3-0.8-0.8-1-1.4c-0.2-0.7-0.1-1.2,0.3-1.8C36.4,5.1,36.8,4.8,37.3,4.7"/>
		</defs>
		<clipPath id="SVGID_86_">
			<use xlink:href="#SVGID_85_"  style="overflow:visible;"/>
		</clipPath>
		<g class="st42">
			<defs>
				<rect id="SVGID_87_" x="-56.9" y="-2825" width="1112" height="3234"/>
			</defs>
			<clipPath id="SVGID_88_">
				<use xlink:href="#SVGID_87_"  style="overflow:visible;"/>
			</clipPath>
			<rect x="30.7" y="-0.4" class="st43" width="14.2" height="14.4"/>
		</g>
	</g>
	<g>
		<defs>
			<path id="SVGID_89_" d="M45.8,4.8l-0.1,1l-0.1,0c0-0.2,0-0.3,0-0.4c0-0.1-0.1-0.2-0.2-0.3C45.2,5,45.1,5,44.9,4.9l-0.6-0.1
				L43.8,8c0,0.3,0,0.4,0,0.5c0.1,0.1,0.2,0.2,0.3,0.2l0.1,0l0,0.1l-1.8-0.3l0-0.1l0.1,0c0.2,0,0.3,0,0.4-0.1
				c0.1-0.1,0.1-0.2,0.1-0.4l0.5-3.2l-0.5-0.1c-0.2,0-0.3,0-0.4,0c-0.1,0-0.2,0.1-0.3,0.2c-0.1,0.1-0.2,0.2-0.2,0.4l-0.1,0l0.2-1
				L45.8,4.8"/>
		</defs>
		<clipPath id="SVGID_90_">
			<use xlink:href="#SVGID_89_"  style="overflow:visible;"/>
		</clipPath>
		<g class="st44">
			<defs>
				<rect id="SVGID_91_" x="-56.9" y="-2825" width="1112" height="3234"/>
			</defs>
			<clipPath id="SVGID_92_">
				<use xlink:href="#SVGID_91_"  style="overflow:visible;"/>
			</clipPath>
			<rect x="37.2" y="-0.7" class="st45" width="13.6" height="14.6"/>
		</g>
	</g>
	<g>
		<defs>
			<path id="SVGID_93_" d="M49.1,6.4c-0.3-0.2-0.7-0.2-1-0.1c-0.4,0.2-0.8,0.6-1.1,1.2c-0.3,0.6-0.4,1.1-0.4,1.6
				c0.1,0.4,0.3,0.6,0.6,0.8c0.3,0.2,0.7,0.2,1.1,0.1c0.4-0.2,0.7-0.5,1-1.1c0.3-0.6,0.5-1.2,0.4-1.6C49.7,6.8,49.5,6.5,49.1,6.4
				 M49.3,6.2c0.5,0.3,0.8,0.7,1,1.2C50.4,8,50.3,8.5,50,9.1c-0.3,0.6-0.7,0.9-1.3,1.1c-0.6,0.2-1.1,0.1-1.6-0.1
				c-0.5-0.3-0.8-0.7-1-1.2c-0.2-0.5-0.1-1.1,0.2-1.7c0.3-0.6,0.8-1,1.4-1.1C48.3,5.9,48.8,5.9,49.3,6.2"/>
		</defs>
		<clipPath id="SVGID_94_">
			<use xlink:href="#SVGID_93_"  style="overflow:visible;"/>
		</clipPath>
		<g class="st46">
			<defs>
				<rect id="SVGID_95_" x="-56.9" y="-2825" width="1112" height="3234"/>
			</defs>
			<clipPath id="SVGID_96_">
				<use xlink:href="#SVGID_95_"  style="overflow:visible;"/>
			</clipPath>
			<rect x="41.1" y="0.9" class="st47" width="14.2" height="14.4"/>
		</g>
	</g>
	<g>
		<defs>
			<path id="SVGID_97_" d="M51,12.9l1.7-3.5l-2.2,1.8c-0.2,0.2-0.3,0.3-0.3,0.4c0,0.1,0,0.2,0.1,0.4l0.1,0.1l-0.1,0.1L49.3,11
				l0.1-0.1l0.1,0.1c0.1,0.1,0.2,0.2,0.4,0.2c0.1,0,0.2-0.1,0.4-0.2l2.1-1.8c0.1-0.1,0.2-0.2,0.3-0.3c0-0.1,0-0.1,0-0.2
				c0-0.1-0.1-0.2-0.2-0.3l0.1-0.1l0.8,0.9l-1.5,3.3l3.5-1l0.8,0.9L56,12.5l-0.1-0.1c-0.1-0.1-0.2-0.2-0.4-0.2
				c-0.1,0-0.2,0.1-0.4,0.2L53,14.2c-0.2,0.2-0.3,0.3-0.3,0.4c0,0.1,0,0.2,0.1,0.4l0.1,0.1l-0.1,0.1l-1.2-1.4l0.1-0.1l0.1,0.1
				c0.1,0.1,0.2,0.2,0.4,0.2c0.1,0,0.2-0.1,0.4-0.2l2.2-1.8L51,12.9L51,12.9"/>
		</defs>
		<clipPath id="SVGID_98_">
			<use xlink:href="#SVGID_97_"  style="overflow:visible;"/>
		</clipPath>
		<g class="st48">
			<defs>
				<rect id="SVGID_99_" x="-56.9" y="-2825" width="1112" height="3234"/>
			</defs>
			<clipPath id="SVGID_100_">
				<use xlink:href="#SVGID_99_"  style="overflow:visible;"/>
			</clipPath>
			<rect x="44.3" y="3.3" class="st49" width="16.7" height="16.9"/>
		</g>
	</g>
	<g>
		<defs>
			<path id="SVGID_101_" d="M59.1,17.1l-1.3-0.5l0-0.1l1.1,0L59.1,17.1z M55.3,17.4l1.4-1.2L54.8,16L55.3,17.4z M55.1,17.5L54.6,16
				l-0.7-0.1c-0.2,0-0.3,0-0.4,0c-0.1,0-0.1,0.1-0.1,0.1c0,0.1,0,0.2,0,0.4l-0.1,0l-0.4-1.3l0.1,0c0.1,0.2,0.2,0.3,0.2,0.3
				c0.1,0.1,0.4,0.1,0.7,0.1l3.8,0.3l0,0.1l-2.9,2.5c-0.2,0.2-0.4,0.4-0.4,0.5c0,0.1-0.1,0.3,0,0.4l-0.1,0l-0.5-1.6l0.1,0
				c0.1,0.2,0.1,0.3,0.2,0.3c0.1,0,0.1,0.1,0.2,0c0.1,0,0.2-0.1,0.4-0.3L55.1,17.5z"/>
		</defs>
		<clipPath id="SVGID_102_">
			<use xlink:href="#SVGID_101_"  style="overflow:visible;"/>
		</clipPath>
		<g class="st50">
			<defs>
				<rect id="SVGID_103_" x="-56.9" y="-2825" width="1112" height="3234"/>
			</defs>
			<clipPath id="SVGID_104_">
				<use xlink:href="#SVGID_103_"  style="overflow:visible;"/>
			</clipPath>
			<rect x="47.8" y="10.2" class="st51" width="16.2" height="14.3"/>
		</g>
	</g>
	<g>
		<defs>
			<path id="SVGID_105_" d="M58.5,22.2l-1.5,0l0-0.1c0.3,0,0.5-0.1,0.7-0.2c0.2-0.1,0.3-0.2,0.4-0.4c0.1-0.2,0.1-0.4,0.1-0.6
				c0-0.2-0.1-0.4-0.2-0.5c-0.1-0.1-0.3-0.2-0.5-0.2c-0.1,0-0.2,0-0.3,0.1c-0.2,0.1-0.4,0.4-0.6,0.9c-0.2,0.4-0.4,0.7-0.5,0.8
				c-0.1,0.1-0.2,0.3-0.4,0.3c-0.2,0.1-0.3,0.1-0.5,0.1c-0.3,0-0.6-0.1-0.8-0.4c-0.2-0.2-0.4-0.6-0.4-0.9c0-0.1,0-0.2,0-0.3
				c0-0.1,0-0.2,0.1-0.4c0.1-0.2,0.1-0.3,0.1-0.4c0-0.1,0-0.1,0-0.1c0,0-0.1,0-0.2-0.1l0-0.1l1.4,0l0,0.1c-0.3,0.1-0.5,0.1-0.7,0.2
				c-0.1,0.1-0.3,0.2-0.4,0.4c-0.1,0.2-0.1,0.4-0.1,0.6c0,0.3,0.1,0.5,0.2,0.6c0.1,0.1,0.3,0.2,0.5,0.2c0.1,0,0.2,0,0.3-0.1
				c0.1-0.1,0.2-0.1,0.3-0.3c0.1-0.1,0.2-0.3,0.4-0.7c0.2-0.4,0.4-0.6,0.5-0.8c0.1-0.2,0.2-0.3,0.4-0.4c0.1-0.1,0.3-0.1,0.5-0.1
				c0.3,0,0.6,0.1,0.8,0.3c0.2,0.2,0.3,0.5,0.3,0.9c0,0.2,0,0.5-0.2,0.7c0,0.1-0.1,0.2-0.1,0.2c0,0.1,0,0.1,0,0.1
				c0,0,0.1,0.1,0.2,0.1L58.5,22.2"/>
		</defs>
		<clipPath id="SVGID_106_">
			<use xlink:href="#SVGID_105_"  style="overflow:visible;"/>
		</clipPath>
		<g class="st52">
			<defs>
				<rect id="SVGID_107_" x="-56.9" y="-2825" width="1112" height="3234"/>
			</defs>
			<clipPath id="SVGID_108_">
				<use xlink:href="#SVGID_107_"  style="overflow:visible;"/>
			</clipPath>
			<rect x="49.1" y="14.7" class="st53" width="14.5" height="12.8"/>
		</g>
	</g>
	<path class="st54" d="M1.8,76.4c-0.3-0.2-0.3-0.2-0.3-0.8c0-1.1,0.1-2,0.1-2.3c0-0.2,0.1-0.4,0.2-0.4C1.9,72.9,2,73,2,73.2
		c0,0.2,0,0.5,0.1,0.8c0.4,1.6,2.1,2.2,3.6,2.2c2.2,0,3.4-1.3,3.4-2.9c0-1.6-0.9-2.3-2.9-3.8l-1-0.8c-2.5-1.8-3.3-3.2-3.3-4.7
		c0-2.6,2-4.1,5-4.1c0.9,0,1.8,0.1,2.3,0.3c0.4,0.1,0.6,0.1,0.8,0.1c0.2,0,0.2,0,0.2,0.2c0,0.1-0.1,0.8-0.1,2.3c0,0.3,0,0.5-0.2,0.5
		c-0.2,0-0.2-0.1-0.2-0.3c0-0.3-0.2-0.9-0.3-1.1c-0.2-0.3-0.9-1.1-2.9-1.1c-1.7,0-3,0.8-3,2.4c0,1.4,0.7,2.2,2.9,3.7l0.6,0.4
		c2.8,1.9,3.7,3.4,3.7,5.3c0,1.3-0.5,2.7-2.1,3.7c-1,0.6-2.4,0.8-3.6,0.8C4,77,2.7,76.9,1.8,76.4"/>
	<path class="st54" d="M19.9,60.6c0.3-0.7,0.4-0.9,0.5-0.9c0.2,0,0.3,0.3,0.5,0.8c0.4,0.9,4.1,10,5.4,13.3c0.8,2,1.4,2.2,1.9,2.4
		c0.3,0.1,0.7,0.1,0.9,0.1c0.1,0,0.3,0.1,0.3,0.2s-0.3,0.2-0.5,0.2c-0.3,0-2,0-3.6-0.1c-0.4,0-0.8,0-0.8-0.2c0-0.1,0.1-0.1,0.2-0.2
		c0.1-0.1,0.4-0.2,0.2-0.6l-2-5c-0.1-0.1-0.1-0.1-0.2-0.1h-5.2c-0.1,0-0.2,0.1-0.2,0.2L16,74.3c-0.2,0.5-0.3,1.1-0.3,1.5
		c0,0.4,0.4,0.6,0.8,0.6h0.2c0.2,0,0.2,0.1,0.2,0.2c0,0.1-0.1,0.2-0.3,0.2c-0.5,0-1.8-0.1-2-0.1c-0.2,0-1.4,0.1-2.3,0.1
		c-0.3,0-0.4-0.1-0.4-0.2c0-0.1,0.1-0.2,0.2-0.2c0.2,0,0.5,0,0.7-0.1c1-0.1,1.5-0.9,1.9-2L19.9,60.6z M22.4,69.7
		c0.1,0,0.1-0.1,0.1-0.2l-2.2-6c-0.1-0.3-0.3-0.3-0.4,0l-2.1,6c0,0.1,0,0.2,0.1,0.2H22.4z"/>
	<path class="st54" d="M32.7,73.7c0.1,1.8,0.3,2.3,0.9,2.5c0.4,0.1,0.9,0.1,1.1,0.1c0.1,0,0.2,0.1,0.2,0.2c0,0.1-0.2,0.2-0.4,0.2
		c-1.3,0-2.2-0.1-2.4-0.1c-0.2,0-1.2,0.1-2.2,0.1c-0.2,0-0.4,0-0.4-0.2c0-0.1,0.1-0.2,0.2-0.2c0.2,0,0.6,0,0.9-0.1
		c0.6-0.2,0.6-0.7,0.6-2.7V60.9c0-0.9,0.1-1.1,0.3-1.1c0.3,0,0.6,0.4,0.9,0.7c0.4,0.4,3.7,3.9,7.2,7.5c2.2,2.3,4.7,4.9,5.4,5.7
		l-0.2-11c0-1.4-0.2-1.9-0.9-2c-0.4-0.1-0.9-0.1-1.1-0.1c-0.2,0-0.2-0.1-0.2-0.2c0-0.1,0.2-0.2,0.4-0.2c1,0,2.1,0.1,2.4,0.1
		c0.3,0,1-0.1,1.9-0.1c0.2,0,0.4,0,0.4,0.2c0,0.1-0.1,0.2-0.3,0.2c-0.1,0-0.3,0-0.5,0.1c-0.7,0.2-0.8,0.6-0.8,1.9l-0.1,12.9
		c0,1.4,0,1.6-0.2,1.6c-0.2,0-0.5-0.2-1.7-1.3c-0.2-0.2-3.5-3.4-5.9-5.9c-2.6-2.8-5.2-5.4-5.9-6.2L32.7,73.7"/>
	<path class="st54" d="M57.4,70.3c0,2.1,0,3.8,0.1,4.8c0.1,0.6,0.2,1.1,0.9,1.2c0.3,0.1,0.8,0.1,1,0.1c0.2,0,0.2,0.1,0.2,0.2
		c0,0.1-0.1,0.2-0.4,0.2c-1.2,0-2.7-0.1-2.8-0.1c-0.1,0-1.7,0.1-2.3,0.1c-0.3,0-0.4-0.1-0.4-0.2c0-0.1,0.1-0.2,0.2-0.2
		c0.2,0,0.5-0.1,0.7-0.1c0.5-0.1,0.6-0.5,0.7-1.2c0.1-0.9,0.1-2.6,0.1-4.8v-9.2l-3.3,0.1c-1.4,0-2,0.2-2.3,0.7
		c-0.3,0.4-0.3,0.5-0.4,0.7c-0.1,0.2-0.1,0.2-0.2,0.2c-0.1,0-0.2-0.1-0.2-0.2c0-0.2,0.5-2.2,0.5-2.4c0.1-0.1,0.2-0.4,0.2-0.4
		c0.2,0,0.4,0.2,1,0.3c0.6,0.1,1.5,0.1,1.8,0.1h8.6c0.7,0,1.3-0.1,1.6-0.1c0.3-0.1,0.5-0.1,0.6-0.1c0.1,0,0.1,0.1,0.1,0.3
		c0,0.7-0.1,2.2-0.1,2.5c0,0.2-0.1,0.3-0.2,0.3c-0.1,0-0.2-0.1-0.2-0.4l0-0.2c-0.1-0.7-0.6-1.2-2.7-1.2l-2.8-0.1V70.3"/>
	<path class="st54" d="M73.2,59.8c5.1,0,9,3.1,9,8.2c0,4.9-3.6,9-9.1,9c-6.2,0-8.9-4.7-8.9-8.6C64.2,64.8,67,59.8,73.2,59.8
		 M73.7,76.1c2,0,6.1-1.1,6.1-7.4c0-5.3-3.2-8-6.8-8c-3.8,0-6.5,2.4-6.5,7.2C66.6,72.9,69.6,76.1,73.7,76.1"/>
	<path class="st54" d="M8.5,93.4c0,2.1,0,3.8,0.1,4.7c0.1,0.6,0.2,1,0.9,1.1c0.3,0.1,0.8,0.1,1,0.1c0.2,0,0.2,0.1,0.2,0.2
		c0,0.1-0.1,0.2-0.4,0.2c-1.2,0-2.7-0.1-2.8-0.1c-0.1,0-1.7,0.1-2.3,0.1c-0.3,0-0.4-0.1-0.4-0.2c0-0.1,0.1-0.2,0.2-0.2
		c0.2,0,0.5-0.1,0.7-0.1c0.5-0.1,0.6-0.5,0.7-1.2c0.1-0.9,0.1-2.6,0.1-4.7v-9.1l-3.2,0.1c-1.4,0-1.9,0.2-2.3,0.7
		c-0.3,0.4-0.3,0.5-0.4,0.7c-0.1,0.2-0.1,0.2-0.2,0.2c-0.1,0-0.2-0.1-0.2-0.2c0-0.2,0.5-2.2,0.5-2.3C0.7,83.2,0.8,83,0.9,83
		c0.2,0,0.4,0.2,1,0.3c0.6,0.1,1.5,0.1,1.8,0.1h8.5c0.7,0,1.3-0.1,1.6-0.1c0.3-0.1,0.5-0.1,0.6-0.1s0.1,0.1,0.1,0.3
		c0,0.7-0.1,2.2-0.1,2.5c0,0.2-0.1,0.3-0.2,0.3c-0.1,0-0.2-0.1-0.2-0.4l0-0.2c-0.1-0.7-0.6-1.1-2.7-1.2l-2.8-0.1V93.4"/>
	<path class="st54" d="M24.1,83c5.1,0,8.9,3.1,8.9,8.1c0,4.9-3.6,8.9-9,8.9c-6.2,0-8.8-4.6-8.8-8.5C15.2,87.9,17.9,83,24.1,83
		 M24.7,99.1c2,0,6.1-1.1,6.1-7.4c0-5.2-3.2-7.9-6.7-7.9c-3.8,0-6.5,2.3-6.5,7.1C17.6,95.9,20.6,99.1,24.7,99.1"/>
	<path class="st54" d="M52.4,96.9c0.1,0.8,0.2,1.9,1.1,2.2c0.6,0.2,1.2,0.2,1.5,0.2c0.1,0,0.2,0.1,0.2,0.2c0,0.1-0.2,0.2-0.5,0.2
		c-0.5,0-3-0.1-3.8-0.1c-0.5-0.1-0.6-0.1-0.6-0.2c0-0.1,0.1-0.2,0.2-0.2c0.1,0,0.2-0.4,0.1-0.8l-1.1-11h-0.1L44,98.5
		c-0.5,0.9-0.6,1.1-0.8,1.1s-0.3-0.2-0.8-1c-0.6-1.1-2.1-3.9-2.6-5c-0.7-1.4-2.5-5-2.9-5.9h-0.1L36,97.5c0,0.3,0,0.7,0,1.1
		c0,0.3,0.2,0.5,0.5,0.6c0.4,0.1,0.7,0.1,0.9,0.1c0.1,0,0.2,0.1,0.2,0.2c0,0.2-0.2,0.2-0.4,0.2c-0.8,0-1.9-0.1-2.1-0.1
		c-0.2,0-1.3,0.1-1.9,0.1c-0.2,0-0.4-0.1-0.4-0.2c0-0.1,0.1-0.2,0.2-0.2c0.2,0,0.3,0,0.7-0.1c0.7-0.1,0.8-0.9,0.9-1.7l1.6-14.2
		c0-0.2,0.1-0.4,0.3-0.4c0.2,0,0.3,0.1,0.5,0.3l6.8,13.5l6.5-13.5c0.1-0.2,0.2-0.4,0.4-0.4s0.3,0.2,0.3,0.6L52.4,96.9"/>
	<path class="st54" d="M62.9,83.7c0.3-0.7,0.4-0.8,0.5-0.8c0.2,0,0.3,0.3,0.5,0.8c0.4,0.9,4,9.9,5.4,13.2c0.8,1.9,1.4,2.2,1.9,2.4
		c0.3,0.1,0.7,0.1,0.9,0.1c0.1,0,0.3,0.1,0.3,0.2c0,0.1-0.3,0.2-0.5,0.2c-0.3,0-2,0-3.5-0.1c-0.4,0-0.8,0-0.8-0.2
		c0-0.1,0-0.1,0.2-0.2c0.1-0.1,0.4-0.2,0.2-0.6l-2-5c-0.1-0.1-0.1-0.1-0.2-0.1h-5.2c-0.1,0-0.2,0.1-0.2,0.2L59,97.3
		c-0.2,0.5-0.3,1.1-0.3,1.5c0,0.4,0.4,0.6,0.8,0.6h0.2c0.2,0,0.2,0.1,0.2,0.2c0,0.1-0.1,0.2-0.3,0.2c-0.5,0-1.8-0.1-2-0.1
		c-0.2,0-1.4,0.1-2.3,0.1c-0.3,0-0.4-0.1-0.4-0.2c0-0.1,0.1-0.2,0.2-0.2c0.2,0,0.5,0,0.7-0.1c1-0.1,1.5-0.9,1.9-2L62.9,83.7z
		 M65.4,92.7c0.1,0,0.1-0.1,0.1-0.2l-2.2-6c-0.1-0.3-0.3-0.3-0.4,0l-2.1,6c0,0.1,0,0.2,0.1,0.2H65.4z M67.3,79.8
		c0.1,0.2,0,0.3-0.1,0.3c-0.1,0-0.3-0.1-0.8,0c-1.3,0.1-3,0.7-3.9,1.1c-0.2,0.1-0.3,0.1-0.4,0.1c-0.1,0-0.1-0.1-0.1-0.2
		c0-0.1,0.1-0.1,0.2-0.2c0.9-0.6,3.3-2.1,3.5-2.2c0.4-0.3,0.6-0.3,0.7-0.3c0.1,0,0.1,0.1,0.3,0.2C66.9,79,67.1,79.3,67.3,79.8z"/>
	<path class="st54" d="M72.9,99.4c-0.3-0.2-0.3-0.2-0.3-0.8c0-1.1,0.1-1.9,0.1-2.3c0-0.2,0.1-0.4,0.2-0.4c0.1,0,0.2,0.1,0.2,0.3
		c0,0.2,0,0.5,0.1,0.8c0.4,1.6,2,2.1,3.6,2.1c2.2,0,3.4-1.3,3.4-2.9c0-1.6-0.8-2.3-2.8-3.8l-1-0.8C73.8,89.9,73,88.5,73,87
		c0-2.6,2-4.1,5-4.1c0.9,0,1.8,0.1,2.3,0.3c0.4,0.1,0.6,0.1,0.8,0.1c0.2,0,0.2,0,0.2,0.2c0,0.1-0.1,0.8-0.1,2.3c0,0.3,0,0.5-0.2,0.5
		c-0.2,0-0.2-0.1-0.2-0.3c0-0.3-0.2-0.8-0.3-1.1c-0.2-0.3-0.9-1.1-2.9-1.1c-1.6,0-3,0.8-3,2.3c0,1.4,0.7,2.2,2.9,3.7l0.6,0.4
		c2.7,1.9,3.7,3.4,3.7,5.2c0,1.3-0.5,2.7-2.1,3.7c-0.9,0.6-2.3,0.8-3.6,0.8C75.1,100,73.8,99.8,72.9,99.4"/>
	<path class="st54" d="M83.2,60c-0.3,0.2-0.5,0.4-0.7,0.7c-0.2,0.3-0.2,0.6-0.2,0.9c0,0.3,0.1,0.6,0.2,0.9c0.2,0.3,0.4,0.5,0.7,0.7
		c0.3,0.2,0.6,0.2,0.9,0.2c0.3,0,0.6-0.1,0.9-0.2c0.3-0.2,0.5-0.4,0.7-0.7c0.2-0.3,0.2-0.6,0.2-0.9c0-0.3-0.1-0.6-0.2-0.9
		c-0.2-0.3-0.4-0.5-0.7-0.7c-0.3-0.2-0.6-0.2-0.9-0.2C83.7,59.8,83.4,59.8,83.2,60z M84.8,60.3c0.2,0.1,0.4,0.3,0.6,0.5
		c0.1,0.2,0.2,0.5,0.2,0.7c0,0.3-0.1,0.5-0.2,0.7c-0.1,0.2-0.3,0.4-0.5,0.5C84.5,63,83.8,63,84,63c0.3,0-0.5-0.1-0.7-0.2
		c-0.2-0.1-0.4-0.3-0.5-0.5c-0.1-0.2-0.2-0.5-0.2-0.7c0-0.3,0.1-0.5,0.2-0.7c0.1-0.2,0.3-0.4,0.6-0.5c0.2-0.1,0.5-0.2,0.7-0.2
		C84.3,60.1,84.5,60.1,84.8,60.3z M83.6,62.5v-0.8h0.2c0.1,0,0.2,0,0.2,0.1c0.1,0.1,0.2,0.2,0.3,0.4l0.2,0.3h0.4l-0.2-0.4
		c-0.1-0.2-0.2-0.3-0.3-0.4c0,0-0.1-0.1-0.2-0.1c0.2,0,0.3-0.1,0.4-0.2c0.1-0.1,0.1-0.2,0.1-0.4c0-0.1,0-0.2-0.1-0.3
		c-0.1-0.1-0.1-0.1-0.2-0.2c-0.1,0-0.3-0.1-0.5-0.1h-0.7v1.9H83.6z M83.6,60.9h0.4c0.1,0,0.3,0,0.3,0c0.1,0,0.1,0.1,0.1,0.1
		c0,0,0,0.1,0,0.2c0,0.1,0,0.2-0.1,0.2c-0.1,0.1-0.2,0.1-0.4,0.1h-0.4V60.9z"/>
</g>
</svg>
