<?xml version="1.0" encoding="utf-8"?>
<!-- Generator: Adobe Illustrator 18.1.1, SVG Export Plug-In . SVG Version: 6.00 Build 0)  -->
<!DOCTYPE svg PUBLIC "-//W3C//DTD SVG 1.1//EN" "http://www.w3.org/Graphics/SVG/1.1/DTD/svg11.dtd">
<svg version="1.1" id="Capa_1" xmlns="http://www.w3.org/2000/svg" xmlns:xlink="http://www.w3.org/1999/xlink" x="0px" y="0px"
	 width="100px" height="130px" viewBox="0 0 100 130" enable-background="new 0 0 100 130" xml:space="preserve">
<g>
	<g>
		<path fill="#FFFFFF" d="M4.2,125.2v-0.1h1.7v0.1H5.7c-0.2,0-0.3,0.1-0.4,0.2c0,0.1-0.1,0.2-0.1,0.5v1.9c0,0.5,0,0.8-0.1,1.1
			c-0.1,0.3-0.3,0.5-0.6,0.7c-0.3,0.2-0.7,0.3-1.1,0.3c-0.5,0-0.9-0.1-1.2-0.3c-0.3-0.2-0.5-0.4-0.6-0.7c-0.1-0.2-0.1-0.6-0.1-1.2
			V126c0-0.3,0-0.5-0.1-0.6c-0.1-0.1-0.2-0.1-0.4-0.1H0.8v-0.1h2.1v0.1H2.7c-0.2,0-0.3,0.1-0.4,0.2c-0.1,0.1-0.1,0.3-0.1,0.5v2.1
			c0,0.2,0,0.4,0,0.6c0,0.2,0.1,0.4,0.2,0.6c0.1,0.1,0.2,0.2,0.4,0.3c0.2,0.1,0.4,0.1,0.6,0.1c0.3,0,0.6-0.1,0.8-0.2
			c0.2-0.1,0.4-0.3,0.5-0.5c0.1-0.2,0.1-0.6,0.1-1.1V126c0-0.3,0-0.5-0.1-0.6c-0.1-0.1-0.2-0.2-0.4-0.2H4.2z"/>
		<path fill="#FFFFFF" d="M5.9,125.1h1.3l2.9,3.6v-2.7c0-0.3,0-0.5-0.1-0.5c-0.1-0.1-0.2-0.1-0.4-0.1H9.4v-0.1h1.7v0.1h-0.2
			c-0.2,0-0.3,0.1-0.4,0.2c-0.1,0.1-0.1,0.2-0.1,0.5v4h-0.1l-3.1-3.8v2.9c0,0.3,0,0.5,0.1,0.5c0.1,0.1,0.2,0.1,0.4,0.1h0.2v0.1H6.2
			v-0.1h0.2c0.2,0,0.3-0.1,0.4-0.2c0.1-0.1,0.1-0.2,0.1-0.5v-3.3c-0.1-0.2-0.2-0.3-0.3-0.3c-0.1-0.1-0.2-0.1-0.3-0.1
			c-0.1,0-0.2,0-0.3,0V125.1z"/>
		<path fill="#FFFFFF" d="M13.4,129.7v0.1h-2v-0.1h0.2c0.2,0,0.3-0.1,0.4-0.2c0.1-0.1,0.1-0.3,0.1-0.5V126c0-0.2,0-0.4,0-0.5
			c0-0.1-0.1-0.1-0.1-0.2c-0.1-0.1-0.2-0.1-0.3-0.1h-0.2v-0.1h2v0.1h-0.2c-0.2,0-0.3,0.1-0.4,0.2c-0.1,0.1-0.1,0.3-0.1,0.5v3.1
			c0,0.2,0,0.4,0,0.5c0,0.1,0.1,0.1,0.1,0.2c0.1,0.1,0.2,0.1,0.3,0.1H13.4z"/>
		<path fill="#FFFFFF" d="M18.6,125.1v0.1c-0.2,0-0.3,0.1-0.4,0.2c-0.1,0.1-0.2,0.3-0.3,0.5l-1.7,4h-0.1l-1.8-4.1
			c-0.1-0.2-0.2-0.3-0.2-0.4c-0.1-0.1-0.1-0.1-0.2-0.2c-0.1,0-0.2-0.1-0.3-0.1v-0.1h1.9v0.1c-0.2,0-0.4,0.1-0.4,0.1
			c-0.1,0.1-0.1,0.1-0.1,0.2c0,0.1,0.1,0.3,0.2,0.5l1.2,2.8l1.1-2.8c0.1-0.3,0.2-0.5,0.2-0.6c0-0.1,0-0.1-0.1-0.2
			c-0.1-0.1-0.2-0.1-0.3-0.1c0,0,0,0-0.1,0v-0.1H18.6z"/>
		<path fill="#FFFFFF" d="M20.2,125.4v1.9h1c0.3,0,0.5,0,0.5-0.1c0.1-0.1,0.2-0.3,0.2-0.6h0.1v1.7H22c0-0.2-0.1-0.4-0.1-0.4
			c0-0.1-0.1-0.1-0.2-0.2c-0.1,0-0.2-0.1-0.4-0.1h-1v1.6c0,0.2,0,0.3,0,0.4c0,0,0.1,0.1,0.1,0.1c0,0,0.1,0,0.3,0h0.8
			c0.3,0,0.5,0,0.6-0.1c0.1,0,0.2-0.1,0.4-0.2c0.1-0.1,0.3-0.4,0.4-0.7h0.1l-0.4,1.2h-3.7v-0.1H19c0.1,0,0.2,0,0.3-0.1
			c0.1,0,0.1-0.1,0.2-0.2c0-0.1,0-0.2,0-0.5v-3.1c0-0.3,0-0.5-0.1-0.6c-0.1-0.1-0.2-0.1-0.4-0.1h-0.2v-0.1h3.7l0.1,1h-0.1
			c0-0.3-0.1-0.4-0.2-0.5c-0.1-0.1-0.1-0.2-0.3-0.2c-0.1,0-0.3-0.1-0.5-0.1H20.2z"/>
		<path fill="#FFFFFF" d="M24.3,127.4c0,0,0.1,0,0.1,0h0.1c0.5,0,0.8-0.1,1-0.3c0.2-0.2,0.3-0.4,0.3-0.7c0-0.3-0.1-0.5-0.3-0.7
			c-0.2-0.2-0.4-0.3-0.7-0.3c-0.1,0-0.3,0-0.5,0.1V127.4z M27.7,129.9h-1.3l-1.6-2.2c-0.1,0-0.2,0-0.3,0h-0.1c0,0-0.1,0-0.1,0v1.4
			c0,0.3,0,0.5,0.1,0.6c0.1,0.1,0.2,0.2,0.4,0.2H25v0.1h-2v-0.1h0.2c0.2,0,0.3-0.1,0.4-0.2c0-0.1,0.1-0.2,0.1-0.5V126
			c0-0.3,0-0.5-0.1-0.6c-0.1-0.1-0.2-0.2-0.4-0.2H23v-0.1h1.7c0.5,0,0.9,0,1.1,0.1c0.2,0.1,0.4,0.2,0.6,0.4c0.2,0.2,0.3,0.4,0.3,0.7
			c0,0.3-0.1,0.5-0.3,0.8c-0.2,0.2-0.5,0.4-0.9,0.5l1,1.4c0.2,0.3,0.4,0.5,0.6,0.6c0.2,0.1,0.4,0.2,0.6,0.2V129.9z"/>
		<path fill="#FFFFFF" d="M33.1,129.7v0.1h-2v-0.1h0.2c0.2,0,0.3-0.1,0.4-0.2c0.1-0.1,0.1-0.3,0.1-0.5V126c0-0.2,0-0.4,0-0.5
			c0-0.1-0.1-0.1-0.1-0.2c-0.1-0.1-0.2-0.1-0.3-0.1h-0.2v-0.1h2v0.1h-0.2c-0.2,0-0.3,0.1-0.4,0.2c-0.1,0.1-0.1,0.3-0.1,0.5v3.1
			c0,0.2,0,0.4,0,0.5c0,0.1,0.1,0.1,0.1,0.2c0.1,0.1,0.2,0.1,0.3,0.1H33.1z"/>
		<path fill="#FFFFFF" d="M34.9,129.5c0.3,0.1,0.5,0.1,0.7,0.1c0.5,0,1-0.2,1.3-0.6c0.4-0.4,0.5-0.9,0.5-1.5c0-0.7-0.2-1.2-0.5-1.6
			c-0.4-0.4-0.8-0.6-1.4-0.6c-0.2,0-0.4,0-0.7,0.1V129.5z M33.5,129.9v-0.1h0.2c0.2,0,0.3-0.1,0.4-0.2c0.1-0.1,0.1-0.2,0.1-0.5V126
			c0-0.3,0-0.5-0.1-0.6c-0.1-0.1-0.2-0.2-0.4-0.2h-0.2v-0.1h1.9c0.7,0,1.2,0.1,1.6,0.2c0.4,0.2,0.7,0.4,0.9,0.8
			c0.2,0.4,0.3,0.8,0.3,1.3c0,0.7-0.2,1.2-0.6,1.7c-0.5,0.5-1.1,0.7-2.1,0.7H33.5z"/>
		<path fill="#FFFFFF" d="M41,128l-0.8-1.9l-0.8,1.9H41z M41.1,128.3h-1.8l-0.3,0.8c-0.1,0.2-0.1,0.3-0.1,0.4c0,0.1,0,0.1,0.1,0.2
			c0.1,0.1,0.2,0.1,0.4,0.1v0.1h-1.5v-0.1c0.2,0,0.3-0.1,0.4-0.1c0.1-0.1,0.3-0.3,0.4-0.7l1.7-3.9h0.1l1.7,4
			c0.1,0.3,0.3,0.5,0.4,0.6c0.1,0.1,0.3,0.1,0.5,0.2v0.1H41v-0.1c0.2,0,0.3,0,0.4-0.1c0.1-0.1,0.1-0.1,0.1-0.2c0-0.1,0-0.3-0.1-0.5
			L41.1,128.3z"/>
		<path fill="#FFFFFF" d="M44.3,129.5c0.3,0.1,0.5,0.1,0.7,0.1c0.5,0,1-0.2,1.3-0.6c0.4-0.4,0.5-0.9,0.5-1.5c0-0.7-0.2-1.2-0.5-1.6
			c-0.4-0.4-0.8-0.6-1.4-0.6c-0.2,0-0.4,0-0.7,0.1V129.5z M42.9,129.9v-0.1h0.2c0.2,0,0.3-0.1,0.4-0.2c0.1-0.1,0.1-0.2,0.1-0.5V126
			c0-0.3,0-0.5-0.1-0.6c-0.1-0.1-0.2-0.2-0.4-0.2h-0.2v-0.1h1.9c0.7,0,1.3,0.1,1.6,0.2c0.4,0.2,0.7,0.4,0.9,0.8
			c0.2,0.4,0.3,0.8,0.3,1.3c0,0.7-0.2,1.2-0.6,1.7c-0.5,0.5-1.1,0.7-2.1,0.7H42.9z"/>
		<path fill="#FFFFFF" d="M30.6,125l0.2,1.5h-0.2c0-0.1-0.1-0.4-0.2-0.6c-0.1-0.2-0.3-0.3-0.5-0.5c-0.2-0.1-0.4-0.2-0.6-0.2
			c-0.2,0-0.5,0.1-0.6,0.3c-0.1,0.1-0.1,0.3-0.1,0.4c0,0.1,0,0.3,0.2,0.5c0.2,0.2,0.4,0.4,1,0.7c0.3,0.2,0.6,0.4,0.8,0.6
			c0.1,0.1,0.2,0.2,0.3,0.4c0.1,0.2,0.1,0.4,0.1,0.6c0,0.3-0.1,0.6-0.4,0.9c-0.3,0.3-0.8,0.4-1.1,0.4c-0.1,0-0.3,0-0.4,0
			c-0.2,0-0.2,0-0.4-0.1c-0.2-0.1-0.3-0.1-0.3-0.1c-0.1,0-0.1,0-0.1,0.1c0,0,0,0.1-0.1,0.2h-0.2l-0.2-1.5h0.2
			c0.1,0.3,0.3,0.6,0.4,0.7c0.1,0.2,0.3,0.3,0.5,0.4c0.2,0.1,0.3,0.2,0.6,0.2c0.2,0,0.4,0,0.6-0.3c0.1-0.1,0.2-0.2,0.2-0.6
			c0-0.1,0-0.3-0.1-0.4c-0.1-0.1-0.1-0.2-0.2-0.2c-0.1-0.1-0.3-0.2-0.6-0.5c-0.6-0.4-0.8-0.5-1.1-0.7c-0.2-0.2-0.2-0.2-0.2-0.3
			c0-0.1-0.1-0.3-0.1-0.5c0-0.3,0.1-0.6,0.3-0.9c0.3-0.3,0.6-0.4,1-0.4c0.3,0,0.5,0.1,0.8,0.2c0.1,0,0.1,0,0.2,0
			c0.1,0,0.1,0,0.2-0.1c0.1-0.1,0.1-0.1,0.1-0.2H30.6z"/>
		<path fill="#FFFFFF" d="M57.1,128l-0.8-1.9l-0.8,1.9H57.1z M57.2,128.3h-1.8L55,129c-0.1,0.2-0.1,0.3-0.1,0.4c0,0.1,0,0.1,0.1,0.2
			c0.1,0.1,0.2,0.1,0.4,0.1v0.1h-1.5v-0.1c0.2,0,0.3-0.1,0.4-0.1c0.1-0.1,0.3-0.3,0.4-0.7l1.7-3.9h0.1l1.7,4
			c0.1,0.3,0.3,0.5,0.4,0.6c0.1,0.1,0.3,0.1,0.5,0.2v0.1h-1.9v-0.1c0.2,0,0.3,0,0.4-0.1c0.1-0.1,0.1-0.1,0.1-0.2
			c0-0.1,0-0.3-0.1-0.5L57.2,128.3z"/>
		<path fill="#FFFFFF" d="M58.7,125.1H60l2.9,3.6v-2.7c0-0.3,0-0.5-0.1-0.5c-0.1-0.1-0.2-0.1-0.4-0.1h-0.2v-0.1h1.7v0.1h-0.2
			c-0.2,0-0.3,0.1-0.4,0.2c-0.1,0.1-0.1,0.2-0.1,0.5v4h-0.1l-3.1-3.8v2.9c0,0.3,0,0.5,0.1,0.5c0.1,0.1,0.2,0.1,0.4,0.1h0.2v0.1H59
			v-0.1h0.2c0.2,0,0.3-0.1,0.4-0.2c0.1-0.1,0.1-0.2,0.1-0.5v-3.3c-0.1-0.2-0.2-0.3-0.3-0.3c-0.1-0.1-0.2-0.1-0.3-0.1
			c-0.1,0-0.2,0-0.3,0V125.1z"/>
		<path fill="#FFFFFF" d="M68.1,125.1l0.1,1.1H68c0-0.2-0.1-0.3-0.1-0.4c-0.1-0.1-0.2-0.2-0.3-0.3c-0.1-0.1-0.3-0.1-0.5-0.1h-0.7
			v3.6c0,0.3,0,0.5,0.1,0.5c0.1,0.1,0.2,0.1,0.4,0.1h0.2v0.1h-2v-0.1h0.2c0.2,0,0.3-0.1,0.4-0.2c0.1-0.1,0.1-0.2,0.1-0.5v-3.6h-0.6
			c-0.2,0-0.4,0-0.5,0c-0.1,0-0.2,0.1-0.3,0.3c-0.1,0.1-0.1,0.3-0.2,0.5h-0.1l0.1-1.1H68.1z"/>
		<path fill="#FFFFFF" d="M70.8,125.3c-0.4,0-0.8,0.2-1,0.5c-0.3,0.4-0.5,1-0.5,1.7c0,0.8,0.2,1.4,0.5,1.8c0.3,0.3,0.6,0.5,1,0.5
			c0.4,0,0.8-0.2,1.1-0.5c0.3-0.3,0.4-0.9,0.4-1.6c0-0.8-0.2-1.4-0.5-1.8C71.6,125.4,71.2,125.3,70.8,125.3 M70.8,125
			c0.6,0,1.2,0.2,1.6,0.7c0.5,0.5,0.7,1.1,0.7,1.8c0,0.7-0.2,1.3-0.7,1.8c-0.5,0.5-1,0.7-1.7,0.7c-0.7,0-1.2-0.2-1.7-0.7
			c-0.4-0.5-0.7-1.1-0.7-1.8c0-0.8,0.3-1.4,0.8-1.8C69.7,125.2,70.2,125,70.8,125"/>
		<path fill="#FFFFFF" d="M53.4,125l0.2,1.5h-0.2c0-0.1-0.1-0.4-0.2-0.6c-0.1-0.2-0.3-0.3-0.5-0.5c-0.2-0.1-0.4-0.2-0.6-0.2
			c-0.2,0-0.5,0.1-0.6,0.3c-0.1,0.1-0.1,0.3-0.1,0.4c0,0.1,0,0.3,0.2,0.5c0.2,0.2,0.4,0.4,1,0.7c0.3,0.2,0.6,0.4,0.9,0.6
			c0.1,0.1,0.2,0.2,0.3,0.4c0.1,0.2,0.1,0.4,0.1,0.6c0,0.3-0.1,0.6-0.4,0.9c-0.3,0.3-0.8,0.4-1.1,0.4c-0.1,0-0.3,0-0.4,0
			c-0.2,0-0.2,0-0.4-0.1c-0.2-0.1-0.3-0.1-0.3-0.1c-0.1,0-0.1,0-0.1,0.1c0,0,0,0.1-0.1,0.2h-0.2l-0.2-1.5h0.2
			c0.1,0.3,0.3,0.6,0.4,0.7c0.1,0.2,0.3,0.3,0.5,0.4c0.2,0.1,0.3,0.2,0.6,0.2c0.2,0,0.4,0,0.6-0.3c0.1-0.1,0.2-0.2,0.2-0.6
			c0-0.1,0-0.3-0.1-0.4c-0.1-0.1-0.1-0.2-0.2-0.2c-0.1-0.1-0.3-0.2-0.6-0.5c-0.6-0.4-0.8-0.5-1.1-0.7c-0.2-0.2-0.2-0.2-0.2-0.3
			c0-0.1-0.1-0.3-0.1-0.5c0-0.3,0.1-0.6,0.3-0.9c0.3-0.3,0.6-0.4,1-0.4c0.3,0,0.5,0.1,0.8,0.2c0.1,0,0.1,0,0.2,0
			c0.1,0,0.1,0,0.2-0.1c0.1-0.1,0.1-0.1,0.1-0.2H53.4z"/>
		<path fill="#FFFFFF" d="M79.3,125.1l0.1,1.1h-0.1c0-0.2-0.1-0.3-0.1-0.4c-0.1-0.1-0.2-0.2-0.3-0.3c-0.1-0.1-0.3-0.1-0.5-0.1h-0.7
			v3.6c0,0.3,0,0.5,0.1,0.5c0.1,0.1,0.2,0.1,0.4,0.1h0.2v0.1h-2v-0.1h0.2c0.2,0,0.3-0.1,0.4-0.2c0.1-0.1,0.1-0.2,0.1-0.5v-3.6h-0.6
			c-0.2,0-0.4,0-0.5,0c-0.1,0-0.2,0.1-0.3,0.3c-0.1,0.1-0.1,0.3-0.2,0.5h-0.1l0.1-1.1H79.3z"/>
		<path fill="#FFFFFF" d="M81.9,125.3c-0.4,0-0.8,0.2-1,0.5c-0.3,0.4-0.5,1-0.5,1.7c0,0.8,0.2,1.4,0.5,1.8c0.3,0.3,0.6,0.5,1,0.5
			c0.4,0,0.8-0.2,1.1-0.5c0.3-0.3,0.4-0.9,0.4-1.6c0-0.8-0.2-1.4-0.5-1.8C82.7,125.4,82.4,125.3,81.9,125.3 M82,125
			c0.6,0,1.2,0.2,1.6,0.7c0.5,0.5,0.7,1.1,0.7,1.8c0,0.7-0.2,1.3-0.7,1.8c-0.5,0.5-1,0.7-1.7,0.7c-0.7,0-1.2-0.2-1.7-0.7
			c-0.4-0.5-0.7-1.1-0.7-1.8c0-0.8,0.3-1.4,0.8-1.8C80.8,125.2,81.4,125,82,125"/>
		<path fill="#FFFFFF" d="M87.3,129.9l-1.8-4v3.2c0,0.3,0,0.5,0.1,0.5c0.1,0.1,0.2,0.1,0.4,0.1h0.2v0.1h-1.7v-0.1h0.2
			c0.2,0,0.3-0.1,0.4-0.2c0.1-0.1,0.1-0.2,0.1-0.5v-3.1c0-0.2,0-0.4-0.1-0.5c0-0.1-0.1-0.1-0.2-0.2c-0.1,0-0.2-0.1-0.4-0.1v-0.1h1.3
			l1.7,3.7l1.7-3.7h1.3v0.1h-0.2c-0.2,0-0.3,0.1-0.4,0.2c-0.1,0.1-0.1,0.2-0.1,0.5v3.1c0,0.3,0,0.5,0.1,0.5c0.1,0.1,0.2,0.1,0.4,0.1
			h0.2v0.1h-2v-0.1h0.2c0.2,0,0.3-0.1,0.4-0.2c0.1-0.1,0.1-0.2,0.1-0.5v-3.2l-1.8,4H87.3z"/>
		<path fill="#FFFFFF" d="M93.7,128l-0.8-1.9l-0.8,1.9H93.7z M93.8,128.3H92l-0.3,0.8c-0.1,0.2-0.1,0.3-0.1,0.4c0,0.1,0,0.1,0.1,0.2
			c0.1,0.1,0.2,0.1,0.4,0.1v0.1h-1.5v-0.1c0.2,0,0.3-0.1,0.4-0.1c0.1-0.1,0.3-0.3,0.4-0.7L93,125h0.1l1.7,4c0.1,0.3,0.3,0.5,0.4,0.6
			c0.1,0.1,0.3,0.1,0.5,0.2v0.1h-1.9v-0.1c0.2,0,0.3,0,0.4-0.1c0.1-0.1,0.1-0.1,0.1-0.2c0-0.1,0-0.3-0.1-0.5L93.8,128.3z"/>
		<path fill="#FFFFFF" d="M98.8,125l0.2,1.5h-0.2c0-0.1-0.1-0.4-0.2-0.6c-0.1-0.2-0.3-0.3-0.5-0.5c-0.2-0.1-0.4-0.2-0.6-0.2
			c-0.2,0-0.5,0.1-0.6,0.3c-0.1,0.1-0.1,0.3-0.1,0.4c0,0.1,0,0.3,0.2,0.5c0.2,0.2,0.4,0.4,1,0.7c0.3,0.2,0.6,0.4,0.8,0.6
			c0.1,0.1,0.2,0.2,0.3,0.4c0.1,0.2,0.1,0.4,0.1,0.6c0,0.3-0.1,0.6-0.4,0.9c-0.3,0.3-0.8,0.4-1.1,0.4c-0.1,0-0.3,0-0.4,0
			c-0.2,0-0.2,0-0.4-0.1c-0.2-0.1-0.3-0.1-0.3-0.1c-0.1,0-0.1,0-0.1,0.1c0,0,0,0.1-0.1,0.2h-0.2l-0.2-1.5h0.2
			c0.1,0.3,0.3,0.6,0.4,0.7c0.1,0.2,0.3,0.3,0.5,0.4c0.2,0.1,0.3,0.2,0.6,0.2c0.2,0,0.4,0,0.6-0.3c0.1-0.1,0.2-0.2,0.2-0.6
			c0-0.1,0-0.3-0.1-0.4c-0.1-0.1-0.1-0.2-0.2-0.2c-0.1-0.1-0.3-0.2-0.7-0.5c-0.6-0.4-0.8-0.5-1.1-0.7c-0.2-0.2-0.2-0.2-0.2-0.3
			c0-0.1-0.1-0.3-0.1-0.5c0-0.3,0.1-0.6,0.3-0.9c0.3-0.3,0.6-0.4,1-0.4c0.3,0,0.5,0.1,0.8,0.2c0.1,0,0.1,0,0.2,0
			c0.1,0,0.1,0,0.2-0.1c0.1-0.1,0.1-0.1,0.1-0.2H98.8z"/>
	</g>
	<rect x="0.8" y="120.4" fill="#FFFFFF" width="98.3" height="0.8"/>
	<g>
		<path fill="#FFFFFF" d="M27.7,78.8v-1h13.4v1h-1.4c-1.5,0-2.6,0.6-3.4,1.9c-0.4,0.6-0.6,1.9-0.6,4v15.4c0,3.8-0.4,6.8-1.1,8.9
			c-0.7,2.1-2.2,3.9-4.4,5.4c-2.2,1.5-5.2,2.2-9,2.2c-4.1,0-7.3-0.7-9.4-2.2C9.5,113,7.9,111,7,108.6c-0.6-1.7-0.9-4.8-0.9-9.3V84.5
			c0-2.3-0.3-3.9-1-4.6c-0.6-0.7-1.7-1.1-3.1-1.1H0.6v-1H17v1h-1.5c-1.6,0-2.7,0.5-3.4,1.5c-0.5,0.7-0.7,2.1-0.7,4.2V101
			c0,1.5,0.1,3.2,0.4,5.1c0.3,1.9,0.8,3.4,1.5,4.4c0.7,1.1,1.7,1.9,3,2.6c1.3,0.7,3,1,4.9,1c2.5,0,4.7-0.5,6.7-1.6
			c2-1.1,3.3-2.5,4-4.1c0.7-1.7,1.1-4.6,1.1-8.6V84.5c0-2.4-0.3-3.8-0.8-4.4c-0.7-0.8-1.8-1.2-3.2-1.2H27.7z"/>
		<path fill="#FFFFFF" d="M63.2,77.3l1.3,12.1h-1.4c-0.2-0.9-0.9-3.2-1.9-4.8c-0.8-1.4-2.1-2.7-3.8-3.6c-1.6-0.9-3.2-1.4-5.1-1.4
			c-1.8,0-3.5,0.8-4.7,2.2c-0.9,1.1-1,2.4-1,3c0,1.2,0.2,2.4,1.2,3.7c1.4,1.6,3.3,2.9,7.7,5.5c2.1,1.3,4.9,3,6.7,4.7
			c0.9,0.9,1.5,1.4,2.3,2.8c0.8,1.3,1.2,3,1.2,4.6c0,2.6-0.7,4.8-2.9,7c-2.6,2.7-6.2,3.5-8.7,3.5c-1.2,0-2.1-0.1-3.2-0.3
			c-1.6-0.3-1.5-0.3-3.4-1c-1.6-0.6-2.4-0.8-2.7-0.8c-0.4,0-1,0.2-1.2,0.6c-0.1,0.2-0.3,0.5-0.5,1.3h-1.3l-1.7-12.1h1.3
			c0.8,2.5,2,4.4,3.1,5.8c1.1,1.3,2.1,2.3,3.6,3c1.4,0.7,2.6,1.2,5,1.2c1.4,0,3.3-0.3,5.1-2c0.5-0.5,1.7-1.9,1.7-4.5
			c0-1-0.2-2.2-0.8-3.2c-0.5-1-0.8-1.2-1.4-1.8c-1-0.8-2.1-1.7-5.1-3.6c-4.5-2.9-6.3-3.6-8.3-5.7c-1.2-1.2-1.3-1.5-1.9-2.6
			c-0.3-0.6-0.9-2.1-0.8-3.8c0-2.4,0.6-4.6,2.6-6.8c2.1-2.3,4.8-3.2,7.9-3.2c2.1,0,4.2,0.7,6.5,1.6c0.9,0.3,1.1,0.3,1.6,0.3
			c0.5,0,0.9-0.1,1.2-0.4c0.4-0.5,0.5-0.9,0.7-1.5H63.2z"/>
		<path fill="#FFFFFF" d="M98.9,77.7l0.4,8.9h-1.1c-0.2-1.6-0.5-2.7-0.8-3.4c-0.6-1.1-1.4-1.9-2.3-2.4c-1-0.5-2.2-0.8-3.8-0.8H86v29
			c0,2.3,0.3,3.8,0.8,4.4c0.7,0.8,1.8,1.2,3.3,1.2h1.3v1H75.3v-1h1.3c1.6,0,2.7-0.5,3.4-1.5c0.4-0.6,0.6-2,0.6-4.1v-29h-4.6
			c-1.8,0-3,0.1-3.8,0.4c-1,0.4-1.8,1-2.5,2c-0.7,1-1.1,2.4-1.2,4.1h-1.1l0.4-8.9H98.9z"/>
	</g>
	<polygon fill="#FFFFFF" points="95,123.9 93.9,125.1 93.8,125.1 94.2,123.9 	"/>
	<g>
		<path fill="#FFFFFF" d="M96.9,112.9c0.3,0,0.5,0,0.6,0.1c0.2,0.1,0.3,0.3,0.3,0.5c0,0.2-0.1,0.3-0.2,0.4c-0.1,0-0.2,0.1-0.3,0.1
			c0.2,0,0.3,0.1,0.4,0.2c0.1,0.1,0.1,0.2,0.1,0.3v0.2c0,0,0,0.1,0,0.2c0,0.1,0,0.1,0,0.1l0,0h-0.4c0,0,0,0,0,0c0,0,0,0,0,0l0-0.1
			v-0.2c0-0.2-0.1-0.4-0.2-0.5c-0.1,0-0.2-0.1-0.4-0.1h-0.3v0.8h-0.4v-2.1H96.9z M97.3,113.3c-0.1-0.1-0.2-0.1-0.5-0.1h-0.3v0.8h0.3
			c0.2,0,0.3,0,0.4,0c0.1-0.1,0.2-0.2,0.2-0.3C97.5,113.4,97.4,113.3,97.3,113.3 M98.3,115.4c-0.4,0.4-0.8,0.6-1.4,0.6
			c-0.5,0-1-0.2-1.4-0.6c-0.4-0.4-0.6-0.8-0.6-1.4c0-0.5,0.2-1,0.6-1.4c0.4-0.4,0.8-0.6,1.4-0.6c0.5,0,1,0.2,1.4,0.6
			c0.4,0.4,0.6,0.8,0.6,1.4C98.9,114.6,98.7,115,98.3,115.4 M95.8,112.8c-0.3,0.3-0.5,0.7-0.5,1.2c0,0.5,0.2,0.9,0.5,1.2
			c0.3,0.3,0.7,0.5,1.2,0.5c0.5,0,0.9-0.2,1.2-0.5c0.3-0.3,0.5-0.7,0.5-1.2c0-0.5-0.2-0.9-0.5-1.2c-0.3-0.3-0.7-0.5-1.2-0.5
			C96.5,112.3,96.1,112.5,95.8,112.8"/>
	</g>
	<g>
		<g>
			<g>
				<path fill="#FFFFFF" d="M50,58.4c-16.1,0-29.2-13.1-29.2-29.2C20.9,13.1,34,0,50,0c16.1,0,29.2,13.1,29.2,29.2
					C79.2,45.3,66.1,58.4,50,58.4z M50,2C35,2,22.8,14.2,22.8,29.2c0,15,12.2,27.2,27.2,27.2c15,0,27.2-12.2,27.2-27.2
					C77.3,14.2,65,2,50,2z"/>
			</g>
			<path fill="none" stroke="#FFFFFF" stroke-width="1.115" stroke-miterlimit="3.864" d="M35.4,26.7c1.2-7,7.2-12.3,14.5-12.3
				c8.2,0,14.8,6.6,14.8,14.8c0,1.1-0.1,2.1-0.3,3.1"/>
			<path fill="none" stroke="#FFFFFF" stroke-width="1.115" stroke-linecap="round" stroke-miterlimit="3.864" d="M43.4,42.3
				c-1.1-0.6-2.2-1.3-3.2-2.2"/>
			<path fill-rule="evenodd" clip-rule="evenodd" fill="#FFFFFF" d="M47.5,47.3c-0.7-2-1.1-3.5-1.1-5.6c0-1.3,0.5-2.7,0.3-4
				c1.5,0.4,1,2,2.3,2c-0.2-0.3-0.5-0.5-0.6-0.8c0-0.5-0.4-0.9-0.6-1.2c0,0-0.2-0.2-0.2-0.2c0.8,0,1.8,2.2,2.5,2.6
				c0.2,0.2-0.1,0.7,0.7,0.7c0-0.2,0-0.2,0-0.3c0-0.3,0.2-0.4,0.1-0.7C51,39.8,51,39.9,51,40c0,0.1,0.7,0.8,0.7,0.8
				c-0.1,0-0.3,0.1-0.3,0.2c0,0.5,1.7,1.1,2.2,1.2c0.4,0,0.3-0.3,0.4-0.5c-1-0.7-2.3-1.2-2.7-2.2c-0.5-0.3-1.1-0.6-1.5-1
				c-0.5-0.5-0.7-1.1-1.6-1.3c-0.1,0-0.3,0-0.3-0.1c0.1-0.2,0.3-0.2,0.4-0.2c0.1,0,2.2,0.8,2.5,0.9c0.2,0,0.3,0,0.4-0.1
				c-0.2-0.3-1.3-0.6-1.3-0.9l0.3-0.1c1,0,1.9,0.6,2.8,0.7c0-0.3-0.1-0.4-0.2-0.5c0.2-0.1,0.3-0.1,0.5-0.1c0.5,0,1,0.3,1.5,0.4
				c0.7-0.2,1.2-0.3,1.7-0.3c1.7,0,1.1,0.7,1.9,0.7c0.2,0,0.3-0.1,0.3-0.2c0-0.3-0.4-0.8-0.8-0.8c-0.2,0-0.5-0.1-0.6-0.3
				c-0.3,0-2.7-0.2-2.8-0.3c1.9-0.4,2.8-1.7,4.1-2.6c0.1,0,0.2,0,0.4,0c0.4,0,0.8,0.2,1.2,0.4c0.1,0.2,0.1,0.4,0.1,0.5
				c0,0.4-0.1,0.8-0.1,1.2c0,0.2,0,0.4,0.1,0.6c-0.1,0.1-0.2,0-0.3,0c-0.8,0-0.3,2.5-1.8,2.5L58,38.6c-0.4,0-1.1,0.1-1.4,0.1
				c-0.1,0-0.4-0.2-0.4-0.2c-0.2,0.1-1.4-0.4-1.7-0.5c-0.1,0-0.2,0-0.3,0c-0.3,0-0.2-0.1-0.4-0.1c-0.1,0-0.3,0-0.4,0
				c1.3,0.8,2.9,1.2,4.5,1.2c1,0,1-0.1,1.9-0.5c1.4-0.7,1-2.2,1-3.3c0-0.3,0.1-0.7,0.2-1l0.2,0c0.6,0.5,0.4,1.5,1.2,1.9
				c0,0.1,0.1,0.2,0.1,0.4c0,0.7-0.8,1.4-0.8,2.2c0,0.1,0,0.2,0.1,0.3c0,0,0.4,0,0.4,0.1c0,0.2-0.5,0.6-0.7,0.7l-0.4-0.1
				c-0.5,0.6-1.6,1.8-1.6,2.5c0,0-0.3,0.2-0.4,0.2c-1.3,0-2.7-0.4-4-0.4c-0.1,0-0.2,0-0.3,0c0.6,0.1,1.7,0.4,2,0.8
				c-0.8,0.3-1.5,0.3-2.2,0.3c-1,0-2.3,0.2-3.3,0.4c0.6-0.4,1.5-0.1,2-0.6c-0.2,0-0.5-0.1-0.7-0.1c-0.5,0-1.2,0.1-1.7,0.3
				c-0.2,0.2-0.5,0.5-0.9,0.5c-0.5-0.4-1.3-0.8-1.3-1.4c-1.1-0.6-0.3-2.4-1-2.4c-0.1,0.9,0,1.6,0,2.4c0,0.1,0,0.4,0.2,0.4
				c0.1,0,0.2-0.1,0.3-0.1c0,0.1-0.2,0.2-0.2,0.2l0.1,0.2c0.6,0.2,0.4,0.6,1.2,0.6c0.4,0,0.2,0.4,0.5,0.4c0.2,0,0.5-0.1,0.8-0.1
				c-0.2,0.2-0.3,0.2-0.3,0.3c0.4,0.1,0.6,0,0.8,0c0.2,0,0.2,0.1,0.4,0.1c0.4,0,0.5-0.2,0.5-0.4l0.4-0.1c0,0.1-0.1,0.2,0,0.3
				c-0.7,0.3-1.9,0.2-2.5,0.7c-0.3,0.2-0.5,1.2-0.9,1.2c0-0.2,0.4-0.3,0.1-0.5c0.1-0.2,0.2-0.4,0.2-0.6c0-0.2-0.7-1.5-0.9-1.5
				c-0.1,0.6,0.2,1,0,1.4c0,0.2,0.4,0,0.5,0.2c-0.4,0.4-0.4,0.9-0.6,1.3c0,0-0.1,1-0.1,1C48.2,47.6,47.7,47.8,47.5,47.3 M55.3,37.9
				l0-0.4l1.3,0.6c0.2,0,0.3,0,0.6,0.1c0,0.1,0.2,0.1,0.2,0.3c0,0.1-0.2,0.1-0.3,0.1C56.8,38.4,55.5,38,55.3,37.9 M59.4,41l0.2-0.2
				C59.6,40.9,59.5,41,59.4,41L59.4,41z M58,42.1c-0.2,0-0.7-0.1-0.7-0.3c-1,0-2.1,0-3-0.4c0.8-0.1,1.5-0.2,2.2-0.2
				c0.6,0,1.1,0.1,1.7,0.3c0.1,0.1,0,0.3,0.1,0.4c0,0,0.2,0,0.3,0C58.6,42.2,58.2,42.1,58,42.1 M45.9,45.3c-0.1-0.1-0.1-0.3-0.1-0.4
				c0.2-0.1,0.2,0,0.3,0C46,45.1,46,45.2,45.9,45.3L45.9,45.3z M49.5,46.7c0.1-0.5,0.9-0.7,1.3-1.1l0.3,0c-0.5,0.4-0.6,0.9-1.3,1.1
				C49.7,46.6,49.6,46.7,49.5,46.7 M60.1,37.3l0.3-0.8c0,0.1,0,0.2,0,0.3C60.4,37,60.3,37.2,60.1,37.3 M43.4,37.4
				c0.1-0.2,0.1-0.2,0.1-0.2l0.3,0l0.3,0.2c0.1,0.2,0,0.3-0.1,0.3l-0.5-0.1L43.4,37.4z M42.9,39.8c0.4,0.1,0.7,0.1,1,0.1
				c0.1-0.2-0.2-0.4-0.3-0.5c-0.4-0.1-0.7-0.2-1.1-0.4c-0.1,0-0.2-0.2-0.2-0.3c0.2,0,0.9,0.2,1.2,0.2c0.1,0,0.3-0.1,0.3-0.2
				c0-0.2-1.9-0.5-1.9-1c0.8-0.1,1.4,0.2,2.1,0.2c0.4,0,0.8-0.2,1.3-0.2l0.4,0.2c0.2,0.4,0.6,0.8,0.6,1.2v0.3c0,0.2-0.1,0.6-0.2,0.7
				c-0.5,0-0.9,0.1-1.2,0.1C44.3,40.4,42.9,40.1,42.9,39.8 M38.7,41.7l-0.5,0c-0.1-0.1-0.6-0.3-0.6-0.5c-1.8-3-3.9-5.7-5.7-8.7
				c1.2,1.6,2.5,3,3.6,4.6c0.7,1,1.1,2.2,1.9,3.2C37.7,40.8,38.2,41.3,38.7,41.7 M45.2,41.2l0.2-0.2l0.2,0l-0.2,0.2L45.2,41.2z
				 M43.7,43.8c-0.3-0.9-0.7-1.6-0.7-2.5c0-0.2,0.3-0.3,0.5-0.3h0.3c0.3,0,0.6,0.1,0.9,0.1l0,0.3c-0.4,0-0.6-0.1-0.9-0.1
				c-0.1,0-0.3,0.1-0.4,0.2c0,0.2,0.1,0.3,0.2,0.3L43.7,43.8z M46.6,37.5l-0.6-0.6c0.2-0.3,0.1-0.5,0.1-0.8c0.1,0.1,0.2,0.2,0.3,0.4
				c0.2,0.3,0.3,0.6,0.4,1L46.6,37.5z M48.4,19.9l0.1-0.3l0.2,0C48.7,19.8,48.6,19.9,48.4,19.9L48.4,19.9z M51,20.5
				c-0.2-0.1-0.4,0-0.6-0.1c0,0,0-0.2,0-0.2c0-0.2,0.1-0.3,0.3-0.4l0.2,0l0.5,0.7L51,20.5z M49.3,21c-0.1,0-0.1-0.3-0.1-0.4
				c0-0.1,0-0.2,0.1-0.3l0.3-0.1C49.6,20.4,49.5,20.7,49.3,21L49.3,21z M51.5,21.4c-0.2,0.1-0.2-0.1-0.4-0.1c-0.1,0-0.2,0-0.3,0
				c-0.1-0.1-0.1-0.4-0.4-0.4c-0.1,0-0.3,0.2-0.4,0.2c0.1-0.6,0.1-1.3,0.1-1.9l-0.2,0c0,0.1-0.1,0.2-0.1,0.3c-0.4,0-0.5-0.4-0.7-0.5
				c-0.5,0-1.2,0.3-1.6,0.3c0.7-1.1,2.2-1.8,3.5-1.8c1,0,2.4,0.4,2.9,1.4c0.2,0.3,0.2,0.7,0.3,1c0.1,0.4,0.3,0.8,0.3,1.2
				c0,0.1,0,0.2,0,0.4c-0.4-0.2-0.6-0.1-1-0.1c-0.4,0-0.7-0.5-1.1-0.6c0,0-0.2,0.3-0.1,0.3c-0.4-0.2-0.1-0.3-0.5-0.6
				c-0.2,0.2-0.1,0.4-0.1,0.6c0,0.2-0.2,0.2-0.2,0.5H51.5z M56.8,22.1c0.2-0.2,0.2-0.3,0.3-0.4c-0.2-0.2-0.3-0.2-0.3-0.2l0.3,0
				c0,0,0.1,0.3,0.1,0.3L57.1,22L56.8,22.1z M55.3,22.6v-0.2c0.1-0.1,0.2-0.2,0.3-0.2c0.2-0.2,0.4-0.3,0.7-0.4L55.3,22.6z
				 M55.8,23.1c0.3-0.2,0.4-0.4,0.7-0.5l0.3,0.1L55.8,23.1z M52.1,21.5c0.3,0.1,0.3,0.5,0.3,0.7c0,0.3-0.1,1.1-0.3,1.1
				c0-0.4,0.1-0.7,0.1-1c0-0.3-0.3-0.4-0.3-0.5C51.9,21.7,52,21.5,52.1,21.5 M55.3,23.7c-0.1-0.1-0.1-0.3-0.1-0.3
				c0.1-0.1,0.2-0.2,0.2-0.2c0,0.2,0.1,0.3,0.1,0.4L55.3,23.7z M50.6,26.2c0.2-0.2,0.5-0.4,0.7-0.7c0.1-0.2,0.3-0.3,0.4-0.5
				c0-0.1,0.1-0.2,0.1-0.3c0.1,0.3-0.1,0.8-0.3,0.9C51.3,25.8,50.8,26.1,50.6,26.2 M38.3,25.9l0.3-0.4l0.2,0
				c-0.2,0.2-0.3,0.2-0.3,0.2L38.3,25.9z M43.1,27.8c1.1-0.8,2.3-1.3,3.7-1.3c0.2,0,1.4,0.1,1.5,0.2c-1.5,0.1-2.5,0.5-3.2,0.8
				c-0.2,0.1-0.5,0-0.8,0C43.9,27.5,43.5,27.6,43.1,27.8 M42.2,27.8c0.1,0,0.4,0,0.5,0.1c0,0.1-0.3,0.1-0.3,0.1
				c-0.1,0-0.2,0-0.3,0.1c-0.1,0.1-0.2,0.4-0.5,0.4c-0.2,0.2-0.2,0.3-0.4,0.3c-0.1-0.1,0-0.2,0-0.2c0.1-0.2,0.3-0.3,0.5-0.4
				C42,27.8,42.1,27.8,42.2,27.8 M37.1,27.4c0.5-0.5,1.2-0.8,1.7-1.3C38.5,26.4,37.5,27.4,37.1,27.4 M32.9,30.4l2.2-1.5
				c0,0.2-0.4,0.4-0.6,0.6C34.3,29.6,33.1,30.5,32.9,30.4 M31.6,31.9l0-0.3l0.2-0.3c0.1-0.1,0.9-0.5,1-0.5
				C32.6,30.9,31.8,31.7,31.6,31.9 M47.2,31.8l-0.2-0.3c0.2-0.1,0.3-0.1,0.3-0.1c0.1,0.2,0.1,0.3,0.1,0.4L47.2,31.8z M63.7,33.4
				c-0.8-0.6-0.7-0.3-1.4-0.3c-0.2,0-0.2-0.5-0.5-0.6c-0.1,0-0.2,0.1-0.3,0.1c-0.9,0-1.5-0.8-2.4-0.8c-0.3,0-0.5,0.1-0.8,0.1
				c-0.8,0-1.6,0.6-2.4,0.6c-0.3,0-0.6-0.2-1-0.2c-1.3,0-2.5,0.6-3.8,0.6c-0.5,0-1.5,0.1-1.5-0.5l-1.5-1l-0.6-1.5
				c0.4,0.2,0.8,0.9,1.1,0.9l-0.7-2.1c1,0,0.8,1.6,1.7,1.6c0.2,0,0.7-0.3,0.8-0.5c-0.6-0.5-1.1-0.2-1.2-1.2h2.1
				c0.4-0.4,1-0.3,1.4-0.2c0.1-0.1,0-0.3,0.1-0.5c0.1-0.1,0.7-0.1,0.8-0.1c1,0,0.9-1.3,3.4-1.3c1,0,2,0.1,3,0.4c0,0.5,1,0.6,1.3,0.8
				H62c0.2,0.1,0.2,1.2,0.7,1.2c0.1,0,0.5-0.2,0.5-0.3c0-0.1-0.4-0.4-0.5-0.6c-0.2-0.7-0.4-2.4-1.5-2.4c-0.7,0-1.3,0.5-1.9,0.5
				c-0.2,0-0.5-0.1-0.7-0.2l0.1-0.4c-0.2-0.2-0.4-0.2-0.6-0.2c-0.3,0-0.7,0.2-1,0.1c-2.3,1.5-5,2.6-7.8,2.6c-0.3,0-0.4-0.3-0.3-0.5
				l-0.3-0.1c0.3-0.3,0.6-0.3,0.6-0.7c-0.7,0-0.6-0.4-0.6-0.7c0-0.4-0.4-0.1-0.4-0.5c0-0.2,0.5,0,0.5-0.3c0-0.2-0.6,0-0.7,0
				c-0.1,0-0.3,0-0.3-0.2c0-0.4,0.2-0.1,0.4-0.1c0.1-0.2-0.2-0.8-0.2-0.8c-0.1,0,0,0.3,0,0.4c-0.5,0.1-0.5,0.4-0.7,0.4l-0.1-1.7
				c0.3,0.2,0.5,0.8,0.7,0.8c0.1,0,0.1-0.4,0.2-0.5c0.1-0.1,0.4-0.2,0.4-0.4c0-0.6-0.9-0.5-1.3-0.5c-0.2,0-0.1-0.1-0.1-0.2
				c0-0.3-0.2-0.7-0.2-1c0-0.1,0-0.2,0-0.3c0.2-0.1,0.5-0.1,0.7-0.1c1,0,1,0.8,2,0.8c0.4,0,0.3,0.5,0.6,0.6c0.5-0.1,0.2,0.4,1,0.3
				c0.2,0.1,0.1,1,0.4,1.2c0.1,0.1,0.4-0.1,0.6-0.1c0.1,0.3-0.3,0.3-0.3,0.5c0.7,0.1,0.8-0.5,1-1l0.3-0.1c0-0.3-0.1-0.5-0.1-0.7
				c0-0.3,0.2-0.2,0.2-0.5l0-0.4c0.3-0.1,0.5,0,0.7,0l0.2,0c0.1,0.2-0.1,0.4-0.1,0.8c0,0.5-0.4,0.2-0.6,0.2c-0.2,0-0.2,0.1-0.2,0.2
				c0,0.6,0.3,0.5,0.7,0.5c0.4,0,0.7,0.7,0.7,1.1c-1.7,1.1-3.4,2.1-5.3,2.4c-0.1,0.4,0.2,0.4,0.3,0.4c0.9,0,3-1,3.7-1.4l2.3-1.3
				c0.8-0.5,1.9-2.7,1.9-3.6c0-0.2-0.3-0.2-0.3-0.4c0.2-0.1,0.4-0.2,0.6-0.2c0.1,0,0.3,0,0.4,0.1l0.4,1.1l1.1,0.8
				c0,0.6-1,0.5-0.8,1.2c-0.1,0.1-0.3-0.1-0.5-0.1c-0.5,0-6,3.8-8.8,4c-0.1,0.3,0.1,0.4,0.3,0.4c2.1,0,4-1.7,5.8-2.5
				c0.9-0.4,1.9-0.5,2.8-0.7c0-0.1,0.1-0.3,0.1-0.4c0.6-0.2,0.8-0.6,1.2-1l0.8,0.8c-0.1,0-1.7,0-1.8,0.4l2,0.3
				c0.1,0.1,0.1,0.3,0.2,0.4c1.1,0.6,1.1,1.3,1.9,2.2c0,1.4,0.1,0.8,0.4,1.5C63.2,29,63,29.4,63,29.7c0,0.7,0.3,1.3,0.3,1.9
				c-0.1-0.1-1.3-2.4-1.9-2.4c-0.2,0-0.2,0.1-0.2,0.3c0,0.5,0.5,1,1,1.1c0.2,1,1.3,1.8,1.6,2.8L63.7,33.4z M54.2,32.2l2.4-1.6
				c0.1,0.1,0.3,0.1,0.4,0.1c0.2-0.2,0.4-0.3,0.5-0.6l-2.5,0.6c-0.1,0.1,0,0.2-0.1,0.4c-0.6,0.3-1.4,0.2-2,0.7c0.3,0.1,0.6,0,0.8,0
				c0.1,0,0.2,0.1,0.3,0.1V32.2z M56.8,29.7c0.1,0,0.2,0,0.2,0c0.3,0,0.5,0,0.6-0.2c0-0.2-0.3-0.1-0.4-0.3l0-0.2
				c-0.1,0-0.2-0.1-0.3-0.1c-0.2,0-0.3,0-0.4,0c0,0.4,0.4,0.2,0.4,0.4L56.8,29.7z M53.9,30.6c0.1,0,0.3-0.1,0.5-0.1
				c0.7-0.1,1.5,0.1,1.9-0.6c0.2-0.1,0.3,0,0.3-0.2c-0.1-0.2-0.3-0.2-0.4-0.2c-0.1,0-0.2,0-0.3,0c-0.8,0.2-1.4,0.5-2,0.8V30.6z
				 M51.3,29.9c1.2-0.3,1.7-0.7,2.6-1l2.3-0.7l-0.1-0.2c-0.4-0.1-0.7-0.3-1.1-0.3h-0.2c0,0.2,0.1,0.2,0.1,0.3l-4.1,1.7
				C51.1,29.9,51.2,29.9,51.3,29.9 M45.7,33.4c0-0.1,0.1-0.2,0.1-0.3v-0.2c0-0.2,0-0.3,0-0.5c0-0.1,0-0.2,0.1-0.3
				c0.1,0.1,0.1-0.1,0.3,0.2C46,32.5,46,32.8,46,33.1c0,0.1-0.1,0.2-0.1,0.3L45.7,33.4z M54.6,33.8c0.1-0.3,0.2-0.3,0.2-0.4
				c0.1-0.1,0.1-0.2,0.2-0.3c0.2-0.1,0.2-0.1,0.3-0.1C55.4,33.3,54.9,33.5,54.6,33.8L54.6,33.8z M63.2,34.3c-0.1,0-0.1-0.1-0.2-0.1
				l-0.1-0.3l0-0.2C63,33.8,63.3,34.1,63.2,34.3L63.2,34.3z M47.9,34.4l0.4-1.9l0.3-0.1l-0.4,1.3c0.1,0,0.2,0.1,0.3,0.1
				C48.3,34.1,48.1,34.2,47.9,34.4 M51.7,34.5l0.3-0.8c0,0.1,0,0.2,0,0.4c0,0.1,0,0.2,0,0.2C51.8,34.4,51.7,34.5,51.7,34.5
				 M42.4,34.9c0-0.2,0.1-0.2,0.1-0.3C42.6,34.7,42.5,34.8,42.4,34.9L42.4,34.9z M49.4,35c0-0.1-0.1-0.2-0.1-0.3v-0.2
				c0-0.1,0.1-0.3,0.1-0.3l0.7-0.7L49.5,35H49.4z M50.4,35c0-0.3,0.1-0.6,0.2-0.8c0.2,0.4,0.1,0.6-0.1,0.8H50.4z M46.6,35.1v-2.4
				c0.2,0.1,0.2,0.2,0.2,0.4c0,0.3-0.2,0.7-0.2,1.1c0,0.2,0.1,0.4,0.2,0.5C46.8,34.8,46.8,35.1,46.6,35.1L46.6,35.1z M47.5,35.9
				c0-0.1-0.1-0.3-0.1-0.4c0-0.4,0.1-0.6,0.2-0.8L47.5,35.9L47.5,35.9z M53.2,36c0-0.5,0.6-0.8,0.9-0.9c0.3-0.6,0.8-0.8,1.3-1.2
				c0.3-0.3,0.5-0.5,0.7-0.6c0.3,0,0.8,0,1.1,0c-0.5,0.6-1.1,1.7-1.9,1.9l0.3-0.7c-0.8-0.1-1.1,1-1.5,1.3
				C53.8,35.8,53.5,35.9,53.2,36L53.2,36z M32.4,32.4c2.9,2.7,4,5.3,6.1,8.3c-1.5-1.7-2.5-3.8-3.8-5.7C34,34.1,33.1,33.4,32.4,32.4
				L32.4,32.4z M48.4,36.6c0,0-0.3-0.1-0.3-0.1l0.4-1.5L48.4,36.6z M63.5,36.8l-0.1-1.6c0.1,0.3,0.2,0.6,0.2,0.9v0.4
				C63.6,36.6,63.6,36.7,63.5,36.8L63.5,36.8z M45.3,37.4C44.5,37,44,36.7,44,35.6c0-0.8,0.4-1.7,0.7-2.4l-0.1-0.3l-0.3,0l-0.5,1
				l-0.6-0.5c-0.1-0.3,0-0.7-0.2-1c-0.3-0.4-0.5-0.1-0.8-0.8c-0.2-0.4-0.2-1-0.2-1.2c-0.2-0.5-0.5-0.7-0.9-1c0-0.2,0-0.4,0.2-0.3
				l0.5,0.1c0.3,0.1,0.9,0.9,1.2,0.9c0-0.2-0.1-0.3-0.1-0.4c0.4,0,0.4-0.2,0.5-0.2c0.1,0,0.4,0,0.4-0.1c0-0.2-0.4,0.1-0.4-0.6
				c0-0.1,0-0.3,0.1-0.4c0.3,0.2,0.7,0.4,0.7,0.8c0,0.9-0.3,1.9-0.3,2.8c0,0,0.6,0.6,0.7,0.6c0.3,0,0.2-0.7,0.3-1
				c0.4,0.4,0.4,0.7,0.4,1.3c0,0.1-0.1,1-0.1,1c0,0.1-0.2,0.2-0.2,0.3c0.1,0.8,0.1,1.5,0.1,2.3c0,0.3,0.4,0.7,0.5,0.8L45.3,37.4z
				 M39.6,30.1c0.3-0.2,0.7-0.2,1-0.3c0.1,0,0.2-0.2,0.4-0.2c0.1,0,0.2,0.6,0.2,0.6c-0.1,0.2-0.1,0.4-0.1,0.6c0,0.6,0.4,2.5,1.2,2.5
				c0.2,0,0.2,0.4,0.2,0.5c0,0.4-0.6,0.9-0.6,1.3c0,0.1,0,0.3,0.1,0.4c0.3,0,0.2,0.4,0.3,0.6c0.1,0.1,0.3,0.1,0.4,0.2
				c-0.9,0.4-1.3,0.9-1.3,1.9c0,0.3,0.1,0.7,0.2,1c-0.8,0.5-1.2,1.5-2.1,2c-1.9-2.3-3-5-4.6-7.5c-0.5-0.8-1.4-1.2-1.7-2
				c0.9-1.5,3.7-1.1,3.6-3.3c1.3,1.7,4,5.7,4.6,7.7l0.6,0.3c-0.5-1.2-1.4-2.3-2-3.4c-1-1.6-1.8-3.3-2.9-4.8c1.7-0.7,2.1-0.8,2.2-2.6
				c0.8,0.2,1.1,1.5,1.6,2l0.1,1.5C40.7,29,39.7,29.8,39.6,30.1 M39.1,30.3c0.1,0,0.3-0.1,0.4-0.1c0.1-0.2-0.1-0.4-0.1-0.4
				c-0.1,0.1-0.2,0.2-0.2,0.2L39.1,30.3z M40.4,27.9c0,0-0.2-0.1-0.2-0.1c0,0-0.4,0.3-0.4,0.2c-0.1,0-0.2,0.4-0.3,0.5
				c-0.2,0.2-0.2,0.3-0.2,0.3c-0.2-0.1-0.5,0.2-0.6,0.3c-0.1,0.2-0.1,0.4,0.1,0.5c0.1-0.1,0.3-0.2,0.4-0.3l0.2-0.2
				c0.1,0,0.4-0.3,0.4-0.4c0-0.1,0.2-0.2,0.2-0.2c0.1,0,0.3-0.2,0.3-0.2C40.4,28.3,40.4,27.9,40.4,27.9 M41.2,37
				c0.1,0,0.3-0.2,0.3-0.3c0-0.2-0.2-0.3-0.3-0.3c-0.1,0-0.5,0.5-0.6,0.5c-0.1,0.1-0.1,0.2-0.1,0.2c0,0.2,0,0.2,0,0.3
				c0.3,0,0.4-0.3,0.6-0.4H41.2z M38.7,38.7c-0.1,0.2,0,0.2,0,0.3c0.4-0.1,0.9-0.6,0.9-0.6c0.1-0.1,0.3-0.3,0.4-0.5
				c0-0.2,0-0.2,0-0.2l-0.2,0c-0.2,0-0.6,0.6-0.6,0.6C39,38.2,38.8,38.6,38.7,38.7 M39,37.2l-0.2,0c-0.1,0-0.3,0.1-0.4,0.2l-0.3,0.1
				c-0.1,0.1-0.2,0.3-0.2,0.4l0.1,0.3c0.2,0,0.7-0.4,0.7-0.5c0,0,0.4-0.2,0.4-0.3L39,37.2z M39.2,37.2l0.5-0.2
				c0.1-0.1,0.2-0.2,0.3-0.3c0,0,0.6-0.6,0.6-0.6c0.1,0,0.3-0.2,0.3-0.3c-0.3-0.1-0.6,0-0.6,0c0,0-0.3,0.4-0.4,0.4
				c-0.2,0.1-0.3,0.3-0.6,0.3c0,0-0.3,0.3-0.3,0.4L39.2,37.2z M37.6,37.2c0.2,0.1,0.6-0.3,0.6-0.3c0.3,0,0.9-0.8,0.8-0.9
				c-0.1-0.1-0.1-0.2-0.3-0.2c-0.1,0-0.2,0.3-0.2,0.4c0,0-0.4,0.3-0.4,0.3c-0.3,0.2-0.5,0.3-0.5,0.6L37.6,37.2z M38.8,35
				c-0.3,0-0.7,0.2-0.8,0.4c-0.1,0.2-0.2,0.3-0.3,0.4c-0.2,0.1-0.5,0.2-0.6,0.3c-0.1,0.1-0.1,0.3,0,0.3l0.5-0.1
				c0.2,0,0.3-0.5,0.6-0.6c0-0.1,0.4-0.4,0.6-0.5C38.9,35.1,38.8,35.1,38.8,35L38.8,35z M40.4,35c-0.3-0.2-0.3-0.1-0.3-0.1
				c-0.2,0.1-0.4,0.2-0.6,0.3c0,0.2,0,0.2,0,0.3c-0.1,0.1-0.1,0.2,0,0.3c0.2,0,0.6-0.2,0.8-0.3c0.1-0.1,0.2-0.2,0.2-0.3L40.4,35z
				 M36.6,35.4c0.1,0.3,0.1,0.3,0.2,0.3c0.2-0.2,0.3-0.3,0.5-0.4c0.2-0.1,0.3-0.3,0.5-0.4c0.1-0.1,0.2-0.2,0.3-0.2
				c0-0.2,0-0.2,0-0.2c-0.1-0.1-0.1-0.1-0.3-0.1c-0.2,0-0.3,0.1-0.4,0.3l-0.3,0.5c-0.1,0.1-0.3,0.1-0.4,0.2L36.6,35.4z M38.9,34.5
				c0.1,0.2,0.1,0.4,0.2,0.4c0.1,0,0.1-0.3,0.3-0.4c0.2-0.2,0.5-0.4,0.5-0.5c0-0.2-0.2-0.2-0.3-0.2c-0.1,0.1-0.3,0.3-0.4,0.3
				c-0.1,0.1-0.2,0.1-0.2,0.2L38.9,34.5z M38.6,34.1c0.2-0.1,0.3-0.2,0.4-0.2c0.1-0.1,0.3-0.2,0.4-0.3c0.1-0.1,0.2-0.2,0.2-0.2
				c-0.1-0.1-0.1-0.2-0.3-0.2c-0.1,0-0.5,0.2-0.5,0.4c-0.1,0.1-0.2,0.2-0.2,0.2C38.5,34,38.6,34,38.6,34.1 M37.1,34
				c-0.2-0.1-0.3,0-0.3,0c-0.3,0.2-0.7,0.6-0.7,0.7c-0.1,0.1-0.1,0.2,0,0.2c0.2,0.1,0.7-0.3,0.9-0.6c0.1-0.1,0.1-0.2,0.2-0.3
				L37.1,34z M37.4,33.9c0-0.1,0.2-0.1,0.2-0.1c0.4,0,0.2-0.6,0.7-0.7c0.1-0.1,0.3-0.2,0.3-0.2c0.2,0,0.3-0.3,0.4-0.3l-0.1-0.2
				c-0.2-0.1-0.3,0-0.3,0l-0.3,0.2c0,0-0.3,0.3-0.3,0.4c-0.1,0.1-0.2,0.2-0.3,0.2c-0.2,0.1-0.2,0.2-0.3,0.2c0,0-0.2,0.2-0.2,0.2
				c-0.1,0.2,0,0.5,0.1,0.5L37.4,33.9z M36.1,32.6c-0.1-0.2-0.3-0.1-0.3-0.1c-0.2,0.2-0.4,0-0.6,0.4c-0.2,0.3-0.2,0.4-0.2,0.4
				c0.2,0.1,0.3,0,0.3,0c0.3-0.2,0.3-0.3,0.4-0.4c0.1,0,0.3-0.2,0.3-0.2L36.1,32.6z M38.6,31.8c-0.1-0.2-0.1-0.2-0.2-0.3
				c-0.1,0-0.2,0-0.3,0.1c-0.1,0.3-0.5,0.2-0.5,0.4l-0.1,0.2l0.1,0.3c0.1,0,0.2-0.1,0.3-0.2c0.2-0.1,0.2-0.2,0.2-0.2
				c0.2,0,0.3-0.2,0.3-0.3L38.6,31.8z M35.7,34.2c0.2-0.3,0.2-0.3,0.3-0.4c0.1-0.1,0.5-0.3,0.5-0.3c0.2-0.1,0.3-0.4,0.3-0.4
				c0.1-0.3,0-0.4-0.1-0.4c-0.2,0.1-0.4,0.5-0.4,0.5c-0.1,0.2-0.5,0.1-0.6,0.4c-0.1,0.3-0.2,0.3-0.2,0.4
				C35.6,34,35.6,34.2,35.7,34.2 M36.4,32.5c0.1,0,0.1-0.2,0.3-0.2c0.3-0.2,0.5-0.2,0.5-0.4c0,0,0.7-0.7,0.7-0.7l0.2-0.3l-0.2-0.2
				c-0.2,0.1-0.3,0.2-0.3,0.2c-0.1,0-0.3,0.3-0.3,0.4c-0.3,0.3-0.5,0.5-0.6,0.5c0,0-0.3,0.2-0.4,0.2c-0.1,0.2,0,0.2,0,0.2
				C36.3,32.2,36.4,32.5,36.4,32.5 M37.5,29.8c-0.1,0.1-0.6,0.5-0.6,0.5l-0.3,0.2c-0.1,0-0.4,0-0.5,0.2c0,0.2,0,0.2,0,0.3l0.1,0.3
				c0.3-0.2,0.5-0.4,0.6-0.4c0.2-0.1,0.4-0.4,0.4-0.4c0.1-0.1,0.3-0.1,0.4-0.4C37.6,29.9,37.5,29.8,37.5,29.8L37.5,29.8z M34.6,32.6
				l0.4-0.3c0.1-0.1,0.6-0.4,0.6-0.5c0.1-0.2,0.2-0.1,0.3-0.3l-0.1-0.3c-0.1,0-0.6,0-0.6,0.2c-0.2,0.3-0.3,0.3-0.4,0.4l-0.2,0.3
				C34.5,32.4,34.5,32.6,34.6,32.6"/>
			<path fill-rule="evenodd" clip-rule="evenodd" fill="#FFFFFF" d="M31.6,43.2L31.6,43.2l-1,0.3l-1.5-2.5l0.1-0.1l0.1,0.1
				c0.1,0.1,0.2,0.2,0.3,0.2c0.1,0,0.2-0.1,0.4-0.2L32,40c0.2-0.1,0.3-0.2,0.3-0.3c0-0.1,0-0.2-0.1-0.3l-0.1-0.1l0.1-0.1l0.9,1.4
				l-0.1,0.1c-0.1-0.2-0.2-0.3-0.3-0.3c-0.1,0-0.1-0.1-0.2-0.1c-0.1,0-0.2,0.1-0.4,0.2l-2,1.2c-0.1,0.1-0.2,0.1-0.2,0.2
				c0,0,0,0.1,0,0.1c0,0,0.1,0.2,0.2,0.4l0.1,0.2c0.1,0.2,0.3,0.4,0.4,0.5c0.1,0.1,0.2,0.1,0.4,0.2C31.1,43.3,31.3,43.3,31.6,43.2"
				/>
			<path fill-rule="evenodd" clip-rule="evenodd" fill="#FFFFFF" d="M35.5,43.8L35.5,43.8l1,0.9l-0.1,0.1l-0.1-0.1
				c-0.1-0.1-0.2-0.2-0.4-0.1c-0.1,0-0.2,0.1-0.3,0.2l-1.1,1c-0.3,0.3-0.5,0.4-0.7,0.5c-0.2,0.1-0.4,0.1-0.7,0
				c-0.3-0.1-0.5-0.2-0.8-0.5c-0.3-0.3-0.4-0.6-0.5-0.8c0-0.3,0-0.5,0.1-0.7c0.1-0.2,0.3-0.4,0.6-0.7l1.1-1c0.2-0.2,0.3-0.3,0.3-0.4
				c0-0.1,0-0.2-0.1-0.3l-0.1-0.1l0.1-0.1l1.1,1.2l-0.1,0.1l-0.1-0.1c-0.1-0.1-0.2-0.2-0.3-0.1c-0.1,0-0.2,0.1-0.4,0.2l-1.2,1.1
				c-0.1,0.1-0.2,0.2-0.3,0.4c-0.1,0.1-0.2,0.3-0.2,0.4c0,0.1,0,0.3,0,0.4c0,0.1,0.1,0.3,0.2,0.4c0.2,0.2,0.3,0.3,0.6,0.4
				c0.2,0.1,0.4,0.1,0.6,0c0.2-0.1,0.4-0.2,0.7-0.5l1.1-1c0.2-0.2,0.3-0.3,0.3-0.4c0-0.1,0-0.2-0.1-0.3L35.5,43.8z"/>
			<path fill-rule="evenodd" clip-rule="evenodd" fill="#FFFFFF" d="M37,47.3l-0.1,1.4c0,0.4,0,0.7,0,0.8c0,0.1,0.1,0.3,0.2,0.4
				L37.1,50l-1.3-1l0.1-0.1C36,49,36,49,36.1,49.1c0,0,0.1,0,0.1,0c0,0,0.1,0,0.1-0.1c0,0,0-0.1,0.1-0.1c0,0,0-0.1,0-0.3l0.1-1.1
				l-1.2,0.3c-0.1,0-0.2,0.1-0.2,0.1c0,0-0.1,0-0.1,0.1c0,0,0,0.1,0,0.2c0,0.1,0.1,0.1,0.2,0.2L35,48.4l-1.1-0.8l0.1-0.1
				c0.1,0,0.2,0.1,0.2,0.1c0.1,0,0.2,0,0.4,0c0.1,0,0.3,0,0.5-0.1l1.4-0.4l0.1-1.3c0-0.4,0-0.6-0.1-0.8c-0.1-0.2-0.2-0.3-0.3-0.4
				l0.1-0.1l1.4,1l-0.1,0.1c-0.1-0.1-0.2-0.1-0.3-0.1c-0.1,0-0.1,0-0.1,0.1c0,0.1-0.1,0.2-0.1,0.3l-0.1,1l1-0.3
				c0.1,0,0.2-0.1,0.2-0.1c0,0,0.1,0,0.1-0.1c0,0,0-0.1,0-0.1c0,0,0-0.1,0-0.1c0,0-0.1-0.1-0.2-0.2l0.1-0.1l1.1,0.8L39.2,47
				c-0.1-0.1-0.2-0.1-0.2-0.1c-0.1,0-0.2,0-0.3,0c-0.1,0-0.3,0-0.5,0.1L37,47.3z"/>
			<path fill-rule="evenodd" clip-rule="evenodd" fill="#FFFFFF" d="M42.2,48.6L41.6,50l0.8,0.3c0.2,0.1,0.3,0.1,0.4,0.1
				c0.1,0,0.2-0.2,0.3-0.4l0.1,0l-0.5,1.2l-0.1,0c0-0.2,0.1-0.3,0.1-0.4c0-0.1,0-0.1-0.1-0.2c-0.1-0.1-0.2-0.1-0.3-0.2l-0.8-0.3
				l-0.4,1.1c-0.1,0.2-0.1,0.3-0.1,0.3c0,0,0,0.1,0,0.1c0,0,0.1,0.1,0.2,0.1l0.6,0.2c0.2,0.1,0.3,0.1,0.4,0.1c0.1,0,0.2,0,0.3-0.1
				c0.1-0.1,0.3-0.2,0.5-0.4l0.1,0l-0.6,0.8l-2.7-1l0-0.1l0.1,0c0.1,0,0.2,0,0.3,0c0.1,0,0.1,0,0.2-0.1c0,0,0.1-0.2,0.2-0.3l0.9-2.3
				c0.1-0.2,0.1-0.4,0.1-0.4c0-0.1-0.1-0.2-0.3-0.2l-0.1,0l0-0.1l2.7,1l-0.3,0.8l-0.1,0c0-0.2,0-0.3,0-0.4c0-0.1-0.1-0.2-0.1-0.2
				c-0.1-0.1-0.2-0.1-0.3-0.2L42.2,48.6z"/>
			<path fill-rule="evenodd" clip-rule="evenodd" fill="#FFFFFF" d="M47.3,49.8l-0.1,0.9l-0.1,0c0-0.2,0-0.3,0-0.3
				c0-0.1-0.1-0.2-0.2-0.3c-0.1-0.1-0.2-0.1-0.4-0.1L46,49.8l-0.5,2.8c0,0.2,0,0.4,0,0.4c0.1,0.1,0.2,0.1,0.3,0.2l0.1,0l0,0.1
				L44.2,53l0-0.1l0.1,0c0.2,0,0.3,0,0.4-0.1c0,0,0.1-0.2,0.1-0.4l0.5-2.8L45,49.6c-0.2,0-0.3,0-0.4,0c-0.1,0-0.2,0.1-0.3,0.2
				c-0.1,0.1-0.2,0.2-0.2,0.4l-0.1,0l0.2-0.9L47.3,49.8z"/>
			<path fill-rule="evenodd" clip-rule="evenodd" fill="#FFFFFF" d="M53.1,49.7l0,0.1c-0.1,0-0.2,0.1-0.3,0.2
				c-0.1,0.1-0.2,0.2-0.2,0.4l-1,3.3l-0.1,0l-1.7-3.1c-0.1-0.2-0.1-0.3-0.2-0.3c-0.1-0.1-0.1-0.1-0.2-0.1c-0.1,0-0.2,0-0.3,0l0-0.1
				l1.5-0.1l0,0.1c-0.2,0-0.3,0.1-0.3,0.1c0,0-0.1,0.1-0.1,0.2c0,0.1,0.1,0.2,0.2,0.4l1.1,2.1l0.7-2.2c0.1-0.2,0.1-0.4,0.1-0.5
				c0-0.1,0-0.1-0.1-0.1c-0.1,0-0.2-0.1-0.3-0.1c0,0,0,0,0,0l0-0.1L53.1,49.7z"/>
			<path fill-rule="evenodd" clip-rule="evenodd" fill="#FFFFFF" d="M54.2,49.6l0.4,1.4l0.8-0.2c0.2-0.1,0.3-0.1,0.4-0.2
				c0.1-0.1,0.1-0.3,0-0.5l0.1,0l0.3,1.3l-0.1,0c-0.1-0.2-0.1-0.3-0.2-0.3c0-0.1-0.1-0.1-0.2-0.1c-0.1,0-0.2,0-0.3,0l-0.8,0.2
				l0.3,1.2c0,0.2,0.1,0.3,0.1,0.3c0,0,0.1,0.1,0.1,0.1c0,0,0.1,0,0.2,0l0.6-0.2c0.2-0.1,0.3-0.1,0.4-0.2c0.1-0.1,0.2-0.1,0.2-0.2
				c0.1-0.1,0.1-0.3,0.2-0.6l0.1,0l-0.1,1l-2.8,0.7l0-0.1l0.1,0c0.1,0,0.2-0.1,0.2-0.1c0,0,0.1-0.1,0.1-0.2c0-0.1,0-0.2-0.1-0.4
				l-0.6-2.3c-0.1-0.2-0.1-0.4-0.2-0.4c-0.1-0.1-0.2-0.1-0.3,0l-0.1,0l0-0.1l2.8-0.7l0.3,0.8l-0.1,0c-0.1-0.2-0.2-0.3-0.2-0.4
				c-0.1-0.1-0.1-0.1-0.2-0.1c-0.1,0-0.2,0-0.4,0.1L54.2,49.6z"/>
			<path fill-rule="evenodd" clip-rule="evenodd" fill="#FFFFFF" d="M61.2,50.7l-0.9,0.4l-1.9-1c-0.1,0-0.2,0.1-0.2,0.1
				c0,0,0,0-0.1,0c0,0-0.1,0-0.1,0l0.5,1c0.1,0.2,0.2,0.3,0.3,0.4c0.1,0,0.2,0,0.3,0l0.1-0.1l0,0.1l-1.5,0.7l0-0.1l0.1-0.1
				c0.1-0.1,0.2-0.2,0.2-0.3c0-0.1,0-0.2-0.1-0.4l-1-2.2c-0.1-0.2-0.2-0.3-0.3-0.4c-0.1,0-0.2,0-0.3,0l-0.1,0.1l0-0.1l1.2-0.6
				c0.4-0.2,0.6-0.3,0.8-0.3c0.2,0,0.4,0,0.6,0.1c0.2,0.1,0.3,0.2,0.4,0.4c0.1,0.2,0.1,0.4,0,0.6c-0.1,0.2-0.2,0.4-0.5,0.6l1.2,0.6
				c0.3,0.1,0.5,0.2,0.6,0.3C60.8,50.7,60.9,50.6,61.2,50.7L61.2,50.7z M58,50C58,50,58,50,58,50c0.1,0,0.1-0.1,0.1-0.1
				c0.3-0.1,0.5-0.3,0.6-0.5c0.1-0.2,0.1-0.4,0-0.6c-0.1-0.2-0.2-0.4-0.4-0.4c-0.2-0.1-0.4-0.1-0.6,0c-0.1,0-0.2,0.1-0.4,0.2L58,50z
				"/>
			<path fill-rule="evenodd" clip-rule="evenodd" fill="#FFFFFF" d="M62.8,49.5L62.8,49.5l-1.3,1l-0.1-0.1l0.1-0.1
				c0.1-0.1,0.2-0.2,0.2-0.3c0-0.1-0.1-0.2-0.2-0.4l-1.3-2c-0.1-0.2-0.2-0.3-0.2-0.3c0,0-0.1,0-0.2,0c-0.1,0-0.2,0-0.2,0.1l-0.1,0.1
				l-0.1-0.1l1.3-0.9l0.1,0.1l-0.1,0.1c-0.1,0.1-0.2,0.2-0.2,0.3c0,0.1,0.1,0.2,0.2,0.4l1.3,2c0.1,0.2,0.2,0.3,0.2,0.3
				c0,0,0.1,0,0.2,0c0.1,0,0.2,0,0.2-0.1L62.8,49.5z"/>
			<path fill-rule="evenodd" clip-rule="evenodd" fill="#FFFFFF" d="M63.5,44.2l0.6,0.6L64,44.9c-0.1-0.1-0.2-0.2-0.3-0.2
				c-0.1,0-0.2-0.1-0.3,0c-0.1,0-0.2,0.1-0.3,0.2l-0.4,0.3l1.8,2.2c0.1,0.2,0.3,0.3,0.3,0.3c0.1,0,0.2,0,0.3-0.1l0.1-0.1l0.1,0.1
				l-1.2,1L64,48.5l0.1-0.1c0.1-0.1,0.2-0.2,0.2-0.3c0-0.1-0.1-0.2-0.2-0.3l-1.8-2.2l-0.3,0.3c-0.1,0.1-0.2,0.2-0.3,0.3
				c-0.1,0.1-0.1,0.2-0.1,0.3c0,0.1,0.1,0.2,0.2,0.4l-0.1,0.1l-0.5-0.7L63.5,44.2z"/>
			<path fill-rule="evenodd" clip-rule="evenodd" fill="#FFFFFF" d="M66.6,44.3l-0.9,1.1L66,46c0.1,0.1,0.1,0.2,0.2,0.3
				c0,0,0.1,0,0.2,0c0.1,0,0.2-0.1,0.3-0.2l0.1,0.1l-0.8,0.9L65.9,47c0.1-0.1,0.1-0.2,0.1-0.3c0-0.1-0.1-0.3-0.2-0.6l-1.5-3l0.1-0.1
				l3.2,1c0.3,0.1,0.4,0.1,0.6,0.1c0.1,0,0.2-0.1,0.3-0.2l0.1,0.1l-0.9,1.1l-0.1-0.1c0.1-0.1,0.1-0.2,0.1-0.3c0-0.1,0-0.1-0.1-0.2
				c-0.1-0.1-0.2-0.1-0.4-0.2L66.6,44.3z M66.4,44.3l-1.6-0.5l0.7,1.5L66.4,44.3z"/>
			<path fill-rule="evenodd" clip-rule="evenodd" fill="#FFFFFF" d="M66.6,39.8l1.1,0.7l-0.1,0.1c-0.2-0.1-0.4-0.2-0.6-0.2
				c-0.2,0-0.3,0-0.5,0.1c-0.2,0.1-0.3,0.2-0.4,0.3c-0.1,0.2-0.1,0.3-0.1,0.5c0,0.2,0.1,0.3,0.2,0.4c0.1,0.1,0.2,0.1,0.3,0.1
				c0.2,0,0.5-0.2,0.9-0.4c0.3-0.2,0.6-0.3,0.7-0.4c0.2-0.1,0.3-0.1,0.5-0.1c0.2,0,0.3,0.1,0.4,0.1c0.2,0.1,0.4,0.4,0.4,0.7
				c0.1,0.3,0,0.6-0.2,0.9c-0.1,0.1-0.1,0.2-0.2,0.2c0,0-0.1,0.1-0.3,0.2c-0.1,0.1-0.2,0.2-0.3,0.2c0,0,0,0.1,0,0.1
				c0,0,0,0.1,0.1,0.1l-0.1,0.1L67.7,43l0.1-0.1c0.3,0.1,0.5,0.2,0.6,0.2c0.2,0,0.3,0,0.5-0.1c0.2-0.1,0.3-0.2,0.4-0.4
				c0.1-0.2,0.2-0.4,0.1-0.6c0-0.2-0.1-0.3-0.3-0.4c-0.1,0-0.2-0.1-0.3-0.1c-0.1,0-0.2,0-0.3,0.1c-0.1,0-0.3,0.1-0.6,0.3
				c-0.3,0.2-0.6,0.3-0.7,0.4c-0.2,0.1-0.3,0.1-0.5,0.1c-0.1,0-0.3-0.1-0.4-0.1c-0.2-0.1-0.4-0.4-0.4-0.6c-0.1-0.3,0-0.6,0.2-0.8
				c0.1-0.2,0.3-0.3,0.5-0.5c0.1-0.1,0.2-0.1,0.2-0.1c0,0,0-0.1,0-0.1C66.7,40,66.6,39.9,66.6,39.8L66.6,39.8z"/>
			<path fill="#FFFFFF" d="M24.3,29.2c0,14.2,11.5,25.7,25.7,25.7c14.2,0,25.7-11.5,25.7-25.7C75.8,15,64.3,3.5,50,3.5
				C35.8,3.5,24.3,15,24.3,29.2 M23.8,29.2C23.8,14.7,35.6,2.9,50,2.9c14.5,0,26.2,11.8,26.2,26.2c0,14.5-11.8,26.2-26.2,26.2
				C35.6,55.4,23.8,43.7,23.8,29.2"/>
			<path fill-rule="evenodd" clip-rule="evenodd" fill="#FFFFFF" d="M26.4,26.1l2,0.2l0,0.2c-0.4,0-0.7,0.1-0.9,0.2
				c-0.2,0.1-0.4,0.3-0.6,0.5c-0.2,0.2-0.2,0.5-0.3,0.7c0,0.3,0,0.5,0.2,0.8c0.2,0.2,0.4,0.3,0.6,0.3c0.2,0,0.3,0,0.5-0.1
				c0.2-0.2,0.5-0.5,1-1.2c0.3-0.5,0.6-0.9,0.8-1c0.2-0.2,0.4-0.3,0.6-0.4c0.2-0.1,0.4-0.1,0.7-0.1c0.4,0,0.8,0.2,1.1,0.6
				c0.3,0.4,0.4,0.8,0.4,1.3c0,0.2,0,0.3-0.1,0.5c0,0.1-0.1,0.3-0.2,0.5c-0.1,0.3-0.2,0.4-0.2,0.5c0,0.1,0,0.1,0,0.2
				c0,0,0.1,0.1,0.3,0.1l0,0.2l-2-0.2l0-0.2c0.4,0,0.7-0.1,1-0.2c0.2-0.1,0.4-0.3,0.6-0.5c0.2-0.2,0.3-0.5,0.3-0.8
				c0-0.4,0-0.6-0.2-0.9c-0.2-0.2-0.4-0.3-0.6-0.4c-0.1,0-0.3,0-0.4,0.1c-0.2,0.1-0.3,0.2-0.4,0.3c-0.1,0.1-0.3,0.4-0.6,0.9
				c-0.3,0.5-0.6,0.8-0.8,1c-0.2,0.2-0.4,0.3-0.6,0.4c-0.2,0.1-0.4,0.1-0.7,0.1c-0.4,0-0.8-0.2-1-0.6c-0.3-0.3-0.4-0.8-0.3-1.2
				c0-0.3,0.1-0.6,0.3-1c0.1-0.2,0.1-0.3,0.1-0.3c0-0.1,0-0.1,0-0.2c0-0.1-0.1-0.1-0.3-0.1L26.4,26.1z"/>
			<path fill-rule="evenodd" clip-rule="evenodd" fill="#FFFFFF" d="M31.8,21.6L31,23.7l0.7,0.7c0.2,0.2,0.3,0.3,0.4,0.3
				c0.1,0,0.2,0,0.3,0c0.1-0.1,0.2-0.2,0.3-0.5l0.1,0.1L32.1,26L32,25.9c0.1-0.2,0.1-0.4,0-0.5c-0.1-0.2-0.3-0.4-0.6-0.8L27.8,21
				l0.1-0.1l5.2-0.1c0.4,0,0.7,0,0.9-0.1c0.2-0.1,0.3-0.2,0.4-0.4l0.1,0.1l-0.9,2.1l-0.1-0.1c0.1-0.2,0.1-0.4,0.1-0.5
				c0-0.1-0.1-0.2-0.2-0.2c-0.1,0-0.3-0.1-0.6-0.1L31.8,21.6z M31.5,21.6l-2.5,0l1.8,1.8L31.5,21.6z"/>
			<path fill-rule="evenodd" clip-rule="evenodd" fill="#FFFFFF" d="M30,16.6l1-1.2l5.6,0.3l-2.5-2.2c-0.3-0.2-0.5-0.4-0.6-0.4
				c-0.2,0-0.3,0.1-0.5,0.3L33,13.5l-0.1-0.1l1.3-1.5l0.1,0.1l-0.1,0.2c-0.2,0.2-0.2,0.4-0.2,0.5c0,0.1,0.2,0.3,0.4,0.5l3.6,3.3
				l-0.1,0.1l-6-0.3l2.6,2.4c0.3,0.2,0.5,0.4,0.6,0.4c0.2,0,0.3-0.1,0.5-0.3l0.1-0.2l0.1,0.1l-1.3,1.5l-0.1-0.1l0.1-0.1
				c0.2-0.2,0.2-0.4,0.2-0.5c0-0.1-0.2-0.3-0.4-0.5l-3-2.7c-0.3,0-0.4,0-0.5,0c-0.1,0-0.2,0.1-0.4,0.2c-0.1,0-0.2,0.1-0.3,0.3
				L30,16.6z"/>
			<path fill-rule="evenodd" clip-rule="evenodd" fill="#FFFFFF" d="M39.7,8.3l0.8,1.1l-0.1,0.1c-0.2-0.2-0.3-0.3-0.4-0.4
				C39.7,9,39.6,9,39.4,9c-0.2,0-0.3,0.1-0.6,0.2l-0.7,0.4l2.3,3.8c0.2,0.3,0.3,0.5,0.4,0.5c0.2,0,0.3,0,0.5-0.1l0.2-0.1l0.1,0.1
				l-2.1,1.3L39.5,15l0.2-0.1c0.2-0.1,0.3-0.3,0.3-0.5c0-0.1-0.1-0.3-0.2-0.6L37.5,10l-0.6,0.4c-0.2,0.1-0.4,0.3-0.5,0.3
				c-0.1,0.1-0.2,0.3-0.2,0.5c0,0.2,0,0.4,0.2,0.6l-0.1,0.1l-0.6-1.2L39.7,8.3z"/>
			<path fill-rule="evenodd" clip-rule="evenodd" fill="#FFFFFF" d="M44.2,6.7c0.7-0.2,1.4-0.1,2.1,0.4c0.7,0.4,1.1,1,1.3,1.9
				c0.2,0.9,0.1,1.6-0.3,2.3c-0.4,0.7-1,1.1-1.7,1.3c-0.8,0.2-1.5,0.1-2.2-0.3c-0.7-0.4-1.1-1.1-1.3-1.9c-0.2-0.9-0.1-1.7,0.4-2.4
				C42.9,7.3,43.5,6.9,44.2,6.7 M44.2,7c-0.5,0.1-0.9,0.4-1.1,0.9c-0.3,0.6-0.3,1.3-0.1,2.2c0.2,0.9,0.6,1.6,1.1,2
				c0.4,0.3,0.8,0.4,1.3,0.3c0.5-0.1,0.9-0.4,1.1-0.9c0.2-0.5,0.3-1.2,0-2.1c-0.2-1-0.6-1.6-1.1-2C45.2,7,44.8,6.9,44.2,7"/>
			<path fill-rule="evenodd" clip-rule="evenodd" fill="#FFFFFF" d="M55.8,6.9l-0.1,1.3l-0.2,0c0-0.2,0-0.4,0-0.5
				c-0.1-0.2-0.2-0.3-0.3-0.4C55,7.1,54.8,7.1,54.6,7l-0.8-0.1l-0.7,4.4c-0.1,0.4-0.1,0.6,0,0.7c0.1,0.1,0.2,0.2,0.5,0.3l0.2,0
				l0,0.2L51.3,12l0-0.2l0.2,0c0.2,0,0.4,0,0.5-0.1c0.1-0.1,0.1-0.3,0.2-0.6L53,6.8l-0.7-0.1c-0.3,0-0.5-0.1-0.6,0
				c-0.2,0-0.3,0.1-0.4,0.2C51.2,7,51.1,7.2,51,7.5l-0.2,0l0.3-1.3L55.8,6.9z"/>
			<path fill-rule="evenodd" clip-rule="evenodd" fill="#FFFFFF" d="M60.6,8.7c0.7,0.4,1.1,0.9,1.3,1.7c0.2,0.8,0.1,1.5-0.3,2.3
				c-0.4,0.8-1,1.3-1.8,1.5c-0.8,0.3-1.5,0.2-2.2-0.2c-0.7-0.4-1.2-0.9-1.4-1.7c-0.2-0.8-0.1-1.5,0.3-2.3c0.4-0.8,1.1-1.3,1.9-1.5
				C59.2,8.3,59.9,8.4,60.6,8.7 M60.3,9c-0.5-0.2-0.9-0.3-1.4-0.1c-0.6,0.2-1.1,0.8-1.5,1.6C57,11.3,56.9,12,57,12.7
				c0.1,0.5,0.4,0.8,0.8,1.1c0.5,0.3,1,0.3,1.5,0.1c0.5-0.2,1-0.7,1.4-1.5c0.5-0.9,0.6-1.6,0.5-2.2C61.1,9.6,60.8,9.2,60.3,9"/>
			<path fill-rule="evenodd" clip-rule="evenodd" fill="#FFFFFF" d="M62.9,17.9l2.3-4.8l-3,2.5c-0.3,0.2-0.4,0.4-0.4,0.5
				c0,0.2,0,0.3,0.2,0.5l0.1,0.2L62,16.8l-1.3-1.5l0.1-0.1l0.1,0.2c0.2,0.2,0.3,0.3,0.5,0.3c0.1,0,0.3-0.1,0.5-0.3l2.9-2.4
				c0.2-0.2,0.3-0.3,0.4-0.4c0-0.1,0-0.2,0-0.3c0-0.1-0.1-0.3-0.3-0.4l0.1-0.1l1.1,1.3L64,17.3l4.8-1.3l1.1,1.3l-0.1,0.1l-0.1-0.2
				c-0.2-0.2-0.3-0.3-0.5-0.3c-0.1,0-0.3,0.1-0.5,0.3l-2.9,2.4c-0.3,0.2-0.4,0.4-0.4,0.5c0,0.2,0,0.3,0.2,0.5l0.1,0.2L65.4,21
				l-1.6-1.9L64,19l0.1,0.2c0.2,0.2,0.3,0.3,0.5,0.3c0.1,0,0.3-0.1,0.5-0.3l3-2.5L63,18L62.9,17.9z"/>
			<path fill-rule="evenodd" clip-rule="evenodd" fill="#FFFFFF" d="M68.5,24.3l-0.7-2.1l-1-0.1c-0.2,0-0.4,0-0.5,0
				c-0.1,0-0.1,0.1-0.2,0.2c0,0.1,0,0.3,0,0.6l-0.1,0l-0.6-1.7l0.1,0c0.1,0.2,0.2,0.3,0.3,0.4c0.2,0.1,0.5,0.2,0.9,0.2l5.1,0.5
				l0,0.1l-3.9,3.4c-0.3,0.3-0.5,0.5-0.6,0.6c-0.1,0.2-0.1,0.4,0,0.6l-0.2,0l-0.7-2.2l0.2,0c0.1,0.2,0.2,0.4,0.3,0.4
				c0.1,0.1,0.2,0.1,0.3,0c0.1,0,0.3-0.2,0.5-0.3L68.5,24.3z M68.8,24l1.9-1.7l-2.5-0.2L68.8,24z M74,23.6l-1.8-0.7l0-0.1l1.5,0
				L74,23.6z"/>
			<path fill-rule="evenodd" clip-rule="evenodd" fill="#FFFFFF" d="M73.2,30.6l-2,0l0-0.2c0.4-0.1,0.7-0.2,0.9-0.3
				c0.2-0.1,0.4-0.3,0.5-0.6c0.1-0.2,0.2-0.5,0.2-0.8c0-0.3-0.1-0.5-0.3-0.7c-0.2-0.2-0.4-0.3-0.6-0.3c-0.2,0-0.3,0.1-0.5,0.2
				c-0.2,0.2-0.5,0.6-0.8,1.3c-0.3,0.5-0.5,0.9-0.6,1.1c-0.2,0.2-0.3,0.4-0.5,0.5c-0.2,0.1-0.4,0.2-0.7,0.2c-0.4,0-0.8-0.2-1.1-0.5
				c-0.3-0.3-0.5-0.8-0.5-1.3c0-0.2,0-0.3,0-0.5c0-0.1,0.1-0.3,0.1-0.6c0.1-0.3,0.1-0.5,0.1-0.5c0-0.1,0-0.1-0.1-0.2
				c0,0-0.1-0.1-0.3-0.1l0-0.2l2,0l0,0.2c-0.4,0.1-0.7,0.2-0.9,0.3c-0.2,0.1-0.4,0.3-0.5,0.6c-0.1,0.3-0.2,0.5-0.2,0.9
				c0,0.4,0.1,0.6,0.3,0.8c0.2,0.2,0.4,0.3,0.7,0.3c0.1,0,0.3,0,0.4-0.1c0.1-0.1,0.3-0.2,0.4-0.4c0.1-0.1,0.3-0.4,0.5-0.9
				c0.3-0.5,0.5-0.9,0.6-1.1c0.2-0.2,0.3-0.4,0.5-0.5c0.2-0.1,0.4-0.2,0.7-0.2c0.4,0,0.8,0.1,1.1,0.5c0.3,0.3,0.5,0.7,0.5,1.2
				c0,0.3-0.1,0.6-0.2,1c-0.1,0.2-0.1,0.3-0.1,0.3c0,0.1,0,0.1,0.1,0.2c0,0,0.1,0.1,0.3,0.1L73.2,30.6z"/>
		</g>
	</g>
</g>
</svg>
