<?xml version="1.0" encoding="utf-8"?>
<!-- Generator: Adobe Illustrator 18.1.1, SVG Export Plug-In . SVG Version: 6.00 Build 0)  -->
<!DOCTYPE svg PUBLIC "-//W3C//DTD SVG 1.1//EN" "http://www.w3.org/Graphics/SVG/1.1/DTD/svg11.dtd">
<svg version="1.1" id="Capa_1" xmlns="http://www.w3.org/2000/svg" xmlns:xlink="http://www.w3.org/1999/xlink" x="0px" y="0px"
	 width="228.6px" height="57px" viewBox="127.9 -101.4 228.6 57" enable-background="new 127.9 -101.4 228.6 57"
	 xml:space="preserve">
<g>
	<g>
		<g>
			<path fill-rule="evenodd" clip-rule="evenodd" fill="#FFFFFF" d="M336.7-53.6l0.1-0.6l-0.1,0l-0.8,2.5l-0.1,0
				c-0.7-0.1,0.3-3.6,0.3-4.1c0.4,0,0.7,1,0.7,1.5l0-0.1l0.4,0.1l0.1,0l0.4-1.2l0.1-0.1l0.2,0.5l0,0.1l0.3-0.3
				c0-0.1,0.5-1.1,0.6-1.1c0.5-0.6,0.2-0.5,1-0.7c0.6-0.1,2.2-0.8,2.6-0.8l0.1,0.1l-1,1.4l-0.1,0c-0.4,0-1-0.3-1.4,0
				c-0.4,0.3-1.1,0.3-1.1,0.6v0.3c0,0.3,0.4,0.4,0.5,0.6c-0.1,0.2-0.5,0.5-0.7,0.6c-0.3,0.2-0.7,0.2-0.7,0.6v0.3
				c0,0.8,0.5,0.5,0.8,0.7c0.3,0.6-2.1,1.2-1.7,2.4c0.7,0.2,2.7-2.6,3.5-2.6c0,0.5-1,1.3-0.8,2.5c0.1,0.8,1.8,1,2.4,1h0.4l0,0.1
				l2.3-0.4l0,0c0.1-0.2-0.1-1.4-0.2-1.6c-0.1-0.3-0.1-1.3-0.5-1.3c0,2.1-1,2.5-3,2.3c-1.1-0.1-0.6-1-0.2-1.5
				c0.6-0.9,0.8-0.8,0.3-1.6c0.3-0.3,0.6-0.1,0.5-0.8c-0.1-0.4-0.5-0.6-0.8-0.6c-0.8,0-0.5,0.3-0.8,0.6c-0.2,0.1-0.9,0.4-1,0.3
				c0-0.2,1.5-1,1.8-1.1c0.8-0.3,0.1-0.5,0.6-0.8c0.3-0.1,0.6-0.4,0.9-0.5c0.2-0.1,1-0.2,1.1-0.4c0.3-0.3,0.2-0.8-0.1-1.1
				c-0.7-0.7-1.5-0.4-2.3-0.4c0-1.3-0.9-1.4-2-1.4c0,0.4,1.3,1.4,0.1,1.5v0.1l0,0l0.5,0.2l0,0c0,0.1-0.8,0.3-1,0.5
				c-0.5,0.3-0.5-0.1-1.1-0.1c0,0.3,0.1,1-0.3,1.1c-0.7-1.2,1.1-2-0.1-2.7c-0.8-0.4-0.9,0.1-1.3,0.4c-0.1,0.1-1.1,0.8-1.1,0.8l0,0.1
				l1,0.5l0-0.1l0.6,1.8l-0.1,0c-0.5,0.1-0.9-0.6-0.9-1c-0.9-0.5-0.9,0.4-0.9,1.2c0,0.7,0,1.7-0.1,2.4c-0.1,0.7-0.1,1.5,0,2.2
				c0,0.3,0.6,1.4,1,1.4l0.1,0L336.7-53.6z"/>
			<path fill-rule="evenodd" clip-rule="evenodd" fill="#FFFFFF" d="M211.9-51.4c0.2-0.1,0.2,0.2,0.2,0.3h-0.3v-0.2L211.9-51.4
				L211.9-51.4z M209.3-55.8c0.7-0.2-0.4,0.8-0.6,1c-0.3,0.3-0.8,0.9-1.3,0.8c-0.7,0-0.2-0.9,0.3-1.3
				C208.3-55.6,208.7-55.6,209.3-55.8L209.3-55.8z M211-58c0.1,0.2-0.2,0.5-0.3,0.7c-0.2,0.4-0.4,0.3-0.8,0.3c-0.7,0-1.2,0-1.9,0.4
				c-1.1,0.6-1.7,1.6-1.7,2.8c0,1.6,2.2,0.8,3,0.3c0.8-0.4,1.7-1.7,2.1-2.4L213-56h0.3c0.6,0-0.1,0.5-0.3,0.6
				c-0.2,0.1-0.5,0.6-0.8,0.6c-0.2-0.1-0.3-0.5-0.8-0.3c-0.4,0.2-0.3,0.5-0.3,0.9l0,0.1l-2.1,1.1c-0.3,1,0.5,1.2,1.3,1.2
				c0,0.8-1.2,0.6-1.3,1.1c-0.2,0.7,0.4,1.4,1.1,1.4c0.3,0,1.1-0.6,1.8-0.7c0.4,0,0.8-0.1,1.2-0.1c0.3,0,0.7,0.2,1,0.1
				c0-2-1.9-0.9-1.9-2l-0.1-0.1l1.2-1l0,0.1c0.2-0.9-0.4-0.9-0.9-1.1c0.3-0.5,2.5-1.4,2.5-1.7c0.2-1.2-2.1-1.4-2.8-1.4
				c0.2-0.8,0.8-0.9,0.6-2.3c-0.1-0.6-0.9-1.4-1.7-0.9c-0.2,0.1-0.7,0.4-0.9,0.6c-0.2,0.2-0.9,0.3-1,0.5c0,0.1,0.4,0.8,0.6,0.9
				C210.3-57.9,210.7-58.2,211-58z"/>
			<path fill-rule="evenodd" clip-rule="evenodd" fill="#FFFFFF" d="M221.6-52.1c0.2-0.1,0.3-0.2,0.5-0.4c0.1-0.1,0.3-0.4,0.4-0.5
				l0,1.3l-0.3,0l-0.1,0l-0.2,0l-0.5-0.3L221.6-52.1L221.6-52.1z M224.8-56.1c0.7-0.4,1.8,1,0.3,1.3c-0.5,0.1-0.7,0.2-0.9-0.5
				C224-55.8,224.4-55.9,224.8-56.1L224.8-56.1z M222.6-55.2v1.1c-0.2,0.1-0.7,0.5-1,0.7c-0.2,0.1-0.3,0.2-0.5,0.3
				c-0.3,0.2-0.4,0.1-0.7,0.1c0,1.9,0.6,0.9,1.3,1.5c0.6,0.5,1,1,1.4,1.5c0.5,0,0.5-0.9,0.5-1.3v-0.6c0-0.5-0.1-1.2-0.2-1.7
				c0-0.3,0.3-1.2,0.5-1.4c0.4,0.6,0.2,1.5,1.6,1.5c-0.1,0.8-0.2,1.8,0.6,2.3c0.6,0.4,2,0.5,2.7,0.3c0.6-0.1,2.3-0.1,1.8-1.2
				c-0.2-0.3-0.8-2.1-1.1-2.1c-0.5,0.7,1.2,2-1.4,2.3c-1.8,0.2-2-0.2-1.6-1.8c0.5-1.6,1.9-1.2,2.1-1.8c0.4-1.2-2-0.6-2.8-1
				c0-0.3,0.8-0.6,1.1-0.8c0.6-0.3,1.2-0.3,1.4-0.4c1-0.6-0.8-1.8-1.7-1.3l0,0l0.2,0.3c-0.2,0.4-1.3,1.4-1.7,1.8
				c-0.3,0.3-0.7,0.5-0.9,0.8c-0.4,0.4-0.3,0.9-0.7,1c0-1.5,0-0.8,0.8-1.7c0.2-0.3,0.2-0.7-0.1-0.9c-0.5-0.2,0-0.5,0.1-0.8
				c0.1-0.6-0.7-1.3-1.2-1.3c-0.4,0.1-0.4,0.5-0.2,0.8c0.2,0.3,0.1,0.8,0.1,1.2c0,0.5,0,0.6-0.4,0.8c-0.4,0.2-0.4,0.4-0.7,0.6
				c-0.1,0-0.8,0.4-0.8,0.4c-0.3,0.1-0.8-0.3-0.9,0.1c-0.1,0.5,0.8,1.2,1.2,1.3C222-54.1,221.9-54.9,222.6-55.2z"/>
			<path fill-rule="evenodd" clip-rule="evenodd" fill="#FFFFFF" d="M296.5-54.1c0,0.6,0,2-0.1,2.5c-0.1,0.5-0.3,0.6-0.7,0.4
				c-0.3-0.1-0.6-0.2-0.9-0.4c-1-0.7-0.3-0.6,0.3-1.3C295.3-53.1,296.4-54.1,296.5-54.1L296.5-54.1z M295.2-58.7l-0.9-0.5l0,0.1
				l0.1,0.6l0,0c-0.8,0.7-1.4,0.8-0.8,2c0.4,0,1.6-0.8,2-1.1c0.3-0.2,1.4-1.7,1.4-1.7c0.7,0.1-1,2.2-1.1,2.4c-0.4,0-0.6,0-1,0.2
				c-0.2,0.1-0.4,0.7-0.2,0.9l0,0l1.5,0.3l0,0.1l0.1,0.3c0,0-1.5,0.9-1.6,0.9c-0.3,0.1-0.5,0.3-0.9,0.4c-0.5,0.2-0.8,0-0.8,0.4v0.3
				c0,0.2,0.1,0.8,0.2,1c0.3,0.5,0.6,0.1,0.8,0.1c0,0,0.6,1,0.8,1.3c0.1,0.2,1,1,1.1,1c0.6,0.1,0.8-0.7,1.1-1
				c0.3-0.4,0.3-1.4,0.3-1.9c0-2.1-0.5-1.9,1.1-3.2c0.6-0.5,1.3-2.7,1.5-2.8c0.2,2.4-2.5,8.4,2.7,7.1c0.5-0.1,1.9-0.4,1.3-1.2
				c-0.5-0.7-1.5-0.1-2.1,0c-1.1,0.1-1.5-0.2-1.5-1.3c0-0.7,0.1-1.9,0.2-2.6c0.1-0.9,0.6-1.4,0.4-2.3c-0.2-1.1-1.6-1.1-1.5-0.5
				c0.2,1,0.2,1.2-0.3,2.2c-0.5,0.9-0.8,0.8-1.5,1.4c-0.3,0.3-0.5,0.3-0.7-0.1c-0.1-0.3-0.4-0.8-0.2-1c0.2-0.2,1.3-1.3,1.3-1.5
				c0.1-0.7-0.9-1.5-1.4-1.3C296.6-59.7,295.5-58.7,295.2-58.7z"/>
			<path fill-rule="evenodd" clip-rule="evenodd" fill="#FFFFFF" d="M326.7-51.9c-0.2,0.2-0.5,0.1,0,0.3c0.2,0.1,0.1,0.2,0.1,0.6
				c0,0.3-0.2,0.8-0.4,1c-0.5,0.4-1.9-0.1-2.3-0.4c-0.9-0.6-0.1-1.4,0.9-1.4c0.3,0,0.9-0.2,1.2-0.3c0.2-0.1,0.3-0.2,0.5-0.3
				C326.9-52.4,326.9-52,326.7-51.9L326.7-51.9z M323.9-55.9l-1.2,0.7l-0.2,0l0-0.4l0.6-0.5l0,0l0.3-0.1l0.3,0
				C323.8-56.2,323.9-56.1,323.9-55.9L323.9-55.9z M326.2-57.7c0-0.2,0.1-0.7,0-1c-0.1-0.3-0.2-0.5-0.1-0.9c0.1-0.5,0.6-1.2,1.2-0.9
				C328.2-60.2,326.4-57.7,326.2-57.7L326.2-57.7z M324.9-60c0,0.7,0,0.9,0.3,1.5c0.1,0.3,0.1,0.3,0.4,0.6c0,0,0.5,0.4,0.5,0.4l0,0
				l-1.3,0.7l-0.1,0l-0.5-2.3l0.1-0.1l-0.6,0.4l-0.3-0.2l0,0c-0.2,0.1-0.2,0.4-0.2,0.6v0.5c0,0.5,0.4,0.9,0.4,1.3
				c-1.5,0-1.4,0.7-1.8,1.7c-0.2,0.5-0.7,0.4-0.4,1.3c0.1,0.2,0.4,1.1,0.6,1.2c0.8,0.1,0-2.7,2.3-3.3c0.7-0.2,1.5-0.3,2.2-0.7
				c0.5-0.2,1.7-0.8,2.2-0.6c0.1,0.6-1.9,1.4-2.3,1.5c-0.3,0.1-1.5,0.3-1.6,0.3c-0.3,0.1-0.6,1.2,0.1,1.2h0.2c0.3,0,1.3-1.1,1.5-0.6
				c0.1,0.2-0.4,0.4-0.6,0.6c-0.2,0.3-0.2,0.6-0.2,0.9c-0.3,0.2-3.1,0.7-2.2,2.1c0.5,0.8,1.6,1.9,2.6,2c1.7,0.2,1.4-2.1,1.7-2.8
				c0.1-0.2,1.5-0.3,0.9-1.2c-0.6-0.8-1.4-0.5-1.6-0.7c-0.1-0.2,0.4-0.6,0.5-0.7c0.6-0.7,0.1-0.5,0.4-1l2-0.6l0,0.1
				c0.3-0.5,0.1-1-0.4-1.3c-0.6-0.4-0.6-0.5-1.4-0.5l-0.4,0l-0.5,0.1c0.1-0.9,2.2-2,0.8-3.2c-0.7-0.6-1.1-0.3-1.7,0.1
				c-0.4,0.2-0.3,0.5-0.6,0.7C325.6-59.6,325.4-60,324.9-60z"/>
			<path fill-rule="evenodd" clip-rule="evenodd" fill="#FFFFFF" d="M313.1-54.4c0.8-0.1,0.8,0.4,0.8,1.1c0,0.6,0,1.1-0.2,1.8
				c-0.1,0.6-0.3,1-1,0.9c-0.5-0.1-1-0.2-1.5-0.5c-0.5-0.2-0.8-0.3-1.2-0.8c-0.5-0.7,0.2-0.8,0.6-1.1
				C311.6-53.6,311.8-54.3,313.1-54.4L313.1-54.4z M310.6-59.5c0,0.4,0.3,0.6,0.1,1c-0.1,0.2-0.5,0.3-0.7,0.5
				c-0.4,0.4-0.4,1.7,0.1,1.8c1.3-0.4,2.7-3.2,4.2-3.2c0,0.4-0.8,1.3-1.1,1.6c-0.8,0.8-1.5,0.2-1.5,1.3v0.3c0,0.3,0,0.6,0.3,0.6
				l0.3,0l0.8-0.1l0,0l0,0c0,0.1-0.8,0.4-0.9,0.4c-0.3,0.1-0.6,0.3-0.9,0.4c-0.6,0.2-1.3,0.5-1.8,0.8c-0.3,0.2-0.6,0.4-0.5,0.8
				c0,0.2,0.1,1,0.2,1.2c0.3,0.6,0.8,1,1.3,1.4c0.8,0.6,2.5,2.2,3.4,1.1c0.9-1.1,0.9-3.1,0.9-4.5c0.4,0.2,1.8,0.3,1.5-0.6
				c-0.1-0.5-0.9-1-1.3-1.1c-0.8-0.1-0.3-0.1-0.7-0.5c-0.2-0.2-0.7-0.3-0.7-0.5c0-0.1,1-0.9,1.2-1.1c1.5-1.4-0.2-2.5-1.1-2.3
				c-0.4,0.1-1.1,0.7-1.5,0.9c-0.4,0.2-0.5,0.5-0.7,0.1C311.2-59.6,311.1-59.5,310.6-59.5z"/>
			<g>
				<path fill-rule="evenodd" clip-rule="evenodd" fill="#FFFFFF" d="M237.9-59.3c0,0.4,0.9,0.9,1.2,1.1c0.8,0.4,1.3-0.4,1.6-0.4
					l-0.5,3.3l0.1,0l-1,0.2c0.1-0.6,0.3-1.1,0.2-1.8c-0.1-0.4-0.5-1.1-1-1.1c-0.2,0.5,0.1,1.4-0.1,2.3c-0.2,0.7-0.8,1.4-0.6,1.9
					c0.4,0.9,1.2,0.3,1.6-0.1c0.5-0.4,1.2-0.7,1.8-0.7c0.6,0,1.8,0,1.8,0.8c0,0.4-0.4,1.6-0.6,2c-0.5,0.9-0.4,1.1-1.6,0.8
					c-0.6-0.1-1.5-0.5-2-0.6c0,0.2,1.1,0.8,1.3,1c0.2,0.2,0.9,1,1,1.3c1.5,0.1,2.6-2,3-3.2c0.3-0.9,0.6-1.5-0.1-2.3
					c-0.6-0.6-1.8-0.6-2.5-0.6c0-0.6,0.6-1.7,0.7-2.2c0.1-1,1-1.1,0-2c-0.7-0.6-1.3-0.7-2-0.2C239.4-59.4,238.9-59.3,237.9-59.3z"/>
				<path fill-rule="evenodd" clip-rule="evenodd" fill="#FFFFFF" d="M240.4-53.4c-1.2,0.4-2.4,0.6-3.6,1c-0.2,0.1-0.7,0.3-0.9,0.2
					c-0.3-0.1-0.6-0.3-0.4,0.4c0.1,0.6,0.4,1.2,1.2,1c0.5-0.2,0.9-0.6,1.4-0.8c0.5-0.2,1.3-0.4,1.8-0.5c0.5-0.1,1.9,0.2,1.9-0.4
					C241.8-53.1,240.9-53.5,240.4-53.4z"/>
			</g>
			<g>
				<path fill-rule="evenodd" clip-rule="evenodd" fill="#FFFFFF" d="M270.5-57.1c0.1,0,0.4,0.1,0.4,0.3l-0.5,0.2L270.5-57.1
					L270.5-57.1z M269.6-58.9c0,0.1,0,0.1,0,0.2l0,0.1l-0.2,0l0-0.2V-59L269.6-58.9L269.6-58.9z M266.4-54.5c0,0.3,0.4,0.9,0.6,1
					c0.4,0.2,0.8,0.5,1.1,0.5c0,0.4-0.3,1.1-0.6,1.5c-0.2,0.2-1.1,0.9-1.3,0.8l0-0.5c-0.3,0-0.7,0.5-0.7,0.8c0.4,0.6,2.5,0.1,3-0.4
					c0.7-0.6,0.6-2.1,1.1-2.8c0.3-0.5,1.5-1.6,2-1.9c0.5-0.3,0.8-0.4,1.4-0.6c0.6-0.2-0.1-1-0.5-1.1c-0.5-0.1-1.4,0.2-1.8-0.1
					c-0.4-0.3,0.2-1,0-1.6c-0.2-0.9-2.7-1.4-1.7,0c0.4,0.5,0.5,0.8,0.3,1.4c-0.1,0.5-0.2,1.2-0.4,1.6
					C268.8-55.2,267-54.5,266.4-54.5z"/>
				<path fill-rule="evenodd" clip-rule="evenodd" fill="#FFFFFF" d="M269.6-52.5c0.2,0.2,0.9,0.1,1.4,0.5c0.4,0.3,0.7,0.6,1,0.8
					c0.5,0.4,1.7,1.4,2.3,1.4c1.2-1.8-1.9-2.8-3.2-2.8l-0.4,0L269.6-52.5z"/>
			</g>
			<g>
				<path fill-rule="evenodd" clip-rule="evenodd" fill="#FFFFFF" d="M253.9-55.4L253.9-55.4l-0.1,0.6l-0.6,0.1L253.9-55.4
					L253.9-55.4z M253.2-56.2c0,0.1,0,0.1,0,0.2c0,0.1-0.1,0.4-0.1,0.5c-0.2,0-0.2-0.4-0.2-0.5l0.2-0.1L253.2-56.2L253.2-56.2z
					 M253.1-57.5c0.3-0.3,0.6-0.6,1-0.7l0,1.4l0,0l-0.9-0.2l0,0L253.1-57.5L253.1-57.5z M254.2-53.4l0.1-0.2l0.1-0.3l0.1-0.1l0-0.2
					l0.5-0.1l0,0l0-0.1l0,0l0.3-0.1l0.3,0l0,1.5l0.6,1l0.1,0c0.4-0.1,0.3-1.5,0.4-2c0-0.4,0.1-0.5,0.4-0.7c0.2-0.1,0.6-0.4,0.9-0.4
					c0.3,0.8,0.1,5.8,0.6,6c0.3-0.1,0.5-1.9,0.5-2.3l0-0.4l-0.1-1.3l0-2l0-0.6l1.6-0.4l0.1,0l0-0.6l-0.1,0l-1-0.3
					c-0.2,0.1-0.1,0.3-0.5,0.3H259c-0.3,0-0.1-0.2-0.7-0.2l-0.1,0l-0.2,0.7l-1.2,0.7c0-0.9,0.1-0.6,0.3-1.2c0.2-0.8-0.4-0.7-0.5-0.9
					c0.1-0.1,2.1-1.1,2.5-1.5c0.8-0.8-2.1-1.4-2.1-0.2l0.7-0.4l0,0.1c0,0.2-0.7,0.8-1,0.9c-0.2,0.1-0.3,0.3-0.5,0.4
					c-0.4,0.3-0.4,0.2-0.6,0.3c-0.6,0.6,0.3,0.9,0.4,1l0.1,0l-0.2,1.9l-1.1-0.1l0,0.1c0-0.5,0-1.5,0.1-2c0-0.3,0.1-0.6,0.1-0.9
					c0-0.5,0.2-0.4,0.3-0.8c-0.1-0.3-0.1-0.1-0.2-0.7c0-0.2-0.1-0.4-0.3-0.6c-0.3-0.2-1.1-0.6-1.1,0l0.4,0.1l0,0.8l-1,0.4l0,0
					l-1.3-0.9l0.3,1.3l0,0c-0.1,0.1-1,0.3-0.7,1l0.8-0.1l0.1,0.1l0,1.6l-0.2-0.3l-0.1,0l0.3,1.6l0,0c-0.7,0.9-2.7,1.5-2.9,1.8l0,0
					L250-52l0-0.1c0.2-0.1,0.2-0.3,0.4-0.4c0.1-0.1,0.4-0.2,0.5-0.3c0.3-0.2,0.7-0.4,1.1-0.5c0.4-0.2,0.7-0.3,1.1-0.5
					C253.7-54,253.5-53.4,254.2-53.4z"/>
				<path fill-rule="evenodd" clip-rule="evenodd" fill="#FFFFFF" d="M254.2-52.8l0.7,1l0.1-0.1c0.4-0.2,0.3-0.8,0-1.1
					c-0.6-0.6-0.3-0.2-0.9-0.1c-1.1,0.2-1.6,1-2.5,0.3c-1-0.6,0.3,2.6,0.8,1.3C252.6-52.1,253.4-52.8,254.2-52.8z"/>
			</g>
			<g>
				<path fill-rule="evenodd" clip-rule="evenodd" fill="#FFFFFF" d="M284.6-51.6h0.4c0,0.6-0.1,1.7-0.9,1.8c-0.5,0-1.8-0.4-2-0.7
					c-0.2-0.3,0-0.8,0.3-1c0.5-0.3,0.7-0.1,1.2-0.2c0.3-0.1,0.7-0.2,1-0.4C285.3-52.5,284.6-51.8,284.6-51.6L284.6-51.6z
					 M281.6-55.8L281.6-55.8l-0.2,0.1l-0.6,0.4l0,0l-0.2,0l0-0.4c0.1-0.1,0.2-0.4,0.4-0.5c0.3-0.1,0.4-0.2,0.8-0.2L282-56l0,0
					L281.6-55.8L281.6-55.8z M285.3-59l-0.8,1.1l-0.2,0.2l0,0l0.1-0.6l0-0.1l0-0.2l0,0l-0.2-0.9l0,0l0-0.2l0.1-0.1l0.1-0.5l-0.1,0
					l-0.5,0.6l-0.7-0.3l0,0.1c-0.1,0.3,0.1,1.3,0.2,1.6c0.2,0.4,0.9,0.9,0.9,0.9l-1.2,0.7l-0.1,0l-0.4-2.3l0-0.1l-0.8,0.5l0-0.1
					c0-0.5-0.4,0-0.4,0.4v0.4c0,0.7,0.2,0.9,0.4,1.3c-0.8,0-1.1,0.1-1.5,0.8c-0.1,0.2-0.8,1.5-0.8,1.5c-0.1,0.4,0.1,1.5,0.5,1.8
					c0.5,0.3,0.5-1.1,0.7-1.5c0.6-1.6,1.3-1.4,2.7-1.9c0.6-0.2,2.9-1.4,3.4-1C287-56,284-55,283.4-55c-1.3,0.2-1,1.2-0.7,1.3
					c0.5,0.2,1.3-1,1.8-0.6c0,0.1-0.4,0.4-0.6,0.6c-0.3,0.5-0.1,0.8-0.2,0.9c-0.3,0.3-1.6,0.2-2.2,1.2c-0.4,0.7,0.7,1.7,1.2,2.1
					c0.6,0.5,1.6,1.2,2.3,0.4c0.7-0.7,0.7-2.4,0.9-2.6c0.3-0.2,0.5,0.1,0.8-0.3c0.2-0.3,0.2-0.6-0.1-0.8c-0.6-0.7-1.4-0.4-1.6-0.7
					c0-0.7,1-0.4,1-1.7c0.8,0,0.7-0.3,1.4-0.4c0.7-0.1,1,0,0.6-1c-0.4-1-2-0.8-2.8-0.8c0.2-0.6,0.7-1,1-1.4c0.6-0.8,0.2-1-0.1-1.7
					l-0.3-0.1c-0.1-0.2-0.5-0.2-0.7-0.2c0.1,0.2,0.4,0.1,0.4,0.6v0.2C285.7-59.6,285.5-59.2,285.3-59z"/>
				<path fill-rule="evenodd" clip-rule="evenodd" fill="#FFFFFF" d="M283.8-59.7l0.5-0.6l0.1,0l-0.1,0.5l-0.1,0.1l0,0.2l0,0
					l0.2,0.9l0,0l0,0.2l0,0.1l-0.1,0.6l0,0l0.2-0.2l-0.1,0l-0.1-1.6c0-0.2,0-0.3,0.1-0.5l0-0.2c0.2-0.3,0.9-0.7,1.2-0.2
					c0.3,0.5-0.3,1-0.3,1.4c0.2-0.2,0.4-0.6,0.4-0.9v-0.2c0-0.5-0.3-0.4-0.4-0.6c0.2,0,0.6,0,0.7,0.2l0.3,0.1
					c-0.1-0.3-0.6-0.4-0.9-0.4l-0.3,0l-0.3,0.1C284.6-60.5,284-60.2,283.8-59.7z"/>
			</g>
		</g>
		<g>
			<path fill-rule="evenodd" clip-rule="evenodd" fill="#FFFFFF" d="M300.4-95.1v-0.8h10.5v0.8h-1.1c-1.2,0-2.1,0.5-2.7,1.5
				c-0.3,0.5-0.5,1.5-0.5,3.2v12c0,3-0.3,5.3-0.9,6.9c-0.6,1.6-1.7,3-3.5,4.2c-1.7,1.2-4.1,1.8-7.1,1.8c-3.2,0-5.7-0.6-7.4-1.7
				c-1.7-1.1-2.9-2.6-3.6-4.5c-0.5-1.3-0.7-3.7-0.7-7.3v-11.6c0-1.8-0.3-3-0.8-3.6c-0.5-0.6-1.3-0.9-2.4-0.9h-1.1v-0.8H292v0.8h-1.1
				c-1.2,0-2.1,0.4-2.6,1.2c-0.4,0.5-0.5,1.6-0.5,3.3v12.9c0,1.2,0.1,2.5,0.3,4c0.2,1.5,0.6,2.7,1.2,3.5c0.6,0.8,1.4,1.5,2.4,2.1
				c1.1,0.5,2.3,0.8,3.9,0.8c1.9,0,3.7-0.4,5.2-1.3c1.5-0.8,2.6-1.9,3.1-3.2c0.6-1.3,0.9-3.6,0.9-6.7v-12c0-1.9-0.2-3-0.6-3.5
				c-0.6-0.6-1.4-1-2.5-1H300.4z"/>
			<path fill-rule="evenodd" clip-rule="evenodd" fill="#FFFFFF" d="M328.2-96.3l1,9.5h-1.1c-0.2-0.7-0.7-2.5-1.5-3.8
				c-0.7-1.1-1.7-2.1-2.9-2.8c-1.3-0.7-2.5-1.1-4-1.1c-1.4,0-2.8,0.6-3.7,1.7c-0.7,0.8-0.8,1.9-0.8,2.4c0,0.9,0.2,1.9,1,2.9
				c1.1,1.3,2.6,2.2,6,4.3c1.7,1,3.8,2.3,5.2,3.6c0.7,0.7,1.2,1.1,1.8,2.2c0.6,1,0.9,2.4,0.9,3.6c0,2-0.6,3.8-2.2,5.5
				c-2,2.1-4.8,2.7-6.8,2.7c-0.9,0-1.6,0-2.5-0.2c-1.3-0.3-1.1-0.2-2.7-0.8c-1.3-0.4-1.8-0.6-2.1-0.6c-0.3,0-0.8,0.1-0.9,0.5
				c-0.1,0.1-0.3,0.4-0.4,1h-1l-1.4-9.5h1.1c0.7,1.9,1.5,3.4,2.4,4.6c0.9,1,1.6,1.8,2.8,2.4c1.1,0.5,2,1,3.9,1c1.1,0,2.6-0.3,4-1.6
				c0.4-0.4,1.3-1.5,1.3-3.5c0-0.7-0.2-1.7-0.6-2.5c-0.4-0.8-0.7-0.9-1.1-1.4c-0.8-0.7-1.7-1.3-4-2.8c-3.5-2.3-4.9-2.8-6.5-4.4
				c-0.9-0.9-1-1.2-1.5-2c-0.3-0.5-0.7-1.6-0.7-2.9c0-1.9,0.5-3.6,2-5.3c1.7-1.8,3.7-2.5,6.2-2.5c1.6,0,3.3,0.6,5.1,1.2
				c0.7,0.3,0.9,0.3,1.2,0.3c0.4,0,0.7-0.1,0.9-0.3c0.3-0.4,0.4-0.7,0.5-1.2H328.2z"/>
			<path fill-rule="evenodd" clip-rule="evenodd" fill="#FFFFFF" d="M356.2-95.9l0.3,7h-0.8c-0.2-1.2-0.4-2.1-0.7-2.6
				c-0.5-0.8-1.1-1.5-1.8-1.9c-0.7-0.4-1.7-0.6-3-0.6h-4.2v22.7c0,1.8,0.2,3,0.6,3.4c0.6,0.6,1.4,0.9,2.6,0.9h1v0.8h-12.6V-67h1.1
				c1.3,0,2.1-0.4,2.7-1.1c0.3-0.5,0.5-1.5,0.5-3.2V-94h-3.6c-1.4,0-2.4,0.1-3,0.3c-0.8,0.3-1.4,0.8-1.9,1.6c-0.5,0.8-0.9,1.9-1,3.2
				h-0.8l0.4-7H356.2z"/>
		</g>
		<path fill="#FFFFFF" d="M197.9-96.8v0.1c-0.1,0-0.3,0-0.5,0.1c-0.2,0.1-0.3,0.2-0.3,0.3c0,0.1,0,0.4,0,0.9v9.4
			c0,0.5,0,0.8,0.1,0.9c0,0.1,0.1,0.2,0.2,0.3c0.1,0.1,0.3,0.1,0.6,0.1v0.1H195v-0.1c0.4,0,0.6-0.1,0.7-0.2c0.1-0.2,0.1-0.5,0.1-1.1
			v-9.3c0-0.6,0-1-0.1-1.1c-0.1-0.2-0.3-0.3-0.7-0.2v-0.1H197.9L197.9-96.8z M208.6-96.8h2.1v0.1c-0.3,0-0.5,0.1-0.7,0.2
			c-0.1,0.1-0.2,0.4-0.2,0.9v11.1l-8.7-10.3v9c0,0.3,0,0.5,0.1,0.6c0,0.1,0.1,0.2,0.2,0.3c0.1,0.1,0.3,0.1,0.6,0.1v0.1h-2.1v-0.1
			c0.4,0,0.6-0.1,0.7-0.2c0.1-0.1,0.1-0.5,0.1-1.1v-8.2c0-0.7-0.1-1.3-0.3-1.8c-0.2-0.5-0.6-0.7-1.3-0.6v-0.1h2.1l8.2,9.7v-8.6
			c0-0.5-0.1-0.7-0.2-0.8c-0.1-0.1-0.3-0.2-0.6-0.2V-96.8L208.6-96.8z M217.6-96.6l0.5,1.5l-0.1,0c0,0-0.1-0.2-0.4-0.5
			c-0.3-0.3-0.6-0.6-0.9-0.7c-0.4-0.2-0.8-0.3-1.2-0.3c-0.7,0-1.3,0.2-1.8,0.7c-0.4,0.5-0.7,1.1-0.7,1.7c0,0.4,0.1,0.8,0.3,1.2
			c0.2,0.3,0.6,0.6,1.3,0.9c1.1,0.4,1.9,0.7,2.3,0.9c0.4,0.2,0.8,0.6,1.2,1.1c0.4,0.5,0.6,1.2,0.6,2c0,0.3,0,0.6-0.1,0.9
			c-0.1,0.3-0.2,0.6-0.3,0.9c-0.2,0.3-0.3,0.5-0.6,0.8c-0.2,0.2-0.4,0.4-0.7,0.5c-0.2,0.1-0.6,0.2-1.1,0.3c-0.5,0.1-0.8,0.1-0.9,0.1
			h-2.9v-3.5h0.1c0,1.2,0.3,2,0.7,2.5c0.5,0.5,1.2,0.7,2.3,0.7c0.9,0,1.6-0.2,2.1-0.7c0.5-0.5,0.7-1.1,0.7-1.8
			c0-0.4-0.1-0.8-0.3-1.1c-0.2-0.3-0.4-0.6-0.7-0.8c-0.3-0.2-0.9-0.5-1.7-0.8c-0.8-0.3-1.4-0.6-1.8-0.9c-0.3-0.2-0.6-0.6-0.8-1.1
			c-0.2-0.5-0.3-1-0.3-1.5c0-0.9,0.3-1.7,0.9-2.4c0.6-0.6,1.3-1,2.3-1c0.4,0,0.8,0,1.2,0.1C217.3-96.7,217.5-96.6,217.6-96.6
			C217.6-96.6,217.6-96.6,217.6-96.6L217.6-96.6z M228.9-97.2l-0.5,1.5h-0.1c0-0.1,0-0.2,0-0.4c0-0.1,0-0.2-0.1-0.2
			c-0.1,0-0.2-0.1-0.4-0.1h-2.9v10.4c0,0.4,0,0.7,0.1,0.9c0.1,0.2,0.1,0.3,0.3,0.3c0.1,0,0.3,0.1,0.5,0.1v0.1h-3v-0.1
			c0.4,0,0.6-0.1,0.7-0.2c0.1-0.1,0.1-0.4,0.1-0.8v-10.6h-2.7c-0.3,0-0.5,0-0.5,0.1c-0.1,0-0.1,0.1-0.1,0.3c0,0.1,0,0.2,0.1,0.3
			h-0.1l-0.5-1.5h0.1c0.1,0.2,0.2,0.3,0.3,0.4c0.1,0,0.3,0.1,0.6,0.1h7.3c0.3,0,0.5,0,0.6-0.1c0.1,0,0.2-0.2,0.3-0.4H228.9
			L228.9-97.2z M232.9-96.8v0.1c-0.1,0-0.3,0-0.5,0.1c-0.2,0.1-0.3,0.2-0.3,0.3c0,0.1,0,0.4,0,0.9v9.4c0,0.5,0,0.8,0.1,0.9
			c0,0.1,0.1,0.2,0.2,0.3c0.1,0.1,0.3,0.1,0.6,0.1v0.1H230v-0.1c0.4,0,0.6-0.1,0.7-0.2c0.1-0.2,0.1-0.5,0.1-1.1v-9.3
			c0-0.6,0-1-0.1-1.1c-0.1-0.2-0.3-0.3-0.7-0.2v-0.1H232.9L232.9-96.8z M243.3-97.2l-0.5,1.5h-0.1c0-0.1,0-0.2,0-0.4
			c0-0.1,0-0.2-0.1-0.2c-0.1,0-0.2-0.1-0.4-0.1h-2.9v10.4c0,0.4,0,0.7,0.1,0.9c0.1,0.2,0.1,0.3,0.3,0.3c0.1,0,0.3,0.1,0.5,0.1v0.1
			h-3v-0.1c0.4,0,0.6-0.1,0.7-0.2c0.1-0.1,0.1-0.4,0.1-0.8v-10.6h-2.7c-0.3,0-0.5,0-0.5,0.1c-0.1,0-0.1,0.1-0.1,0.3
			c0,0.1,0,0.2,0.1,0.3h-0.1l-0.5-1.5h0.1c0.1,0.2,0.2,0.3,0.3,0.4c0.1,0,0.3,0.1,0.6,0.1h7.3c0.3,0,0.5,0,0.6-0.1
			c0.1,0,0.2-0.2,0.3-0.4H243.3L243.3-97.2z M254.7-84.6h-2.1v-1.9c-1.1,1.3-2.3,2-3.8,2c-1.1,0-1.9-0.3-2.6-1c-0.6-0.7-1-1.6-1-2.8
			v-7.3c0-0.4,0-0.7-0.1-0.8c-0.1-0.1-0.3-0.2-0.7-0.2v-0.1h2.9v0.1c-0.3,0-0.5,0.1-0.7,0.2c-0.1,0.1-0.2,0.4-0.2,0.8v6.7
			c0,1.4,0.3,2.4,0.9,3c0.6,0.6,1.3,0.9,2,0.9c1.2,0,2.2-0.6,3.1-1.8v-8.2c0-0.7-0.1-1.2-0.2-1.3c-0.1-0.1-0.3-0.2-0.5-0.2h-0.1
			v-0.1h2.9v0.1c-0.4,0-0.6,0.1-0.7,0.2c-0.1,0.1-0.1,0.3-0.1,0.6v9.9c0,0.4,0,0.6,0.1,0.8c0,0.1,0.1,0.2,0.2,0.3
			c0.1,0.1,0.3,0.1,0.5,0.1V-84.6L254.7-84.6z M265.1-97.2l-0.5,1.5h-0.1c0-0.1,0-0.2,0-0.4c0-0.1,0-0.2-0.1-0.2
			c-0.1,0-0.2-0.1-0.4-0.1h-2.9v10.4c0,0.4,0,0.7,0.1,0.9c0.1,0.2,0.1,0.3,0.3,0.3c0.1,0,0.3,0.1,0.5,0.1v0.1h-3v-0.1
			c0.4,0,0.6-0.1,0.7-0.2c0.1-0.1,0.1-0.4,0.1-0.8v-10.6h-2.7c-0.3,0-0.5,0-0.5,0.1c-0.1,0-0.1,0.1-0.1,0.3c0,0.1,0,0.2,0.1,0.3
			h-0.1l-0.5-1.5h0.1c0.1,0.2,0.2,0.3,0.3,0.4c0.1,0,0.3,0.1,0.6,0.1h7.3c0.3,0,0.5,0,0.6-0.1c0.1,0,0.2-0.2,0.3-0.4H265.1
			L265.1-97.2z M271.7-96.9c1.5,0,2.8,0.5,3.8,1.6c1,1,1.5,2.3,1.5,3.9c0,2-0.6,3.7-1.7,5.1c-1.1,1.4-2.6,2-4.5,2
			c-1.5,0-2.8-0.6-3.7-1.7c-1-1.1-1.4-2.4-1.4-4c0-1,0.2-2.1,0.7-3.2c0.5-1.1,1.2-2,2.1-2.7C269.4-96.6,270.5-96.9,271.7-96.9
			L271.7-96.9z M271.7-85c0.8,0,1.5-0.2,2.2-0.7c0.7-0.4,1.3-1.1,1.7-1.9c0.4-0.8,0.6-1.6,0.6-2.4c0-1.2-0.3-2.3-0.8-3.2
			c-0.6-1-1.3-1.7-2.2-2.3c-0.9-0.5-1.7-0.8-2.5-0.8c-1.1,0-2.1,0.5-2.9,1.4c-0.9,0.9-1.3,2-1.3,3.4c0,1.7,0.5,3.2,1.6,4.6
			C269.1-85.7,270.4-85,271.7-85L271.7-85z M204.4-76.3l0.4,1.3h-0.1c-1.1-1.2-2.3-1.8-3.7-1.8c-1.5,0-2.7,0.5-3.6,1.5
			c-0.9,1-1.4,2.2-1.4,3.6c0,0.9,0.2,1.9,0.6,3c0.4,1.1,1.1,2,1.9,2.8c0.9,0.7,1.9,1.1,3.2,1.1c0.8,0,1.6-0.1,2.4-0.4
			c0.8-0.3,1.4-0.7,1.8-1.2l0.1,0l-0.8,1.3c-1.2,0.3-2,0.5-2.4,0.5c-0.4,0.1-0.9,0.1-1.5,0.1c-2.3,0-3.9-0.6-4.9-1.8
			c-1-1.2-1.5-2.6-1.5-4.2c0-1.1,0.3-2.2,0.8-3.2c0.5-1,1.2-1.8,2.2-2.4c1-0.6,2-0.9,3.3-0.9c0.6,0,1.1,0.1,1.6,0.2
			c0.4,0.1,0.8,0.3,1.1,0.4L204.4-76.3C204.4-76.4,204.4-76.3,204.4-76.3L204.4-76.3z M212.6-77.1c1.5,0,2.8,0.5,3.8,1.6
			c1,1,1.5,2.3,1.5,3.9c0,2-0.6,3.7-1.7,5.1c-1.1,1.4-2.6,2-4.5,2c-1.5,0-2.8-0.6-3.7-1.7c-1-1.1-1.4-2.4-1.4-4c0-1,0.2-2.1,0.7-3.2
			c0.5-1.1,1.2-2,2.1-2.7C210.2-76.8,211.3-77.1,212.6-77.1L212.6-77.1z M212.5-65.2c0.8,0,1.5-0.2,2.2-0.7c0.7-0.4,1.3-1.1,1.7-1.9
			c0.4-0.8,0.6-1.6,0.6-2.4c0-1.2-0.3-2.3-0.8-3.2c-0.6-1-1.3-1.7-2.2-2.3c-0.9-0.5-1.7-0.8-2.5-0.8c-1.1,0-2.1,0.5-2.9,1.4
			c-0.9,0.9-1.3,2-1.3,3.4c0,1.7,0.5,3.2,1.6,4.6C210-65.9,211.2-65.2,212.5-65.2L212.5-65.2z M227.9-77h2.1v0.1
			c-0.3,0-0.5,0.1-0.7,0.2c-0.1,0.1-0.2,0.4-0.2,0.9v11.1L220.4-75v9c0,0.3,0,0.5,0.1,0.6c0,0.1,0.1,0.2,0.2,0.3
			c0.1,0.1,0.3,0.1,0.6,0.1v0.1h-2.1v-0.1c0.4,0,0.6-0.1,0.7-0.2c0.1-0.1,0.1-0.5,0.1-1.1v-8.2c0-0.7-0.1-1.3-0.3-1.8
			c-0.2-0.5-0.6-0.7-1.3-0.6V-77h2.1l8.2,9.7v-8.6c0-0.5-0.1-0.7-0.2-0.8c-0.1-0.1-0.3-0.2-0.6-0.2V-77L227.9-77z M231-76.8V-77h6.9
			v1.4h-0.1v-0.1c0,0,0,0,0-0.1c-0.1-0.4-0.2-0.7-0.4-0.8c-0.2-0.1-0.4-0.1-0.8-0.1h-3.5v5.4h3.3c0.3,0,0.5,0,0.6-0.1
			c0.1-0.1,0.2-0.2,0.2-0.3h0.1v1.2h-0.1c0-0.3-0.2-0.4-0.5-0.4h-3.6v4.9c0,0.5,0.1,0.8,0.2,0.9c0.1,0.1,0.3,0.2,0.7,0.2v0.1H231
			v-0.1c0.3,0,0.5-0.1,0.6-0.2c0.1-0.1,0.1-0.3,0.1-0.6v-10c0-0.4-0.1-0.7-0.2-0.9C231.5-76.7,231.3-76.8,231-76.8L231-76.8z
			 M248.8-64.8h-2.1v-1.9c-1.1,1.3-2.3,2-3.8,2c-1.1,0-1.9-0.3-2.6-1c-0.6-0.7-1-1.6-1-2.8v-7.3c0-0.4,0-0.7-0.1-0.8
			c-0.1-0.1-0.3-0.2-0.7-0.2V-77h2.9v0.1c-0.3,0-0.5,0.1-0.7,0.2c-0.1,0.1-0.2,0.4-0.2,0.8v6.7c0,1.4,0.3,2.4,0.9,3
			c0.6,0.6,1.3,0.9,2,0.9c1.2,0,2.2-0.6,3.1-1.8v-8.2c0-0.7-0.1-1.2-0.2-1.3c-0.1-0.1-0.3-0.2-0.5-0.2H246V-77h2.9v0.1
			c-0.4,0-0.6,0.1-0.7,0.2c-0.1,0.1-0.1,0.3-0.1,0.6v9.9c0,0.4,0,0.6,0.1,0.8c0,0.1,0.1,0.2,0.2,0.3c0.1,0.1,0.3,0.1,0.5,0.1V-64.8
			L248.8-64.8z M259.5-76.3l0.4,1.3h-0.1c-1.1-1.2-2.3-1.8-3.7-1.8c-1.5,0-2.7,0.5-3.6,1.5c-0.9,1-1.4,2.2-1.4,3.6
			c0,0.9,0.2,1.9,0.6,3c0.4,1.1,1.1,2,1.9,2.8c0.9,0.7,1.9,1.1,3.2,1.1c0.8,0,1.6-0.1,2.4-0.4c0.8-0.3,1.4-0.7,1.8-1.2l0.1,0
			l-0.8,1.3c-1.2,0.3-2,0.5-2.4,0.5c-0.4,0.1-0.9,0.1-1.5,0.1c-2.3,0-3.9-0.6-4.9-1.8c-1-1.2-1.5-2.6-1.5-4.2c0-1.1,0.3-2.2,0.8-3.2
			c0.5-1,1.2-1.8,2.2-2.4c1-0.6,2-0.9,3.3-0.9c0.6,0,1.1,0.1,1.6,0.2c0.4,0.1,0.8,0.3,1.1,0.4L259.5-76.3
			C259.4-76.4,259.5-76.3,259.5-76.3L259.5-76.3z M264.6-77v0.1c-0.1,0-0.3,0-0.5,0.1c-0.2,0.1-0.3,0.2-0.3,0.3c0,0.1,0,0.4,0,0.9
			v9.4c0,0.5,0,0.8,0.1,0.9c0,0.1,0.1,0.2,0.2,0.3c0.1,0.1,0.3,0.1,0.6,0.1v0.1h-2.9v-0.1c0.4,0,0.6-0.1,0.7-0.2
			c0.1-0.2,0.1-0.5,0.1-1.1v-9.3c0-0.6,0-1-0.1-1.1c-0.1-0.2-0.3-0.3-0.7-0.2V-77H264.6L264.6-77z M271.7-77.1
			c1.5,0,2.8,0.5,3.8,1.6c1,1,1.5,2.3,1.5,3.9c0,2-0.6,3.7-1.7,5.1c-1.1,1.4-2.6,2-4.5,2c-1.5,0-2.8-0.6-3.7-1.7
			c-1-1.1-1.4-2.4-1.4-4c0-1,0.2-2.1,0.7-3.2c0.5-1.1,1.2-2,2.1-2.7C269.4-76.8,270.5-77.1,271.7-77.1L271.7-77.1z M271.7-65.2
			c0.8,0,1.5-0.2,2.2-0.7c0.7-0.4,1.3-1.1,1.7-1.9c0.4-0.8,0.6-1.6,0.6-2.4c0-1.2-0.3-2.3-0.8-3.2c-0.6-1-1.3-1.7-2.2-2.3
			c-0.9-0.5-1.7-0.8-2.5-0.8c-1.1,0-2.1,0.5-2.9,1.4c-0.9,0.9-1.3,2-1.3,3.4c0,1.7,0.5,3.2,1.6,4.6
			C269.1-65.9,270.4-65.2,271.7-65.2z"/>
	</g>
	<path fill-rule="evenodd" clip-rule="evenodd" fill="#FFFFFF" d="M145.4-89.2l2,1.6l-0.4,1l-0.4,1l-0.3,1l-0.3,1l-0.3,0.9l-0.2,0.9
		l-0.2,0.9l-0.1,0.9l-0.1,0.8l0,0.8l0,0.8l0,0.8L145-76l0.1,0.7l0.1,0.7l0.2,0.7l0.2,0.7l0.2,0.6l0.3,0.6l0.3,0.6l0.3,0.6l0.4,0.6
		l0.4,0.5l0.4,0.5l0.4,0.5l0.5,0.5l0.5,0.5l0.5,0.4l0.5,0.4l0.5,0.4l0.6,0.4l0.6,0.4L151-66l-0.9-0.5l-0.8-0.5l-0.8-0.5l-0.7-0.5
		l-0.7-0.6l-0.6-0.6l-0.6-0.6l-0.5-0.6l-0.5-0.7l-0.4-0.7l-0.4-0.7l-0.3-0.7l-0.3-0.7l-0.2-0.8l-0.2-0.8l-0.2-0.8l-0.1-0.8l-0.1-0.8
		l0-0.8l0-0.8l0-0.8l0.1-0.9l0.1-0.9l0.2-0.9l0.2-0.9l0.2-0.9l0.3-0.9l0.3-0.9l0.4-0.9l0.4-0.9L145.4-89.2L145.4-89.2z M150.7-88.5
		l-0.5,0.8l-0.4,0.8l-0.4,0.8l-0.4,0.8l-0.4,0.8l-0.3,0.8L148-83l-0.3,0.8l-0.2,0.8l-0.2,0.8l-0.2,0.8l-0.1,0.8l-0.1,0.8l0,0.8
		l0,0.8l0,0.7l0.1,0.7l0.1,0.7l0.2,0.7l0.2,0.7l0.3,0.7l0.3,0.7l0.4,0.6l0.4,0.6l0.5,0.6l0.5,0.6l0.6,0.5l0.7,0.5l0.7,0.5l0.8,0.4
		l0.9,0.4l0.9,0.4l-0.6-0.4l-0.5-0.4l-0.5-0.4l-0.5-0.4l-0.5-0.4l-0.4-0.4l-0.4-0.5l-0.4-0.5l-0.3-0.5l-0.3-0.5l-0.3-0.5l-0.2-0.5
		l-0.2-0.6l-0.2-0.6l-0.1-0.6l-0.1-0.6l-0.1-0.6l0-0.6l0-0.7l0-0.7l0.1-0.7l0.1-0.7l0.2-0.7l0.2-0.8l0.2-0.8l0.3-0.8l0.3-0.8
		l0.4-0.8l0.4-0.9l0.4-0.9l0.5-0.9l0.5-0.9L150.7-88.5L150.7-88.5z M156.3-87.4l-0.6,0.6l-0.6,0.7l-0.6,0.7l-0.5,0.7l-0.5,0.7
		l-0.5,0.7l-0.4,0.7l-0.4,0.7l-0.3,0.7l-0.3,0.7l-0.2,0.7l-0.2,0.7l-0.2,0.7l-0.1,0.7l-0.1,0.7l0,0.7l0,0.7l0.1,0.7l0.1,0.7l0.2,0.7
		l0.2,0.6l0.3,0.6l0.4,0.6l0.4,0.6l0.5,0.6l0.5,0.5l0.6,0.5l0.7,0.5l0.7,0.5l0.8,0.4l0.8,0.4l0.9,0.4l-0.6-0.4l-0.5-0.4l-0.5-0.4
		l-0.5-0.4l-0.5-0.4l-0.4-0.5l-0.4-0.5l-0.4-0.5l-0.3-0.5l-0.3-0.5l-0.3-0.5l-0.2-0.5l-0.2-0.6l-0.2-0.6l-0.1-0.6l-0.1-0.6l0-0.6
		l0-0.6l0.1-0.6l0.1-0.6l0.2-0.6l0.2-0.7l0.3-0.7l0.3-0.7l0.4-0.7l0.4-0.7l0.5-0.7l0.5-0.7l0.6-0.7l0.7-0.7l0.7-0.7l0.8-0.7
		L156.3-87.4L156.3-87.4z M147.3-59l0.1,0l0.1,0l0.1,0l0.1,0l0.2,0l0.3,0l0.3,0h0.3l0.3,0l0.3,0l0.3,0l0.3,0l0.3,0l0.3,0l0.3,0
		l0.3,0l0.3,0l0.3,0l-0.1,0l-0.1,0l-0.1,0l-0.1,0l-0.2,0.1l-0.2,0.1l-0.2,0.1l-0.2,0l-0.2,0l-0.2,0l-0.2,0l-0.2,0l-0.2,0l-0.2,0
		l-0.2,0l-0.2,0l-0.2,0l-0.2,0l0.2,0l0.2,0l0.3,0l0.3,0l0.3,0l0.3,0l0.3,0l0.3,0l0.3,0l0.3,0l0.4,0l0.4,0l0.4,0l0.4,0l0.4-0.1
		l0.4-0.1l-0.3,0.1l-0.3,0.1l-0.3,0.1l-0.4,0.1l-0.4,0.1l-0.4,0.1l-0.4,0.1l-0.4,0.1l-0.4,0.1l-0.4,0.1l-0.4,0.1l-0.4,0.1l-0.4,0.1
		l-0.4,0.1l-0.4,0.1l-0.4,0.1l0.2,0l0.2,0l0.2,0l0.3,0h0.3l0.3,0l0.3,0l0.3,0l0.3,0l0.3,0l0.3,0l0.3,0l0.3,0l0.3,0l0.3,0l0.3,0
		l-0.2,0.1l-0.2,0.1l-0.2,0.1l-0.2,0.1l-0.2,0.1l-0.3,0.1l-0.3,0.1l-0.3,0.1l-0.3,0.1l-0.3,0.1l-0.3,0.1l-0.3,0.1l-0.3,0l-0.3,0.1
		l-0.3,0l-0.3,0l0.3,0l0.3,0l0.3,0l0.3,0l0.4,0l0.4,0l0.4,0l0.4,0l0.4,0l0.4,0l0.4,0l0.4,0l0.4,0l0.4,0l0.4,0l0.4,0l-0.1,0l-0.1,0
		l-0.1,0l-0.1,0l-0.1,0l-0.1,0l-0.1,0l-0.1,0l-0.3,0.1l-0.3,0.1l-0.3,0.1l-0.3,0.1l-0.4,0.1l-0.4,0.1l-0.4,0.1l-0.4,0.1l-0.4,0.1
		l-0.4,0.1l-0.4,0.1l-0.4,0.1l1.1,0l1.1,0l1.1,0l1.1-0.1l1.1-0.1l1.1-0.1l1-0.2l1-0.2l1-0.2l1-0.2l1-0.3l1-0.3l0.9-0.3l0.9-0.3
		l0.9-0.4L165-59l0.8-0.4l0.8-0.5l0.8-0.5l0.7-0.5l0.7-0.6l0.6-0.6l0.6-0.6l0.6-0.7L171-64l0.5-0.7l0.4-0.7l0.4-0.8l0.3-0.8l0.3-0.8
		l0.2-0.9l0.2-0.9l-0.3-0.1l-0.3-0.1l-0.3-0.1l-0.3-0.1l-0.3-0.1l-0.3-0.1l-0.3-0.1l-0.3-0.1l-0.3-0.1l-0.3-0.1l-0.3-0.1l-0.3-0.1
		l-0.3-0.1l-0.3-0.1l-0.3-0.1l-0.3-0.1l0,0l0,0l0,0l0,0l0,0.1l0,0.1l0,0.1l-0.1,0.1l-0.1,0.2l-0.1,0.2l-0.1,0.2l-0.1,0.2l-0.1,0.2
		l-0.1,0.2l-0.1,0.2l-0.2,0.2l-0.2,0.2l-0.2,0.2l-0.2,0.2l-0.2,0.2l-0.2,0.2l-0.2,0.2l-0.1,0.6l-0.1,0.5l-0.2,0.5l-0.2,0.5l-0.2,0.5
		l-0.3,0.4l-0.3,0.4l-0.4,0.4l-0.4,0.4l-0.4,0.4l-0.5,0.3l-0.5,0.3l-0.5,0.3l-0.6,0.3l-0.6,0.3l-0.6,0.3l-0.7,0.2l-0.7,0.2l-0.7,0.2
		l-0.7,0.2l-0.8,0.2l-0.8,0.2l-0.8,0.2l-0.8,0.2l-0.8,0.1l-0.9,0.1l-0.9,0.1l-0.9,0.1l-0.9,0.1l-0.9,0.1l-0.9,0.1L147.3-59L147.3-59
		z M156.4-100l-1.4,0l-1.4,0.1l-1.4,0.2l-1.3,0.2l-1.3,0.3l-1.3,0.4l-1.3,0.4l-1.2,0.5l-1.2,0.5l-1.2,0.6l-1.1,0.7l-1.1,0.7
		l-1.1,0.8l-1,0.8l-1,0.9l-0.9,0.9l-0.9,0.9l-0.9,1l-0.8,1L134-88l-0.7,1.1l-0.7,1.1l-0.6,1.2l-0.5,1.2l-0.5,1.2l-0.4,1.3l-0.4,1.3
		l-0.3,1.3l-0.2,1.3l-0.2,1.4l-0.1,1.4l0,1.4l0,1.4l0.1,1.4l0.2,1.4l0.2,1.3l0.3,1.3l0.4,1.3l0.4,1.3l0.5,1.2l0.5,1.2l0.6,1.2
		l0.7,1.1l0.7,1.1l0.8,1.1l0.8,1l0.9,1l0.9,0.9l0.9,0.9l1,0.9l1,0.8l1.1,0.8l1.1,0.7l1.1,0.7l1.2,0.6l1.2,0.5l1.2,0.5l1.3,0.4
		l1.3,0.4l1.3,0.3l1.3,0.2l1.4,0.2l1.4,0.1l1.4,0l1.4,0l1.4-0.1l1.4-0.2l1.3-0.2l1.3-0.3l1.3-0.4l1.3-0.4L167-48l1.2-0.5l1.2-0.6
		l1.1-0.7l1.1-0.7l1.1-0.8l1-0.8l1-0.9l0.9-0.9l0.9-0.9l0.9-1l0.8-1l0.8-1.1l0.7-1.1l0.7-1.1l0.6-1.2l0.5-1.2l0.5-1.2l0.4-1.3
		l0.4-1.3l0.3-1.3l0.2-1.3l0.2-1.4l0.1-1.4l0-1.4l0-1.4l-0.1-1.4l-0.2-1.4l-0.2-1.3l-0.3-1.3l-0.4-1.3l-0.4-1.3l-0.5-1.2l-0.5-1.2
		l-0.6-1.2l-0.7-1.1l-0.7-1.1l-0.8-1.1l-0.8-1l-0.9-1l-0.9-0.9l-0.9-0.9l-1-0.9l-1-0.8l-1.1-0.8l-1.1-0.7l-1.1-0.7l-1.2-0.6
		l-1.2-0.5l-1.2-0.5l-1.3-0.4l-1.3-0.4l-1.3-0.3l-1.3-0.2l-1.4-0.2l-1.4-0.1L156.4-100L156.4-100z M156.4-101.4l-1.5,0l-1.4,0.1
		l-1.4,0.2l-1.4,0.3l-1.4,0.3l-1.4,0.4l-1.3,0.5l-1.3,0.5l-1.3,0.6l-1.2,0.6l-1.2,0.7l-1.2,0.7l-1.1,0.8l-1.1,0.8l-1,0.9l-1,0.9
		l-0.9,1l-0.9,1l-0.8,1.1l-0.8,1.1l-0.7,1.2l-0.7,1.2l-0.6,1.2l-0.6,1.3l-0.5,1.3l-0.5,1.3l-0.4,1.4l-0.3,1.4l-0.3,1.4l-0.2,1.4
		l-0.1,1.4l0,1.5l0,1.5l0.1,1.4l0.2,1.4l0.3,1.4l0.3,1.4l0.4,1.4l0.5,1.3l0.5,1.3l0.6,1.3l0.6,1.2l0.7,1.2l0.7,1.2l0.8,1.1l0.8,1.1
		l0.9,1l0.9,1l1,0.9l1,0.9l1.1,0.8l1.1,0.8l1.2,0.7l1.2,0.7l1.2,0.6l1.3,0.6l1.3,0.5l1.3,0.4l1.4,0.4l1.4,0.3l1.4,0.3l1.4,0.2
		l1.4,0.1l1.5,0l1.5,0l1.4-0.1l1.4-0.2l1.4-0.3l1.4-0.3l1.4-0.4l1.3-0.4l1.3-0.5l1.3-0.6l1.2-0.6l1.2-0.7l1.2-0.7l1.1-0.8l1.1-0.8
		l1-0.9l1-0.9l0.9-1l0.9-1l0.8-1.1l0.8-1.1l0.7-1.2l0.7-1.2l0.6-1.2l0.6-1.3l0.5-1.3l0.5-1.3l0.4-1.4l0.3-1.4l0.3-1.4l0.2-1.4
		l0.1-1.4l0-1.5l0-1.5l-0.1-1.4l-0.2-1.4l-0.3-1.4L184-80l-0.4-1.4l-0.5-1.3l-0.5-1.3l-0.6-1.3l-0.6-1.2l-0.7-1.2l-0.7-1.2l-0.8-1.1
		l-0.8-1.1l-0.9-1l-0.9-1l-1-0.9l-1-0.9l-1.1-0.8l-1.1-0.8l-1.2-0.7L170-98l-1.2-0.6l-1.3-0.6l-1.3-0.5l-1.3-0.5l-1.4-0.4l-1.4-0.3
		l-1.4-0.3l-1.4-0.2l-1.4-0.1L156.4-101.4L156.4-101.4z M156.4-100.7l-1.4,0l-1.4,0.1l-1.4,0.2l-1.4,0.2l-1.3,0.3l-1.3,0.4l-1.3,0.4
		l-1.3,0.5l-1.2,0.6l-1.2,0.6l-1.2,0.7l-1.1,0.7l-1.1,0.8l-1,0.8l-1,0.9l-1,0.9l-0.9,1l-0.9,1l-0.8,1l-0.8,1.1l-0.7,1.1l-0.7,1.2
		l-0.6,1.2l-0.6,1.2l-0.5,1.3l-0.4,1.3l-0.4,1.3l-0.3,1.3l-0.2,1.4l-0.2,1.4l-0.1,1.4l0,1.4l0,1.4l0.1,1.4l0.2,1.4l0.2,1.4l0.3,1.3
		l0.4,1.3l0.4,1.3l0.5,1.3l0.6,1.2l0.6,1.2l0.7,1.2l0.7,1.1l0.8,1.1l0.8,1l0.9,1l0.9,1l1,0.9l1,0.9l1,0.8l1.1,0.8l1.1,0.7l1.2,0.7
		l1.2,0.6l1.2,0.6l1.3,0.5l1.3,0.4l1.3,0.4l1.3,0.3l1.4,0.2l1.4,0.2l1.4,0.1l1.4,0l1.4,0l1.4-0.1l1.4-0.2l1.4-0.2l1.3-0.3l1.3-0.4
		l1.3-0.4l1.3-0.5l1.2-0.6l1.2-0.6l1.2-0.7l1.1-0.7l1.1-0.8l1-0.8l1-0.9l1-0.9l0.9-1l0.9-1l0.8-1l0.8-1.1l0.7-1.1l0.7-1.2l0.6-1.2
		l0.6-1.2l0.5-1.3l0.4-1.3l0.4-1.3l0.3-1.3l0.2-1.4l0.2-1.4l0.1-1.4l0-1.4l0-1.4l-0.1-1.4l-0.2-1.4l-0.2-1.4l-0.3-1.3l-0.4-1.3
		l-0.4-1.3l-0.5-1.3l-0.6-1.2l-0.6-1.2l-0.7-1.2l-0.7-1.1l-0.8-1.1l-0.8-1l-0.9-1l-0.9-1l-1-0.9l-1-0.9l-1-0.8L172-96l-1.1-0.7
		l-1.2-0.7l-1.2-0.6l-1.2-0.6L166-99l-1.3-0.4l-1.3-0.4l-1.3-0.3l-1.4-0.2l-1.4-0.2l-1.4-0.1L156.4-100.7L156.4-100.7z M167.8-52.7
		L167.8-52.7l0.1,0l0.1,0l0.1,0l0,0l0,0l0,0l0,0l0,0.1l0,0.1l0,0.1l0,0.1l0,0l0,0l0,0l0,0l-0.1,0h-0.1h0l0,0l0,0l0,0l0,0l0,0l0,0
		l0,0l0,0l0-0.1l0,0v0v0l0,0l0,0L167.8-52.7L167.8-52.7L167.8-52.7L167.8-52.7z M168.5-52.1L168.5-52.1L168.5-52.1L168.5-52.1
		L168.5-52.1l0.1,0l0,0l0,0l0,0l0,0l0,0l0,0l0,0l0,0.1v0.1l0,0.1l0,0.1l0,0.1l0,0.1l0,0.1l0,0.1l0,0l0,0l0,0l0,0l0,0l0,0l0,0l0,0
		l0,0l0,0l0,0l0,0l0,0l0,0l0,0l0,0l0,0l0,0l0,0v0l0,0l0,0l0,0l0,0l0,0l0,0l0,0l0,0l0,0L168.5-52.1L168.5-52.1L168.5-52.1L168.5-52.1
		z M167.3-52.8l0.1-0.1l0.1-0.1l0.1-0.1l0.1-0.1l0.1-0.1l0.1-0.1l0.1-0.1l0.1-0.1l0.1,0l0.1,0l0,0h0h0l0,0l0,0l0,0l0,0l0,0l0,0l0,0
		l0,0l0,0l0,0.1l0,0.1v0.1l0,0.1v0.1l0,0.1l0,0.1v0.1l0,0l0,0.1l0,0.1l0,0.1l0,0l0,0h0h0l0,0l0,0l0,0l0,0l0,0l0,0l0,0l0,0l0,0l0,0
		l0,0l0,0l0,0.1l0,0.2l0,0.2l0,0.2l0,0.2l0,0.2l0,0.2l0,0.2l0,0.1l0,0.1l0,0.1l0,0.1l0,0.1l0,0.1l0,0.1l0,0.1l0,0l0,0l0,0v0l0,0l0,0
		l0,0l0,0l0,0l0,0l0,0l0,0h0l0,0l0,0l0,0l-0.2-0.4l-0.2-0.3l-0.1-0.2l-0.1-0.2l-0.1-0.2l-0.1-0.2l-0.1-0.2l-0.1-0.1l-0.1-0.1
		l-0.1-0.1l-0.1-0.1l-0.1-0.1l-0.1-0.1l-0.1-0.1l-0.1,0l-0.1,0l0,0l0,0l0,0l0,0l0,0l0,0l0,0l0,0l0,0l0,0l0,0l0,0l0,0l0,0l0,0l0,0
		l0-0.1l0-0.1h0L167.3-52.8L167.3-52.8L167.3-52.8L167.3-52.8z M169.7-50.6L169.7-50.6l0-0.2l0-0.1l0-0.1l0-0.1l0-0.1l0-0.1l0-0.1
		l0-0.1l0-0.1l0-0.1l0-0.1l0-0.1l0-0.1l0.1-0.1l0.1-0.1l0,0l0,0l0,0l0,0l0,0h0l0,0l0,0l0,0l0,0l0,0l0,0l0,0l0,0.1l0,0.1l0,0.1l0,0.1
		l0,0.2l0,0.2l0,0.2l0,0.2l0,0.2l0,0l0,0l0,0l0,0l0,0l0,0l0,0h0l0,0l0,0l0,0L169.7-50.6L169.7-50.6L169.7-50.6L169.7-50.6
		L169.7-50.6L169.7-50.6z M170.9-53.5L170.9-53.5l0.2,0h0h0l0,0l0,0l0,0l0,0l0,0l0,0l0,0l0,0l0,0l0,0l-0.1,0.1l0,0.1l0,0.1l-0.1,0.1
		l-0.1,0.1l-0.1,0.1l0,0l0,0l0,0v0l0,0l0,0l0,0l0,0l0,0.1l0,0.1l0,0.1l0,0l0.1,0.1l0.1,0.1l0,0l0,0l0,0l0,0l0,0h0h0h0l0,0l0,0l0.1,0
		l0.1,0l0.1,0l0.1,0l0.1,0l0.1,0l0.1-0.1l0.1-0.1l0.1-0.1l0.1-0.1l0-0.1l0-0.1l0-0.1l0-0.1l0-0.1l0-0.1l0-0.1l0-0.1l0,0l0,0h0l0,0
		l0,0l0,0l0,0l0,0.1l0,0.1l0,0.1l0,0.2l0,0.2l0,0.2l0,0.2l0,0l0,0l0,0l0,0l0,0l-0.1,0l-0.1,0l-0.1,0l-0.1,0l-0.1,0l-0.1,0l-0.1,0
		l-0.1,0l-0.1,0l-0.1,0l-0.1,0l-0.1,0l-0.1,0l-0.1,0l-0.1,0l0,0l0,0l0,0l0,0l-0.1,0l-0.1,0l0,0l0,0l0,0l0,0l0,0l0,0l0,0l0,0
		l-0.1-0.1l-0.1-0.1l-0.1-0.1l-0.1-0.2l-0.1-0.1l-0.1-0.1l0,0l0,0l0,0l0,0l0,0l0,0l0,0l0,0h0l0,0l0,0l0,0l0,0l0,0l0,0l0,0l-0.1,0.1
		l-0.1,0.1l-0.1,0.1l-0.1,0.1l-0.1,0.1l-0.1,0.1l-0.1,0.1l-0.1,0.1l-0.1,0h-0.1l-0.1,0l-0.1,0l0,0l0,0l0,0l0,0l0,0l0,0l0-0.1l0-0.1
		l0-0.1l0-0.1l0.1-0.1l0.1-0.1l0.1-0.1l0.1-0.1l0.1-0.1l0.1-0.1L170-53l0.1-0.1l0.1-0.1l0.1-0.1l0.1-0.1l0.1-0.1l0.1-0.1L170.9-53.5
		L170.9-53.5z M169.2-54.5L169.2-54.5L169.2-54.5l0.1,0l0,0l0.1,0l0.1,0l0.1,0l0.1,0l0.1,0l0.1,0l0.1-0.1l0.1-0.1l0.1-0.1l0.1-0.1
		l0.1-0.1l0.1-0.1l0.1-0.1l0.1-0.1l0,0l0,0l0,0l0,0l0,0l0,0l0,0l0,0l0,0.2v0.1v0.2l0,0.1l0,0.1l0,0l0,0l0,0l0,0l0,0l0,0l0,0l0-0.1
		l0-0.1v0l0,0l0,0l0,0l0,0l0,0l0,0h0l-0.1,0l-0.1,0.1l-0.1,0.1l-0.1,0.1l-0.1,0.1l-0.1,0.1l-0.1,0.1l-0.1,0.1l-0.2,0.1l-0.1,0.1
		l-0.1,0.1l-0.1,0.1l0,0.1l0,0.1l0,0.1v0l0,0l0,0l0,0l0,0l0,0l0,0l0.1-0.1l0.1-0.1l0.1-0.1l0.1-0.1l0.1-0.1l0.1-0.1l0.1-0.1l0.1-0.1
		l0.1,0l0.1,0h0.1l0,0l0,0l0,0l0,0l0,0l-0.1,0.1l-0.1,0.1l-0.1,0.1l-0.2,0.1l-0.2,0.1l-0.2,0.1l-0.1,0.1l-0.1,0.1l-0.1,0.1l-0.1,0.1
		l0,0l0,0l0,0h0h0h0l0,0l0,0l0,0l0,0l0,0l0,0l0-0.1l0-0.1l0-0.1l0-0.1l0-0.1l0-0.1v0l0,0l0,0l0,0l0.1-0.1l0.1-0.1l0.1-0.1l0.1-0.1
		l0.1-0.1l0-0.1l0-0.1l0-0.1l0-0.1l0-0.1v-0.1v-0.1v-0.1v-0.1L169.2-54.5L169.2-54.5L169.2-54.5L169.2-54.5L169.2-54.5z M158.8-49
		l0,0.1l0,0.2l0,0l0,0l0,0l0,0l0,0l0,0l0,0l0,0l0,0l0,0l0,0l0,0l0,0l0,0l0,0l0,0l0,0l0-0.1l0-0.1l0-0.1v-0.1v-0.1l0-0.1l0-0.1l0-0.1
		l0,0l0,0l0,0l0,0l0,0v0l0,0l0,0l0,0l0,0l0,0l0,0l0,0l0,0l0,0l0,0l0,0l0,0h0l0,0l0,0l0,0h0l0,0l0,0l0,0l0,0l0.1-0.1l0.1-0.1l0,0l0,0
		l0,0l0,0l0,0l0,0l0,0v0l0,0l0,0l0,0l0,0l-0.1,0l-0.1,0l0,0l0,0l0,0l0,0l0,0l0,0l0,0v0l0,0l0,0l0,0l0,0l0,0l0,0l0,0l0,0l0,0l0,0l0,0
		h0l0,0l0,0l0.1,0l0,0l0,0l0,0l0,0l0,0l0,0l0,0l0,0l0,0l0,0.1l0,0.1l0,0.1l0,0.1l0.1,0l0.1,0l0.1,0l0.1,0l0,0l0,0l0,0l0,0v0l0,0l0,0
		l0,0l-0.1,0l-0.1-0.1l-0.1,0l0,0l0,0l0,0l0,0l0,0v0l0,0l0,0l0,0l0,0l0,0l0,0l0,0l0,0l0,0l0,0h0h0h0l0,0l0,0l0,0l0,0l0,0l0,0l0,0
		l0,0l0,0l0,0l0,0.1l0,0.1l0,0.1l0,0.1l0,0l0,0l0,0l0,0l0,0l0,0h0h0l0.1,0l0.1,0l0.1,0l0.1,0l0.1,0l0.1,0l0,0l0,0l0,0l0,0l0-0.1
		l0-0.1l0-0.1l0-0.1l0,0l0,0l0,0l0,0l0,0l0,0l0,0l0,0l0.1,0l0,0h0h0l0,0l0.1,0l0,0l0,0l0,0l0,0l0,0l0,0v0l0,0.1l-0.1,0.1l-0.1,0.1
		l0,0l0,0l0,0l0,0l0,0v0l0,0l0,0l0.1,0l0.1,0h0.1l0.1,0l0.1,0l0.1,0h0.1l0.1,0l0.1,0l0,0l0,0l0,0l0,0l0,0l0,0l0,0l0,0v0v0l0,0.1l0,0
		l0,0l0,0l0,0l0,0l0,0l0,0l0,0l0,0.1l0,0.1l0,0l0,0l0,0l0,0l0,0l0,0l0,0l0,0l0,0l0,0l0,0l0,0h0h0l0,0l0,0l0,0l0,0l0,0l0,0l0,0v0v0
		l0,0l0-0.1l0-0.1l0-0.1l0-0.1v0l0,0l0,0l0,0l-0.2,0l-0.2,0h-0.2l-0.2,0l-0.1,0l-0.1,0l-0.1,0l-0.1,0l-0.1,0l-0.1,0l-0.1,0l-0.1,0
		l-0.1,0l-0.1,0l-0.1,0l-0.1,0l-0.1,0l-0.1,0l-0.1,0l-0.1,0l-0.1,0.1l-0.1,0.1l-0.1,0.1l-0.1,0.1l-0.1,0.1l-0.1,0.1l-0.1,0.1
		L158.8-49L158.8-49z M160.6-48.4L160.6-48.4L160.6-48.4l0-0.1l0,0l0,0l0,0l0,0l0,0l0,0l0,0l0,0l0,0l-0.1,0h-0.1l-0.1,0l-0.1,0l0,0
		l0,0l0,0l0,0l-0.1,0l0,0l0,0l0,0l0,0l0,0l0,0l0,0l0,0h0h0l0,0l0,0l0,0l0,0l0,0l0,0l0,0l0,0l0,0l0,0v0l0,0l0,0l0,0l0,0l0,0l0,0l0,0
		l0.1,0l0.1-0.1l0.1-0.1l0.1-0.1l0.1-0.1l0.1-0.1l0.1,0l0.1,0l0.1,0l0.1,0l0.1,0l0.1,0l0.1,0l0.1,0h0.1h0.1l0.1,0l0.1,0l0.1,0l0,0
		l0,0l0,0l0,0l0,0l0,0l0,0v0v0l0,0l0,0l0,0l0,0l0,0l0,0l0,0l0,0l0,0l-0.2,0.1l-0.2,0.1l0,0l0,0l0,0l0,0l0,0l0,0l0,0l0,0l0,0l0,0l0,0
		l0,0l0,0l0,0l0,0l0,0l0.1,0l0.1,0h0.1l0.1,0h0.1l0.1,0h0.1l0.1,0l0.1,0l0.1,0l0.1,0l0.1,0l0.1,0l0.1,0l0.1,0l0.1,0l0.1,0l0.1,0
		l0.1,0l0.1,0h0l0,0l0,0l0,0l0,0l0,0l0,0l0,0l0,0l0,0l-0.1,0.1l-0.1,0.1l0,0.1l0,0.1l0,0.1l0,0.1l0,0l0,0l0,0l0,0l0,0l0,0l0,0l0,0
		l0,0l-0.1,0l-0.1,0l-0.1,0l-0.1,0l-0.1,0l-0.1,0l-0.1,0l-0.1,0l-0.1,0l-0.1,0l-0.1,0l-0.1,0l-0.1,0l-0.1,0l-0.1,0l-0.1,0l-0.1,0
		l-0.1,0l-0.1,0l0,0l0,0l0,0l0,0l0,0l0,0l0,0l0,0l0,0l0,0.1l0,0.1l0,0.1l0,0.1l0,0.1l0,0.1l0,0.1l0,0.1v0.1l0,0l0,0l0,0l0,0l0,0l0,0
		l0,0l0,0l0,0l0,0l0,0l0,0l-0.1,0l-0.1,0l-0.1,0l-0.1,0l-0.1,0l-0.1,0l-0.1,0l-0.1,0l0,0l0,0l0,0l0,0l0,0l0,0l0,0l0,0l0.1,0l0.1,0
		l0.1,0l0.1,0l0,0l0,0l0,0l0,0l0,0l0,0l0,0l0-0.1l0-0.1l0-0.1l0-0.1l0-0.1v-0.1V-48l0,0l0,0l0,0l0,0l0,0l0,0l0,0l0,0l-0.1,0l-0.1,0
		l-0.1,0l-0.1,0l-0.1,0l-0.1,0l-0.1,0l-0.1,0l-0.1,0l-0.1,0l-0.1,0l-0.1,0l-0.2,0.1l-0.2,0.1l-0.1,0l-0.1,0l-0.1,0l0,0l0,0h0l0,0
		l0,0l0,0l0,0l0,0l0,0l0,0l0,0l0,0l0,0l0-0.1l0-0.1l0,0l0,0l0,0l0,0l0,0l0,0l0,0l0,0l0,0l0,0l0.1,0l0.1,0l0.1,0l0.1,0l0.2-0.1
		l0.2-0.1l0.3-0.1l0.3-0.1l0.2-0.1L160.6-48.4L160.6-48.4z M161-49.2L161-49.2L161-49.2L161-49.2L161-49.2L161-49.2l0,0.1l0,0l0,0
		l0,0l0,0l0,0l0,0l0,0.1l0,0.1l0,0l0,0l0,0h0l0,0l0,0l0,0l0,0l-0.1,0l-0.1,0l0,0l0,0l0,0v0l0,0l0,0l0,0l0,0l0,0l0,0l0,0l0,0l0,0l0,0
		l0,0l0,0l0,0h0L161-49.2L161-49.2L161-49.2z M141.1-55.2L141.1-55.2L141.1-55.2l0-0.1l0,0l0,0l0,0l0,0l0,0l0,0l0,0l0,0l0,0l0,0l0,0
		l0,0l0.1,0l0.1,0l0.1,0.1l0.1,0.1l0.1,0.1l0.1,0.1l0.1,0.1l0.1,0.1l0.1,0.1l0.1,0.1l0.1,0.1l0.1,0.1l0.1,0.1l0.2,0.1l0.2,0.1l0.1,0
		l0,0.1l0,0l0,0l0,0l0,0l0,0v0l0,0l0,0l0,0l0,0l0,0l-0.1,0H143h-0.1l-0.1,0l-0.1,0l-0.1,0l-0.1,0l-0.1,0l-0.1,0l-0.1,0l-0.1,0
		l-0.1,0l-0.1,0l-0.1,0l-0.1,0l-0.1,0l-0.1,0l0,0l0,0l0,0l0,0l0,0l0,0l0,0v0v0v0l0,0l0,0l0,0l0,0l0,0l0,0l0.1,0l0.1,0l0.1,0l0.1,0.1
		l0,0l0,0l0,0l0,0l0,0v0v0l0,0l0,0l0,0l0,0l0,0l0,0l0,0l0,0l0,0l0,0l-0.1,0h0h0l0,0l0,0l-0.1,0l-0.1,0l0,0l0,0l0,0l0,0l0,0l0,0l0,0
		l0,0l0,0l0,0l-0.1,0.1l-0.1,0.1l-0.1,0.1l-0.1,0.1l-0.1,0.1l-0.1,0.1l-0.1,0.1l-0.1,0.1l0,0l0,0h0h0l0,0l0,0l0,0l0,0l0,0l0,0l0,0
		l0,0l0,0l0,0l0,0l0,0l0-0.1l0,0l0,0l0,0l0,0l0,0l0,0l0,0h0l0.1,0h0.1h0.1l0.1,0l0.1,0l0,0l0,0l0,0l0,0l0,0l0,0l0,0l0,0l0,0l0,0l0,0
		l0,0l0,0l0,0l0,0v0v0v0l0,0l0,0l0,0l0,0l0,0l0,0l0,0l0,0l-0.1,0l-0.1,0l-0.1,0l-0.1,0l0,0l-0.1,0l-0.1,0l-0.1,0l0,0l0,0l0,0l0,0
		l0,0l0,0l0,0v0l0,0l0,0l0,0l0,0l0,0l0,0l0,0h0.1l0.1,0l0.1,0l0.1,0l0.1,0l0.1,0l0.1,0l0.1,0l0.1,0l0-0.1l0-0.1l0,0l0,0l0,0v0v0v0
		l0,0l0,0l0,0l0,0l0,0l0,0l-0.1-0.1l-0.1-0.1l-0.1,0l-0.1,0l0,0l0,0l0,0l0,0l0,0l0,0L141.1-55.2L141.1-55.2L141.1-55.2z M141.8-54.3
		L141.8-54.3l0-0.1v0l0,0l0,0l0,0l0,0l0,0l0,0l0,0h0l0,0l0,0l0.1,0l0.1,0.1l0.1,0l0,0l0,0l0,0l0,0l0,0l0,0l0,0v0l0,0l0,0l0,0l0,0
		l0,0l0,0l-0.1,0l-0.1,0l-0.1,0H142h0l0,0l0,0l0,0L141.8-54.3L141.8-54.3L141.8-54.3L141.8-54.3L141.8-54.3z M142.5-52.3L142.5-52.3
		L142.5-52.3l-0.1,0.1l0,0l0,0l0,0v0v0l0,0l0,0l0,0l0,0l0,0l0,0l0,0l0,0l0.1,0.1l0.1,0.1l0.1,0.1l0.1,0.1l0.1,0.1l0.1,0.1l0.1,0
		l0.1,0l0,0l0,0l0,0l0,0h0.1h0.1l0.1,0l0.1,0h0.1l0.1,0l0.1,0l0.1,0l0,0l0,0l0,0v0l0,0l0,0l0,0l0,0l-0.2,0.1l-0.2,0.1l-0.1,0l-0.1,0
		l-0.1,0l-0.1,0l-0.1,0l-0.1,0l-0.1,0l-0.1,0l-0.1,0l-0.1,0l-0.1,0l-0.1,0l-0.1,0l-0.1,0l-0.1-0.1l-0.1-0.1l-0.1-0.1l-0.1-0.1
		l-0.1-0.1l-0.1-0.1l-0.1-0.1l-0.1-0.1l0,0l0,0l0,0l0,0l0,0v0v0l0,0l0,0l0,0l0,0l0,0l0,0l0,0l0,0l0,0l0.2-0.2l0.2-0.2l0.2-0.2
		l0.2-0.2l0.1-0.1l0.1-0.1l0.1-0.1l0.1-0.1l0.1-0.1l0.1-0.1l0.1-0.1l0.1-0.1l0.1,0l0.1,0l0.1,0l0.1,0l0.1,0h0.1l0.1,0l0.1,0l0,0l0,0
		l0,0l0,0l0,0l0,0l0,0l0,0v0l0,0l0,0l0,0l0,0l0,0.1l0,0l0,0l0,0l-0.1,0l-0.1,0l-0.1,0l-0.1,0l-0.1,0l-0.1,0l-0.1,0.1l-0.1,0.1
		l-0.1,0.1l-0.1,0.1l-0.1,0.1l-0.1,0.1l-0.1,0.1l-0.1,0.2l-0.1,0.2l-0.1,0.2L142.5-52.3L142.5-52.3z M149.2-50.3L149.2-50.3
		L149.2-50.3L149.2-50.3L149.2-50.3l-0.1-0.1l0,0l0,0l0,0l0,0l0,0v0l0,0l0,0l0,0l0,0l0,0l0,0l0,0l0,0l0,0l0,0l0,0l0,0l0,0h0.2l0.2,0
		l0.1,0l0.1,0l0.1,0l0.1,0l0.1,0l0.1,0l0.1,0l0.1,0l0.1,0l0.1,0l0.1,0l0.1,0l0.1,0l0.1,0l0.1,0l0.1,0l0.1,0l0.1,0l0.1,0l0.1,0.1
		l0.1,0.1l0.1,0.1l0.1,0.1l0.1,0.1l0.1,0.1l0.1,0.1l0.1,0.1l0.1,0.1l0,0l0,0l0,0l0,0l0,0v0l0,0l0,0l0,0l0,0l0,0l0,0l0,0l0,0l-0.1,0
		l-0.1,0l-0.1,0l-0.1,0l-0.1,0l-0.1,0h0l-0.1,0l-0.1,0l-0.1,0l-0.1,0l-0.1,0l-0.1,0l-0.1,0l0,0l0,0l0,0l0,0l0,0l0,0l0,0l0,0l0,0l0,0
		l0,0l0,0l0,0l0,0l0,0l0,0l0.1,0.1l0.1,0.1l0.1,0.1l0.1,0.1l0.1,0.1l0.1,0l0.1,0l0.1,0l0.1,0l0.1,0l0.1,0l0.1,0l0.1,0l0.1,0l0.1,0
		l0.1,0l0.1,0l0.1,0l0,0l0,0l0,0l0,0l0,0v0l0,0l0,0l0,0l0,0l0,0l0,0l0,0l0,0l-0.1,0l-0.1,0l-0.1,0l-0.1,0l-0.1,0l-0.1,0l-0.1,0H152
		h-0.1l-0.1,0l-0.1,0l-0.1,0l-0.1,0l0,0l0,0l0,0l-0.2-0.1l-0.2-0.1l-0.2-0.1l-0.2-0.1l0,0l0,0l0,0l0,0h0h0l0,0l0,0l0,0l0,0l0,0l0,0
		l0,0l0,0l0,0l0,0.1l-0.1,0.1l-0.1,0.1l-0.1,0.1l-0.1,0.1l-0.1,0.1l-0.1,0.1l-0.1,0.1l-0.1,0.1l-0.1,0.1l-0.1,0.1l-0.1,0l-0.1,0
		l-0.1,0l-0.1,0l-0.1,0l-0.1,0l-0.1,0l-0.1,0l-0.1,0h-0.1h-0.1l-0.1,0l0,0l0,0l0,0l0,0l0,0l0,0l0,0l0,0l0,0l0,0l0,0l0,0l0,0l0,0l0,0
		l0,0l0,0v0v0l0,0l0,0l0,0l0,0l0,0l0,0l0,0l0,0l0,0l0.1,0l0.1,0l0.1,0l0.1,0l0.1,0l0.1,0l0,0h0h0h0l0,0l0,0l0,0l0.1,0l0.1,0l0.1-0.1
		l0.1-0.1l0.1-0.1l0,0l0,0l0,0l0-0.1l0-0.1l0-0.1l0-0.1l0-0.1l0-0.1l0,0l0,0l0,0l0,0l0,0l0,0l0,0l0,0l0,0l0,0l0,0l0,0l0,0l-0.1,0
		l-0.1,0l-0.2,0l-0.2,0l-0.2,0l-0.2,0l-0.2,0l-0.2,0l-0.1,0l-0.1,0l-0.1,0l-0.1,0l0,0l0,0l0,0l0,0l0,0l0,0l0,0l0,0l0,0l0,0l0,0l0,0
		l0-0.1l0-0.1l0,0l0,0l0,0l0,0l0,0l0,0l0,0l0,0l0,0l0,0l0,0l0,0l0,0l0,0l0,0h0l0.1,0l0.1,0l0.1,0l0.1,0l0.2,0l0.2,0l0.2,0l0.2,0
		l0.2,0l0.2,0l0,0l0,0l0,0h0l0,0l0,0l0,0l0,0l0,0l0,0l0,0v0v0l0,0l0,0l0,0l0-0.1l0-0.1l0-0.1l0-0.1l0-0.1l-0.1-0.1l-0.1,0l-0.1,0
		l-0.1,0l-0.1,0l-0.1,0l-0.1,0l-0.1,0l-0.1,0L149.2-50.3L149.2-50.3L149.2-50.3z M150.4-49.9L150.4-49.9L150.4-49.9L150.4-49.9
		l-0.1-0.1l0,0v0l0,0l0,0l0,0l0,0l0,0l0,0h0l0,0l0,0l0,0l0.1,0l0.1,0l0.1,0l0.1,0l0.1,0l0.1,0l0.1,0l0.1,0l0,0l0,0l0,0l0,0l0,0l0,0
		l0,0l0,0l0,0l0,0l0,0l0,0l0,0l0,0l0,0l0,0l-0.1,0l-0.1,0h-0.1h0l0,0l0,0l0,0l0,0l0,0l0,0l0,0l0,0L150.4-49.9L150.4-49.9L150.4-49.9
		z M134.4-82l0.3-0.4l0.1,0l0.1,0l0.1,0l0.1,0l0.1,0l0,0l0,0l0,0l0,0.1l0,0.1l0,0.1l0,0.1l0,0.1l0,0.1l0,0.1l0,0.1l0,0.1l0,0.1
		l0,0.1l0,0.1l0,0.1l0,0.1l0,0.1v0.1l0,0.1l0,0.1l0,0.1l0,0.1l0,0.1l0,0.1l0,0.1l0,0.1l-0.1,0.1l-0.1,0.1l-0.1,0.1l-0.1,0.1l0,0.1
		l0,0l0,0l0,0l0,0l0,0l0,0l0,0l-0.1,0.1l-0.1,0.1l-0.1,0l-0.1,0l-0.1,0l-0.1,0l-0.1,0l-0.1,0l-0.1,0h-0.1l-0.1,0l-0.1,0l-0.1,0
		l-0.1,0l-0.1,0l-0.1,0l-0.1,0l-0.1-0.1l-0.1-0.1l-0.1-0.1l-0.1-0.1l-0.1-0.1l-0.1-0.1l-0.1-0.1l-0.1-0.1l-0.1-0.1l-0.1-0.1
		l-0.1-0.1l0-0.1l0-0.1l0-0.1l0-0.1l0-0.1l0-0.1l0-0.1l0-0.1l0-0.1l0-0.1l0-0.1l0-0.1l0-0.1l0-0.1l0-0.1l0-0.1l0-0.1l0-0.1l0-0.1
		l0,0l0,0l0,0l0,0l0,0l0,0l0,0l0,0l0,0l0,0l0,0l0,0l0.1,0l0.1,0l0.1,0l0.1,0l0.1,0l0.1,0l0.1,0l0.1,0l0.1,0l0.1,0l0.1,0h0.1l0.1,0
		l0,0.5h-0.1l-0.1,0l-0.1,0l-0.1,0l-0.1,0l-0.1,0l-0.1,0l-0.1,0l-0.1,0l-0.1,0l-0.1,0.1l0,0.1l0,0.1l0,0.1l0,0.1l0,0.1l0,0.1l0,0.1
		l0,0.1l0,0.1v0.1l0,0.1l0,0.1l0,0.1l0,0.1l0,0.1l0,0.1l0,0.1l0,0.1l0.1,0.1l0.1,0.1l0.1,0.1l0.1,0.1l0.1,0.1l0.1,0l0.1,0l0.1,0
		l0.1,0l0.1,0l0.1,0l0.1,0l0.1,0l0.1,0l0.1,0l0.1,0l0.1,0l0.1,0l0.1,0l0.1,0l0.1,0l0.1,0l0.1,0l0.1,0l0.1,0l0.1,0l0.1-0.1l0.1-0.1
		l0.1-0.1l0.1-0.1l0-0.1l0-0.1l0-0.1l0-0.1l0-0.1l0-0.1l0-0.1l0-0.1l0-0.1l0-0.1l0-0.1l0-0.1l0-0.1l0,0l0,0l0,0l0,0l-0.1-0.1
		l-0.1-0.1l-0.1-0.1l-0.1-0.1L134.4-82L134.4-82L134.4-82z M134.4-83.4L134.4-83.4l-0.2-0.1l-0.1-0.1l-0.1-0.1l-0.1-0.1l-0.1-0.1
		l-0.1-0.1l-0.1-0.1l-0.1-0.1l-0.1-0.1l-0.1-0.1l0-0.1l0-0.1l0-0.1l0-0.1l0-0.1l0-0.1l0-0.1l0-0.1l0-0.1l0-0.1v-0.1l0-0.1l0-0.1
		l0-0.1l0-0.1l0-0.1l0-0.1l0-0.1l0-0.1l0-0.1l0-0.1l0.1-0.1l0.1-0.1l0.1-0.1l0.1-0.1l0.1-0.1l0.1-0.1l0.1-0.1l0.1-0.1l0.1-0.1l0.1,0
		l0.1,0l0.1,0l0.1,0l0.1,0l0.1,0l0.1,0l0.1,0l0.1,0l0.1,0l0.1,0l0.1,0l0.1,0.1l0.1,0.1l0.1,0.1l0.1,0.1l0.1,0.1l0.1,0.1l0.1,0.1
		l0.1,0.1l0.1,0.1l0.1,0.1l0.1,0.1l0.1,0.1l0.1,0.1l0,0.1l0,0.1l0,0.1l0,0.1l0,0.1l0,0.1l0,0.1v0.1l0,0.1l0,0.1l0,0.1l0,0.1l0,0.1
		l0,0.1l0,0.1l-0.1,0.1l-0.1,0.1l-0.1,0.1l-0.1,0.1l-0.1,0.1l-0.1,0.1l-0.1,0.1l-0.1,0.1l-0.1,0.1l-0.1,0.1l-0.1,0l-0.1,0l-0.1,0
		l-0.1,0l-0.1,0l-0.1,0l-0.1,0l-0.1,0l-0.1,0l-0.1,0l-0.1,0l-0.1,0l-0.1,0l-0.1,0L134.4-83.4L134.4-83.4z M134.7-83.8L134.7-83.8
		l-0.2-0.1l-0.1-0.1l-0.1-0.1l-0.1-0.1l-0.1-0.1l-0.1-0.1l-0.1-0.1l0-0.1l0-0.1l0-0.1l0-0.1l0-0.1l0-0.1l0-0.1l0-0.1l0-0.1l0-0.1
		l0-0.1l0-0.1V-85v-0.1l0-0.1l0-0.1l0-0.1l0-0.1l0-0.1l0-0.1l0-0.1l0-0.1l0-0.1l0-0.1l0-0.1l0.1-0.1l0.1-0.1l0.1-0.1l0.1-0.1
		l0.1-0.1l0.1,0l0.1,0l0.1,0l0.1,0l0.1,0l0.1,0l0.1,0l0.1,0h0.1l0.1,0l0.1,0l0.1,0l0.1,0l0.1,0l0.1,0l0.1,0l0.1,0l0.1,0.1l0.1,0
		l0.1,0l0.1,0l0.1,0l0.1,0l0.1,0.1l0.1,0l0,0.1l0,0.1l0,0.1l0,0.1l0,0.1l0,0.1l0,0.1l0,0.1l0,0.1l0,0.1l0,0.1l0,0.1l0,0.1l0,0.1v0.1
		v0.1l0,0.1l0,0.1l0,0.1l0,0.1l0,0.1l0,0.1l0,0.1l0,0.1l0,0.1l0,0.1l0,0.1l0,0l0,0l0,0l0,0l0,0l0,0l0,0l-0.1,0l-0.1,0l-0.1,0l-0.1,0
		l-0.1,0l-0.1,0l-0.1,0l-0.1,0l-0.1,0l-0.1,0h-0.1h-0.1l-0.1,0l-0.1,0l-0.1,0l-0.1,0l-0.1,0l-0.1,0l-0.1,0l-0.1,0l-0.1,0L134.7-83.8
		L134.7-83.8L134.7-83.8z M138.1-86.1l-2.8-2.4l0.3-0.4l3.5,0.4l-2.2-1.9l0.3-0.4l2.8,2.4l-0.3,0.4l-3.5-0.4l2.2,1.9L138.1-86.1
		L138.1-86.1z M140.6-88.9l-2.4-2.8l1.9-1.6l0.3,0.3l-1.5,1.3l0.7,0.9l1.3-1.1l0.3,0.3l-1.3,1.1l1.1,1.3L140.6-88.9L140.6-88.9z
		 M143-95.4l0.4-0.3l1.1,1.8l0.1,0.1l0.1,0.1l0.1,0.1l0,0.1l0,0.1l0,0.1l0,0.1l0,0.1l0,0.1l0,0.1l0,0.1l0,0.1l0,0.1l0,0.1l0,0.1
		l0,0.1l0,0.1l-0.1,0.1l-0.1,0.1l-0.1,0.1l-0.1,0.1l-0.1,0.1l-0.1,0.1l-0.1,0.1l-0.1,0.1l-0.1,0.1l-0.1,0l-0.1,0l-0.1,0l-0.1,0
		l-0.1,0l-0.1,0h-0.1l-0.1,0l-0.1,0l-0.1,0l-0.1,0l-0.1,0l-0.1,0l-0.1,0l-0.1-0.1l-0.1-0.1l-0.1-0.1l-0.1-0.1l-0.1-0.1l-0.1-0.1
		l-0.1-0.1l-0.1-0.1l-1.1-1.8l0.4-0.3l1.1,1.8l0.1,0.1l0.1,0.1l0.1,0.1l0.1,0.1l0.1,0.1l0.1,0.1l0,0l0.1,0l0,0l0,0l0.1,0l0.1,0
		l0.1,0l0.1,0l0.1,0h0.1l0.1,0l0.1,0l0.1,0l0.1,0l0.1,0l0.1,0l0.1,0l0.1,0l0.1-0.1l0.1-0.1l0,0l0,0l0,0l0,0l0,0l0,0l0,0l0,0l0,0l0,0
		l0,0l0,0l0,0l0,0v0l0,0l0,0l0-0.1l0-0.1l0-0.1l0-0.1l0-0.1l0-0.1l0-0.1l-0.1-0.1l-0.1-0.1L143-95.4L143-95.4z M148-95.1l0.5-0.1
		l0,0.1l0,0.1l0,0.1l0,0.1v0.1v0.1l0,0.1l0,0.1l0,0.1l0,0.1l0,0.1l0,0.1l0,0.1l0,0.1l0,0.1l0,0.1l0,0.1l0,0.1l0,0.1l0,0l0,0l0,0l0,0
		l0,0l0,0l0,0l-0.1,0l-0.1,0l-0.1,0l-0.1,0l-0.1,0l-0.1,0l-0.1,0.1l-0.1,0l-0.1,0l-0.1,0l-0.1,0l-0.1,0l-0.1,0h-0.1h-0.1l-0.1,0
		l-0.1,0l-0.1,0l-0.1,0l-0.1,0l-0.1,0l-0.1,0l-0.1-0.1l-0.1-0.1l-0.1-0.1l-0.1-0.1l-0.1-0.1l-0.1-0.1l-0.1-0.1l-0.1-0.1l-0.1-0.1
		l-0.1-0.1l-0.1-0.1l-0.1-0.1l-0.1-0.1l0-0.1l0-0.1l0-0.1l0-0.1l0-0.1l0-0.1l0-0.1l0-0.1l0-0.1l0-0.1l0-0.1l0-0.1l0.1-0.1l0.1-0.1
		l0.1-0.1l0.1-0.1l0.1-0.1l0.1-0.1l0.1-0.1l0.1-0.1l0.1-0.1l0.1-0.1l0.1-0.1l0.1,0l0.1,0l0.1,0l0.1,0l0.1,0l0.1,0l0.1,0l0.1,0l0.1,0
		l0.1,0h0.1h0.1l0.1,0l0.1,0l0.1,0l0.1,0l0.1,0l0.1,0l0.1,0l0.1,0l0.1,0l0.1,0l0,0l0,0l0.1,0l0,0l0,0l0,0l0,0l0,0l0,0l0,0l-0.4,0.3
		l-0.1-0.1l-0.1-0.1l-0.1-0.1l-0.1-0.1l-0.1,0l-0.1,0l-0.1,0l-0.1,0l-0.1,0l-0.1,0h-0.1l-0.1,0l-0.1,0l-0.1,0l-0.1,0l-0.1,0l-0.1,0
		l-0.1,0l-0.1,0.1l-0.1,0.1l-0.1,0.1l-0.1,0.1l-0.1,0.1l0,0.1l0,0.1l0,0.1l0,0.1l0,0.1l0,0.1l0,0.1v0.1l0,0.1l0,0.1l0,0.1l0,0.1
		l0,0.1l0,0.1l0,0.1l0,0.1l0,0.1l0,0.1l0,0.1l0.1,0.1l0.1,0.1l0.1,0.1l0.1,0.1l0.1,0.1l0.1,0.1l0.1,0.1l0.1,0.1l0.1,0l0.1,0l0.1,0
		l0.1,0l0.1,0l0.1,0l0.1,0l0.1,0l0.1,0l0.1,0l0.1,0l0.1,0l0.1,0l0.1,0l0.1,0l0.1,0l0.1-0.1l0.1-0.1l0.1-0.1l0.1-0.1l0-0.1l0-0.1l0,0
		l0,0l0,0l0,0l0-0.1l0-0.1l0-0.1l0-0.1l0-0.1L148-95.1L148-95.1z M149.7-94.3l-1-3.6l0.5-0.1l1,3.6L149.7-94.3L149.7-94.3z
		 M152.7-98.8l0.5-0.1l0.4,2.1l0,0.1l0,0.1l0,0.1l0,0.1l0,0.1l0,0.1l0,0.1l0,0.1l0,0.1l0,0.1l0,0.1l0,0.1l0,0.1l-0.1,0.1l-0.1,0.1
		l-0.1,0.1l-0.1,0.1l-0.1,0.1l-0.1,0l-0.1,0l-0.1,0l-0.1,0l-0.1,0l-0.1,0l-0.1,0l-0.1,0l-0.1,0h-0.1l-0.1,0l-0.1,0l-0.1,0l-0.1,0
		l-0.1,0l-0.1,0l-0.1,0l-0.1-0.1l-0.1-0.1l-0.1-0.1l-0.1-0.1l0-0.1l0-0.1l0-0.1l0-0.1l0-0.1l0-0.1l0-0.1l0-0.1l0-0.1l-0.4-2.1
		l0.5-0.1l0.4,2.1l0,0.1l0,0.1l0,0.1l0,0.1l0,0.1l0,0.1l0,0.1l0,0.1l0,0l0,0l0,0l0,0l0,0l0.1,0l0.1,0l0.1,0l0.1,0l0.1,0l0.1,0l0.1,0
		h0.1h0.1l0.1,0l0.1,0l0.1,0l0.1,0l0.1,0l0.1,0l0,0l0,0l0,0l0,0l0,0l0,0l0,0l0,0l0,0l0,0l0,0l0,0l0,0l0,0l0,0l0-0.1l0-0.1l0-0.1
		l0-0.1v-0.1l0-0.1l0-0.1l0-0.2l0-0.2L152.7-98.8L152.7-98.8z M154.5-96.5l0.5,0l0,0.1l0,0.1l0,0.1l0,0.1l0,0.1l0,0.1l0,0l0,0l0,0
		l0,0l0,0l0,0l0,0l0.1,0l0.1,0l0.1,0l0.1,0l0.1,0l0.1,0l0.1,0l0.1,0l0.1,0l0.1,0h0.1l0.1,0l0.1,0l0.1,0l0.1,0l0.1,0l0.1,0l0.1,0
		l0.1,0l0,0l0,0l0,0l0,0l0,0l0,0l0,0l0,0l0,0l0,0l0,0l0,0l0,0l0,0l0,0v0v0l0,0l0,0l0,0l0,0l0,0l0,0l0,0l0,0l0,0l0,0l0,0l0,0l0,0
		l-0.1,0l-0.1,0l-0.1,0l-0.1,0l-0.2,0l-0.2-0.1l-0.1,0l-0.1,0l-0.1,0l-0.1,0l-0.1,0l-0.1,0l-0.1,0l-0.1,0l-0.1,0l-0.1,0l-0.1,0
		l-0.1,0l0,0l0,0l0,0l0,0l0,0l0-0.1l0-0.1l0-0.1l0-0.1l0-0.1l0-0.1l0-0.1l0-0.1l0-0.1l0-0.1l0-0.1l0-0.1l0-0.1l0-0.1l0-0.1l0-0.1
		l0-0.1l0-0.1l0.1,0l0.1,0l0.1,0l0.1,0l0.1,0l0.1,0l0.1,0l0.1,0l0.1,0l0.1,0l0.1,0l0.1,0h0.1h0.1l0.1,0l0.1,0l0.1,0l0.1,0l0.1,0
		l0.1,0l0.1,0l0.1,0l0.1,0l0.1,0l0.1,0l0.1,0l0.1,0.1l0.1,0.1l0,0.1l0,0.1l0,0.1l0,0.1l0,0.1l0,0.1l0,0.1l0,0.1l0,0.1l-0.5,0l0-0.1
		l0-0.1l0-0.1l0-0.1l0-0.1l0-0.1l0,0l0,0l-0.1,0l-0.1,0l-0.1,0l-0.1,0l-0.1,0l-0.1,0l-0.1,0h-0.1l-0.1,0l-0.1,0l-0.1,0l-0.1,0
		l-0.1,0l-0.1,0l-0.1,0l-0.1,0l0,0l0,0l0,0l0,0l0,0l0,0.1l0,0.1l0,0.1l0,0l0,0l0,0l0,0l0,0l0,0l0,0l0,0l0,0l0.1,0l0.1,0l0.1,0l0.1,0
		l0.1,0l0.1,0l0.1,0l0.1,0l0.1,0l0.1,0l0.1,0l0.1,0l0.1,0l0.1,0l0.1,0l0.1,0l0.1,0l0.1,0l0.1,0l0.1,0l0.1,0l0,0.1l0,0.1l0,0.1l0,0.1
		l0,0.1l0,0.1l0,0.1l0,0.1l0,0.1v0.1v0.1l0,0.1l0,0.1l0,0.1l0,0.1l0,0.1l0,0.1l0,0.1l0,0.1l0,0.1l0,0.1l-0.1,0l-0.1,0.1l-0.1,0
		l-0.1,0l-0.1,0l-0.1,0l-0.1,0l-0.1,0l-0.1,0l-0.1,0l-0.1,0l-0.1,0l-0.1,0H156l-0.1,0l-0.1,0l-0.1,0l-0.1,0l-0.1,0l-0.1,0l-0.1,0
		l-0.1,0l-0.1,0l-0.1,0l-0.1,0l-0.1-0.1l-0.1-0.1l-0.1-0.1l0-0.1l0-0.1l0-0.1l0-0.1l0-0.1l0-0.1l0-0.1L154.5-96.5L154.5-96.5
		L154.5-96.5z M159.6-95.1l0.4-3.7l0.5,0.1l-0.5,3.7L159.6-95.1L159.6-95.1z M161-94.9l1-3.6l0.5,0.1l1.1,3.3l0.8-2.8l0.5,0.1
		l-1,3.6l-0.5-0.1l-1.1-3.3l-0.8,2.8L161-94.9L161-94.9z M164.9-95l0.4,0.1l0,0.1l0,0.1l0,0.1l0,0.1v0.1v0.1v0.1l0,0.1l0,0.1l0,0.1
		l0,0l0,0.1l0,0l0,0.1l0,0l0,0.1l0,0l0.1,0l0.1,0l0.1,0l0.1,0l0.1,0l0.1,0l0.1,0l0.1,0l0.1,0l0.1,0l0.1,0l0.1,0l0.1,0l0.1,0l0.1,0
		l0.1,0l0.1,0l0.1,0l0,0l0,0l0,0l0,0l0,0l0,0l0,0l0,0l0,0l0,0l0,0l0,0l0,0l0,0l0,0l0,0l0,0v0v0l0,0l0,0l0,0l0,0l0,0l0,0l0,0l0,0l0,0
		l0,0l-0.1-0.1l-0.1-0.1l-0.2-0.1l-0.2-0.1l-0.2-0.1l-0.2-0.1l-0.1-0.1l-0.1-0.1l0-0.1l0,0l0-0.1l0-0.1l0-0.1l0-0.1l0-0.1l0-0.1
		l0-0.1l0-0.1l0-0.1V-96v-0.1l0-0.1l0-0.1l0-0.1l0-0.1l0-0.1l0-0.1l0-0.1l0-0.1l0-0.1l0,0l0.1,0l0.1,0l0.1,0l0.1,0l0.1,0l0.1,0
		l0.1,0l0.1,0l0.1,0l0.1,0h0.1l0.1,0l0.1,0l0.1,0l0.1,0l0.1,0l0.1,0l0.1,0l0.1,0l0.1,0l0.1,0l0.1,0l0.1,0l0.1,0.1l0.1,0.1l0.1,0.1
		l0.1,0.1l0.1,0.1l0,0.1l0,0.1l0,0.1l0,0.1l0,0.1l0,0.1l0,0.1l0,0.1l0,0.1l0,0.1l0,0.1l0,0.1l0,0.1l0,0.1l0,0.1l-0.4-0.2l0-0.1
		l0-0.1l0-0.1l0-0.1l0-0.1l0-0.1l0-0.1l0-0.1l0-0.1l0-0.1l-0.1-0.1l-0.1-0.1l-0.1-0.1l-0.1,0l-0.1,0l-0.1,0l-0.1,0l-0.1,0l-0.1,0
		l-0.1,0l-0.1,0l-0.1,0l-0.1,0l-0.1,0l-0.1,0l-0.1,0l-0.1,0l0,0l0,0l0,0l0,0l0,0.1l0,0l0,0l0,0l0,0l0,0l0,0l0,0l0,0l0,0l0,0.1
		l0.1,0.1l0.1,0.1l0.1,0.1l0.1,0.1l0.1,0.1l0.1,0.1l0.2,0.2l0.2,0.1l0.1,0.1l0.1,0.1l0.1,0.1l0,0l0.1,0.1l0,0.1l0,0.1l0,0.1l0,0.1
		l0,0.1l0,0.1l0,0.1l0,0.1l0,0.1v0.1l0,0.1l0,0.1l0,0.1l0,0.1l0,0.1l0,0.1l0,0.1l0,0.1l0,0.1l0,0.1l-0.1,0l-0.1,0l-0.1,0l-0.1,0
		l-0.1,0l-0.1,0l-0.1,0l-0.1,0l-0.1,0l-0.1,0l-0.1,0h-0.1l-0.1,0l-0.1,0l-0.1,0l-0.1,0l-0.1,0l-0.1,0l-0.1,0l-0.1-0.1l-0.1-0.1
		l-0.1-0.1l-0.1-0.1l-0.1-0.1l-0.1-0.1l-0.1-0.1l-0.1-0.1l-0.1-0.1l-0.1-0.1l0-0.1l0-0.1l0-0.1l0-0.1l0-0.1l0-0.1l0-0.1l0-0.1v-0.1
		l0-0.1l0-0.1l0-0.1L164.9-95L164.9-95L164.9-95z M168.5-91.8l1.7-2.8l-1-0.6l0.2-0.4l2.5,1.6l-0.2,0.4l-1-0.6l-1.7,2.8L168.5-91.8
		L168.5-91.8z M170.4-90.5l2.3-2.9l0.4,0.3l-2.3,2.9L170.4-90.5L170.4-90.5z M172.1-89l2.2-2.4l-0.9-0.8l0.3-0.3l2.1,2l-0.3,0.3
		l-0.9-0.8l-2.2,2.4L172.1-89L172.1-89z M178-87.9l0.3,0.4l-1.7,1.3l-0.1,0.1l-0.1,0.1l-0.1,0.1l-0.1,0.1l-0.1,0.1l-0.1,0l-0.1,0
		l-0.1,0l-0.1,0l-0.1,0l-0.1,0l-0.1,0l-0.1,0l-0.1,0l-0.1,0l-0.1,0l-0.1,0l-0.1,0l-0.1-0.1l-0.1-0.1l-0.1-0.1l-0.1-0.1l-0.1-0.1
		l-0.1-0.1l-0.1-0.1l-0.1-0.1l-0.1-0.1l-0.1-0.1l0-0.1l0-0.1l0-0.1l0-0.1l0-0.1l0-0.1v-0.1l0-0.1l0-0.1l0-0.1l0-0.1l0-0.1l0-0.1
		l0.1-0.1l0.1-0.1l0.1-0.1l0.1-0.1l0.1-0.1l0.1-0.1l0.1-0.1l1.7-1.3l0.3,0.4l-1.7,1.3L175-88l-0.1,0.1l-0.1,0.1l-0.1,0.1l-0.1,0.1
		l0,0.1l0,0.1l0,0.1l0,0.1l0,0.1l0,0.1l0,0.1l0,0.1l0,0.1l0,0.1l0,0.1l0,0.1l0,0.1l0,0.1l0,0.1l0,0.1l0,0.1l0,0.1l0,0.1l0.1,0.1
		l0.1,0.1l0,0l0,0l0,0l0,0l0,0l0,0l0,0l0,0l0,0l0,0l0,0l0,0l0,0l0,0l0,0l0,0l0,0l0,0l0.1,0l0.1,0l0.1,0l0.1,0l0.1,0l0.1,0l0.1-0.1
		l0.1-0.1L178-87.9L178-87.9z M176.2-83.6l2.9-1.5l-0.6-1.1l0.4-0.2l1.4,2.6l-0.4,0.2l-0.6-1.1l-2.9,1.5L176.2-83.6L176.2-83.6z
		 M177.3-81.6l3.5-1.2l0.9,2.5l-0.4,0.1l-0.7-2.1l-1.1,0.4l0.7,1.9l-0.4,0.1l-0.7-1.9l-1.2,0.4l0.7,2.1l-0.4,0.1L177.3-81.6
		L177.3-81.6z M156.4-94.7l-1.1,0l-1.1,0.1l-1.1,0.1l-1.1,0.2L151-94l-1,0.3l-1,0.3l-1,0.4l-1,0.4l-0.9,0.5l-0.9,0.5l-0.9,0.6
		l-0.9,0.6l-0.8,0.6l-0.8,0.7l-0.8,0.7l-0.7,0.8l-0.7,0.8L139-86l-0.6,0.9l-0.6,0.9l-0.5,0.9l-0.5,0.9l-0.4,1l-0.4,1l-0.3,1l-0.3,1
		l-0.2,1.1l-0.2,1.1l-0.1,1.1l-0.1,1.1l0,1.1l0,1.1l0.1,1.1l0.1,1.1l0.2,1.1l0.2,1.1l0.3,1l0.3,1l0.4,1l0.4,1l0.5,0.9l0.5,0.9
		l0.6,0.9l0.6,0.9l0.6,0.8l0.7,0.8l0.7,0.8l0.8,0.7l0.8,0.7l0.8,0.6l0.9,0.6l0.9,0.6l0.9,0.5l0.9,0.5l1,0.4l1,0.4l1,0.3l1,0.3
		l1.1,0.2l1.1,0.2l1.1,0.1l1.1,0.1l1.1,0l1.1,0l1.1-0.1l1.1-0.1l1.1-0.2l1.1-0.2l1-0.3l1-0.3l1-0.4l1-0.4l0.9-0.5l0.9-0.5l0.9-0.6
		l0.9-0.6l0.8-0.6l0.8-0.7l0.8-0.7l0.7-0.8l0.7-0.8l0.6-0.8l0.6-0.9l0.6-0.9l0.5-0.9l0.5-0.9l0.4-1l0.4-1l0.3-1l0.3-1l0.2-1.1
		l0.2-1.1l0.1-1.1l0.1-1.1l0-1.1l0-1.1l-0.1-1.1l-0.1-1.1l-0.2-1.1l-0.2-1.1l-0.3-1l-0.3-1l-0.4-1l-0.4-1l-0.5-0.9l-0.5-0.9
		l-0.6-0.9l-0.6-0.9l-0.6-0.8l-0.7-0.8l-0.7-0.8l-0.8-0.7l-0.8-0.7l-0.8-0.6l-0.9-0.6l-0.9-0.6l-0.9-0.5l-0.9-0.5l-1-0.4l-1-0.4
		l-1-0.3l-1-0.3l-1.1-0.2l-1.1-0.2l-1.1-0.1l-1.1-0.1L156.4-94.7L156.4-94.7z M166.2-68.8l0.1-0.3l0.1-0.3l0.1-0.2l0.1-0.2l0.1-0.2
		l0.1-0.2l0.1-0.2l0.1-0.2l0.1-0.2l0.1-0.2l0.1-0.2l0.1-0.1l0.1-0.1l0.1-0.1l0.1-0.1l0.1-0.1l0.1,0l0.1,0l0.1,0l0.1,0l0,0l0,0l0,0
		l0,0l-0.1,0.2l-0.1,0.2l-0.1,0.2l-0.1,0.2l-0.1,0.2l-0.1,0.2l-0.1,0.2l-0.1,0.2l-0.1,0.2l-0.1,0.2l-0.1,0.2l-0.1,0.2l-0.2,0.3
		L166.2-68.8L166.2-68.8z M167.9-72.1L167.9-72.1l0.1-0.1l0.1-0.1l0.1-0.1l0,0.1l0,0.1l0,0.1l0,0.1l0,0L167.9-72.1L167.9-72.1
		L167.9-72.1L167.9-72.1z M168.7-72.8l0.1-0.1L169-73l0.1-0.1l0.1-0.1l-0.1,0l-0.1,0l-0.1,0l-0.1,0l0-0.3l0-0.3l0-0.3l0-0.3l0-0.3
		l0-0.3l0-0.3l0-0.3l4.3,0.2l0,0.3l0,0.3l0,0.3l0,0.3l0,0.3l0,0.3l0,0.3l0,0.3l0,0.3l0,0.3l0,0.3l0,0.3l0,0.3l0,0.3l0,0.3l0,0.3
		l-0.3-0.1l-0.3-0.1l-0.3-0.1l-0.3-0.1l-0.3-0.1l-0.3-0.1l-0.3-0.1l-0.3-0.1l-0.3-0.1l-0.3-0.1l-0.3-0.1l-0.3-0.1l-0.3-0.1l-0.3-0.1
		l-0.3-0.1l-0.3-0.1l0-0.1l0-0.1l0-0.1l0-0.1l0-0.1l0-0.1l0-0.1L168.7-72.8L168.7-72.8z M168.3-73.3L168.3-73.3l-0.2-0.1l-0.1,0
		l-0.1,0l-0.2-0.1l-0.2-0.1l-0.3-0.2l-0.3-0.1L167-74l-0.1-0.1l-0.1,0l-0.1,0l-0.1,0l-0.1,0l-0.1,0l-0.1,0l-0.1,0l-0.1,0l-0.1,0
		h-0.1l-0.1,0l-0.1,0l-0.1,0.1l-0.1,0.1l-0.1,0.1l-0.1,0.1l-0.1,0.1l-0.1,0.1l-0.1,0.1l-0.1,0.1l-0.1,0.1l-0.1,0.1l-0.1,0.1
		l-0.1,0.1l-0.1,0.1l-0.1,0.1l-0.1,0.1l-0.1,0.1l-0.2,0l-0.2,0l-0.2,0l-0.2,0l-0.2,0l-0.2,0l-0.2,0l-0.2,0l-0.2,0l-0.2,0l-0.2,0
		l-0.2,0l-0.2,0l-0.2,0l-0.2,0l-0.2,0l0,0l0,0l0-0.2l0-0.2l0-0.2l0-0.2l0-0.2l0-0.2l0-0.2l0-0.2l0-0.2l0-0.2l0-0.2l0-0.2l0-0.2
		l0-0.2l0-0.2l0-0.2l8.1,0.5v0.3l0,0.3l0,0.3l0,0.3l0,0.3l0,0.3l0,0.3L168.3-73.3L168.3-73.3z M164.2-72.2L164.2-72.2l-0.2,0.3
		l-0.2,0.3l-0.2,0.2l-0.2,0.2l-0.2,0.2l-0.2,0.2l-0.2,0.2l-0.2,0.2l-0.2,0.2l-0.2,0.2l-0.2,0.2l-0.2,0.1l-0.2,0.1l-0.2,0.1l-0.2,0.1
		l-0.2,0.1l-0.2-0.3l-0.2-0.3l-0.1-0.3l-0.1-0.3l-0.1-0.2l-0.1-0.2l-0.1-0.2l-0.1-0.2l-0.1-0.2l-0.1-0.2l-0.1-0.2l0-0.2l0.2,0l0.2,0
		l0.2,0l0.2,0l0.2,0l0.2,0l0.2,0l0.2,0l0.2,0l0.2,0l0.2,0l0.2,0l0.2,0l0.2,0h0.2L164.2-72.2L164.2-72.2z M161.3-69l-0.2,0.1
		l-0.2,0.1l-0.2,0.1l-0.2,0.1l-0.2,0.1l-0.2,0l-0.2,0l-0.2,0l-0.2,0l-0.2,0h-0.2l-0.2,0l-0.2,0l-0.2,0l-0.2,0l-0.2,0l-0.2-0.1
		l-0.2-0.1l-0.2-0.1l-0.2-0.1l-0.2-0.1l-0.2-0.1l-0.2-0.1l-0.2-0.1l-0.2-0.1l-0.2-0.1l-0.2-0.2l-0.2-0.2l-0.2-0.2l-0.2-0.2l-0.2-0.2
		l-0.2-0.2l0.3-0.1l0.3-0.1l0.3-0.1l0.3-0.1l0.3-0.1l0.3-0.1l0.3-0.1l0.3-0.1l0.3-0.1l0.3-0.1l0.3-0.1l0.3-0.1l0.3-0.1l0.3-0.1
		l0.3-0.1l0.3-0.1l0,0.2l0.1,0.2l0.1,0.2l0.1,0.2l0.1,0.2l0.1,0.2l0.1,0.2l0.1,0.2l0.2,0.3l0.2,0.3l0.2,0.3L161.3-69L161.3-69z
		 M155.4-71.1l-0.1-0.1l-0.1-0.1l-0.1-0.1l0-0.1l0-0.1l0-0.1l0-0.1l0-0.1l0-0.1l0-0.1l0-0.2l0-0.1l0-0.2l0-0.2l0-0.2l0-0.2l0-0.2
		l0-0.2v-0.2V-74l0-0.2l0-0.2l0-0.2l0-0.2l0-0.2l0-0.2l0-0.2l0-0.2l0-0.2l0-0.2l0-0.2l0-0.2l4.8,0.3l0,0.2l0,0.2l0,0.2l0,0.2l0,0.2
		l0,0.2v0.2l0,0.2l0,0.2l0,0.2l0,0.2l0,0.2l0,0.2l0,0.2l0,0.2l0,0.2l0,0l0,0l-0.3,0.1l-0.3,0.1l-0.3,0.1l-0.3,0.1l-0.3,0.1l-0.3,0.1
		l-0.3,0.1l-0.3,0.1l-0.3,0.1l-0.3,0.1l-0.3,0.1l-0.3,0.1l-0.3,0.1l-0.3,0.1l-0.3,0.1L155.4-71.1L155.4-71.1z M155.2-76.6l0-0.1
		l0-0.2l0-0.1l0-0.1l0.1-0.1l0.1-0.1l0.1-0.1l0.1-0.1l0.1-0.1l0.1-0.1l0.1-0.1l0.1-0.1l0.1-0.1l0.1-0.1l0.1-0.1l0.1-0.1l0.1-0.1
		l0.1-0.1l0.1-0.1l0.1-0.1l0.1-0.1l0.1-0.1L157-80l0.1-0.1l0.1-0.1l0.1-0.1l0.1-0.1l0.2-0.1l0.2-0.1l0.2-0.1l0.2-0.1l0.2-0.1
		l0.2,0.1l0.2,0.1L159-81l0.2,0.1l0.2,0.1l0.2,0.1l0.2,0.1l0.2,0.1l0.2,0.1l0.2,0.1l0.2,0.1l0.2,0.1l0.2,0.1l0.2,0.1l0.2,0.1
		l0.2,0.1l-0.1,0.2l-0.1,0.2l-0.1,0.2l-0.1,0.2l-0.1,0.2l-0.1,0.2l-0.1,0.2l-0.1,0.2l-0.1,0.2l-0.1,0.2l-0.1,0.2l-0.1,0.2l-0.1,0.2
		l-0.1,0.2l-0.1,0.2l-0.1,0.2l0,0.1l0,0.1l0,0.1l0,0.1l0,0.1l0,0.1l0,0.1l0,0.1L155.2-76.6L155.2-76.6z M158.9-81.6l0.1-0.1l0.1-0.1
		l0.1-0.1l0.2-0.1l0.2-0.1l0.2-0.1l0.2-0.1l0.2-0.1l0.2-0.1l0.2-0.1l0.2-0.1l0.2-0.1l0.2-0.1l0.2-0.1l0.2,0l0.2,0l0.2,0l0.2,0l0.2,0
		l0.2,0l0.2,0l0.2,0l0.2,0l0.2,0l0.2,0l0.2,0l0.2,0l0.2,0l0.4,0l0.4,0l-0.3,0.2l-0.3,0.2l-0.1,0.1l-0.1,0.1l-0.1,0.1l-0.1,0.1
		l-0.1,0.1L163-82l-0.1,0.1l-0.1,0.1l-0.1,0.1l-0.1,0.1l-0.1,0.1l-0.1,0.1l-0.1,0.1l-0.1,0.1l-0.1,0.1l-0.1,0.2l-0.4-0.1l-0.4-0.1
		l-0.4-0.1l-0.4-0.1l-0.4-0.1l-0.4-0.1l-0.4-0.1L158.9-81.6L158.9-81.6z M165.8-82.8l0.3,0.1l0.3,0.1l0.3,0.1l0.3,0.1l0.3,0.1
		l0.3,0.1l0.3,0.1L168-82l0.3,0.1l0.2,0.1l0.2,0.2l0.2,0.2l0.2,0.2l0.2,0.2l0.2,0.2l0.2,0.2l-0.3,0l-0.3,0l-0.3,0l-0.3,0l-0.3,0
		l-0.3,0l-0.3,0l-0.3,0l-0.1-0.1l-0.1-0.1l-0.1-0.1l-0.1-0.1l-0.1-0.1l-0.1-0.1l-0.1-0.1l-0.1-0.1l-0.1-0.2l-0.2-0.2l-0.2-0.2
		l-0.2-0.2l-0.1-0.1l-0.1-0.1l-0.1-0.1l-0.1-0.1l-0.1-0.1l-0.1-0.1l-0.1-0.1L165.8-82.8L165.8-82.8z M170.3-80.3l0.1,0.1l0.1,0.1
		l0.1,0.1l0.1,0.1l0.1,0.1l0.1,0.1l0.1,0.1l0.1,0.1l0.1,0.1l0.1,0.1l0.1,0.1l0.1,0.1l0.1,0.1l0.1,0.1l0.1,0.1l0.1,0.1l0.1,0.1
		l0.1,0.2l0.1,0.2l0.1,0.2l0.1,0.2l0.1,0.2l0.1,0.2l0.1,0.2l0.1,0.2l0.1,0.2l0.1,0.2l0.1,0.2L173-76l0.1,0.4l-4.2-0.2l0-0.3l0-0.3
		l0-0.3l0-0.3l0-0.3l-0.1-0.3l-0.1-0.3l-0.1-0.3l-0.1-0.3l-0.1-0.3l-0.1-0.3l-0.1-0.3l-0.1-0.3l-0.1-0.2l-0.1-0.2l-0.1-0.2l0.3,0
		l0.3,0l0.3,0l0.3,0l0.3,0l0.3,0l0.3,0L170.3-80.3L170.3-80.3z M160.5-76.3L160.5-76.3l0-0.2l0-0.1l0-0.1l0-0.1l0-0.1l0-0.1l0-0.1
		l0.1-0.2l0.1-0.2l0.1-0.2l0.1-0.2L161-78l0.1-0.2l0.1-0.2l0.1-0.2l0.1-0.2l0.1-0.2l0.1-0.2l0.1-0.2l0.1-0.2l0.1-0.2l0.1-0.2
		l0.1-0.2l0.3,0.1l0.3,0.1l0.3,0.1l0.3,0l0.3,0l0.3,0l0.3,0l0.3,0l0.2,0l0.2,0l0.2,0h0.2l0.2,0l0.2,0l0.2,0l0.2,0l0.2,0l0.2,0l0.2,0
		l0.2,0l0.2,0l0.2,0l0.2,0l0.2,0l0.1,0.2l0.1,0.2l0.1,0.2l0.1,0.2l0.1,0.2l0.1,0.2l0.1,0.3l0.1,0.3l0.1,0.3l0.1,0.3l0,0.3l0,0.3
		l0,0.3l0,0.3l0,0.3l0,0.3L160.5-76.3L160.5-76.3z M162.4-80.6L162.4-80.6l0.2-0.2l0.1-0.1l0.1-0.1l0.1-0.1l0.1-0.1l0.1-0.1l0.1-0.1
		l0.1-0.1l0.1-0.1l0.1-0.1l0.1-0.1l0.1-0.1l0.2-0.1l0.2-0.1l0.2-0.1l0.3-0.2l0.3-0.2l0.2,0.1l0.2,0.1l0.2,0.1l0.2,0.1l0.2,0.1
		l0.1,0.1l0.1,0.1l0.1,0.2l0.1,0.2l0.1,0.2l0.1,0.2l0.1,0.2l0.1,0.2l0.1,0.2l0.1,0.2l0.1,0.2l-0.4,0l-0.4,0l-0.4,0l-0.4,0l-0.4,0
		h-0.4l-0.2,0l-0.2,0l-0.2,0l-0.2,0l-0.2,0l-0.2,0l-0.2,0l-0.2,0l-0.2,0l-0.2,0l-0.2,0L162.4-80.6z"/>
</g>
</svg>
