<?xml version="1.0" encoding="utf-8"?>
<!-- Generator: Adobe Illustrator 18.1.1, SVG Export Plug-In . SVG Version: 6.00 Build 0)  -->
<!DOCTYPE svg PUBLIC "-//W3C//DTD SVG 1.1//EN" "http://www.w3.org/Graphics/SVG/1.1/DTD/svg11.dtd">
<svg version="1.1" id="Capa_1" xmlns="http://www.w3.org/2000/svg" xmlns:xlink="http://www.w3.org/1999/xlink" x="0px" y="0px"
	 width="75px" height="75px" viewBox="32 -31 75 75" enable-background="new 32 -31 75 75" xml:space="preserve">
<path fill="#6B6B6B" d="M36.9-20.9c0.3,1.7,0.8,1.4,0.8,1.4C38.2-19.8,36.9-20.9,36.9-20.9z"/>
<g>
	<g>
		<path fill="#6B6B6B" d="M36.3-26.6v-1.1c-0.6,0.3-1.4,0.6-2.2,0.8l-0.5,0.1v-0.7h-0.4v0.9H32v-1h0.2v-2H32v-1h0.2V-31h1v0.5h0.4
			V-31h1v0.5h0.2V-31h1v1.4h-1.3v1.6c0.6-0.2,1.3-0.5,1.8-0.8v-1.8V-31h0.4l-0.1,0.1l1.1,1.1c0.4-0.3,0.7-0.7,1-1.1c0,0,0,0-0.1-0.1
			h0.1h1.2c0,0,0,0,0,0.1c0.7,1.1,1.2,2.4,1.4,3.8l0.1,0.5H36.3z M37.3-27.5h3c-0.2-0.9-0.5-1.8-1-2.6c-0.3,0.3-0.6,0.6-0.9,0.9
			l0.4,0.4l-0.7,0.7l-0.5-0.5c-0.1,0.1-0.2,0.2-0.3,0.3V-27.5z M33.6-29.6h-0.4v1.1h0.4V-29.6z"/>
	</g>
</g>
<g>
	<path fill="#6B6B6B" d="M32-25.2L32-25.2v0.1C32-25.1,32-25.1,32-25.2c1.8,5,0.1,4.9,0,4.9v2.9l0,0c1.1,0,2-0.9,2-2
		c0-0.1,0-0.1,0-0.2c0.4,0.1,0.8,0,1.2-0.2c1-0.5,1.4-1.7,0.9-2.7C35.4-24,32.1-25.2,32-25.2z"/>
</g>
<g>
	<g>
		<path fill="#6B6B6B" d="M38.3-19.6C38.3-19.6,38.3-19.5,38.3-19.6c0.2,0.4,0.1,0.8-0.2,0.9c-0.3,0.2-0.7,0-0.8-0.3c0,0,0,0,0-0.1
			C37.2-19,37.1-19,37-19c-0.3,0-0.6-0.3-0.7-0.7c-0.1-0.6,0.6-1.4,0.7-1.4c0,0,1.1-0.2,1.6,0.2c0.3,0.2,0.4,0.6,0.2,0.9
			C38.5-19.7,38.4-19.6,38.3-19.6z M36.9-20.9c0.3,1.7,0.8,1.4,0.8,1.4C38.2-19.8,36.9-20.9,36.9-20.9z"/>
	</g>
</g>
<g>
	<path fill="#6B6B6B" d="M41.9-20c2-3.3-0.2-6.4-3.3-6c-2.8,0.4-2.7,3.1-1.8,4.1c1,1.2,3,0.7,2.9-0.7c-0.1-1.7-2.1-1-2.1-1
		c0-0.7,1.1-1.2,2.2-1c1.5,0.3,2.4,3.4-1,5.9c-2.1,1.6-4.8,1.9-6.3,1.9c0,0-0.2,0-0.5,0l0,0v1.3l0,0h0.1h0.1c0.2,0,0.5,0,0.8,0
		c-0.3,0.3-0.7,0.7-1,1.2l0,0v2.1l0,0l0,0c0.2-0.5,1.4-3,3.6-3.6c1.6-0.4,2.5,0.2,2.5,1.3c0,0,1.2-1.4-0.1-2.1
		c0.6-0.3,1.2-0.6,1.7-1l0,0c0.6-0.4,2.4-1.8,2.9-1.2c0,0-0.8,0.8-0.2,1.5c0.6,0.7,1.9,0.4,2.1-0.8C44.6-18.5,44.3-20.5,41.9-20z"/>
</g>
<g>
	<g>
		<path fill="#6B6B6B" d="M106.6-29.6v2.1h0.4v1h-1.3v-1h-0.4v0.8l-0.6-0.1c-0.8-0.2-1.5-0.5-2.2-0.8v1.2h-5l0.1-0.5
			c0.2-1.4,0.7-2.7,1.4-3.8c0,0,0,0,0-0.1h1.2h0.1c0,0,0,0-0.1,0.1c0.3,0.4,0.6,0.8,1,1.1l1.1-1.1l-0.1-0.3h0.4v0.4v1.8
			c0.6,0.3,1.2,0.6,1.8,0.8v-1.6h-1.2V-31h1v0.5h0.2V-31h1v0.5h0.4V-31h1v0.5h0.2v1h-0.4V-29.6z M101.6-28.3
			c-0.1-0.1-0.2-0.2-0.4-0.3l-0.4,0.4l-0.7-0.7l0.4-0.4c-0.3-0.3-0.6-0.6-0.9-0.9c-0.5,0.8-0.8,1.7-1,2.6h3V-28.3z M105.7-29.6h-0.4
			v1.1h0.4V-29.6z"/>
	</g>
</g>
<g>
	<path fill="#6B6B6B" d="M102.8-22.4c-0.4,1-0.1,2.2,0.9,2.7c0.4,0.2,0.8,0.2,1.2,0.2c0,0.1,0,0.1,0,0.2c0,1.1,0.9,2,2,2h0.1v-2.9
		h-0.1c0,0-1.8,0.2,0-4.8c0,0,0,0.1,0.1,0.3v-0.5c-0.1,0-0.1,0-0.1,0C106.7-25.2,103.5-24,102.8-22.4z"/>
</g>
<g>
	<g>
		<path fill="#6B6B6B" d="M100.6-19.5C100.6-19.5,100.6-19.6,100.6-19.5c-0.1-0.1-0.2-0.2-0.3-0.3c-0.2-0.3-0.1-0.7,0.2-0.9
			c0.4-0.4,1.5-0.3,1.5-0.2c0,0,0.7,0.8,0.7,1.4c0,0.4-0.3,0.7-0.7,0.7c-0.1,0-0.2,0-0.3-0.1c0,0,0,0,0,0.1
			c-0.2,0.3-0.6,0.5-0.8,0.3C100.5-18.8,100.4-19.2,100.6-19.5z M101.2-19.5c0,0,0.5,0.3,0.8-1.4C102-20.9,100.7-19.8,101.2-19.5z"
			/>
	</g>
</g>
<g>
	<path fill="#6B6B6B" d="M106.8-15.4L106.8-15.4c0.1,0,0.1,0,0.2,0l0,0v-1.3h-0.1c-0.3,0-0.5,0-0.5,0c-1.5,0-4.2-0.3-6.3-1.9
		c-3.4-2.5-2.5-5.5-1-5.9c1.1-0.2,2.2,0.2,2.2,1c0,0-2-0.6-2.1,1c-0.1,1.4,1.9,1.9,2.9,0.7c0.9-1,1-3.8-1.9-4.2
		c-3-0.4-5.2,2.7-3.3,6c-2.4-0.5-2.6,1.4-2.6,1.9c0.2,1.2,1.5,1.5,2.1,0.8c0.7-0.7-0.2-1.5-0.2-1.5c0.4-0.6,2.2,0.8,2.9,1.2l0,0
		c0.5,0.4,1.1,0.7,1.7,1c-1.3,0.7-0.1,2.1-0.1,2.1c0-1.1,0.9-1.7,2.5-1.3c2.2,0.6,3.4,3.1,3.6,3.6l0,0l0,0c0-0.1,0.1-0.1,0.1-0.2
		v-2.1c0,0.1-0.1,0.1-0.1,0.2c-0.3-0.5-0.6-0.9-1-1.2C106.2-15.5,106.5-15.5,106.8-15.4C106.7-15.4,106.8-15.4,106.8-15.4z"/>
</g>
<g>
	<g>
		<path fill="#6B6B6B" d="M41.3,40.1c-0.2,1.4-0.7,2.7-1.4,3.8c0,0,0,0,0,0.1h-1.1h-0.2c0,0,0,0,0.1-0.1c-0.3-0.4-0.6-0.8-1-1.1
			l-1.1,1.1l0.1,0.1h-0.4v-0.4v-1.8c-0.6-0.3-1.2-0.6-1.8-0.8v1.6h1.2V44h-1v-0.5h-0.2V44h-1v-0.5h-0.3V44h-1v-0.5H32v-1h0.2v-2.1
			H32v-1h1.2v0.9h0.4v-0.8l0.6,0.1c0.8,0.2,1.5,0.5,2.2,0.8v-1.1h5L41.3,40.1z M33.6,41.5h-0.4v1.1h0.4V41.5z M40.3,40.5h-3v0.8
			c0.1,0.1,0.2,0.2,0.4,0.3l0.4-0.4l0.7,0.7l-0.4,0.4c0.3,0.3,0.6,0.6,0.9,0.9C39.7,42.3,40.1,41.4,40.3,40.5z"/>
	</g>
</g>
<g>
	<path fill="#6B6B6B" d="M36.1,35.4c0.4-1,0.1-2.2-0.9-2.7c-0.4-0.2-0.8-0.2-1.2-0.2c0-0.1,0-0.1,0-0.2c0-1.1-0.9-2-2-2l0,0v2.9
		c0.1,0,1.8-0.1,0,4.8l0,0v0.1l0,0C32.1,38.2,35.4,37,36.1,35.4z"/>
</g>
<g>
	<g>
		<path fill="#6B6B6B" d="M38.3,32.5C38.3,32.5,38.3,32.6,38.3,32.5c0.1,0.1,0.2,0.2,0.3,0.3c0.2,0.3,0.1,0.7-0.2,0.9
			c-0.4,0.4-1.5,0.3-1.5,0.2c0,0-0.7-0.8-0.7-1.4c0-0.4,0.3-0.7,0.7-0.7c0.1,0,0.2,0,0.3,0.1c0,0,0,0,0-0.1c0.2-0.3,0.6-0.5,0.8-0.3
			C38.4,31.8,38.5,32.2,38.3,32.5z M37.7,32.5c0,0-0.5-0.3-0.8,1.4C36.9,33.9,38.2,32.8,37.7,32.5z"/>
	</g>
</g>
<g>
	<path fill="#6B6B6B" d="M44.5,31c-0.2-1.2-1.5-1.5-2.1-0.8c-0.7,0.7,0.2,1.5,0.2,1.5c-0.4,0.6-2.2-0.8-2.8-1.2l0,0
		c-0.5-0.4-1.1-0.7-1.7-1c1.3-0.7,0.1-2.1,0.1-2.1c0,1.1-0.9,1.7-2.5,1.3c-2.2-0.6-3.4-3.1-3.6-3.6l0,0l0,0v2.1l0,0
		c0.3,0.5,0.6,0.9,1,1.2c-0.3,0-0.6,0-0.8,0h-0.1h-0.1l0,0v1.3l0,0c0.3,0,0.5,0,0.5,0c1.5,0,4.2,0.3,6.3,1.9c3.4,2.5,2.5,5.5,1,5.9
		c-1.1,0.2-2.2-0.2-2.2-1c0,0,2,0.6,2.1-1c0.1-1.4-1.9-1.9-2.9-0.7c-0.9,1-1,3.8,1.9,4.2c3,0.4,5.2-2.7,3.3-6
		C44.3,33.5,44.6,31.5,44.5,31z"/>
</g>
<g>
	<g>
		<path fill="#6B6B6B" d="M106.6,40.5v2.1h0.4v1h-0.3V44h-1v-0.5h-0.4V44h-1v-0.5h-0.2V44h-1v-1.4h1.2V41c-0.6,0.2-1.3,0.5-1.8,0.8
			v1.8V44h-0.4l0.1-0.1l-1.1-1.1c-0.4,0.3-0.7,0.7-1,1.1c0,0,0,0,0.1,0.1h-0.1H99c0,0,0,0,0-0.1c-0.7-1.1-1.2-2.4-1.4-3.8l-0.1-0.5
			h5v1.2c0.7-0.4,1.4-0.6,2.2-0.8l0.6-0.1v0.8h0.4v-0.9h1.3v1h-0.4V40.5z M101.6,40.5h-3c0.2,0.9,0.5,1.8,1,2.6
			c0.3-0.3,0.6-0.6,0.9-0.9l-0.4-0.4l0.7-0.7l0.4,0.4c0.1-0.1,0.2-0.2,0.4-0.3V40.5z M105.7,41.5h-0.4v1.1h0.4V41.5z"/>
	</g>
</g>
<g>
	<path fill="#6B6B6B" d="M106.9,38.2L106.9,38.2l0.1-0.4C106.9,38,106.9,38.1,106.9,38.2c-1.8-5.2,0-4.9,0-4.9h0.1v-2.9h-0.1
		c-1.1,0-2,0.9-2,2c0,0.1,0,0.1,0,0.2c-0.4-0.1-0.8,0-1.2,0.2c-1,0.5-1.4,1.7-0.9,2.7C103.5,37,106.7,38.2,106.9,38.2z"/>
</g>
<g>
	<g>
		<path fill="#6B6B6B" d="M100.6,32.6C100.6,32.6,100.6,32.5,100.6,32.6c-0.2-0.4-0.1-0.8,0.2-0.9c0.3-0.2,0.7,0,0.8,0.3
			c0,0,0,0,0,0.1c0.1-0.1,0.2-0.1,0.3-0.1c0.3,0,0.6,0.3,0.7,0.7c0.1,0.6-0.6,1.4-0.7,1.4c0,0-1.1,0.2-1.6-0.2
			c-0.3-0.2-0.4-0.6-0.2-0.9C100.3,32.7,100.5,32.6,100.6,32.6z M102,33.9c-0.3-1.7-0.8-1.4-0.8-1.4C100.7,32.8,102,33.9,102,33.9z"
			/>
	</g>
</g>
<g>
	<path fill="#6B6B6B" d="M106.9,27.2c0,0.1,0.1,0.1,0.1,0.2v-2.1c0-0.1-0.1-0.2-0.1-0.2l0,0l0,0c-0.2,0.5-1.4,3-3.6,3.6
		c-1.6,0.4-2.5-0.2-2.5-1.3c0,0-1.2,1.4,0.1,2.1c-0.6,0.3-1.2,0.6-1.7,1l0,0c-0.6,0.4-2.4,1.8-2.9,1.2c0,0,0.8-0.8,0.2-1.5
		c-0.6-0.7-1.9-0.4-2.1,0.8c-0.1,0.5,0.2,2.5,2.6,1.9c-2,3.3,0.2,6.4,3.3,6c2.9-0.4,2.8-3.1,1.9-4.2c-1-1.2-3-0.7-2.9,0.7
		c0.1,1.7,2.1,1,2.1,1c0,0.7-1.1,1.2-2.2,1c-1.5-0.3-2.4-3.4,1-5.9c2.1-1.6,4.8-1.9,6.3-1.9c0,0,0.2,0,0.5,0h0.1v-1.3l0,0H107h-0.1
		h-0.1c-0.2,0-0.5,0-0.8,0C106.2,28.2,106.6,27.8,106.9,27.2z"/>
</g>
<g>
	<path fill="#6B6B6B" d="M70.6-5.6v7H77l-3.3-3.3L72.8-1l1.1,1.1H72V-4c4.2,0.9,7.6,4,8.8,8H72v3.2h9.5v0.6H72V11h8.8
		c-1.3,4.1-4.7,7.2-8.8,8v-4.2h1.9L72.7,16l0.9,0.9l3.3-3.3h-6.5v7l0.8-0.1c5.3-0.8,9.7-4.8,10.9-10l0.2-0.8h-9.2V9.2h9.5V5.9h-9.5
		V5.4h9.2l-0.2-0.8c-1.2-5.2-5.6-9.3-10.9-10L70.6-5.6z"/>
</g>
<g>
	<path fill="#6B6B6B" d="M65.3,16.9l0.9-0.9l-1.1-1.1H67v4.2c-4.2-0.9-7.6-4-8.8-8H67V7.9h-9.5V7.3H67V4h-8.8c1.3-4.1,4.7-7.2,8.8-8
		v4.2h-1.9l1.1-1.1l-0.9-0.9L62,1.5h6.5v-7l-0.8,0.1c-5.3,0.8-9.7,4.8-10.9,10l-0.2,0.8h9.2v0.5h-9.5v3.3h9.5v0.5h-9.2l0.2,0.8
		c1.2,5.2,5.6,9.3,10.9,10l0.8,0.1v-7H62L65.3,16.9z"/>
</g>
<g>
	<g>
		<path fill="#6B6B6B" d="M71.4,12.7h-3.8V2.4h3.8V12.7z M70.1,3.7H69v7.6h1.1V3.7z"/>
	</g>
</g>
<g>
	<g>
		<path fill="#6B6B6B" d="M64.8-9.5c-0.5-1.1-0.1-2.4,1-3c0.5-0.2,1-0.3,1.5-0.2c0-0.1,0-0.2,0-0.3c0-1.2,1-2.2,2.2-2.2
			s2.2,1,2.2,2.2c0,0.1,0,0.1,0,0.2c0.4-0.1,0.9,0,1.3,0.2c1.1,0.5,1.5,1.9,1,3c-0.8,1.7-4.4,3.1-4.5,3C69.4-6.5,65.6-7.8,64.8-9.5z
			 M69.5-6.6c2-5.6,0-5.4,0-5.4C67.4-11.9,69.5-6.6,69.5-6.6z"/>
	</g>
</g>
<g>
	<g>
		<path fill="#6B6B6B" d="M64.9-12.8c0.1,0.6-0.7,1.5-0.7,1.5s-1.2,0.2-1.7-0.2c-0.3-0.2-0.4-0.7-0.2-1c0.1-0.1,0.2-0.2,0.4-0.3
			v-0.1c-0.2-0.4-0.1-0.8,0.2-1c0.3-0.2,0.7,0,0.9,0.3c0,0,0,0,0,0.1c0.1-0.1,0.2-0.1,0.4-0.1C64.5-13.5,64.8-13.2,64.9-12.8z
			 M64.1-11.3c-0.3-1.9-0.8-1.6-0.8-1.6C62.7-12.5,64.1-11.3,64.1-11.3z"/>
	</g>
</g>
<g>
	<g>
		<path fill="#6B6B6B" d="M74.2-12.8c0-0.4,0.4-0.7,0.7-0.7c0.1,0,0.3,0,0.4,0.1c0,0,0,0,0-0.1c0.2-0.4,0.6-0.5,0.9-0.3
			c0.3,0.2,0.4,0.6,0.2,1c0,0,0,0,0,0.1c0.1,0,0.3,0.1,0.4,0.3c0.2,0.3,0.1,0.8-0.2,1c-0.5,0.4-1.7,0.2-1.7,0.2
			C74.9-11.2,74.1-12.1,74.2-12.8z M74.9-11.3c0,0,1.4-1.2,0.8-1.6C75.8-12.8,75.3-13.2,74.9-11.3z"/>
	</g>
</g>
<g>
	<g>
		<path fill="#6B6B6B" d="M80.5-12.3c0.8,1.3,1,2.6,0.8,3.6c-1,0.6-1.7,1.5-1.9,2.6c-0.7,0.4-1.6,0.6-2.5,0.4
			c-3.2-0.4-3.1-3.5-2.1-4.6c1.1-1.3,3.3-0.8,3.2,0.8c-0.1,1.9-2.3,1.1-2.3,1.1c0,0.8,1.2,1.3,2.5,1.1c1.7-0.4,2.6-3.8-1.1-6.5
			c-2.4-1.7-5.3-2.1-7-2.1c0,0-0.2,0-0.6,0c-0.4,0-0.6,0-0.6,0c-1.6,0-4.6,0.4-7,2.1c-3.7,2.8-2.8,6.1-1.1,6.5
			c1.3,0.3,2.5-0.3,2.5-1.1c0,0-2.2,0.7-2.3-1.1c-0.1-1.5,2.1-2.1,3.2-0.8c1,1.1,1.1,4.2-2.1,4.6c-0.9,0.1-1.8-0.1-2.5-0.5
			c-0.2-1.1-0.9-2-1.8-2.6c-0.2-1.1,0-2.4,0.7-3.7c-2.6,0.6-2.9-1.6-2.8-2.1c0.2-1.3,1.6-1.6,2.3-0.8c0.7,0.8-0.2,1.6-0.2,1.6
			c0.5,0.7,2.5-0.9,3.2-1.3l0,0c0.6-0.4,1.2-0.8,1.9-1.1c-1.4-0.7-0.1-2.3-0.1-2.3c-0.1,1.2,1,1.9,2.7,1.4c2.4-0.6,3.8-3.4,4-4l0,0
			l0,0c0.2,0.5,1.5,3.3,4,4c1.8,0.5,2.8-0.2,2.7-1.4c0,0,1.3,1.6-0.1,2.3c0.7,0.3,1.3,0.6,1.9,1.1l0,0c0.7,0.4,2.7,2,3.2,1.3
			c0,0-0.9-0.8-0.2-1.6c0.7-0.8,2.1-0.5,2.3,0.8C83.4-13.9,83.2-11.7,80.5-12.3z M70.6-17.3c-0.4-0.3-0.7-0.8-1.1-1.4
			c-0.3,0.6-0.7,1-1.1,1.4c0.3,0,0.6,0,0.9,0h0.1h0.1h0.1h0.1C69.9-17.3,70.2-17.3,70.6-17.3z"/>
	</g>
</g>
<g>
	<g>
		<path fill="#6B6B6B" d="M56.2,3.2c0,0.2-2.4,3.3-4.3,3.6c-1.2,0.2-2.3-0.7-2.5-1.9c-0.1-0.5,0-1.1,0.3-1.5c-0.1,0-0.2,0-0.2-0.1
			c-1.2-0.4-1.8-1.6-1.4-2.8c0.4-1.2,1.6-1.8,2.8-1.5C51-1,51-1,51.1-0.9c0.1-0.4,0.3-0.8,0.6-1.2C52.5-3,53.9-3,54.8-2.2
			C56.1-0.8,56.2,3,56.2,3.2z M56.1,3.1C51.3-0.5,51,1.5,51,1.5C50.4,3.6,56.1,3.1,56.1,3.1z"/>
	</g>
</g>
<g>
	<g>
		<path fill="#6B6B6B" d="M50,6.9c0,0-0.2,1.2-0.7,1.6c-0.3,0.2-0.8,0.2-1-0.1c-0.1-0.1-0.1-0.3-0.1-0.4h-0.1
			c-0.4,0.1-0.8-0.2-0.8-0.5c-0.1-0.4,0.2-0.7,0.6-0.8c0,0,0,0,0.1,0c0-0.1,0-0.3,0-0.4c0.1-0.4,0.5-0.6,0.9-0.5
			C49.4,5.8,50,6.8,50,6.9z M50,6.9c-1.9-0.3-1.7,0.3-1.7,0.3C48.4,7.9,50,6.9,50,6.9z"/>
	</g>
</g>
<g>
	<g>
		<path fill="#6B6B6B" d="M51.3-4.5c-0.3-0.3-0.3-0.7,0-1s0.7-0.2,1,0.1c0,0,0,0,0.1,0.1c0.1-0.1,0.2-0.2,0.4-0.3
			c0.4-0.1,0.8,0.1,0.9,0.5c0.2,0.6-0.3,1.7-0.3,1.7s-1.1,0.5-1.7,0.2c-0.4-0.2-0.6-0.6-0.5-0.9C51.2-4.2,51.3-4.3,51.3-4.5
			C51.4-4.4,51.3-4.4,51.3-4.5z M53.3-3.4c0,0-0.8-1.7-1.2-1.3C52-4.7,51.5-4.3,53.3-3.4z"/>
	</g>
</g>
<g>
	<g>
		<path fill="#6B6B6B" d="M59.3-3.6c-1.4,2.9-4.2,1.9-5,0.6c-0.9-1.5,0.3-3.4,1.7-2.8c1.7,0.6,0.4,2.6,0.4,2.6C57.2-3,58-4,58.2-5.3
			c0.2-1.7-2.8-3.6-6.5-0.9c-2.4,1.7-3.6,4.5-4.1,6c0,0-0.1,0.2-0.2,0.6C47.3,0.8,47.2,1,47.2,1c-0.5,1.6-1,4.5-0.1,7.3
			c1.5,4.4,5,4.5,5.9,3c0.6-1.1,0.5-2.4-0.3-2.7c0,0,0,2.3-1.8,1.9c-1.5-0.4-1.3-2.6,0.2-3.3c1.4-0.6,4.3,0.2,3.8,3.4
			c-0.2,0.9-0.6,1.7-1.2,2.2c-1.1-0.1-2.2,0.2-3,1c-1.1-0.1-2.2-0.7-3.2-1.8c-0.2,2.7-2.4,2.3-2.9,2c-1.2-0.6-1-2-0.1-2.5
			c1-0.5,1.5,0.7,1.5,0.7c0.8-0.2-0.1-2.6-0.3-3.4l0,0c-0.2-0.7-0.4-1.4-0.5-2.1c-1.1,1.1-2.3-0.6-2.3-0.6C44,6.5,45,5.7,45.1,3.9
			c0.1-2.5-2.1-4.6-2.6-5l0,0l0,0c0.6-0.1,3.6-0.5,5-2.6c1-1.5,0.6-2.7-0.5-3c0,0,1.9-0.7,2.2,0.8c0.5-0.5,1-1,1.6-1.5l0,0
			c0.6-0.5,2.7-1.9,2.2-2.6c0,0-1.1,0.6-1.6-0.3s0.2-2.1,1.5-2c0.5,0.1,2.5,1,1.2,3.3c1.5-0.4,2.8-0.1,3.8,0.4
			c1,0.6,1.6,1.5,1.8,2.6C59.7-5.3,59.6-4.4,59.3-3.6z M45.6,0.9c0.1-0.3,0.2-0.6,0.2-0.8V0v-0.1v-0.1v-0.1c0.1-0.2,0.2-0.5,0.3-0.8
			c-0.4,0.2-1,0.5-1.6,0.6C45.1,0,45.4,0.5,45.6,0.9z"/>
	</g>
</g>
<g>
	<g>
		<path fill="#6B6B6B" d="M60.6,25.9c-0.5-0.1-0.9-0.3-1.2-0.6c0,0.1-0.1,0.1-0.1,0.2c-0.7,1-2.1,1.2-3.1,0.5s-1.2-2.1-0.5-3.1
			c0-0.1,0.1-0.1,0.2-0.2c-0.5-0.2-0.9-0.5-1.1-1c-0.6-1.1-0.1-2.4,0.9-3c1.7-0.9,5.5,0.2,5.6,0.3c0.2,0.1,2.3,3.3,1.9,5.1
			C62.9,25.3,61.8,26.1,60.6,25.9z M61.2,19c0,0-4.9,3-3.2,4.3C58.1,23.4,59.5,24.8,61.2,19z"/>
	</g>
</g>
<g>
	<g>
		<path fill="#6B6B6B" d="M54.2,19.6c0,0,0.1,1.2-0.3,1.7c-0.3,0.3-0.7,0.4-1,0.1c-0.1-0.1-0.2-0.2-0.2-0.3c0,0,0,0-0.1,0
			c-0.4,0.2-0.8,0-1-0.3c-0.2-0.3,0-0.7,0.4-0.9c0,0,0,0,0.1,0c-0.1-0.1-0.2-0.3-0.1-0.4c0-0.4,0.4-0.7,0.8-0.7
			C53.3,18.7,54.2,19.5,54.2,19.6z M54.1,19.6c0,0-1.9,0.2-1.6,0.8C52.5,20.3,52.7,20.9,54.1,19.6z"/>
	</g>
</g>
<g>
	<g>
		<path fill="#6B6B6B" d="M62.9,25.9c0,0,1.1,0.6,1.3,1.2c0.1,0.4-0.1,0.8-0.4,0.9c-0.2,0.1-0.3,0-0.5,0v0.1
			c-0.1,0.4-0.4,0.7-0.8,0.6c-0.4-0.1-0.6-0.4-0.6-0.8c0,0,0,0,0-0.1c-0.1,0-0.3,0-0.4-0.1c-0.3-0.2-0.4-0.7-0.2-1
			C61.7,26.2,62.8,25.9,62.9,25.9z M62.9,26c-0.9,1.8-0.2,1.8-0.2,1.8C63.3,27.8,62.9,26,62.9,26z"/>
	</g>
</g>
<g>
	<g>
		<path fill="#6B6B6B" d="M69.5,27.7c-0.5,1-1.4,1.9-2.7,2.4c2.5,1.1,1.4,3,1,3.4c-1,0.9-2.3,0.3-2.4-0.7c-0.1-1.1,1.1-1.2,1.1-1.2
			c0-0.9-2.5-0.7-3.3-0.8l0,0c-0.7,0-1.4-0.1-2.1-0.2c0.7,1.4-1.3,2-1.3,2c0.8-0.9,0.3-2.1-1.4-2.7c-2.4-0.9-5,0.5-5.6,0.8l0,0l0,0
			c0.1-0.6,0.7-3.6-0.9-5.6c-1.2-1.4-2.4-1.5-3-0.5c0,0-0.1-2,1.5-1.8c-0.4-0.6-0.7-1.3-0.9-2l0,0c-0.3-0.8-1-3.2-1.8-2.9
			c0,0,0.2,1.2-0.8,1.4s-2-0.8-1.4-2.1c0.2-0.5,1.8-2.1,3.5-0.1c0.1-1.5,0.7-2.6,1.6-3.4c0.9-0.8,2-1.1,3-1c0.8,0.1,1.6,0.5,2.3,1.1
			c2.3,2.2,0.4,4.6-1,4.9c-1.7,0.4-3.1-1.3-2.1-2.5c1.2-1.4,2.6,0.5,2.6,0.5c0.4-0.6-0.2-1.8-1.4-2.3c-1.6-0.7-4.3,1.5-3,5.9
			c0.9,2.8,3.1,4.8,4.4,5.8c0,0,0.2,0.1,0.5,0.4c0.3,0.2,0.5,0.4,0.5,0.4c1.3,0.9,3.9,2.4,6.9,2.4c4.6,0,5.9-3.3,4.7-4.6
			c-0.9-1-2.1-1.2-2.6-0.6c0,0,2.2,0.7,1.2,2.3c-0.9,1.3-2.9,0.4-3-1.3c-0.1-1.5,1.6-4,4.4-2.5c0.8,0.4,1.3,1,1.7,1.7
			C69,25.3,69,26.6,69.5,27.7z M55.8,28.3c-0.3-0.2-0.5-0.4-0.7-0.5c0,0,0,0-0.1-0.1c0,0-0.1,0-0.1-0.1c0,0,0,0-0.1-0.1
			c0,0-0.1,0-0.1-0.1c-0.2-0.1-0.4-0.3-0.7-0.5c0.1,0.5,0.1,1.1,0,1.7C54.7,28.5,55.3,28.3,55.8,28.3z"/>
	</g>
</g>
<g>
	<g>
		<path fill="#6B6B6B" d="M82.8,3.2c-0.1-0.1,0.1-4,1.5-5.2c0.9-0.8,2.3-0.8,3.1,0.1c0.3,0.3,0.5,0.7,0.6,1.2c0.1,0,0.1-0.1,0.2-0.1
			c1.2-0.4,2.4,0.3,2.8,1.5c0.4,1.2-0.3,2.4-1.5,2.8c-0.1,0-0.1,0-0.2,0.1c0.3,0.4,0.4,0.9,0.3,1.5c-0.2,1.2-1.3,2-2.5,1.9
			C85.3,6.5,82.8,3.3,82.8,3.2z M82.9,3.1c0,0,5.7,0.4,5.1-1.6C88.1,1.5,87.7-0.5,82.9,3.1z"/>
	</g>
</g>
<g>
	<g>
		<path fill="#6B6B6B" d="M91.2,6.6c0.4,0.1,0.7,0.4,0.6,0.8C91.7,7.8,91.4,8,91,7.9h-0.1c0,0.2,0,0.3-0.1,0.4
			c-0.2,0.3-0.7,0.3-1,0.1c-0.5-0.3-0.7-1.5-0.7-1.6c0,0,0.6-1,1.2-1.2c0.4-0.1,0.8,0.1,0.9,0.5C91.1,6.3,91.1,6.5,91.2,6.6
			C91.1,6.6,91.1,6.6,91.2,6.6z M89,6.9c0,0,1.6,1,1.7,0.3C90.7,7.2,90.9,6.6,89,6.9z"/>
	</g>
</g>
<g>
	<g>
		<path fill="#6B6B6B" d="M85.7-3.4c0,0-0.5-1.1-0.3-1.7c0.1-0.4,0.5-0.6,0.9-0.5c0.2,0,0.3,0.1,0.4,0.3c0,0,0,0,0.1-0.1
			c0.3-0.3,0.7-0.3,1-0.1c0.3,0.3,0.3,0.7,0,1c0,0,0,0-0.1,0c0.1,0.1,0.2,0.2,0.2,0.3c0.1,0.4-0.1,0.8-0.5,0.9
			C86.8-2.9,85.7-3.4,85.7-3.4z M85.7-3.4c1.7-0.9,1.2-1.3,1.2-1.3C86.5-5.1,85.7-3.4,85.7-3.4z"/>
	</g>
</g>
<g>
	<g>
		<path fill="#6B6B6B" d="M96.6-1.2L96.6-1.2c-0.5,0.4-2.7,2.5-2.6,5c0.1,1.8,1,2.6,2.2,2.2c0,0-1.1,1.7-2.3,0.6
			c-0.1,0.7-0.2,1.4-0.5,2.1l0,0c-0.2,0.8-1.1,3.2-0.3,3.4c0,0,0.5-1.1,1.5-0.7c0.9,0.4,1.1,1.8-0.1,2.5c-0.5,0.3-2.7,0.6-2.9-2
			c-1,1.1-2.1,1.7-3.2,1.8c-0.9-0.8-2-1.1-3-1c-0.6-0.6-1-1.3-1.2-2.2c-0.6-3.2,2.4-4,3.8-3.4c1.6,0.7,1.7,2.9,0.2,3.3
			c-1.8,0.5-1.8-1.9-1.8-1.9c-0.7,0.3-0.9,1.6-0.3,2.7c0.9,1.5,4.4,1.4,5.9-3c1-2.8,0.4-5.7-0.1-7.3c0,0-0.1-0.2-0.2-0.6
			c-0.1-0.4-0.2-0.6-0.2-0.6c-0.5-1.5-1.7-4.3-4.1-6c-3.8-2.7-6.7-0.8-6.5,0.9c0.1,1.3,1,2.3,1.8,2.1c0,0-1.4-1.9,0.4-2.6
			c1.5-0.5,2.6,1.3,1.7,2.8c-0.8,1.3-3.6,2.3-5-0.6c-0.4-0.8-0.5-1.7-0.3-2.4c0.2-1.1,0.9-2,1.9-2.6s2.3-0.8,3.8-0.4
			c-1.3-2.3,0.7-3.3,1.2-3.3c1.3-0.2,2,1.1,1.5,2c-0.5,1-1.6,0.3-1.6,0.3c-0.5,0.7,1.6,2.1,2.2,2.6l0,0c0.6,0.4,1.1,0.9,1.6,1.5
			c0.3-1.6,2.2-0.8,2.2-0.8c-1.2,0.3-1.5,1.5-0.5,3C93-1.7,96-1.3,96.6-1.2L96.6-1.2z M94.4-0.5c-0.7-0.1-1.2-0.4-1.6-0.6
			c0.1,0.3,0.2,0.6,0.3,0.8v0.1v0.1V0v0.1c0.1,0.2,0.2,0.5,0.2,0.8C93.6,0.5,93.9,0,94.4-0.5z"/>
	</g>
</g>
<g>
	<g>
		<path fill="#6B6B6B" d="M83.3,18.6c1.1,0.6,1.5,1.9,0.9,3c-0.3,0.5-0.7,0.8-1.1,1c0.1,0.1,0.1,0.1,0.2,0.2c0.7,1,0.5,2.4-0.5,3.1
			c-1,0.7-2.4,0.5-3.1-0.5c0,0-0.1-0.1-0.1-0.2c-0.3,0.3-0.7,0.5-1.2,0.6c-1.2,0.2-2.3-0.6-2.6-1.8c-0.4-1.9,1.7-5.1,1.9-5.1
			C77.8,18.8,81.6,17.7,83.3,18.6z M77.7,19c1.7,5.7,3.2,4.3,3.2,4.3C82.6,22.1,77.7,19,77.7,19z"/>
	</g>
</g>
<g>
	<g>
		<path fill="#6B6B6B" d="M85.1,21.2c-0.4-0.5-0.3-1.6-0.3-1.7c0,0,0.9-0.9,1.5-0.9c0.4,0,0.7,0.3,0.8,0.7c0,0.2,0,0.3-0.1,0.4h0.1
			c0.4,0.2,0.5,0.6,0.4,0.9c-0.2,0.3-0.6,0.5-1,0.3c0,0,0,0-0.1,0c0,0.1-0.1,0.2-0.2,0.3C85.9,21.6,85.4,21.5,85.1,21.2z M84.9,19.6
			c1.4,1.4,1.6,0.8,1.6,0.8C86.7,19.8,84.9,19.6,84.9,19.6z"/>
	</g>
</g>
<g>
	<g>
		<path fill="#6B6B6B" d="M77.6,26.7c0.2,0.3,0.1,0.8-0.2,1c-0.1,0.1-0.2,0.1-0.4,0.1c0,0,0,0,0,0.1c0.1,0.4-0.2,0.8-0.6,0.8
			c-0.4,0.1-0.7-0.2-0.8-0.6V28c-0.1,0.1-0.3,0.1-0.5,0c-0.4-0.1-0.6-0.5-0.4-0.9c0.2-0.6,1.2-1.2,1.3-1.2
			C76.2,25.9,77.3,26.2,77.6,26.7z M76.1,26c0,0-0.4,1.8,0.2,1.8C76.4,27.7,77,27.7,76.1,26z"/>
	</g>
</g>
<g>
	<g>
		<path fill="#6B6B6B" d="M92.1,19.2c-1.1-0.2-0.8-1.4-0.8-1.4c-0.8-0.3-1.5,2.2-1.8,2.9l0,0c-0.2,0.7-0.5,1.3-0.9,2
			c1.6-0.2,1.5,1.8,1.5,1.8c-0.7-1-1.9-0.9-3,0.5c-1.6,2-1,5-0.9,5.6l0,0l0,0c-0.5-0.3-3.2-1.8-5.6-0.8c-1.7,0.7-2.1,1.8-1.4,2.7
			c0,0-2-0.5-1.3-2c-0.7,0.2-1.4,0.2-2.1,0.2l0,0c-0.8,0.1-3.4-0.1-3.3,0.8c0,0,1.2,0.1,1.1,1.2c-0.1,1-1.4,1.6-2.4,0.7
			c-0.4-0.4-1.5-2.3,1-3.4c-1.4-0.6-2.3-1.4-2.7-2.4c-0.5-1.1-0.5-2.4,0-3.4c0.3-0.7,0.9-1.3,1.7-1.7c2.8-1.5,4.5,1,4.4,2.5
			c-0.2,1.7-2.2,2.6-3,1.3c-1-1.5,1.2-2.3,1.2-2.3c-0.5-0.6-1.8-0.3-2.6,0.6c-1.2,1.3,0.1,4.6,4.7,4.6c2.9,0,5.5-1.5,6.9-2.4
			c0,0,0.2-0.1,0.5-0.4c0.3-0.2,0.5-0.4,0.5-0.4c1.3-1,3.5-3,4.4-5.8c1.4-4.4-1.4-6.6-3-5.9c-1.2,0.5-1.8,1.7-1.4,2.3
			c0,0,1.4-1.9,2.6-0.5c1,1.2-0.4,2.9-2.1,2.5c-1.5-0.3-3.4-2.7-1-4.9c0.7-0.6,1.5-1,2.3-1.1c1.1-0.1,2.2,0.2,3,1
			c0.8,0.7,1.4,1.9,1.6,3.4c1.8-2,3.3-0.4,3.5,0.1C94.1,18.4,93.2,19.4,92.1,19.2z M84.9,27c-0.3,0.2-0.5,0.4-0.7,0.5
			c0,0,0,0-0.1,0.1c0,0-0.1,0-0.1,0.1c0,0,0,0-0.1,0.1c0,0-0.1,0-0.1,0.1c-0.2,0.1-0.4,0.3-0.7,0.5c0.5,0.1,1.1,0.2,1.7,0.5
			C84.8,28.1,84.8,27.5,84.9,27z"/>
	</g>
</g>
<g>
	<path fill="#6B6B6B" d="M76.8-30.8H71v2h5.5c-0.8,2.5-2.9,4.4-5.5,5v-2.6h1.2l-0.7,0.7l0.6,0.6l2.1-2.1h-4v4.4l0.4-0.2
		c3.3-0.5,6-3,6.8-6.2l0.1-0.5h-5.7V-30h5.9v-1h-0.8L76.8-30.8L76.8-30.8z"/>
</g>
<g>
	<path fill="#6B6B6B" d="M61.3-31v1h5.9v0.3h-5.7l0.1,0.5c0.8,3.2,3.5,5.7,6.8,6.2l0.5,0.1v-4.4h-4l2.1,2.1l0.6-0.6l-0.7-0.7H68v2.6
		c-2.6-0.5-4.7-2.5-5.5-5H68v-2h-5.9V-31H61.3z"/>
</g>
<g>
	<polygon fill="#6B6B6B" points="70.7,-31 69.8,-31 69.8,-28.6 69.2,-28.6 69.2,-31 68.3,-31 68.3,-27.8 70.7,-27.8 	"/>
</g>
<g>
	<path fill="#6B6B6B" d="M40.2,7.5v-2h-5.9V5.2H40l-0.1-0.5c-0.8-3.2-3.5-5.7-6.8-6.2l-0.5-0.1v4.4h4l-2.1-2.1L34,1.3L34.7,2h-1.2
		v-2.6c2.6,0.5,4.7,2.5,5.5,5h-5.5v2h5.9v0.4h-5.9v2H39c-0.8,2.5-2.9,4.4-5.5,5v-2.6h1.2L34,11.7l0.6,0.6l2.1-2.1h-4v4.4l0.5-0.1
		c3.3-0.5,6-3,6.8-6.2V7.8h-5.7V7.5H40.2z"/>
</g>
<g>
	<polygon fill="#6B6B6B" points="33.2,3.3 32,3.3 32,4.2 32.4,4.2 32.4,8.9 32,8.9 32,9.7 33.2,9.7 	"/>
</g>
<g>
	<path fill="#6B6B6B" d="M99,7.8l0.1,0.5c0.8,3.2,3.5,5.7,6.8,6.2l0.5,0.1v-4.4h-4l2.1,2.1l0.6-0.6l-0.7-0.7h1.2v2.6
		c-2.6-0.5-4.7-2.5-5.5-5h5.5v-2h-5.9V6.2h5.9v-2H100c0.8-2.5,2.9-4.4,5.5-5v2.6h-1.2l0.7-0.7l-0.6-0.6l-2.1,2.1h4v-4.4l-0.5,0.1
		c-3.3,0.5-6,3-6.8,6.2v0.7h5.7v0.3h-5.9v2h5.9v0.3H99z"/>
</g>
<g>
	<polygon fill="#6B6B6B" points="107,8.9 106.6,8.9 106.6,4.2 107,4.2 107,3.3 105.8,3.3 105.8,9.7 107,9.7 	"/>
</g>
<g>
	<path fill="#6B6B6B" d="M77.6,44v-1h-5.9v-0.3h5.7l-0.1-0.5c-0.8-3.2-3.5-5.7-6.8-6.2L70,35.9v4.4h4l-2.1-2.1l-0.6,0.6l0.7,0.7h-1
		v-2.6c2.6,0.5,4.7,2.5,5.5,5H71v2h5.9V44H77.6z"/>
</g>
<g>
	<path fill="#6B6B6B" d="M62.2,43.8H68v-2h-5.5c0.8-2.5,2.9-4.4,5.5-5v2.6h-1.2l0.7-0.7l-0.6-0.6l-2.1,2.1h4v-4.4L68.4,36
		c-3.3,0.5-6,3-6.8,6.2l-0.1,0.5h5.7V43h-5.9v1h0.8v-0.2H62.2z"/>
</g>
<g>
	<polygon fill="#6B6B6B" points="68.3,44 69.2,44 69.2,41.6 69.8,41.6 69.8,44 70.7,44 70.7,40.8 68.3,40.8 	"/>
</g>
</svg>
